<?xml version="1.0" encoding="UTF-8"?>
<svg version="1.1" xmlns="http://www.w3.org/2000/svg" width="512" height="512">
<path d="M0 0 C0.73856232 -0.00570007 1.47712463 -0.01140015 2.23806763 -0.01727295 C3.79981051 -0.02671145 5.3615732 -0.03325237 6.92333984 -0.03710938 C9.30471776 -0.04681146 11.68523094 -0.07784278 14.06640625 -0.109375 C15.58593239 -0.11590594 17.10546469 -0.12115606 18.625 -0.125 C19.33349091 -0.1373468 20.04198181 -0.1496936 20.77194214 -0.16241455 C25.1686763 -0.14273941 27.96064368 0.48022861 31.4453125 3.203125 C32.51953125 5.515625 32.51953125 5.515625 33.1328125 8.203125 C33.49632812 9.66105469 33.49632812 9.66105469 33.8671875 11.1484375 C34.4453125 14.203125 34.4453125 14.203125 34.6484375 17.1953125 C34.89368415 20.21184626 35.16461782 22.45233712 36.4453125 25.203125 C40.20420553 27.70521024 44.15895717 28.87947365 48.4453125 30.203125 C49.58613281 30.83605469 50.72695313 31.46898438 51.90234375 32.12109375 C55.52692442 33.68062884 55.52692442 33.68062884 58.9453125 31.37890625 C60.13248179 30.45010528 61.29896825 29.49436758 62.4453125 28.515625 C66.90672049 24.85587626 70.5340449 22.02935899 76.4453125 21.203125 C81.04496222 23.06145956 84.12222011 25.51341901 87.58984375 29.01953125 C88.51345703 29.94830078 89.43707031 30.87707031 90.38867188 31.83398438 C91.09479614 32.55557739 91.09479614 32.55557739 91.81518555 33.29174805 C93.26415579 34.7721057 94.72374365 36.2413075 96.18554688 37.70898438 C104.29186826 45.90645203 104.29186826 45.90645203 104.87890625 50.8671875 C104.82922212 55.37120558 103.07232621 57.40306572 100.17529297 60.68310547 C95.0946141 66.42402962 95.0946141 66.42402962 93.49853516 73.66015625 C94.65326383 79.14485088 96.72756396 84.93083144 100.4453125 89.203125 C103.75581519 90.77252795 103.75581519 90.77252795 107.4453125 91.203125 C108.63511719 91.43773437 109.82492187 91.67234375 111.05078125 91.9140625 C113.44543017 92.3579996 115.84128721 92.79546715 118.23828125 93.2265625 C121.760363 94.29905999 123.19387307 95.33374874 125.4453125 98.203125 C127.21599278 103.51516585 126.63122459 109.26321238 126.63061523 114.82666016 C126.63279776 117.06302024 126.65095371 119.29888367 126.66992188 121.53515625 C126.6728569 122.96353999 126.67484096 124.39192606 126.67578125 125.8203125 C126.67989014 127.11565918 126.68399902 128.41100586 126.68823242 129.74560547 C126.45367688 133.08407345 126.03271626 135.27543049 124.4453125 138.203125 C121.36780571 140.25479619 120.27372364 140.50016048 116.734375 140.81640625 C106.25581215 141.5953477 106.25581215 141.5953477 98.01953125 147.14453125 C96.77955991 150.51894241 96.03820407 153.66259522 95.4453125 157.203125 C94.98898437 158.18023437 94.53265625 159.15734375 94.0625 160.1640625 C93.36144662 163.61608482 93.56997515 163.97862783 95.40234375 166.78125 C96.33348942 168.02101151 97.28626168 169.24476666 98.2578125 170.453125 C99.20238957 171.68706644 100.14642505 172.9214227 101.08984375 174.15625 C101.86714844 175.16171875 102.64445312 176.1671875 103.4453125 177.203125 C105.12205821 180.55661641 105.31110235 183.62349164 104.4453125 187.203125 C102.11435596 190.50562603 99.24009702 193.11651389 96.2578125 195.828125 C94.72058135 197.27644672 93.18537779 198.72692391 91.65234375 200.1796875 C90.92225098 200.86321289 90.1921582 201.54673828 89.43994141 202.25097656 C87.68922861 203.96440367 86.12044676 205.69916492 84.58203125 207.6015625 C81.75171725 211.04761208 80.22208172 212.10252432 75.765625 212.6796875 C69.69900568 212.52712048 65.80711548 208.56756739 61.26953125 204.9375 C59.36357255 203.49973618 57.60393286 202.22516215 55.4453125 201.203125 C52.30503874 201.65777268 52.30503874 201.65777268 49.4453125 203.203125 C47.81722656 203.47576172 47.81722656 203.47576172 46.15625 203.75390625 C42.08580242 204.683341 39.69070239 205.52384174 36.4453125 208.203125 C34.31528792 213.36778278 33.86130846 218.88647544 33.25390625 224.39453125 C32.84389526 227.3782189 32.46509527 229.16570857 31.04296875 231.85546875 C28.4453125 233.203125 28.4453125 233.203125 17.4453125 233.203125 C17.4453125 252.013125 17.4453125 270.823125 17.4453125 290.203125 C22.26600342 290.18217773 27.08669434 290.16123047 32.0534668 290.13964844 C47.95910226 290.07344802 63.86474306 290.02901376 79.77048016 289.99587631 C89.41663825 289.97524595 99.06266588 289.9471163 108.70874023 289.90136719 C117.11569343 289.86151393 125.52255216 289.83569563 133.9295972 289.82677102 C138.38162194 289.8215537 142.8333764 289.80928135 147.28531456 289.78020477 C151.47549146 289.75305948 155.66528666 289.74467816 159.85554314 289.75069427 C161.39345626 289.74959363 162.93138211 289.74163424 164.46921921 289.7263031 C166.56988841 289.70638778 168.66911836 289.71118977 170.76982117 289.72210693 C171.94510722 289.71841976 173.12039328 289.71473259 174.33129406 289.71093369 C178.11556531 290.30906291 179.76568927 291.50831975 182.4453125 294.203125 C183.38668505 297.02724265 183.56256632 298.73230532 183.54296875 301.65234375 C183.53974609 302.49990234 183.53652344 303.34746094 183.53320312 304.22070312 C183.52482422 305.10177734 183.51644531 305.98285156 183.5078125 306.890625 C183.50104492 308.22963867 183.50104492 308.22963867 183.49414062 309.59570312 C183.48236233 311.79824487 183.46591414 314.00065099 183.4453125 316.203125 C184.07695312 316.26628906 184.70859375 316.32945312 185.359375 316.39453125 C200.75394389 318.50185696 213.09003237 326.87381749 222.5703125 338.8984375 C232.2175851 353.16143105 235.59911384 369.32263409 233.14501953 386.27783203 C230.11579393 401.27732237 221.58438049 414.53737274 209.2265625 423.55078125 C206.4453125 425.203125 206.4453125 425.203125 204.4453125 425.203125 C204.44120361 424.58904785 204.43709473 423.9749707 204.43286133 423.34228516 C204.40423825 405.51914053 204.40423825 405.51914053 196.0078125 390.328125 C188.25203985 383.89650866 181.53747733 381.68158405 171.50390625 381.89453125 C163.07065669 382.74539551 155.9091511 386.74241978 150.4453125 393.203125 C147.22335996 398.73180879 145.4308109 404.36687319 145.12890625 410.75 C145.08701172 411.59433594 145.04511719 412.43867188 145.00195312 413.30859375 C144.94297852 414.61763672 144.94297852 414.61763672 144.8828125 415.953125 C144.83962891 416.84128906 144.79644531 417.72945313 144.75195312 418.64453125 C144.64617635 420.83058463 144.54408704 423.01674589 144.4453125 425.203125 C133.11593096 421.11359004 125.73513208 410.30773946 120.6328125 399.828125 C114.30024804 384.7882844 113.16579869 368.50319515 119.25976562 353.15136719 C126.31183419 336.95856006 136.39033533 326.17702403 152.93359375 319.16796875 C157.55352345 317.39328347 161.42548244 316.203125 166.4453125 316.203125 C166.4453125 313.233125 166.4453125 310.263125 166.4453125 307.203125 C117.2753125 307.203125 68.1053125 307.203125 17.4453125 307.203125 C17.4453125 310.173125 17.4453125 313.143125 17.4453125 316.203125 C19.0540625 316.2959375 19.0540625 316.2959375 20.6953125 316.390625 C34.17990031 318.12673595 46.831506 326.40733712 55.4453125 336.60546875 C66.03551843 350.36032607 69.36306172 365.03781551 68.4453125 382.203125 C66.12234478 399.56632441 57.16372831 413.13885503 43.546875 423.8046875 C41.4453125 425.203125 41.4453125 425.203125 39.4453125 425.203125 C39.4359668 424.61934082 39.42662109 424.03555664 39.41699219 423.43408203 C39.50629743 408.23509093 39.50629743 408.23509093 34.4453125 394.203125 C33.8884375 393.275 33.3315625 392.346875 32.7578125 391.390625 C26.12348355 385.11490842 18.00310802 382.28496956 8.94140625 382.171875 C0.9039056 382.67500493 -7.90305721 385.2285444 -13.5546875 391.203125 C-17.39883424 397.12814889 -19.56901193 402.11015458 -19.87109375 409.1875 C-19.91298828 410.12207031 -19.95488281 411.05664062 -19.99804688 412.01953125 C-20.03736328 412.98761719 -20.07667969 413.95570313 -20.1171875 414.953125 C-20.16037109 415.93667969 -20.20355469 416.92023438 -20.24804688 417.93359375 C-20.35390802 420.35663775 -20.45598921 422.7797804 -20.5546875 425.203125 C-31.8801675 421.2673199 -39.28015404 410.49953666 -44.5546875 400.203125 C-51.20626706 384.41940444 -51.70923483 367.04934889 -45.30078125 351.078125 C-38.44943154 336.44199919 -27.59400062 325.349222 -12.5546875 319.203125 C-7.76589045 317.49185458 -3.66677566 316.203125 1.4453125 316.203125 C1.4453125 313.233125 1.4453125 310.263125 1.4453125 307.203125 C-47.7246875 307.203125 -96.8946875 307.203125 -147.5546875 307.203125 C-147.5546875 310.173125 -147.5546875 313.143125 -147.5546875 316.203125 C-146.4821875 316.265 -145.4096875 316.326875 -144.3046875 316.390625 C-134.7339701 317.61025624 -126.18137626 322.53278125 -118.5546875 328.203125 C-117.03875 329.2859375 -117.03875 329.2859375 -115.4921875 330.390625 C-103.33470619 340.96087958 -97.89747901 356.64311175 -96.234375 372.19921875 C-95.61124748 387.50738483 -101.22601981 402.82565508 -110.9296875 414.578125 C-114.69781764 418.59404601 -118.93871049 422.19474894 -123.5546875 425.203125 C-124.2146875 425.203125 -124.8746875 425.203125 -125.5546875 425.203125 C-125.61076172 423.31980469 -125.61076172 423.31980469 -125.66796875 421.3984375 C-125.70221314 406.99279335 -125.70221314 406.99279335 -131.15625 394.07421875 C-132.5546875 392.203125 -132.5546875 392.203125 -132.5546875 390.203125 C-133.328125 389.831875 -133.328125 389.831875 -134.1171875 389.453125 C-136.5546875 388.203125 -136.5546875 388.203125 -139.6796875 386.203125 C-147.28140776 381.88470094 -156.12582556 381.26506015 -164.5546875 383.203125 C-172.41202968 386.01696873 -178.67323266 389.60776013 -182.5546875 397.203125 C-185.02100602 402.8478681 -184.99197656 408.51662588 -185.1796875 414.578125 C-185.21835938 415.60035156 -185.25703125 416.62257813 -185.296875 417.67578125 C-185.39066714 420.18472097 -185.47636629 422.69366264 -185.5546875 425.203125 C-195.31880441 421.86734129 -202.56080606 412.92967802 -207.5546875 404.203125 C-215.29985439 388.2802154 -217.49445204 371.31844345 -211.80078125 354.3359375 C-205.6897202 338.97207869 -195.51101343 327.43781289 -180.5546875 320.203125 C-170.0546875 316.203125 -170.0546875 316.203125 -164.5546875 316.203125 C-164.60689453 314.23279297 -164.60689453 314.23279297 -164.66015625 312.22265625 C-164.68830216 310.48699199 -164.71560146 308.75131385 -164.7421875 307.015625 C-164.76732422 306.15130859 -164.79246094 305.28699219 -164.81835938 304.39648438 C-164.87449621 299.51257956 -164.82039207 296.12349296 -161.5546875 292.203125 C-157.96139572 289.80759715 -156.38952125 289.95592871 -152.1197052 289.96261597 C-151.46377355 289.96090712 -150.8078419 289.95919827 -150.13203353 289.95743763 C-147.93011563 289.95413858 -145.72850124 289.96515302 -143.52661133 289.97607422 C-141.94983426 289.97663824 -140.37305667 289.97632194 -138.79627991 289.97518921 C-134.51142441 289.97461436 -130.22668043 289.98639009 -125.9418509 290.00033712 C-121.46552737 290.0128224 -116.98920141 290.01401324 -112.51286316 290.01638794 C-104.03435579 290.02260919 -95.55589986 290.03902873 -87.07741517 290.05908692 C-77.42578313 290.08142585 -67.77414865 290.0924343 -58.1224972 290.10247779 C-38.26652552 290.12339441 -18.41062439 290.16007869 1.4453125 290.203125 C1.4453125 271.393125 1.4453125 252.583125 1.4453125 233.203125 C-2.1846875 233.203125 -5.8146875 233.203125 -9.5546875 233.203125 C-12.15234375 231.85546875 -12.15234375 231.85546875 -13.5546875 229.203125 C-14.06832212 226.68592753 -14.38588593 224.18954705 -14.66748047 221.63598633 C-15.44707779 212.68034006 -15.44707779 212.68034006 -20.48828125 205.78125 C-23.86589876 204.5390842 -27.01054472 203.79662159 -30.5546875 203.203125 C-31.51890625 202.73519531 -32.483125 202.26726562 -33.4765625 201.78515625 C-37.06939255 201.10580133 -37.4649903 201.44022595 -40.359375 203.4140625 C-41.73129228 204.44897109 -43.08777568 205.50459555 -44.4296875 206.578125 C-51.92200256 212.55465377 -51.92200256 212.55465377 -56.83984375 212.7109375 C-61.7349946 212.04177913 -61.7349946 212.04177913 -64.1171875 209.703125 C-64.97763672 208.87361328 -64.97763672 208.87361328 -65.85546875 208.02734375 C-68.14704025 205.56719688 -70.35596213 203.05265788 -72.51171875 200.47265625 C-74.54742001 198.21119844 -76.72883773 196.1804083 -78.97045898 194.12597656 C-86.31000293 187.26333223 -86.31000293 187.26333223 -86.7421875 183.265625 C-85.75503217 176.64345798 -80.16066465 169.94398709 -75.66796875 165.21875 C-74.22298223 163.14752103 -74.22298223 163.14752103 -75.28515625 160.3671875 C-75.70410156 159.32304687 -76.12304688 158.27890625 -76.5546875 157.203125 C-76.82732422 155.57503906 -76.82732422 155.57503906 -77.10546875 153.9140625 C-78.0349035 149.84361492 -78.87540424 147.44851489 -81.5546875 144.203125 C-86.71934528 142.07310042 -92.23803794 141.61912096 -97.74609375 141.01171875 C-101.10680006 140.59107699 -102.35075685 140.35292021 -105.14453125 138.30078125 C-108.83151737 132.81626174 -107.77817432 125.98812345 -107.79492188 119.63452148 C-107.80460771 117.40895938 -107.83563282 115.18432908 -107.8671875 112.95898438 C-107.87372022 111.53385962 -107.87896964 110.10872829 -107.8828125 108.68359375 C-107.8921582 107.39348389 -107.90150391 106.10337402 -107.91113281 104.77416992 C-107.52472318 100.90292763 -106.58873006 98.49813859 -104.5546875 95.203125 C-101.0193018 93.03834173 -97.35868386 92.94201793 -93.32275391 92.57128906 C-85.98466225 91.91721566 -85.98466225 91.91721566 -80.4375 87.5859375 C-79.1886837 84.47553168 -78.35569116 81.45472402 -77.5546875 78.203125 C-76.91660156 77.08292969 -76.27851563 75.96273437 -75.62109375 74.80859375 C-74.21835877 71.45035688 -74.21835877 71.45035688 -75.34472656 69.27880859 C-76.7529633 67.17372851 -78.2582875 65.22157963 -79.8671875 63.265625 C-86.64266735 54.89973312 -86.64266735 54.89973312 -86.18823242 49.19946289 C-84.85602676 45.00160327 -81.6243349 42.22471815 -78.5546875 39.203125 C-77.24064972 37.80091868 -75.92815782 36.39726212 -74.6171875 34.9921875 C-73.26569681 33.60156098 -71.91151513 32.21354478 -70.5546875 30.828125 C-69.88179687 30.11785156 -69.20890625 29.40757813 -68.515625 28.67578125 C-64.39812812 24.48674485 -61.4568602 22.00148653 -55.5546875 21.203125 C-51.26376914 22.77646173 -48.48295366 24.28267253 -45.234375 27.50390625 C-42.34059596 30.20742153 -40.30401252 31.86314505 -36.5546875 33.203125 C-30.37233551 32.56544673 -23.53610024 29.93390378 -18.5546875 26.203125 C-16.96006769 23.4403842 -16.96006769 23.4403842 -16.5546875 20.203125 C-16.18537109 18.35847656 -16.18537109 18.35847656 -15.80859375 16.4765625 C-15.34683971 13.87300019 -14.88851768 11.26882692 -14.43359375 8.6640625 C-13.5917824 5.34919648 -12.9385176 3.60452633 -10.5546875 1.203125 C-6.98690773 0.01386508 -3.71523261 0.02215918 0 0 Z M-36.5546875 76.203125 C-47.0182656 88.89124333 -52.36471275 104.29679017 -51.90234375 120.78125 C-50.25296242 137.01561007 -44.08435591 149.63376754 -32.5546875 161.203125 C-31.93980469 161.84121094 -31.32492188 162.47929687 -30.69140625 163.13671875 C-19.94614395 173.46781676 -5.20509602 178.09236875 9.4453125 178.578125 C26.27790832 178.02001506 40.90505675 171.94270913 52.75390625 160.08984375 C64.86431312 147.10059748 71.0790394 132.40833529 70.68359375 114.61328125 C69.52993948 98.10278647 62.88286797 82.3618605 50.4453125 71.203125 C24.58218341 50.40804298 -13.66105329 50.76575365 -36.5546875 76.203125 Z M-172.484375 342.43359375 C-176.73889504 348.67287792 -178.24555022 353.67900197 -177.5546875 361.203125 C-175.43952347 367.77126593 -172.00324594 373.02386845 -165.9921875 376.578125 C-160.6369617 378.95822535 -155.28934041 379.17609953 -149.5546875 378.203125 C-143.31824178 375.70854671 -138.55964776 372.33825221 -135.5546875 366.203125 C-133.13331089 360.09203164 -132.96548205 354.44388519 -135.2734375 348.28515625 C-138.1769809 342.61573745 -142.71928818 338.55918554 -148.4296875 335.828125 C-157.53545394 334.00697171 -166.06316441 335.01150621 -172.484375 342.43359375 Z M-9.14453125 345.1953125 C-12.5372375 350.02592472 -13.52892317 355.39873143 -12.5546875 361.203125 C-10.10534736 368.56253769 -6.30450999 373.37634279 0.4453125 377.203125 C6.52074816 379.22827022 13.89766781 379.30358989 19.8203125 376.703125 C24.99746158 373.67233564 27.98906231 368.85085262 30.8203125 363.703125 C32.45859588 357.14999148 31.76320922 351.06513334 28.4453125 345.203125 C24.12553504 339.62201717 19.24481921 335.8325685 12.0625 334.890625 C2.58442329 334.42686589 -3.26254789 337.93327382 -9.14453125 345.1953125 Z M156.671875 344.421875 C152.93933739 349.84237548 151.89627616 355.20162189 153.0703125 361.703125 C154.60746538 367.71851662 157.51951244 371.65411191 162.3203125 375.515625 C168.72673126 378.97509113 174.40672949 380.07766171 181.4453125 378.203125 C187.95796871 375.22295193 191.85416012 371.21494915 195.1953125 364.890625 C197.65007386 357.64907899 196.75638513 351.91202326 193.4453125 345.203125 C190.28010505 339.75896819 185.24313663 337.23569553 179.4453125 335.203125 C169.72623267 333.50521346 162.74144627 336.96206673 156.671875 344.421875 Z " fill="#FFBD73" transform="translate(246.5546875,38.796875)"/>
<path d="M0 0 C10.03869855 8.32641217 15.62695537 19.56313572 16.99609375 32.546875 C17.40117685 47.27076521 12.870935 59.43388167 2.87890625 70.17578125 C-7.95473719 80.25050045 -20.27213332 82.0073711 -34.4921875 81.59375 C-46.79605224 80.92970179 -56.74611766 75.35335578 -65.1640625 66.5 C-73.84725813 55.91223552 -76.580949 42.63494548 -75.3515625 29.25 C-72.58753308 15.69683303 -66.44708033 5.53072569 -55.3515625 -2.75 C-37.74257028 -13.65587131 -16.49047541 -12.2719817 0 0 Z " fill="#FFBD73" transform="translate(285.3515625,119.75)"/>
<path d="M0 0 C3.60972512 2.79937866 4.52133682 4.07068628 6.0625 8.375 C6.42235507 12.84018616 6.34455989 17.27416526 6.25 21.75 C6.22969727 23.56951172 6.22969727 23.56951172 6.20898438 25.42578125 C6.17374582 28.40931206 6.12447525 31.39192458 6.0625 34.375 C4.50098265 34.70776996 2.93823048 35.03474794 1.375 35.359375 C0.50488281 35.54209961 -0.36523438 35.72482422 -1.26171875 35.91308594 C-7.40771438 36.97405526 -13.16777854 36.63664151 -19.25 35.359375 C-20.13300781 35.17600586 -21.01601562 34.99263672 -21.92578125 34.80371094 C-22.58964844 34.66223633 -23.25351563 34.52076172 -23.9375 34.375 C-24.05429952 30.18773706 -24.12495327 26.00089699 -24.1875 21.8125 C-24.22101563 20.63107422 -24.25453125 19.44964844 -24.2890625 18.23242188 C-24.36587041 11.37731584 -24.1885267 6.87814729 -19.9375 1.375 C-14.20845385 -2.85358168 -6.34675904 -3.21371909 0 0 Z " fill="#FFBD73" transform="translate(264.9375,436.625)"/>
<path d="M0 0 C3.18723739 2.27659813 5.23243308 4.22232447 6.625 7.875 C7.11600752 12.50996108 7.00104925 17.09587373 6.875 21.75 C6.85695313 23.01070313 6.83890625 24.27140625 6.8203125 25.5703125 C6.77330729 28.67265614 6.70760676 31.7734338 6.625 34.875 C5.06348265 35.20776996 3.50073048 35.53474794 1.9375 35.859375 C1.06738281 36.04209961 0.19726562 36.22482422 -0.69921875 36.41308594 C-6.84521438 37.47405526 -12.60527854 37.13664151 -18.6875 35.859375 C-19.57050781 35.67600586 -20.45351563 35.49263672 -21.36328125 35.30371094 C-22.02714844 35.16223633 -22.69101562 35.02076172 -23.375 34.875 C-23.46246928 30.83347085 -23.51554982 26.79218695 -23.5625 22.75 C-23.58763672 21.60789062 -23.61277344 20.46578125 -23.63867188 19.2890625 C-23.70215463 12.00970651 -23.28411337 7.23866234 -18.375 1.5625 C-13.38441568 -2.64830552 -5.864832 -1.954944 0 0 Z " fill="#FFBD73" transform="translate(429.375,436.125)"/>
<path d="M0 0 C3.38795887 2.88972962 5.70953643 5.56610928 7.125 9.8125 C7.20766486 11.73156917 7.23240663 13.65339474 7.22265625 15.57421875 C7.21943359 16.69248047 7.21621094 17.81074219 7.21289062 18.96289062 C7.20451172 20.13013672 7.19613281 21.29738281 7.1875 22.5 C7.18298828 23.67884766 7.17847656 24.85769531 7.17382812 26.07226562 C7.16203273 28.98572789 7.1455727 31.89908863 7.125 34.8125 C5.56348265 35.14526996 4.00073048 35.47224794 2.4375 35.796875 C1.56738281 35.97959961 0.69726562 36.16232422 -0.19921875 36.35058594 C-6.34521438 37.41155526 -12.10527854 37.07414151 -18.1875 35.796875 C-19.07050781 35.61350586 -19.95351562 35.43013672 -20.86328125 35.24121094 C-21.52714844 35.09973633 -22.19101563 34.95826172 -22.875 34.8125 C-22.99151725 30.43772526 -23.06236 26.06335173 -23.125 21.6875 C-23.15851563 20.45 -23.19203125 19.2125 -23.2265625 17.9375 C-23.34956157 6.4985863 -23.34956157 6.4985863 -18.875 1.8125 C-13.29930213 -2.17014134 -6.28202996 -2.5947515 0 0 Z " fill="#FFBD73" transform="translate(98.875,436.1875)"/>
<path d="M0 0 C2.61321414 2.19172799 2.94109015 3.64654092 3.5 7 C3 10 3 10 0.875 12.4375 C-2 14 -2 14 -5.125 14.0625 C-8 13 -8 13 -9.9375 10.75 C-11.17354048 7.55083641 -11.17724372 6.19537581 -10 3 C-7.55505896 -0.93907167 -4.29123808 -0.53640476 0 0 Z " fill="#FFBD73" transform="translate(425,389)"/>
<path d="M0 0 C2.4375 1.5625 2.4375 1.5625 4 4 C4.0625 7.5625 4.0625 7.5625 3 11 C0.8125 13.0625 0.8125 13.0625 -2 14 C-5.1875 13.375 -5.1875 13.375 -8 12 C-10 9 -10 9 -9.8125 5.4375 C-8.47838541 -0.20683097 -5.29818245 -0.64875703 0 0 Z " fill="#FFBD73" transform="translate(259,389)"/>
<path d="M0 0 C2.65457921 1.64766985 2.97720091 2.92346021 3.875 5.9375 C4 9 4 9 2.875 11.3125 C0.50172568 13.44844689 -0.80734234 13.92398434 -4 14 C-6.2831838 12.8584081 -8.19012683 11.80987317 -10 10 C-10.39588785 6.43700935 -10.42667508 4.62360205 -8.375 1.625 C-5.32214079 -0.46379841 -3.63031776 -0.54068562 0 0 Z " fill="#FFBD73" transform="translate(94,389)"/>
</svg>
