<?xml version="1.0" encoding="UTF-8"?>
<svg version="1.1" xmlns="http://www.w3.org/2000/svg" width="512" height="512">
<path d="M0 0 C2.7319064 2.17875179 5.36104234 4.42762756 7.9609375 6.76171875 C8.64414062 7.36242187 9.32734375 7.963125 10.03125 8.58203125 C28.57199023 25.92175187 41.57187082 52.23344232 49.9609375 75.76171875 C51.75269643 75.61702344 53.54433892 75.47088614 55.3359375 75.32421875 C56.33367187 75.24300781 57.33140625 75.16179687 58.359375 75.078125 C60.24540224 74.9124328 62.13156395 74.74095178 64.01098633 74.51220703 C72.28860384 73.54270105 80.57590088 73.51820656 88.8984375 73.51171875 C89.6768399 73.51104401 90.45524231 73.51036926 91.25723267 73.50967407 C103.04059822 73.52588937 114.47242617 73.88889023 125.9609375 76.76171875 C126.65622559 76.9333252 127.35151367 77.10493164 128.06787109 77.28173828 C146.22115831 81.95258868 163.87239639 91.46018856 173.83984375 107.8515625 C184.15452589 126.99509574 183.40342888 147.03704531 177.96484375 167.51171875 C171.27601657 188.99002887 159.83610268 209.293628 145.26220703 226.3996582 C142.61433438 229.57033107 141.9609375 230.44750848 141.9609375 234.76171875 C143.36918141 236.91459761 143.36918141 236.91459761 145.3359375 239.07421875 C166.44104292 264.49712351 183.92838803 297.98096438 181.9609375 331.76171875 C179.96936783 348.97326579 172.82218163 362.51694741 159.625 373.75 C142.77891394 386.37057278 120.72217047 391.89624698 99.90234375 391.9296875 C99.15492416 391.9330159 98.40750458 391.9363443 97.63743591 391.93977356 C96.06176359 391.94480464 94.48608074 391.94718308 92.91040039 391.94702148 C90.56051866 391.94918462 88.21112567 391.96731642 85.86132812 391.98632812 C76.62538858 392.01941534 67.66700454 391.44208156 58.51538086 390.19262695 C55.60703843 389.84004612 52.88240426 389.67246249 49.9609375 389.76171875 C49.74066895 390.29837158 49.52040039 390.83502441 49.29345703 391.38793945 C35.33873546 425.17701979 17.19621948 460.74130413 -18.1640625 475.99560547 C-32.71117764 481.9394658 -48.47313367 481.27441037 -63.0390625 475.76171875 C-72.36496139 471.54994251 -80.44398094 465.58030634 -88.0390625 458.76171875 C-88.72226563 458.16101563 -89.40546875 457.5603125 -90.109375 456.94140625 C-108.65011523 439.60168563 -121.64999582 413.28999518 -130.0390625 389.76171875 C-131.83082143 389.90641406 -133.62246392 390.05255136 -135.4140625 390.19921875 C-136.41179687 390.28042969 -137.40953125 390.36164063 -138.4375 390.4453125 C-140.31699352 390.61043069 -142.19669192 390.78109072 -144.06933594 391.01123047 C-152.53661635 392.00961129 -161.02525064 392.00529824 -169.5390625 392.01171875 C-170.34275269 392.01239349 -171.14644287 392.01306824 -171.9744873 392.01376343 C-183.59122023 391.99825783 -194.73531138 391.68489944 -206.0390625 388.76171875 C-206.70663574 388.59542969 -207.37420898 388.42914063 -208.06201172 388.2578125 C-226.55863338 383.53861775 -242.88091117 374.65855568 -253.5390625 358.38671875 C-264.4602811 339.31432037 -263.50333913 318.56840724 -258.04296875 298.01171875 C-251.35414157 276.53340863 -239.91422768 256.2298095 -225.34033203 239.1237793 C-222.69245938 235.95310643 -222.0390625 235.07592902 -222.0390625 230.76171875 C-223.44730641 228.60883989 -223.44730641 228.60883989 -225.4140625 226.44921875 C-246.51916792 201.02631399 -264.00651303 167.54247312 -262.0390625 133.76171875 C-260.04749283 116.55017171 -252.90030663 103.00649009 -239.703125 91.7734375 C-222.85703894 79.15286472 -200.80029547 73.62719052 -179.98046875 73.59375 C-178.85933937 73.5887574 -178.85933937 73.5887574 -177.71556091 73.58366394 C-176.13988859 73.57863286 -174.56420574 73.57625442 -172.98852539 73.57641602 C-170.63864366 73.57425288 -168.28925067 73.55612108 -165.93945312 73.53710938 C-156.70351358 73.50402216 -147.74512954 74.08135594 -138.59350586 75.33081055 C-135.68516343 75.68339138 -132.96052926 75.85097501 -130.0390625 75.76171875 C-129.81879395 75.22506592 -129.59852539 74.68841309 -129.37158203 74.13549805 C-115.41686046 40.34641771 -97.27434448 4.78213337 -61.9140625 -10.47216797 C-40.32513249 -19.29326984 -18.15646028 -13.37230301 0 0 Z M-80.0390625 14.76171875 C-81.05033203 15.63183594 -81.05033203 15.63183594 -82.08203125 16.51953125 C-98.76241976 31.85861017 -112.36580448 57.23291651 -119.0390625 78.76171875 C-118.28109375 78.95765625 -117.523125 79.15359375 -116.7421875 79.35546875 C-112.50154284 80.46839812 -108.26933038 81.61003485 -104.0390625 82.76171875 C-103.03069336 83.0354834 -102.02232422 83.30924805 -100.98339844 83.59130859 C-85.9258226 87.70704599 -71.1421225 92.26558718 -56.5 97.68359375 C-55.58186523 98.02068359 -54.66373047 98.35777344 -53.71777344 98.70507812 C-51.0390625 99.76171875 -51.0390625 99.76171875 -48.46191406 101.02148438 C-43.92938466 103.17747929 -41.01751339 104.19509554 -36.09765625 102.7734375 C-34.39927368 102.1343537 -32.71289247 101.46259299 -31.0390625 100.76171875 C-29.28037143 100.10043506 -27.52124445 99.44030971 -25.76171875 98.78125 C-23.87496893 98.0456526 -21.98825161 97.30997185 -20.1015625 96.57421875 C-3.13944408 90.09525221 14.32308273 84.65067718 32.11499023 80.9519043 C35.93290688 80.15663216 35.93290688 80.15663216 38.9609375 77.76171875 C24.99381992 45.84314872 8.78552861 13.14414206 -25.0390625 -1.23828125 C-45.30000264 -8.44003722 -65.09444821 1.3278353 -80.0390625 14.76171875 Z M-240.0390625 107.76171875 C-249.06235631 118.85359375 -252.39356809 132.64810492 -251.0390625 146.76171875 C-247.15458575 175.91134591 -231.65504746 201.57189141 -213.0390625 223.76171875 C-209.65315461 221.11905894 -206.6965393 218.47392732 -203.9140625 215.19921875 C-197.34181782 207.50488352 -190.05133507 200.27890082 -182.34375 193.72265625 C-180.43601509 192.09946486 -178.55087094 190.45689793 -176.671875 188.80078125 C-169.45561487 182.45921932 -162.1290703 176.36787036 -154.453125 170.58984375 C-150.65050234 167.71018775 -150.76271759 166.51324272 -150.09375 161.71875 C-149.90748047 160.43162109 -149.72121094 159.14449219 -149.52929688 157.81835938 C-149.42963623 157.12718018 -149.32997559 156.43600098 -149.22729492 155.72387695 C-146.10138112 134.27128848 -141.813863 112.98331252 -134.88671875 92.40234375 C-133.93718103 89.90656038 -133.93718103 89.90656038 -134.0390625 87.76171875 C-135.3178125 87.45234375 -136.5965625 87.14296875 -137.9140625 86.82421875 C-138.63335937 86.65019531 -139.35265625 86.47617188 -140.09375 86.296875 C-172.72378051 80.36807635 -215.96460153 82.0763273 -240.0390625 107.76171875 Z M53.9609375 87.76171875 C54.13254395 88.38320801 54.30415039 89.00469727 54.48095703 89.64501953 C68.8249937 141.88541249 68.8249937 141.88541249 70.25390625 164.265625 C71.16647316 168.77804148 72.69649974 169.96262352 76.3359375 172.69921875 C76.87541016 173.1176001 77.41488281 173.53598145 77.97070312 173.96704102 C79.08422784 174.83034826 80.20441422 175.68513064 81.33105469 176.53125 C83.75593897 178.36189961 86.10746878 180.27801979 88.4609375 182.19921875 C89.80091797 183.29169922 89.80091797 183.29169922 91.16796875 184.40625 C95.29170497 187.88403034 99.23878867 191.54138498 103.19140625 195.2109375 C105.41321068 197.25725385 107.66127488 199.24236298 109.9609375 201.19921875 C117.87788974 208.07272331 125.32343341 215.64921375 131.9609375 223.76171875 C140.97630633 215.04633592 147.70096781 204.55861697 153.9609375 193.76171875 C154.30012207 193.1805127 154.63930664 192.59930664 154.98876953 192.00048828 C166.739777 171.66411852 174.92150752 148.07559199 168.86352539 124.62890625 C165.31845134 112.34443472 157.32374909 102.89122615 146.25390625 96.56640625 C128.55634204 87.03911635 110.07844093 84.37287937 90.2109375 84.51171875 C89.09223267 84.51487595 89.09223267 84.51487595 87.95092773 84.51809692 C70.50008933 83.77868216 70.50008933 83.77868216 53.9609375 87.76171875 Z M-123.0390625 89.76171875 C-129.65457526 107.68762429 -134.03931886 126.50188877 -137.5390625 145.26171875 C-137.79731812 146.6221228 -137.79731812 146.6221228 -138.06079102 148.01000977 C-138.20830811 148.84588623 -138.3558252 149.6817627 -138.5078125 150.54296875 C-138.63607422 151.26548828 -138.76433594 151.98800781 -138.89648438 152.73242188 C-139.05287183 154.95826527 -138.69082285 156.63931967 -138.0390625 158.76171875 C-137.50764648 158.40045898 -136.97623047 158.03919922 -136.42871094 157.66699219 C-110.35946585 139.99349541 -83.32569671 124.60312597 -55.0390625 110.76171875 C-57.0065759 106.82669194 -62.83679668 106.04327091 -66.7890625 104.63671875 C-68.44131836 104.04491821 -68.44131836 104.04491821 -70.12695312 103.44116211 C-96.08608386 93.76880089 -96.08608386 93.76880089 -123.0390625 89.76171875 Z M-5.4140625 102.01171875 C-6.37804962 102.3326651 -6.37804962 102.3326651 -7.36151123 102.66009521 C-13.47086918 104.70426046 -19.31420663 106.78329701 -25.0390625 109.76171875 C-22.11115979 112.09780224 -19.17774995 113.78590964 -15.8046875 115.40625 C-14.76771729 115.91099854 -13.73074707 116.41574707 -12.66235352 116.93579102 C-11.54916748 117.47647217 -10.43598145 118.01715332 -9.2890625 118.57421875 C9.84166702 128.00948334 28.02428677 138.95378409 45.96191406 150.47802734 C48.85076077 152.333127 51.75001256 154.17162454 54.6484375 156.01171875 C56.0861668 156.92802574 57.5237771 157.84451975 58.9609375 158.76171875 C57.24760538 137.18772046 52.70127587 109.2423955 42.9609375 89.76171875 C27.08606301 89.76171875 9.62567186 96.979566 -5.4140625 102.01171875 Z M-47.57421875 118.76953125 C-48.56709648 119.24508957 -48.56709648 119.24508957 -49.58003235 119.73025513 C-51.75676541 120.77654141 -53.92961954 121.83052711 -56.1015625 122.88671875 C-57.21510101 123.42709778 -57.21510101 123.42709778 -58.35113525 123.97839355 C-84.15870305 136.53365193 -108.8801713 150.88265713 -132.27294922 167.53442383 C-133.49228017 168.38175265 -134.73573384 169.19503129 -135.99658203 169.97924805 C-139.94904223 172.51772646 -139.94904223 172.51772646 -142.125 176.6015625 C-142.22039062 177.62378906 -142.31578125 178.64601562 -142.4140625 179.69921875 C-142.52492188 180.69824219 -142.63578125 181.69726562 -142.75 182.7265625 C-142.84940252 184.07139274 -142.94518968 185.41649121 -143.0390625 186.76171875 C-143.11861679 187.7338884 -143.19817108 188.70605804 -143.28013611 189.70768738 C-143.94967805 198.2461202 -144.19942269 206.72245984 -144.20703125 215.28515625 C-144.21026307 216.64254792 -144.21362839 217.99993929 -144.21711731 219.35733032 C-144.2230499 222.18598229 -144.22496358 225.01460399 -144.22436523 227.84326172 C-144.22428444 230.6877281 -144.23116236 233.53203182 -144.24487305 236.37646484 C-144.31162407 250.45982238 -144.28259711 264.5009643 -143.15234375 278.55078125 C-143.07461227 279.53638031 -142.9968808 280.52197937 -142.91679382 281.53744507 C-142.40509124 287.41949838 -142.40509124 287.41949838 -140.0390625 292.76171875 C-137.87773209 294.45400853 -135.75715273 295.97366939 -133.46875 297.47265625 C-132.80445984 297.91739288 -132.14016968 298.36212952 -131.45574951 298.82034302 C-129.28213573 300.26993341 -127.09901547 301.70428609 -124.9140625 303.13671875 C-123.79411896 303.87619751 -123.79411896 303.87619751 -122.65155029 304.63061523 C-102.12399306 318.17894595 -80.94938274 330.20746528 -58.98632812 341.27294922 C-56.38525713 342.58684343 -53.79730208 343.92313113 -51.2109375 345.265625 C-49.88387652 345.93310923 -48.55585896 346.59869767 -47.2265625 347.26171875 C-46.14761719 347.80828125 -45.06867188 348.35484375 -43.95703125 348.91796875 C-31.36888294 352.55791525 -5.84903867 333.71967385 5.20727539 327.69018555 C21.35633926 318.75035917 36.88006106 308.82065409 51.94580078 298.16040039 C53.27654744 297.23674548 54.62948214 296.34417802 56.00341797 295.48608398 C59.00534987 293.55627062 60.75321239 292.30494232 62.046875 288.921875 C62.14226562 287.89964844 62.23765625 286.87742187 62.3359375 285.82421875 C62.44679688 284.82519531 62.55765625 283.82617188 62.671875 282.796875 C62.77127752 281.45204476 62.86706468 280.10694629 62.9609375 278.76171875 C63.08026894 277.30346428 63.08026894 277.30346428 63.20201111 275.81575012 C63.87155305 267.2773173 64.12129769 258.80097766 64.12890625 250.23828125 C64.13213807 248.88088958 64.13550339 247.52349821 64.13899231 246.16610718 C64.1449249 243.33745521 64.14683858 240.50883351 64.14624023 237.68017578 C64.14615944 234.8357094 64.15303736 231.99140568 64.16674805 229.14697266 C64.23349907 215.06361512 64.20447211 201.0224732 63.07421875 186.97265625 C62.99648727 185.98705719 62.9187558 185.00145813 62.83866882 183.98599243 C62.32696624 178.10393912 62.32696624 178.10393912 59.9609375 172.76171875 C57.79960709 171.06942897 55.67902773 169.54976811 53.390625 168.05078125 C52.72633484 167.60604462 52.06204468 167.16130798 51.37762451 166.70309448 C49.20401073 165.25350409 47.02089047 163.81915141 44.8359375 162.38671875 C44.08930847 161.89373291 43.34267944 161.40074707 42.57342529 160.89282227 C-1.16652415 128.66487139 -1.16652415 128.66487139 -47.57421875 118.76953125 Z M-159.9765625 188.69921875 C-160.8579187 189.44921143 -160.8579187 189.44921143 -161.75708008 190.21435547 C-166.11772245 193.93952735 -170.41007781 197.73403944 -174.65234375 201.59375 C-176.24404996 203.03957151 -177.84569476 204.47452626 -179.45703125 205.8984375 C-188.53793779 213.9398762 -197.34913955 222.36292403 -205.0390625 231.76171875 C-203.39276679 235.80439756 -200.55172261 238.69697486 -197.6015625 241.82421875 C-197.06950195 242.39350098 -196.53744141 242.9627832 -195.98925781 243.54931641 C-188.3551178 251.67386743 -180.54170036 259.54168219 -172.0390625 266.76171875 C-170.89499237 267.75684649 -169.75184816 268.75303924 -168.609375 269.75 C-167.35694645 270.83744188 -166.10434098 271.92468002 -164.8515625 273.01171875 C-164.25690186 273.5317749 -163.66224121 274.05183105 -163.04956055 274.58764648 C-162.4750415 275.08337158 -161.90052246 275.57909668 -161.30859375 276.08984375 C-160.79917236 276.53231445 -160.28975098 276.97478516 -159.76489258 277.43066406 C-157.63239855 279.07536026 -155.35447527 280.39035092 -153.0390625 281.76171875 C-153.1450325 280.29786743 -153.1450325 280.29786743 -153.25314331 278.80444336 C-153.91187205 269.30167054 -154.18658913 259.85311913 -154.171875 250.32421875 C-154.17255221 248.90568017 -154.17352565 247.48714171 -154.17477417 246.06860352 C-154.17623161 243.12417474 -154.1741606 240.17977671 -154.16943359 237.23535156 C-154.16373754 233.5111496 -154.16702719 229.78701977 -154.17300606 226.06282043 C-154.17666515 223.14212527 -154.1754489 220.22144646 -154.17287827 217.30075073 C-154.1719117 215.27610221 -154.17488266 213.25145298 -154.17800903 211.22680664 C-154.15517008 202.03577038 -153.70234423 192.92417814 -153.0390625 183.76171875 C-155.42877382 183.76171875 -158.15170228 187.13901332 -159.9765625 188.69921875 Z M72.9609375 183.76171875 C73.03158417 184.73761963 73.10223083 185.71352051 73.17501831 186.71899414 C73.83374705 196.22176696 74.10846413 205.67031837 74.09375 215.19921875 C74.09442721 216.61775733 74.09540065 218.03629579 74.09664917 219.45483398 C74.09810661 222.39926276 74.0960356 225.34366079 74.09130859 228.28808594 C74.08561254 232.0122879 74.08890219 235.73641773 74.09488106 239.46061707 C74.09854015 242.38131223 74.0973239 245.30199104 74.09475327 248.22268677 C74.0937867 250.24733529 74.09675766 252.27198452 74.09988403 254.29663086 C74.07704508 263.48766712 73.62421923 272.59925936 72.9609375 281.76171875 C91.81159882 267.92272279 110.03793149 251.82641024 124.9609375 233.76171875 C123.31464179 229.71903994 120.47359761 226.82646264 117.5234375 223.69921875 C116.99137695 223.12993652 116.45931641 222.5606543 115.91113281 221.97412109 C108.2769928 213.84957007 100.46357536 205.98175531 91.9609375 198.76171875 C90.81686737 197.76659101 89.67372316 196.77039826 88.53125 195.7734375 C87.27882145 194.68599562 86.02621598 193.59875748 84.7734375 192.51171875 C84.17877686 191.9916626 83.58411621 191.47160645 82.97143555 190.93579102 C82.3969165 190.44006592 81.82239746 189.94434082 81.23046875 189.43359375 C80.72104736 188.99112305 80.21162598 188.54865234 79.68676758 188.09277344 C77.55427355 186.44807724 75.27635027 185.13308658 72.9609375 183.76171875 Z M-213.0390625 241.76171875 C-233.59734401 263.89772884 -252.2956089 297.48239514 -251.3828125 328.44140625 C-249.86516195 343.10053086 -244.33374725 355.09787647 -233.0078125 364.6328125 C-214.49662413 377.90728311 -192.83180826 380.97342624 -170.6015625 380.94921875 C-169.84327148 380.94961151 -169.08498047 380.95000427 -168.30371094 380.95040894 C-150.70131844 381.73806636 -150.70131844 381.73806636 -134.0390625 377.76171875 C-134.21066895 377.14022949 -134.38227539 376.51874023 -134.55908203 375.87841797 C-148.9031187 323.63802501 -148.9031187 323.63802501 -150.33203125 301.2578125 C-151.24459816 296.74539602 -152.77462474 295.56081398 -156.4140625 292.82421875 C-157.22327148 292.19664673 -157.22327148 292.19664673 -158.04882812 291.55639648 C-159.16235284 290.69308924 -160.28253922 289.83830686 -161.40917969 288.9921875 C-163.83406397 287.16153789 -166.18559378 285.24541771 -168.5390625 283.32421875 C-169.43238281 282.59589844 -170.32570313 281.86757813 -171.24609375 281.1171875 C-175.36982997 277.63940716 -179.31691367 273.98205252 -183.26953125 270.3125 C-185.49133568 268.26618365 -187.73939988 266.28107452 -190.0390625 264.32421875 C-197.98553808 257.425082 -205.27237539 249.80858991 -212.0390625 241.76171875 C-212.3690625 241.76171875 -212.6990625 241.76171875 -213.0390625 241.76171875 Z M130.61328125 243.08764648 C130.04738281 243.70067627 129.48148437 244.31370605 128.8984375 244.9453125 C128.27074463 245.62150635 127.64305176 246.2977002 126.99633789 246.99438477 C126.32465576 247.72197998 125.65297363 248.4495752 124.9609375 249.19921875 C117.70245293 256.99739945 110.47070845 264.75508599 102.37109375 271.6953125 C100.42807402 273.36120786 98.50208295 275.04226018 96.58203125 276.734375 C89.36879433 283.07088568 82.04648779 289.15892251 74.375 294.93359375 C70.57237734 297.81324975 70.68459259 299.01019478 70.015625 303.8046875 C69.82935547 305.09181641 69.64308594 306.37894531 69.45117188 307.70507812 C69.35151123 308.39625732 69.25185059 309.08743652 69.14916992 309.79956055 C66.02325612 331.25214902 61.735738 352.54012498 54.80859375 373.12109375 C53.85905603 375.61687712 53.85905603 375.61687712 53.9609375 377.76171875 C55.27182432 378.08091814 56.58478998 378.39157822 57.8984375 378.69921875 C58.62933594 378.87324219 59.36023438 379.04726563 60.11328125 379.2265625 C68.92797645 380.88309644 77.72353686 380.97915202 86.65966797 381.00195312 C88.92844434 381.01158086 91.19628182 381.04264929 93.46484375 381.07421875 C116.29284958 381.23980071 140.66043967 376.47802779 157.671875 360.22265625 C166.92570251 350.27400211 170.9619457 338.1940901 171.3984375 324.69921875 C170.12663621 294.25803942 152.95463072 264.00069303 132.9609375 241.76171875 C131.7646472 241.64482927 131.7646472 241.64482927 130.61328125 243.08764648 Z M-139.0390625 306.76171875 C-137.07830914 328.83709712 -133.00841178 355.82302019 -123.0390625 375.76171875 C-115.8243374 375.16174161 -109.13853484 373.67465622 -102.1640625 371.76171875 C-100.49102051 371.30684082 -100.49102051 371.30684082 -98.78417969 370.84277344 C-90.2083983 368.46393249 -81.7349322 365.81509736 -73.2890625 363.01171875 C-72.15355957 362.6353125 -71.01805664 362.25890625 -69.84814453 361.87109375 C-64.71532793 360.13352247 -59.78762275 358.38504924 -55.0390625 355.76171875 C-57.96696521 353.42563526 -60.90037505 351.73752786 -64.2734375 350.1171875 C-65.31040771 349.61243896 -66.34737793 349.10769043 -67.41577148 348.58764648 C-69.08555054 347.77662476 -69.08555054 347.77662476 -70.7890625 346.94921875 C-89.91979202 337.51395416 -108.10241177 326.56965341 -126.04003906 315.04541016 C-128.92888577 313.1903105 -131.82813756 311.35181296 -134.7265625 309.51171875 C-136.1642918 308.59541176 -137.6019021 307.67891775 -139.0390625 306.76171875 Z M57.9609375 306.76171875 C57.42952148 307.12297852 56.89810547 307.48423828 56.35058594 307.85644531 C30.28134085 325.52994209 3.24757171 340.92031153 -25.0390625 354.76171875 C-23.62287892 357.59408591 -22.06293164 357.65432149 -19.09765625 358.6796875 C-18.05053467 359.04368652 -17.00341309 359.40768555 -15.92456055 359.78271484 C-14.78672119 360.16766113 -13.64888184 360.55260742 -12.4765625 360.94921875 C-11.31229736 361.34705566 -10.14803223 361.74489258 -8.94848633 362.15478516 C16.45547241 371.64614814 16.45547241 371.64614814 42.9609375 375.76171875 C49.57645026 357.83581321 53.96119386 339.02154873 57.4609375 320.26171875 C57.63310791 319.35478271 57.80527832 318.44784668 57.98266602 317.51342773 C58.13018311 316.67755127 58.2777002 315.8416748 58.4296875 314.98046875 C58.55794922 314.25794922 58.68621094 313.53542969 58.81835938 312.79101562 C58.97474683 310.56517223 58.61269785 308.88411783 57.9609375 306.76171875 Z M-46.5234375 363.8515625 C-47.67166992 364.30200928 -48.81990234 364.75245605 -50.00292969 365.21655273 C-50.92688538 365.57920731 -50.92688538 365.57920731 -51.86950684 365.94918823 C-72.12748976 373.86461663 -92.86158689 380.5772434 -114.1796875 385.0078125 C-117.14639252 385.53340582 -117.14639252 385.53340582 -119.0390625 387.76171875 C-105.69699673 417.75976242 -89.89918617 452.46637371 -57.44921875 465.828125 C-43.36280567 470.6798513 -30.45990136 469.36288111 -17.0390625 463.13671875 C-10.67015363 459.80770413 -5.36532666 455.55366023 -0.0390625 450.76171875 C0.58484375 450.20871094 1.20875 449.65570313 1.8515625 449.0859375 C15.74312117 436.00580165 24.9162227 418.43838019 33.0859375 401.44921875 C33.65356812 400.27625244 33.65356812 400.27625244 34.23266602 399.07958984 C36.15363565 394.96929625 37.48166469 391.32933385 37.9609375 386.76171875 C33.96691688 384.94091523 29.91760699 383.99562461 25.66381836 383.01171875 C14.20201338 380.34314142 3.04934079 376.99187289 -8.1015625 373.26171875 C-9.12630676 372.92117966 -9.12630676 372.92117966 -10.17175293 372.57376099 C-18.34113384 369.84969263 -26.38745572 366.92137898 -34.34107971 363.61535645 C-39.54942052 361.46827128 -41.33263556 361.78473206 -46.5234375 363.8515625 Z " fill="#FFBD73" transform="translate(296.0390625,23.23828125)"/>
<path d="M0 0 C12.32346202 6.72132156 24.00155909 15.06167655 32.65283203 26.22460938 C35.79985904 24.86720073 37.45046138 23.48769122 39.52783203 20.78710938 C52.03100011 6.12913998 69.43624523 -2.54341744 87.65283203 -7.77539062 C88.47267578 -8.02160156 89.29251953 -8.2678125 90.13720703 -8.52148438 C97.01635987 -10.34169817 105.82254667 -11.5537374 112.38720703 -8.50585938 C121.30143624 -1.69723258 123.82280029 15.66121067 125.27783203 26.28320312 C127.87441664 53.57438931 121.49362641 80.29546089 104.27783203 101.97460938 C92.3388469 115.86946921 77.03876297 130.86653629 57.77783203 132.46289062 C51.637948 132.60871287 46.76879486 132.12498239 40.96533203 130.03710938 C34.53577791 127.81089572 30.77215058 128.64390229 24.65283203 131.22460938 C14.55056723 134.4236599 3.12749278 132.36903966 -6.34716797 128.22460938 C-15.47531629 123.26999503 -23.00319254 116.46658514 -30.34716797 109.22460938 C-31.15154297 108.433125 -31.95591797 107.64164062 -32.78466797 106.82617188 C-51.23436595 87.54367503 -58.93103082 61.25900816 -58.56201172 35.02148438 C-58.1048802 20.9497837 -55.10100403 3.53096586 -46.34716797 -7.77539062 C-34.55802854 -16.12703971 -11.26640252 -5.85774828 0 0 Z " fill="#FFBD73" transform="translate(222.34716796875,205.775390625)"/>
<path d="M0 0 C24.07037206 1.13272339 45.41754736 12.96555435 61.78125 30.24609375 C70.87981206 40.43812758 77.37890439 52.87543829 81 66 C81.31582031 67.13824219 81.63164062 68.27648437 81.95703125 69.44921875 C85.25928312 82.91456542 85.84239525 95.92814071 78.7265625 108.1953125 C76.6953169 111.23602561 75.53103967 112.82298678 72 114 C71.44570312 113.09636719 70.89140625 112.19273437 70.3203125 111.26171875 C69.58857144 110.07029421 68.85679896 108.87888897 68.125 107.6875 C67.76019531 107.09259766 67.39539063 106.49769531 67.01953125 105.88476562 C65.38588461 103.22637701 63.73104176 100.59656263 62 98 C62.2753739 91.92059159 64.26579426 86.00025775 66.125 80.25 C67.61870428 75.58564462 68.55369585 71.8725235 68 67 C66.87465895 65.64381501 66.87465895 65.64381501 63.9375 65.9375 C62.968125 65.958125 61.99875 65.97875 61 66 C58.89603589 71.93317878 57.24028238 77.82777121 56 84 C55.34 84 54.68 84 54 84 C53.15058824 82.63487396 52.32116812 81.25729967 51.5 79.875 C51.0359375 79.10929687 50.571875 78.34359375 50.09375 77.5546875 C47.21110912 70.82166203 50.25060206 64.13351823 52.31054688 57.54492188 C53.5585449 53.35094542 54.44798731 50.30927961 53 46 C49.52852158 45.25042843 49.52852158 45.25042843 46 45 C44.68 50.28 43.36 55.56 42 61 C36.07655502 55.07655502 36.07655502 55.07655502 35 51 C35.45624596 47.86653721 36.27387254 44.98332275 37.1875 41.953125 C38.24685556 38.10277498 38.29923656 34.96488443 38 31 C36.93354885 29.70366379 36.93354885 29.70366379 34.4375 29.9375 C33.633125 29.958125 32.82875 29.97875 32 30 C31.01 32.31 30.02 34.62 29 37 C28.34 37 27.68 37 27 37 C25.4921875 35.03125 25.4921875 35.03125 23.875 32.5 C23.33617187 31.6646875 22.79734375 30.829375 22.2421875 29.96875 C21.83226562 29.3190625 21.42234375 28.669375 21 28 C19.35 28.33 17.7 28.66 16 29 C15.06489772 31.57153127 14.67289097 33.27756963 15.82421875 35.8203125 C16.86138089 37.55983355 17.92953683 39.28077128 19 41 C19 41.66 19 42.32 19 43 C18.36191406 42.98839844 17.72382813 42.97679687 17.06640625 42.96484375 C16.24011719 42.95582031 15.41382813 42.94679687 14.5625 42.9375 C13.73878906 42.92589844 12.91507813 42.91429687 12.06640625 42.90234375 C10.00836062 42.76732652 10.00836062 42.76732652 9 44 C8.95936168 45.66617115 8.957279 47.33388095 9 49 C10.49952625 49.60534154 11.99965222 50.2091975 13.5 50.8125 C14.41265625 51.18761719 15.3253125 51.56273437 16.265625 51.94921875 C18.88675761 53.01497068 18.88675761 53.01497068 21.234375 53.58203125 C26.12344678 54.89904865 27.8727058 56.82299959 30.5 61.1875 C31.35635317 62.77949698 32.19765411 64.38011228 33 66 C32.27554688 65.86722656 31.55109375 65.73445313 30.8046875 65.59765625 C28.81707767 65.23458619 26.82876699 64.87533605 24.83984375 64.51953125 C22.69969631 64.12800496 20.5664978 63.69821006 18.4375 63.25 C17.633125 63.1675 16.82875 63.085 16 63 C15.01 63.99 15.01 63.99 14 65 C14.32198966 68.09926819 14.32198966 68.09926819 15 71 C15.60996826 71.17128418 16.21993652 71.34256836 16.84838867 71.51904297 C19.62889351 72.30154704 22.40819863 73.08823266 25.1875 73.875 C26.14720703 74.14441406 27.10691406 74.41382813 28.09570312 74.69140625 C29.02705078 74.95566406 29.95839844 75.21992188 30.91796875 75.4921875 C32.19837036 75.85352783 32.19837036 75.85352783 33.50463867 76.22216797 C40.63042423 78.44335501 40.63042423 78.44335501 42.58203125 81.3828125 C42.98808594 82.28773438 43.39414063 83.19265625 43.8125 84.125 C44.23144531 85.03507812 44.65039062 85.94515625 45.08203125 86.8828125 C45.38496094 87.58148438 45.68789062 88.28015625 46 89 C45.21496094 88.86722656 44.42992187 88.73445313 43.62109375 88.59765625 C40.41508975 88.05873288 37.20771842 87.52861277 34 87 C32.86884766 86.80664062 32.86884766 86.80664062 31.71484375 86.609375 C28.26208195 85.96896563 28.26208195 85.96896563 25 87 C25 88.98 25 90.96 25 93 C30.7035018 95.22925442 36.40077529 97.0380913 42.3125 98.625 C43.89209815 99.05405819 45.47153237 99.4837205 47.05078125 99.9140625 C47.73825439 100.0992041 48.42572754 100.2843457 49.1340332 100.47509766 C53.85100689 101.80199723 53.85100689 101.80199723 55.16674805 103.55053711 C55.52808838 104.2028833 55.88942871 104.85522949 56.26171875 105.52734375 C56.65810547 106.23697266 57.05449219 106.94660156 57.46289062 107.67773438 C57.86701172 108.42345703 58.27113281 109.16917969 58.6875 109.9375 C59.31108398 111.0502832 59.31108398 111.0502832 59.94726562 112.18554688 C63 117.71455511 63 117.71455511 63 120 C57.00257939 122.9987103 46.84995306 121.85629324 40.59375 119.9765625 C18.67726132 109.53739289 3.84076184 89.04977973 -4.6171875 66.91796875 C-11.52449766 46.89823856 -10.1097855 22.81428852 -1.75 3.4375 C-1.1725 2.303125 -0.595 1.16875 0 0 Z " fill="#FFBD73" transform="translate(183,206)"/>
<path d="M0 0 C9.49891961 20.49964469 12.10301489 45.25894796 4.609375 66.92578125 C-4.16272538 89.86185574 -19.25451079 109.62486457 -42 120 C-45.55913229 121.18637743 -48.798145 121.14615346 -52.5 121.125 C-53.17675781 121.12886719 -53.85351562 121.13273437 -54.55078125 121.13671875 C-57.64073767 121.13062416 -60.04679311 120.9844023 -63 120 C-61.54127751 115.86695294 -59.42358183 112.63537275 -57 109 C-56.80156494 108.36545898 -56.60312988 107.73091797 -56.39868164 107.07714844 C-55.56795227 104.58226024 -54.73788576 102.99329308 -53 101 C-48.59389111 98.99980857 -44.03405424 98.05356373 -39.3125 97.0625 C-36.82900876 96.49270564 -34.34591203 95.92118808 -31.86328125 95.34765625 C-30.76282471 95.11054932 -29.66236816 94.87344238 -28.52856445 94.62915039 C-26.07835178 94.25016854 -26.07835178 94.25016854 -25 93 C-24.95919217 91.00041636 -24.95745644 88.99954746 -25 87 C-30.63289381 85.65300365 -34.24708737 86.42570751 -39.66796875 88.40625 C-42.25377842 89.0646136 -43.4876133 88.72774862 -46 88 C-43.96574025 83.33712191 -42.06166619 79.06080479 -37.39697266 76.66064453 C-34.38036556 75.78508407 -31.40221058 75.12724435 -28.3125 74.5625 C-26.2442618 74.13507261 -24.17773927 73.69923364 -22.11328125 73.25390625 C-20.74876831 72.99589233 -20.74876831 72.99589233 -19.35668945 72.73266602 C-16.75588014 71.92410611 -15.60028226 71.19125927 -14 69 C-14.23043864 66.34533951 -14.23043864 66.34533951 -15 64 C-21.20104812 63.72439786 -26.93184478 64.77100654 -33 66 C-28.2640108 56.7535449 -28.2640108 56.7535449 -23.75 54.0625 C-22.5125 53.711875 -21.275 53.36125 -20 53 C-18.20776902 52.46020343 -16.41612336 51.91846051 -14.625 51.375 C-13.77164063 51.13523437 -12.91828125 50.89546875 -12.0390625 50.6484375 C-10.0275461 50.1807339 -10.0275461 50.1807339 -9 49 C-8.83333333 46.5 -8.83333333 46.5 -9 44 C-10.00836062 42.76732652 -10.00836062 42.76732652 -12.06640625 42.90234375 C-12.89011719 42.91394531 -13.71382813 42.92554688 -14.5625 42.9375 C-15.38878906 42.94652344 -16.21507812 42.95554688 -17.06640625 42.96484375 C-17.70449219 42.97644531 -18.34257812 42.98804688 -19 43 C-18.05272536 40.56415094 -17.14896887 38.25089494 -15.8125 36 C-14.73888517 33.35725581 -15.25061454 31.69778766 -16 29 C-18.7859186 28.32987578 -18.7859186 28.32987578 -22 29 C-23.60190362 30.97958821 -24.74652704 32.99333192 -25.921875 35.25 C-26.27765625 35.8275 -26.6334375 36.405 -27 37 C-27.66 37 -28.32 37 -29 37 C-29.99 34.69 -30.98 32.38 -32 30 C-33.66611905 29.957279 -35.33382885 29.95936168 -37 30 C-38.77655352 31.77655352 -38.24934324 34.12893455 -38.2578125 36.49609375 C-37.95127196 39.47325267 -37.0563177 42.03338103 -36.125 44.875 C-35.08649877 48.6022236 -34.74975259 50.34127315 -36.13671875 53.9921875 C-37.63584502 56.45928108 -39.19331175 58.75034962 -41 61 C-42.84790538 57.68983906 -43.74541487 54.42826509 -44.625 50.75 C-44.88539063 49.67234375 -45.14578125 48.5946875 -45.4140625 47.484375 C-45.60742188 46.66453125 -45.80078125 45.8446875 -46 45 C-48.91652174 44.83318891 -48.91652174 44.83318891 -52 45 C-52.66 45.66 -53.32 46.32 -54 47 C-53.5052391 53.33765151 -51.58934362 59.29612556 -49.83984375 65.37890625 C-49.03344291 68.85580663 -48.53939035 71.46542697 -49 75 C-51 77.875 -51 77.875 -53 80 C-53.25523437 78.71029297 -53.25523437 78.71029297 -53.515625 77.39453125 C-56.11432415 64.71896147 -59.41047546 53.38069919 -65.8046875 42.09375 C-67 39 -67 39 -66.4453125 36.39453125 C-55.5508954 18.34513211 -33.54675188 6.54601931 -13.75 1.1875 C-9.03115816 0.08229757 -4.83023357 -0.27866732 0 0 Z " fill="#FFBD73" transform="translate(329,206)"/>
<path d="M0 0 C1.9375 1 1.9375 1 3 3 C3.23595284 5.71882023 3.13477523 8.25957022 3 11 C4.258125 10.938125 5.51625 10.87625 6.8125 10.8125 C9.37705844 10.83065617 10.71463773 10.8484013 13 12.0625 C14.58433618 15.13215135 14.36248449 17.61681143 14 21 C13 22.9375 13 22.9375 11 24 C8.28117977 24.23595284 5.74042978 24.13477523 3 24 C3.061875 25.258125 3.12375 26.51625 3.1875 27.8125 C3.16934383 30.37705844 3.1515987 31.71463773 1.9375 34 C-1.13215135 35.58433618 -3.61681143 35.36248449 -7 35 C-8.9375 34 -8.9375 34 -10 32 C-10.23595284 29.28117977 -10.13477523 26.74042978 -10 24 C-11.258125 24.061875 -12.51625 24.12375 -13.8125 24.1875 C-16.37705844 24.16934383 -17.71463773 24.1515987 -20 22.9375 C-21.58433618 19.86784865 -21.36248449 17.38318857 -21 14 C-20 12.0625 -20 12.0625 -18 11 C-15.28117977 10.76404716 -12.74042978 10.86522477 -10 11 C-10.061875 9.741875 -10.12375 8.48375 -10.1875 7.1875 C-10.16934383 4.62294156 -10.1515987 3.28536227 -8.9375 1 C-5.86784865 -0.58433618 -3.38318857 -0.36248449 0 0 Z " fill="#FFBD73" transform="translate(133,445)"/>
<path d="M0 0 C0.66 0 1.32 0 2 0 C2.391875 1.216875 2.78375 2.43375 3.1875 3.6875 C6.29161735 11.775292 12.49535006 14.57554808 20 18 C20 18.66 20 19.32 20 20 C19.33613281 20.21914063 18.67226563 20.43828125 17.98828125 20.6640625 C11.1489658 23.12022542 7.34823175 25.25580821 4.0390625 31.94140625 C3.30630784 33.6052299 2.64579708 35.30053401 2 37 C-1 36 -1 36 -1.921875 34.36328125 C-2.19515625 33.68652344 -2.4684375 33.00976562 -2.75 32.3125 C-5.50081229 26.46439907 -9.46398113 23.01440755 -15.4375 20.625 C-16.7059375 20.315625 -16.7059375 20.315625 -18 20 C-18 19.34 -18 18.68 -18 18 C-17.34773438 17.731875 -16.69546875 17.46375 -16.0234375 17.1875 C-8.29759589 13.72340583 -4.14734585 9.68511821 -0.625 2 C-0.315625 1.01 -0.315625 1.01 0 0 Z " fill="#FFBD73" transform="translate(384,30)"/>
<path d="M0 0 C0.66 0 1.32 0 2 0 C3.0078125 1.609375 3.0078125 1.609375 4.125 3.75 C6.94208567 8.52128024 9.93874559 9.94118465 15 12 C14 14 14 14 11.1875 15.375 C6.12871846 17.95398667 3.79238288 20.62285136 2 26 C1.34 26 0.68 26 0 26 C-0.1959375 25.46890625 -0.391875 24.9378125 -0.59375 24.390625 C-2.85858492 19.04092873 -5.04092873 16.85858492 -10.390625 14.59375 C-10.92171875 14.3978125 -11.4528125 14.201875 -12 14 C-12 13.34 -12 12.68 -12 12 C-10.35546875 10.8515625 -10.35546875 10.8515625 -8.1875 9.625 C-3.8257467 7.00486551 -1.63097275 4.89291826 0 0 Z " fill="#FFBD73" transform="translate(377,438)"/>
<path d="M0 0 C2.71983633 1.6319018 2.96240047 2.86406322 3.8125 5.9375 C4.00755889 9.12346191 3.81274484 10.42399418 2 13 C-1.19405084 14.59702542 -4.53271429 14.50343003 -8 14 C-10.6923481 11.81246717 -10.93936827 10.41576045 -11.4375 7 C-11 4 -11 4 -9.4375 1.625 C-6.1005787 -0.5996142 -3.93094707 -0.50030235 0 0 Z " fill="#FFBD73" transform="translate(181,498)"/>
<path d="M0 0 C1.87109375 0.3203125 1.87109375 0.3203125 3.80859375 1.5078125 C5.20924008 3.89715036 5.73855659 5.53703223 5.87109375 8.3203125 C4.72950185 10.6034963 3.68096692 12.51043933 1.87109375 14.3203125 C-1.9868798 14.68427227 -4.28879323 14.88038785 -7.56640625 12.6953125 C-9.58822938 9.62214135 -9.65646142 7.93783369 -9.12890625 4.3203125 C-7.22836392 -0.19347552 -4.47103325 -0.24611192 0 0 Z " fill="#FFBD73" transform="translate(337.12890625,-0.3203125)"/>
</svg>
