<?xml version="1.0" encoding="UTF-8"?>
<svg version="1.1" xmlns="http://www.w3.org/2000/svg" width="512" height="512">
<path d="M0 0 C0.71495132 -0.0066568 1.42990265 -0.0133136 2.16651917 -0.02017212 C3.67519568 -0.0302742 5.18391665 -0.0349899 6.69262695 -0.03466797 C8.99310295 -0.03904196 11.29165995 -0.07538448 13.59179688 -0.11328125 C15.06119139 -0.11914997 16.53059497 -0.123119 18 -0.125 C18.68348007 -0.13937103 19.36696014 -0.15374207 20.07115173 -0.16854858 C23.56319511 -0.13535802 25.4701975 0.27464242 28.44042969 2.16699219 C31.1068245 4.8872783 32.10694695 7.3832996 33.37890625 10.9609375 C33.79785156 12.10820313 34.21679688 13.25546875 34.6484375 14.4375 C35.56640625 17.3359375 35.56640625 17.3359375 35.56640625 19.3359375 C36.11167969 19.43390625 36.65695313 19.531875 37.21875 19.6328125 C41.52980221 20.48765362 45.24713716 21.56148609 49.19140625 23.5234375 C53.42879381 25.48084663 55.97047646 25.6490603 60.56640625 24.3359375 C62.09436924 23.64311773 63.6149274 22.93380553 65.12890625 22.2109375 C67.90117019 20.94187749 69.54314709 20.33736153 72.62890625 20.1484375 C77.17112747 21.98465459 80.08968622 24.92811589 83.56640625 28.3359375 C84.16324219 28.91907715 84.76007813 29.5022168 85.375 30.10302734 C88.75849329 33.41809229 92.12546596 36.74984473 95.46875 40.10546875 C96.04101318 40.67885986 96.61327637 41.25225098 97.20288086 41.84301758 C99.55898894 44.42271336 99.94476179 46.67284603 99.9375 50.13671875 C99.28966545 53.97599087 97.36864856 57.27099134 95.5625 60.6875 C94.36841196 63.86236938 94.50952267 65.14070808 95.56640625 68.3359375 C96.52035461 70.35830802 97.51175976 72.3642071 98.56640625 74.3359375 C99.64792969 74.1915625 100.72945312 74.0471875 101.84375 73.8984375 C147.09702663 68.26556118 192.34413885 76.96279239 228.99560547 105.08789062 C232.24740594 107.67154061 235.3153619 110.43804538 238.34765625 113.2734375 C240.32377718 115.11039499 242.35595246 116.81404915 244.44140625 118.5234375 C257.5197021 129.9933139 267.30005439 144.9272841 275.44140625 160.1484375 C276.01652954 161.22230713 276.01652954 161.22230713 276.60327148 162.31787109 C278.65265556 166.25228676 280.11787367 169.98590342 281.31640625 174.2734375 C282.02922247 176.62423823 282.02922247 176.62423823 283.56640625 178.3359375 C286.83608206 179.33300897 289.90515338 179.65588273 293.30859375 179.94140625 C298.04981534 180.51558297 301.00216506 182.25562023 304.56640625 185.3359375 C305.57604394 186.70649395 306.57561864 188.08450539 307.56640625 189.46875 C309.74160376 191.99465557 310.95234922 193.1781345 314.20556641 194.01416016 C317.22544896 194.20280748 320.16784221 194.1972108 323.19140625 194.0859375 C333.43191285 193.86668232 333.43191285 193.86668232 337.77734375 195.6640625 C340.6311897 199.92613812 339.95255404 204.35892156 339.56640625 209.3359375 C340.79681641 209.31499023 342.02722656 209.29404297 343.29492188 209.27246094 C347.88692455 209.19972151 352.4788769 209.15401479 357.07128906 209.11621094 C359.05379824 209.09617253 361.03624888 209.06893397 363.01855469 209.03417969 C365.87840266 208.98531796 368.73746506 208.96289077 371.59765625 208.9453125 C372.4750647 208.92466736 373.35247314 208.90402222 374.25646973 208.88275146 C381.139855 208.8802765 386.41331967 210.55380228 391.625 215.15234375 C392.08003906 215.72855469 392.53507812 216.30476562 393.00390625 216.8984375 C393.47699219 217.47722656 393.95007813 218.05601562 394.4375 218.65234375 C397.25584464 222.85548057 396.71755463 227.48917635 396.7203064 232.33659363 C396.72468865 233.26864587 396.7290709 234.20069811 396.73358595 235.16099435 C396.74698665 238.29767989 396.75315568 241.43433732 396.75927734 244.57104492 C396.7671773 246.81463753 396.77544618 249.05822886 396.78405762 251.30181885 C396.81028975 258.68166895 396.82558632 266.06152476 396.83984375 273.44140625 C396.84520291 275.98051774 396.85058042 278.5196292 396.8559761 281.05874062 C396.87760645 291.61965922 396.89649492 302.18057648 396.9075985 312.74151134 C396.91052813 315.48172701 396.9134898 318.22194263 396.91650391 320.9621582 C396.91724996 321.643214 396.91799601 322.32426979 396.91876467 323.02596364 C396.93141492 334.0555747 396.96463414 345.08502443 397.00630574 356.11456009 C397.04875134 367.44194548 397.07188906 378.76921839 397.07751906 390.09669381 C397.08117471 396.45522121 397.0932193 402.81347512 397.1256218 409.1719265 C397.15567284 415.15475289 397.1620245 421.13713989 397.15023804 427.12002563 C397.15001706 429.31460011 397.15834205 431.5091948 397.17589188 433.70369911 C397.19857093 436.70311596 397.19029366 439.70093783 397.17440796 442.70036316 C397.18829005 443.56604123 397.20217213 444.4317193 397.21647489 445.32363003 C397.12015227 452.71984795 394.38584513 457.58879193 389.12890625 462.7109375 C383.86993283 466.04589626 378.83944232 466.62994644 372.73027039 466.60336304 C371.95970253 466.60789415 371.18913468 466.61242526 370.39521629 466.61709368 C367.82290484 466.6297157 365.25080571 466.62811874 362.6784668 466.62646484 C360.8301364 466.63245147 358.98180851 466.63925733 357.13348389 466.64682007 C352.11891861 466.66447373 347.1044216 466.66917519 342.08982825 466.67045164 C338.9549417 466.67187418 335.82007245 466.67614572 332.6851902 466.68144608 C321.74299647 466.69994437 310.80085143 466.70811695 299.85864258 466.70654297 C289.66802004 466.70534168 279.47760935 466.7264421 269.28704041 466.7580303 C260.53015324 466.7842046 251.7733352 466.79490977 243.01640922 466.79363215 C237.78973523 466.79312285 232.56324954 466.79878842 227.33661461 466.81998825 C222.41912092 466.83938997 217.50199476 466.83948181 212.58448792 466.82495499 C210.78380609 466.82286818 208.98310115 466.8275601 207.18245888 466.8396759 C187.4695076 466.96368352 187.4695076 466.96368352 180.41015625 460.30078125 C179.96671875 459.63175781 179.52328125 458.96273438 179.06640625 458.2734375 C178.60234375 457.60183594 178.13828125 456.93023437 177.66015625 456.23828125 C175.59501764 452.64641516 175.44407943 449.72860071 175.45288086 445.67114258 C175.45295639 444.51016556 175.45303192 443.34918854 175.45310974 442.1530304 C175.45827103 440.89983505 175.46343231 439.64663971 175.46875 438.35546875 C175.47087242 436.43078011 175.47087242 436.43078011 175.47303772 434.46720886 C175.4768522 431.05923509 175.48667334 427.65130407 175.4977417 424.24334717 C175.50797882 420.76445087 175.51254027 417.28554765 175.51757812 413.80664062 C175.52829658 406.98305538 175.54536016 400.15949849 175.56640625 393.3359375 C174.41970459 393.61018555 173.27300293 393.88443359 172.09155273 394.16699219 C170.5610585 394.53069722 169.03053961 394.89429847 167.5 395.2578125 C166.74730835 395.43812012 165.9946167 395.61842773 165.21911621 395.80419922 C124.4700815 405.45963725 79.37737549 397.74481236 43.75561523 375.78198242 C33.5958705 369.27372562 24.32380014 361.62188931 15.56640625 353.3359375 C14.74527344 352.56765625 13.92414063 351.799375 13.078125 351.0078125 C-7.53689794 331.1301854 -22.1107485 303.97354824 -29.18359375 276.3359375 C-29.48172974 275.18109863 -29.48172974 275.18109863 -29.78588867 274.00292969 C-32.80690588 261.51484997 -33.79801486 248.96727169 -33.74609375 236.1484375 C-33.74593262 235.48415741 -33.74577148 234.81987732 -33.74560547 234.13546753 C-33.72635475 222.65671093 -32.68162066 211.58945315 -30.43359375 200.3359375 C-34.21625832 197.81713815 -34.21625832 197.81713815 -38.68359375 197.3984375 C-42.49955731 198.35242839 -45.58443277 199.730981 -49.02734375 201.59375 C-52.50870865 202.66754761 -54.89516885 202.14974246 -58.43359375 201.3359375 C-61.23193359 199.23461914 -61.23193359 199.23461914 -63.89453125 196.49609375 C-64.60858627 195.77286171 -64.60858627 195.77286171 -65.33706665 195.03501892 C-66.84225 193.50306293 -68.32497068 191.95125132 -69.80859375 190.3984375 C-70.82678056 189.35870776 -71.84630048 188.32028172 -72.8671875 187.28320312 C-81.77845475 178.17025643 -81.77845475 178.17025643 -81.82421875 172.6328125 C-81.29858133 169.54206447 -79.92007929 167.09267524 -78.55859375 164.2734375 C-76.54693897 159.42641414 -76.1279831 156.61854856 -78.13037109 151.67407227 C-79.46539099 148.83950802 -80.93622173 146.08748886 -82.43359375 143.3359375 C-82.67980469 142.44132813 -82.92601563 141.54671875 -83.1796875 140.625 C-85.10720718 137.10622576 -88.31896313 136.42031859 -91.93359375 135.2109375 C-99.18966662 132.70182819 -99.18966662 132.70182819 -101.43359375 129.3359375 C-101.65343463 126.62561345 -101.76158356 124.02046287 -101.76953125 121.30859375 C-101.77618805 120.52326767 -101.78284485 119.73794159 -101.78970337 118.92881775 C-101.7998229 117.26873109 -101.8045206 115.6086038 -101.80419922 113.94848633 C-101.80857221 111.41093846 -101.84489547 108.8751307 -101.8828125 106.33789062 C-101.88868092 104.72396428 -101.89265015 103.11002967 -101.89453125 101.49609375 C-101.9160878 100.35999413 -101.9160878 100.35999413 -101.93807983 99.20094299 C-101.90774381 95.69683425 -101.71858528 93.71626576 -99.58935547 90.87475586 C-96.86813772 88.93230563 -94.4403822 88.54594825 -91.18359375 87.8359375 C-85.25941622 85.69329279 -83.1210128 83.1032182 -80.41113281 77.44604492 C-78.06142807 71.75024824 -76.01759438 66.79084735 -77.06640625 60.6015625 C-78.35202887 57.707075 -79.82231112 55.05829689 -81.43359375 52.3359375 C-82.18359375 48.5859375 -82.18359375 48.5859375 -81.43359375 45.3359375 C-80.11035156 43.56518555 -80.11035156 43.56518555 -78.38671875 41.66015625 C-77.75282227 40.95842285 -77.11892578 40.25668945 -76.46582031 39.53369141 C-75.79518555 38.80843262 -75.12455078 38.08317383 -74.43359375 37.3359375 C-73.78616211 36.63259277 -73.13873047 35.92924805 -72.47167969 35.20458984 C-70.48405018 33.07695184 -68.46399265 30.98523637 -66.43359375 28.8984375 C-65.76070312 28.17978516 -65.0878125 27.46113281 -64.39453125 26.72070312 C-61.24218389 23.49837122 -59.17534643 21.5671851 -54.8125 20.20703125 C-51.03917394 20.35098473 -48.74133909 21.16635614 -45.37109375 22.8359375 C-40.78949304 25.09964561 -38.40584399 25.59783434 -33.43359375 24.3359375 C-32.23863281 24.05621094 -31.04367188 23.77648437 -29.8125 23.48828125 C-22.58982296 21.39464222 -22.58982296 21.39464222 -17.12695312 16.51806641 C-15.31633126 13.06238855 -14.04521212 9.51850188 -12.828125 5.8203125 C-11.43359375 2.3359375 -11.43359375 2.3359375 -9.81103516 1.13916016 C-6.55003953 0.03742719 -3.40466036 0.01105401 0 0 Z M0.56640625 17.3359375 C-0.57828125 20.460625 -0.57828125 20.460625 -1.74609375 23.6484375 C-4.564933 31.3431068 -4.564933 31.3431068 -7.43359375 33.3359375 C-9.71748789 34.18779888 -12.03650593 34.94733837 -14.37109375 35.6484375 C-19.52770256 37.2369101 -24.11863343 39.09829669 -28.87109375 41.7109375 C-33.01420426 43.85716831 -35.80122234 45.09501658 -40.41015625 44.03515625 C-44.48941456 42.62552838 -48.48384685 41.07609239 -52.43359375 39.3359375 C-54.1416107 40.85484186 -55.8245143 42.40202297 -57.49609375 43.9609375 C-58.43582031 44.81945312 -59.37554687 45.67796875 -60.34375 46.5625 C-62.76415695 49.17305092 -62.76415695 49.17305092 -62.33984375 52.45703125 C-61.45278504 55.47828216 -61.45278504 55.47828216 -59.87109375 58.7734375 C-57.81835574 63.8606578 -57.69153945 67.56209422 -59.82421875 72.66015625 C-60.4378125 73.77003906 -61.05140625 74.87992188 -61.68359375 76.0234375 C-64.63192494 81.51488953 -66.78623871 86.89539328 -68.51171875 92.91015625 C-69.99115389 96.80307668 -71.60332995 97.94136769 -75.3515625 99.72265625 C-78.37890625 100.92708333 -81.40625 102.13151042 -84.43359375 103.3359375 C-84.43359375 108.6159375 -84.43359375 113.8959375 -84.43359375 119.3359375 C-82.20609375 120.2846875 -79.97859375 121.2334375 -77.68359375 122.2109375 C-73.09024882 124.38141917 -69.75861613 126.05162324 -67.87109375 131.0234375 C-67.37425009 132.7893927 -66.89625648 134.56072073 -66.43359375 136.3359375 C-65.61024937 138.45235478 -64.75510007 140.55663185 -63.87109375 142.6484375 C-63.47792969 143.61394531 -63.08476563 144.57945312 -62.6796875 145.57421875 C-61.4836714 148.37823731 -61.4836714 148.37823731 -59.80859375 150.9921875 C-57.82558951 154.37230836 -57.98737877 156.44749271 -58.43359375 160.3359375 C-59.4027547 162.95267207 -60.47408139 165.47637403 -61.65625 168.00390625 C-62.57172041 170.75031747 -62.6256532 171.71032381 -61.43359375 174.3359375 C-59.36517156 176.76708792 -59.36517156 176.76708792 -56.87109375 179.0859375 C-55.63166016 180.28476562 -55.63166016 180.28476562 -54.3671875 181.5078125 C-53.72910156 182.11109375 -53.09101562 182.714375 -52.43359375 183.3359375 C-51.57636719 182.96339844 -50.71914063 182.59085938 -49.8359375 182.20703125 C-48.69253906 181.73394531 -47.54914062 181.26085937 -46.37109375 180.7734375 C-45.24574219 180.29777344 -44.12039062 179.82210937 -42.9609375 179.33203125 C-36.24765151 177.43625281 -31.17577547 179.62164576 -25.18359375 182.6484375 C-19.75785912 185.30656086 -14.3949754 187.53569436 -8.60546875 189.31640625 C-4.95927418 191.02801917 -3.78244364 193.50056451 -2.265625 197.1328125 C-1.32161458 199.8671875 -0.37760417 202.6015625 0.56640625 205.3359375 C5.84640625 205.3359375 11.12640625 205.3359375 16.56640625 205.3359375 C17.49453125 203.2940625 17.49453125 203.2940625 18.44140625 201.2109375 C18.8178125 200.39109375 19.19421875 199.57125 19.58203125 198.7265625 C20.70575839 196.2306522 20.70575839 196.2306522 21.19140625 192.9609375 C22.56640625 190.3359375 22.56640625 190.3359375 24.48828125 189.48046875 C26.197195 188.98793151 27.91740811 188.53366826 29.64453125 188.109375 C36.37780487 186.32703786 42.81159922 183.35252692 48.87890625 179.9609375 C52.79745988 177.9815449 55.26561002 178.14951095 59.56640625 179.3359375 C62.95180914 180.57377204 66.24564853 181.92575272 69.56640625 183.3359375 C73.19640625 179.7059375 76.82640625 176.0759375 80.56640625 172.3359375 C80.09203125 170.8921875 79.61765625 169.4484375 79.12890625 167.9609375 C78.86207031 167.14882812 78.59523437 166.33671875 78.3203125 165.5 C77.61460896 163.32561951 77.61460896 163.32561951 76.56640625 161.3359375 C76.02834455 154.80131973 77.3109341 150.76614226 80.31640625 145.0234375 C82.83703939 140.06342955 84.89221321 135.51062816 86.25390625 130.0859375 C87.46604323 126.39340912 88.20425601 125.53987564 91.66015625 123.59375 C94.93365313 122.33416533 98.19772997 121.30378591 101.56640625 120.3359375 C102.98415463 119.14740895 102.98415463 119.14740895 102.6640625 115.73828125 C102.65738845 114.24996883 102.64542808 112.76167318 102.62890625 111.2734375 C102.62213867 110.13551758 102.62213867 110.13551758 102.61523438 108.97460938 C102.60341305 107.09501879 102.58547703 105.21546851 102.56640625 103.3359375 C101.63699219 103.11164063 100.70757812 102.88734375 99.75 102.65625 C90.06448735 99.5657736 90.06448735 99.5657736 87.296875 95.44628906 C85.13060511 90.94945352 83.7032733 86.21366829 82.26464844 81.44433594 C81.35101205 78.68553738 80.05381314 76.23798231 78.62890625 73.7109375 C76.2927904 69.18567998 75.83992648 66.42129589 76.56640625 61.3359375 C77.56071462 58.94722058 78.63917081 56.68084896 79.88671875 54.4140625 C80.77816611 52.35908284 80.77816611 52.35908284 79.97265625 50.3671875 C78.20158303 47.80897063 76.17262722 45.7534093 73.94140625 43.5859375 C72.71550781 42.38710937 72.71550781 42.38710937 71.46484375 41.1640625 C70.83835938 40.56078125 70.211875 39.9575 69.56640625 39.3359375 C68.40625 39.89474609 68.40625 39.89474609 67.22265625 40.46484375 C56.72315434 45.23380068 56.72315434 45.23380068 51.80859375 44.18359375 C48.06274291 42.76747941 44.51573611 40.9415999 40.99633789 39.04003906 C37.05961841 36.93919104 33.46977613 35.77818404 29.12890625 34.8359375 C25.08661856 33.64543778 23.30618184 32.34746432 21.265625 28.7578125 C19.3688434 25.03763523 18.06535837 21.28772037 16.56640625 17.3359375 C11.28640625 17.3359375 6.00640625 17.3359375 0.56640625 17.3359375 Z M120.56640625 94.3359375 C118.63702975 96.265314 119.3827897 99.87694297 119.35546875 102.51171875 C119.32739233 103.99415152 119.29872782 105.47657324 119.26953125 106.95898438 C119.2283067 109.30264894 119.19143247 111.6461091 119.16503906 113.98999023 C119.13739303 116.24767029 119.09151382 118.5044042 119.04296875 120.76171875 C119.03971588 121.45977127 119.03646301 122.15782379 119.03311157 122.87702942 C118.93034329 126.95361923 118.54254496 129.451736 115.56640625 132.3359375 C112.29686382 133.74740234 108.98499572 134.79974924 105.59765625 135.89453125 C102.06293339 137.57534663 101.14147897 138.80798744 99.56640625 142.3359375 C99.21471144 143.66454566 98.87789971 144.99733348 98.56640625 146.3359375 C101.8369947 146.67170303 105.10791404 147.0041302 108.37890625 147.3359375 C109.30767578 147.43132812 110.23644531 147.52671875 111.19335938 147.625 C112.53237305 147.76035156 112.53237305 147.76035156 113.8984375 147.8984375 C114.72061768 147.98222656 115.54279785 148.06601563 116.38989258 148.15234375 C118.70059633 148.37796436 118.70059633 148.37796436 121.56640625 148.3359375 C121.56640625 130.5159375 121.56640625 112.6959375 121.56640625 94.3359375 C121.23640625 94.3359375 120.90640625 94.3359375 120.56640625 94.3359375 Z M166.56640625 94.3359375 C170.06514718 98.59116295 173.71233108 102.4613568 177.69140625 106.2734375 C187.02399246 115.36560958 194.61356993 126.35777488 201.56640625 137.3359375 C210.43759985 135.14423085 218.39161706 131.31433491 226.56640625 127.3359375 C226.56640625 126.6759375 226.56640625 126.0159375 226.56640625 125.3359375 C224.70722113 123.69888088 222.85404123 122.19745121 220.87890625 120.7109375 C219.99259521 120.04106812 219.99259521 120.04106812 219.08837891 119.35766602 C205.68478141 109.3734989 184.03107817 94.3359375 166.56640625 94.3359375 Z M138.56640625 95.3359375 C138.56640625 112.8259375 138.56640625 130.3159375 138.56640625 148.3359375 C161.55411999 148.17933026 161.55411999 148.17933026 184.56640625 141.3359375 C172.72740201 125.26871746 160.25060377 110.75817941 144.56640625 98.3359375 C143.82648438 97.74296875 143.0865625 97.15 142.32421875 96.5390625 C140.64635395 95.1476657 140.64635395 95.1476657 138.56640625 95.3359375 Z M239.56640625 139.3359375 C239.04320801 139.58762695 238.52000977 139.83931641 237.98095703 140.09863281 C219.36138573 149.03766573 219.36138573 149.03766573 210.56640625 152.3359375 C212.01418157 156.80944488 213.50288795 161.25263684 215.21484375 165.6328125 C219.48275707 176.58977677 222.53207214 187.53270695 225.04541016 199.01318359 C225.82103981 202.47116884 226.69107799 205.9019574 227.56640625 209.3359375 C229.21640625 209.3359375 230.86640625 209.3359375 232.56640625 209.3359375 C232.5921875 208.66046875 232.61796875 207.985 232.64453125 207.2890625 C232.70125 206.39703125 232.75796875 205.505 232.81640625 204.5859375 C232.88601563 203.26335937 232.88601563 203.26335937 232.95703125 201.9140625 C233.74392421 198.58489999 234.92121486 197.47416188 237.56640625 195.3359375 C240.16015625 194.88525391 240.16015625 194.88525391 243.06640625 194.9375 C244.11828125 194.93234375 245.17015625 194.9271875 246.25390625 194.921875 C248.46234551 194.94791792 250.67070646 194.98177335 252.87890625 195.0234375 C255.87659433 195.00139568 258.62829143 194.9366035 261.56640625 194.3359375 C264.32068073 191.65507671 264.32068073 191.65507671 265.56640625 188.3359375 C266.22640625 187.3459375 266.88640625 186.3559375 267.56640625 185.3359375 C266.73807767 182.74357582 265.8376248 180.47293829 264.69140625 178.0234375 C264.20583252 176.95754395 264.20583252 176.95754395 263.71044922 175.87011719 C257.56638511 162.63991876 250.1772236 149.51658658 239.56640625 139.3359375 Z M192.56640625 157.3359375 C191.30828125 157.60148438 190.05015625 157.86703125 188.75390625 158.140625 C174.34371695 161.13390239 160.17424451 163.25130486 145.45703125 164.08984375 C142.35077598 164.27696088 142.35077598 164.27696088 138.56640625 165.3359375 C138.56640625 185.7959375 138.56640625 206.2559375 138.56640625 227.3359375 C150.77640625 227.3359375 162.98640625 227.3359375 175.56640625 227.3359375 C176.88640625 224.0359375 178.20640625 220.7359375 179.56640625 217.3359375 C185.92485788 210.84219967 191.70548647 210.02139548 200.37890625 209.7109375 C201.26255859 209.67226562 202.14621094 209.63359375 203.05664062 209.59375 C205.22623597 209.49992966 207.39629172 209.41686424 209.56640625 209.3359375 C208.94638074 192.97926452 203.47338984 170.00429732 192.56640625 157.3359375 Z M95.56640625 163.3359375 C96.04851562 164.42003906 96.530625 165.50414062 97.02734375 166.62109375 C98.72074645 170.42898591 99.30504491 173.12569717 98.56640625 177.3359375 C96.65168427 180.40226764 94.12179295 182.79669858 91.56640625 185.3359375 C90.418107 186.51840216 89.27107558 187.70209873 88.125 188.88671875 C86.87776363 190.16288839 85.62905155 191.43761735 84.37890625 192.7109375 C83.77288574 193.3304126 83.16686523 193.9498877 82.54248047 194.58813477 C81.95869629 195.17264404 81.37491211 195.75715332 80.7734375 196.359375 C80.25241455 196.88450684 79.7313916 197.40963867 79.19458008 197.95068359 C76.22899361 200.47381114 74.30347739 201.36484225 70.37890625 201.2109375 C66.4735068 200.31461632 63.39164095 198.94936514 59.875 197.078125 C56.83799353 196.10176082 54.63651171 196.6399882 51.56640625 197.3359375 C51.07636104 199.70911242 50.59950098 202.08388689 50.12890625 204.4609375 C49.99419922 205.10675781 49.85949219 205.75257813 49.72070312 206.41796875 C48.34389747 213.46990016 48.09166406 219.98232811 47.56640625 227.3359375 C71.98640625 227.3359375 96.40640625 227.3359375 121.56640625 227.3359375 C121.56640625 206.8759375 121.56640625 186.4159375 121.56640625 165.3359375 C118.0107452 164.62480529 115.042933 164.17235276 111.484375 164.01953125 C110.55302734 163.97763672 109.62167969 163.93574219 108.66210938 163.89257812 C107.70240234 163.85326172 106.74269531 163.81394531 105.75390625 163.7734375 C104.77486328 163.73025391 103.79582031 163.68707031 102.78710938 163.64257812 C100.38033598 163.5369149 97.97346642 163.43481423 95.56640625 163.3359375 Z M277.56640625 199.3359375 C276.17304905 201.60014295 274.94579822 203.88946196 273.77734375 206.27734375 C272.56640625 208.3359375 272.56640625 208.3359375 269.56640625 210.3359375 C267.38989258 210.65478516 267.38989258 210.65478516 264.8984375 210.75 C264.00576172 210.78867188 263.11308594 210.82734375 262.19335938 210.8671875 C261.26458984 210.898125 260.33582031 210.9290625 259.37890625 210.9609375 C257.96834961 211.01894531 257.96834961 211.01894531 256.52929688 211.078125 C254.20865559 211.17236424 251.88755784 211.25523873 249.56640625 211.3359375 C249.56640625 215.9559375 249.56640625 220.5759375 249.56640625 225.3359375 C273.65640625 225.3359375 297.74640625 225.3359375 322.56640625 225.3359375 C322.56640625 220.7159375 322.56640625 216.0959375 322.56640625 211.3359375 C320.47039062 211.27986328 320.47039062 211.27986328 318.33203125 211.22265625 C316.49346289 211.15699309 314.65492242 211.09054587 312.81640625 211.0234375 C311.89601563 211.00087891 310.975625 210.97832031 310.02734375 210.95507812 C309.13789063 210.91962891 308.2484375 210.88417969 307.33203125 210.84765625 C306.51508789 210.82147217 305.69814453 210.79528809 304.85644531 210.76831055 C302.0690826 210.24203983 300.66167641 209.21679717 298.56640625 207.3359375 C297.4765625 205.3984375 297.4765625 205.3984375 296.62890625 203.3359375 C294.8782578 199.64464774 293.53491747 197.81259284 289.56640625 196.3359375 C284.59313664 195.80308718 281.38923194 196.01611519 277.56640625 199.3359375 Z M-15.43359375 214.3359375 C-15.76359375 218.6259375 -16.09359375 222.9159375 -16.43359375 227.3359375 C-0.92359375 227.3359375 14.58640625 227.3359375 30.56640625 227.3359375 C30.89640625 223.7059375 31.22640625 220.0759375 31.56640625 216.3359375 C30.73447754 217.1501416 29.90254883 217.9643457 29.04541016 218.80322266 C25.52843976 221.71960609 22.36486352 222.00851214 17.90234375 221.859375 C16.8306041 221.8523204 16.8306041 221.8523204 15.73721313 221.84512329 C13.47093233 221.8239101 11.207053 221.76738568 8.94140625 221.7109375 C7.41278262 221.69441359 5.88413379 221.68006986 4.35546875 221.66796875 C-8.61732427 221.51129808 -8.61732427 221.51129808 -11.43359375 220.3359375 C-12.68359375 217.2734375 -12.68359375 217.2734375 -13.43359375 214.3359375 C-14.09359375 214.3359375 -14.75359375 214.3359375 -15.43359375 214.3359375 Z M192.56640625 228.3359375 C192.36849176 231.21459938 192.29723234 233.99717779 192.31243896 236.8770752 C192.30931898 237.77167088 192.306199 238.66626657 192.30298448 239.58797121 C192.2949689 242.60363519 192.30134193 245.61909993 192.30761719 248.63476562 C192.3049089 250.78942483 192.30134889 252.94408311 192.29699707 255.09873962 C192.28785144 260.96429384 192.29142626 266.82977798 192.29775524 272.69533348 C192.30280401 278.82167124 192.29812693 284.94800283 192.29498291 291.07434082 C192.29133998 301.36418744 192.29615093 311.65400539 192.30566406 321.94384766 C192.31654923 333.85561371 192.31302388 345.76731132 192.30201125 357.67907572 C192.29294768 367.88968446 192.29164854 378.10027254 192.29688859 388.310884 C192.30001342 394.41650102 192.30040362 400.52208583 192.29381561 406.62770081 C192.28805628 412.36663087 192.29201306 418.10547232 192.30360413 423.84439278 C192.3062583 425.95600296 192.30547281 428.06762055 192.3010788 430.17922783 C192.29565166 433.05118731 192.30242282 435.9228589 192.31243896 438.7947998 C192.30797752 439.63972756 192.30351608 440.48465531 192.29891944 441.35518694 C192.14051168 445.8176701 192.14051168 445.8176701 194.56640625 449.3359375 C196.99548527 449.53324541 199.31063119 449.60528707 201.74084473 449.58990479 C202.86222643 449.59458476 202.86222643 449.59458476 204.0062623 449.59935927 C206.52443613 449.60736997 209.04237103 449.60100379 211.56054688 449.59472656 C213.36053103 449.59743507 215.16051407 449.6009952 216.960495 449.60534668 C221.85914243 449.61448971 226.75770594 449.61091857 231.6563549 449.60458851 C236.77371325 449.59953839 241.89106423 449.6042172 247.00842285 449.60736084 C255.60344742 449.61100338 264.19843767 449.60619385 272.79345703 449.59667969 C282.74209103 449.58579459 292.69064306 449.58931997 302.63927507 449.6003325 C311.16837025 449.60939719 319.6974407 449.61069467 328.22653913 449.60545516 C333.32611402 449.60233095 338.42565034 449.60193845 343.52522278 449.60852814 C348.31862554 449.6142891 353.11192223 449.61032771 357.90531349 449.59873962 C359.668611 449.59608633 361.43191738 449.59686947 363.19521141 449.60126495 C365.59425231 449.60669557 367.99294906 449.59991684 370.39196777 449.58990479 C371.09682139 449.59436623 371.801675 449.59882767 372.52788782 449.60342431 C376.4905914 449.67244441 376.4905914 449.67244441 379.56640625 447.3359375 C379.7621502 444.44241342 379.83117061 441.64469945 379.81364441 438.75010681 C379.81726603 437.40102961 379.81726603 437.40102961 379.82096082 436.02469832 C379.82662365 432.99287414 379.81791528 429.96125826 379.80932617 426.92944336 C379.81039841 424.76331017 379.81233621 422.59717725 379.81507874 420.43104553 C379.81993931 414.5345625 379.81225652 408.63815478 379.80212569 402.74168086 C379.793366 396.58418149 379.79510222 390.42668463 379.79548645 384.2691803 C379.79454893 373.92805719 379.78585275 363.58696336 379.7722168 353.24584961 C379.7564862 341.2715896 379.75121878 329.2973803 379.75195235 317.32310957 C379.75256166 305.82639489 379.74746533 294.32969072 379.73916054 282.8329792 C379.73562019 277.92986532 379.73379622 273.02675516 379.73326683 268.12364006 C379.73226587 262.35600666 379.72618961 256.58840043 379.71610069 250.82077599 C379.71316781 248.69745805 379.71195191 246.57413699 379.71252823 244.45081711 C379.71301523 241.56544356 379.7073999 238.68014737 379.70011902 235.79478455 C379.70244192 234.51718723 379.70244192 234.51718723 379.70481175 233.21377987 C380.05031933 229.4702665 380.05031933 229.4702665 378.56640625 226.3359375 C375.68206805 226.24728542 372.82178467 226.22072454 369.9375 226.23828125 C369.0732692 226.2396962 368.20903839 226.24111115 367.31861877 226.24256897 C364.54701333 226.24818511 361.77548745 226.26074031 359.00390625 226.2734375 C357.12955845 226.27845042 355.2552094 226.28301369 353.38085938 226.28710938 C348.77601081 226.29815978 344.17122204 226.3154352 339.56640625 226.3359375 C339.52902344 227.09519531 339.49164063 227.85445312 339.453125 228.63671875 C339.35451172 230.12751953 339.35451172 230.12751953 339.25390625 231.6484375 C339.19589844 232.63457031 339.13789063 233.62070312 339.078125 234.63671875 C338.51078811 237.62931258 337.9883153 238.5583368 335.56640625 240.3359375 C331.63064387 241.64785829 327.8713952 241.49168011 323.76806641 241.49707031 C322.41883339 241.50451767 322.41883339 241.50451767 321.04234314 241.51211548 C318.06337726 241.52673403 315.08446462 241.53353832 312.10546875 241.5390625 C310.03665159 241.54481384 307.96783446 241.55057158 305.89901733 241.55633545 C301.55962882 241.56684431 297.22025883 241.57268785 292.88085938 241.57617188 C287.32003564 241.58165883 281.75945648 241.60569173 276.19870949 241.63414383 C271.92476688 241.65276472 267.65088328 241.6579755 263.37690353 241.65950775 C261.3267826 241.66253563 259.27666274 241.6705687 257.22658157 241.68369293 C254.35870985 241.70074311 251.49143697 241.69887573 248.62353516 241.69238281 C247.3531414 241.70620499 247.3531414 241.70620499 246.05708313 241.7203064 C240.960518 241.6841515 237.34930497 241.11883622 233.56640625 237.3359375 C233.33276744 235.48701804 233.1533699 233.63105719 233.00390625 231.7734375 C232.92011719 230.76152344 232.83632813 229.74960938 232.75 228.70703125 C232.68941406 227.92457031 232.62882812 227.14210937 232.56640625 226.3359375 C227.1912572 226.28658241 221.8162394 226.25023948 216.44091797 226.22607422 C214.61146752 226.21600266 212.78203322 226.20234474 210.95263672 226.18505859 C208.32645691 226.16086073 205.7004895 226.14946618 203.07421875 226.140625 C202.25333771 226.13030243 201.43245667 226.11997986 200.58670044 226.10934448 C196.10387843 225.91230258 196.10387843 225.91230258 192.56640625 228.3359375 Z M-16.43359375 244.3359375 C-13.83064877 278.17422222 -2.1807275 306.3380551 19.56640625 332.3359375 C20.11989746 332.08424805 20.67338867 331.83255859 21.24365234 331.57324219 C23.80853141 330.40850418 26.3749566 329.24721046 28.94140625 328.0859375 C29.81152344 327.69019531 30.68164062 327.29445313 31.578125 326.88671875 C37.513279 324.20490842 43.49931947 321.70397945 49.56640625 319.3359375 C49.31995361 318.70316895 49.07350098 318.07040039 48.81958008 317.41845703 C39.32000594 292.90357002 33.83426194 270.47878305 30.56640625 244.3359375 C15.05640625 244.3359375 -0.45359375 244.3359375 -16.43359375 244.3359375 Z M47.56640625 244.3359375 C48.88593638 259.8020119 48.88593638 259.8020119 51.75390625 274.8359375 C52.07101563 276.11259277 52.07101563 276.11259277 52.39453125 277.41503906 C54.01951192 283.72692827 55.95148288 289.92208321 58.06640625 296.0859375 C58.33864014 296.88322266 58.61087402 297.68050781 58.89135742 298.50195312 C60.9052907 304.11849068 63.53451101 309.20245693 66.56640625 314.3359375 C67.11353271 314.22523926 67.66065918 314.11454102 68.22436523 314.00048828 C84.35617754 310.76300856 100.25565608 308.43585983 116.6875 307.58203125 C119.50700294 307.51955968 119.50700294 307.51955968 121.56640625 306.3359375 C121.56640625 285.8759375 121.56640625 265.4159375 121.56640625 244.3359375 C97.14640625 244.3359375 72.72640625 244.3359375 47.56640625 244.3359375 Z M138.56640625 244.3359375 C138.56640625 264.7959375 138.56640625 285.2559375 138.56640625 306.3359375 C141.00796014 307.55671445 142.90054278 307.62331546 145.625 307.8359375 C146.65173828 307.9184375 147.67847656 308.0009375 148.73632812 308.0859375 C149.81462891 308.1684375 150.89292969 308.2509375 152.00390625 308.3359375 C154.10680323 308.50219495 156.20966805 308.6688596 158.3125 308.8359375 C159.24763428 308.908125 160.18276855 308.9803125 161.14624023 309.0546875 C165.95566454 309.45018017 170.76056608 309.89904294 175.56640625 310.3359375 C175.56640625 288.5559375 175.56640625 266.7759375 175.56640625 244.3359375 C163.35640625 244.3359375 151.14640625 244.3359375 138.56640625 244.3359375 Z M138.56640625 323.3359375 C138.56640625 340.8259375 138.56640625 358.3159375 138.56640625 376.3359375 C143.26142096 374.47652889 143.26142096 374.47652889 146.984375 371.6484375 C147.59410156 371.11959961 148.20382812 370.59076172 148.83203125 370.04589844 C149.46625 369.48161133 150.10046875 368.91732422 150.75390625 368.3359375 C151.41519531 367.75360352 152.07648438 367.17126953 152.7578125 366.57128906 C158.25131777 361.69500156 163.54027887 356.69774487 168.56640625 351.3359375 C169.28054688 350.64628906 169.9946875 349.95664062 170.73046875 349.24609375 C175.14325787 344.52564005 176.10421661 340.67159178 176.00390625 334.2734375 C175.89239588 331.95902849 175.75807506 329.64509031 175.56640625 327.3359375 C172.40142465 326.84521763 169.23418297 326.37074818 166.06640625 325.8984375 C164.76509766 325.69637695 164.76509766 325.69637695 163.4375 325.49023438 C155.09247165 324.25949278 147.08954726 323.86863381 138.56640625 323.3359375 Z M86.31640625 326.8359375 C85.57326172 326.95428955 84.83011719 327.0726416 84.06445312 327.19458008 C80.62476252 327.79118681 78.51538263 328.36995325 75.56640625 330.3359375 C81.34671151 339.25453981 87.62223078 347.12224664 95.01806641 354.74072266 C96.54917815 356.31818783 98.06365479 357.91048028 99.578125 359.50390625 C106.04174326 366.21726001 112.8162053 372.12527608 120.56640625 377.3359375 C120.89640625 377.3359375 121.22640625 377.3359375 121.56640625 377.3359375 C121.56640625 359.5159375 121.56640625 341.6959375 121.56640625 323.3359375 C109.86715172 323.3359375 97.84597523 324.94834258 86.31640625 326.8359375 Z M49.50390625 337.0859375 C48.83157959 337.35744629 48.15925293 337.62895508 47.46655273 337.90869141 C42.4505621 339.94592935 37.49242775 342.08898033 32.56640625 344.3359375 C35.84407214 348.95331773 39.66627725 351.89314305 44.25390625 355.0859375 C45.00212646 355.60816895 45.75034668 356.13040039 46.52124023 356.66845703 C60.04422229 365.92139591 76.09185361 375.10896264 92.56640625 377.3359375 C89.58013232 373.76697598 86.60296642 370.31762407 83.25390625 367.0859375 C76.43776801 360.34453762 70.70912625 352.66889132 65.12890625 344.8984375 C64.70375732 344.30732178 64.2786084 343.71620605 63.84057617 343.10717773 C61.836197 340.27787113 59.99051659 337.50322116 58.56640625 334.3359375 C55.31669056 334.3359375 52.47621004 335.87388803 49.50390625 337.0859375 Z M170.50390625 372.8359375 C169.77042969 373.485625 169.03695313 374.1353125 168.28125 374.8046875 C167.71535156 375.31 167.14945312 375.8153125 166.56640625 376.3359375 C170.33265296 377.59135307 171.93829559 376.70655708 175.56640625 375.3359375 C175.56640625 373.3559375 175.56640625 371.3759375 175.56640625 369.3359375 C173.56716352 369.3359375 171.90648402 371.58920171 170.50390625 372.8359375 Z " fill="#FFBD73" transform="translate(108.43359375,22.6640625)"/>
<path d="M0 0 C2.51403601 2.20259573 4.89401464 4.47778563 7.2421875 6.85546875 C7.80550781 7.396875 8.36882812 7.93828125 8.94921875 8.49609375 C19.38546493 19.40045652 22.61290074 33.57504974 22.54321289 48.12646484 C22.17402982 63.94718998 15.41647451 76.83912219 4.2421875 87.85546875 C3.39527344 88.71785156 3.39527344 88.71785156 2.53125 89.59765625 C-8.02436392 99.53538057 -23.0846675 103.61139324 -37.3046875 103.19921875 C-52.28143837 101.70832047 -66.42863704 96.20301362 -76.7578125 84.85546875 C-88.77465062 69.77943557 -92.20942638 54.87349584 -90.7578125 35.85546875 C-89.87855807 31.28152342 -88.55285216 27.14605136 -86.7578125 22.85546875 C-86.48066406 22.13617188 -86.20351562 21.416875 -85.91796875 20.67578125 C-80.21843442 7.59574394 -68.50334786 -2.01639434 -55.6328125 -7.58203125 C-37.07470408 -14.14782405 -15.80593475 -12.29101725 0 0 Z M-66.1875 21.63671875 C-73.37124731 31.78688908 -74.82660392 41.70468358 -73.7578125 53.85546875 C-71.55852921 64.63990607 -64.66561325 73.56421423 -55.7578125 79.85546875 C-46.93677875 85.34370946 -36.83083534 87.34124839 -26.65234375 85.203125 C-14.91790772 81.99782184 -6.26519674 76.22228566 0.2421875 65.85546875 C5.28694285 56.27350966 6.9731371 46.57055838 4.55859375 35.80859375 C0.64267623 24.3045705 -5.90571626 15.81773052 -16.6328125 10.10546875 C-34.38517841 1.74033875 -53.68530883 6.5177899 -66.1875 21.63671875 Z " fill="#FFBD73" transform="translate(151.7578125,88.14453125)"/>
<path d="M0 0 C1.20720703 -0.02900391 2.41441406 -0.05800781 3.65820312 -0.08789062 C10.43637933 -0.13606793 16.39436578 -0.16231728 21.8125 4.3125 C27.24496865 10.57015376 26.40755774 17.86725708 26.3125 25.8125 C26.32796875 27.10542969 26.3434375 28.39835937 26.359375 29.73046875 C26.30894106 41.9985242 26.30894106 41.9985242 21.8125 47.3125 C15.52539428 52.59024725 8.65404818 51.87636694 0.75 51.75 C-0.50361328 51.75708984 -1.75722656 51.76417969 -3.04882812 51.77148438 C-9.91912031 51.72400229 -15.433158 51.65662886 -20.83203125 46.84765625 C-26.07654235 40.23501182 -25.40015296 34.16499589 -25.4375 26 C-25.458125 24.88431641 -25.47875 23.76863281 -25.5 22.61914062 C-25.53301385 15.65734588 -25.41540398 10.06157598 -20.6875 4.5703125 C-13.97356193 -0.50010948 -8.14531145 0.06420372 0 0 Z M-8.1875 17.3125 C-8.1875 22.9225 -8.1875 28.5325 -8.1875 34.3125 C-2.5775 34.3125 3.0325 34.3125 8.8125 34.3125 C8.8125 28.7025 8.8125 23.0925 8.8125 17.3125 C3.2025 17.3125 -2.4075 17.3125 -8.1875 17.3125 Z " fill="#FFBD73" transform="translate(346.1875,273.6875)"/>
<path d="M0 0 C1.05896484 -0.01611328 2.11792969 -0.03222656 3.20898438 -0.04882812 C9.97293158 -0.05304768 15.51471406 0.18631194 20.8046875 4.84765625 C25.57346364 11.27728201 25.27976364 15.60476629 25.30273438 23.52392578 C25.31239756 25.54111641 25.3434003 27.55726916 25.375 29.57421875 C25.38273437 31.49427734 25.38273437 31.49427734 25.390625 33.453125 C25.3999707 34.62391602 25.40931641 35.79470703 25.41894531 37.00097656 C24.8818577 41.99074121 23.23203315 45.23068184 19.5625 48.625 C14.10566422 52.30836415 8.19462828 51.56962759 1.83056641 51.60766602 C-0.16657549 51.62482027 -2.16342929 51.66871525 -4.16015625 51.71289062 C-16.82526403 51.79629812 -16.82526403 51.79629812 -21.9375 47.3125 C-26.95061334 41.11124159 -26.5082922 33.86485422 -26.375 26.25 C-26.38208984 25.10466797 -26.38917969 23.95933594 -26.39648438 22.77929688 C-26.34071844 15.36242817 -26.10203528 9.47703528 -20.625 4 C-14.00424174 -0.1572203 -7.59146938 -0.0230184 0 0 Z M-8.9375 17.3125 C-8.9375 22.9225 -8.9375 28.5325 -8.9375 34.3125 C-3.3275 34.3125 2.2825 34.3125 8.0625 34.3125 C8.0625 28.7025 8.0625 23.0925 8.0625 17.3125 C2.4525 17.3125 -3.1575 17.3125 -8.9375 17.3125 Z " fill="#FFBD73" transform="translate(346.9375,338.6875)"/>
<path d="M0 0 C0.9980365 -0.00574036 0.9980365 -0.00574036 2.01623535 -0.01159668 C3.41464767 -0.01430313 4.81311172 -0.00703094 6.21142578 0.00976562 C8.33872494 0.03119937 10.46264825 0.0099269 12.58984375 -0.015625 C13.95573654 -0.01298149 15.32162725 -0.00785602 16.6875 0 C18.53118164 0.00676758 18.53118164 0.00676758 20.41210938 0.01367188 C25.28814474 0.74910123 28.42860409 2.92091156 31.65625 6.59375 C35.0900118 12.19620347 34.06827389 19.00338235 34.09375 25.34375 C34.114375 26.61541016 34.135 27.88707031 34.15625 29.19726562 C34.16398437 31.04288086 34.16398437 31.04288086 34.171875 32.92578125 C34.1812207 34.04831299 34.19056641 35.17084473 34.20019531 36.32739258 C33.64832057 41.28783929 31.97059225 44.51434358 28.28125 47.84375 C22.87914638 51.58366789 17.13198488 50.79128247 10.77783203 50.82641602 C8.61555818 50.84357692 6.45483493 50.88745542 4.29296875 50.93164062 C2.90886538 50.94177276 1.52474903 50.95028723 0.140625 50.95703125 C-1.11395508 50.97161377 -2.36853516 50.98619629 -3.66113281 51.0012207 C-8.40394371 50.36347895 -11.48564058 48.47991755 -14.59960938 44.84765625 C-17.82046308 38.57362886 -17.7506882 32.47245744 -17.65625 25.53125 C-17.67171875 24.39429688 -17.6871875 23.25734375 -17.703125 22.0859375 C-17.67340781 15.68188277 -17.49563826 9.59289097 -13.15625 4.53125 C-8.70487839 0.93343373 -5.68621919 0.02087233 0 0 Z M-0.15625 17.53125 C-0.15625 22.81125 -0.15625 28.09125 -0.15625 33.53125 C5.45375 33.53125 11.06375 33.53125 16.84375 33.53125 C16.84375 28.25125 16.84375 22.97125 16.84375 17.53125 C11.23375 17.53125 5.62375 17.53125 -0.15625 17.53125 Z " fill="#FFBD73" transform="translate(338.15625,404.46875)"/>
<path d="M0 0 C1.20474976 -0.01583633 2.40949951 -0.03167267 3.65075684 -0.04798889 C4.94356567 -0.04302902 6.23637451 -0.03806915 7.56835938 -0.03295898 C8.91687448 -0.0381979 10.26538591 -0.04447536 11.6138916 -0.05174255 C14.43499034 -0.06213153 17.25558419 -0.05760723 20.07666016 -0.04296875 C23.68512176 -0.02577349 27.29199208 -0.04928966 30.90027618 -0.08445835 C33.6833951 -0.10645789 36.4661346 -0.10498517 39.24931335 -0.09669304 C41.22407183 -0.09547853 43.1988069 -0.11538459 45.17346191 -0.13563538 C55.12853302 -0.03207195 55.12853302 -0.03207195 58.22412109 2.94165039 C60.87240414 7.00791779 60.67147967 8.7494144 59.91210938 13.53344727 C57.34675483 16.16437554 55.67027857 17.3998906 52.02868652 18.04138184 C50.97121216 18.04456421 49.91373779 18.04774658 48.82421875 18.05102539 C47.61946899 18.06363403 46.41471924 18.07624268 45.17346191 18.0892334 C43.88065308 18.08113647 42.58784424 18.07303955 41.25585938 18.06469727 C39.90734579 18.06739427 38.5588341 18.07127843 37.21032715 18.07629395 C34.38921526 18.08217937 31.56861126 18.07365794 28.74755859 18.05493164 C25.13927533 18.03214141 21.53218221 18.04526981 17.92394257 18.0692215 C15.14083967 18.08370609 12.35801693 18.07906158 9.5749054 18.06871033 C7.60018131 18.06476091 5.62544614 18.07686582 3.65075684 18.0892334 C2.44600708 18.07662476 1.24125732 18.06401611 0 18.05102539 C-1.05747437 18.04784302 -2.11494873 18.04466064 -3.20446777 18.04138184 C-6.80410531 17.40728117 -8.49450373 16.06120476 -11.08789062 13.53344727 C-11.75195312 11.31469727 -11.75195312 11.31469727 -11.71289062 9.03344727 C-11.72578125 8.28063477 -11.73867188 7.52782227 -11.75195312 6.75219727 C-10.08605365 1.18613313 -5.2343997 0.03068238 0 0 Z " fill="#FFBD73" transform="translate(401.087890625,410.466552734375)"/>
<path d="M0 0 C1.16485931 -0.00960754 2.32971863 -0.01921509 3.52987671 -0.02911377 C4.78926056 -0.03336365 6.04864441 -0.03761353 7.34619141 -0.04199219 C8.63965485 -0.04769226 9.93311829 -0.05339233 11.26577759 -0.05926514 C14.00450025 -0.06976392 16.74319365 -0.07561394 19.48193359 -0.07910156 C22.98465914 -0.08458457 26.48699563 -0.1086126 29.98959923 -0.13707352 C33.33762246 -0.16021976 36.68559231 -0.1621507 40.03369141 -0.16699219 C41.28902679 -0.17933899 42.54436218 -0.19168579 43.83773804 -0.20440674 C45.00890167 -0.20140564 46.18006531 -0.19840454 47.38671875 -0.1953125 C48.41469574 -0.19895813 49.44267273 -0.20260376 50.50180054 -0.20635986 C53.78424441 0.22125234 55.6655867 1.21784965 58.32275391 3.16113281 C59.88746623 6.29055746 60.01977348 9.77195505 59.32275391 13.16113281 C57.15987264 15.92552068 55.97551591 17.04462517 52.47692871 17.66906738 C50.82956726 17.67384094 50.82956726 17.67384094 49.14892578 17.67871094 C47.9008313 17.69131958 46.65273682 17.70392822 45.36682129 17.71691895 C44.00837641 17.7097591 42.64993669 17.7015551 41.29150391 17.69238281 C39.89432505 17.69507851 38.49714803 17.69896157 37.09997559 17.70397949 C34.17454126 17.70987107 31.24959612 17.70132345 28.32421875 17.68261719 C24.57793999 17.65982676 20.83280746 17.67295182 17.08657074 17.69690704 C14.20228468 17.71137486 11.31826952 17.70675476 8.43397522 17.69639587 C7.05290084 17.69373125 5.6718017 17.69698912 4.29075623 17.70631409 C2.35936974 17.71649369 0.4278968 17.69822169 -1.50341797 17.67871094 C-2.60165894 17.67552856 -3.6998999 17.67234619 -4.8314209 17.66906738 C-8.33383684 17.0439418 -9.51519364 15.93215989 -11.67724609 13.16113281 C-12.17333984 10.90722656 -12.17333984 10.90722656 -12.11474609 8.59863281 C-12.11345703 7.83421875 -12.11216797 7.06980469 -12.11083984 6.28222656 C-11.57481597 3.6600557 -10.77444252 2.78460958 -8.67724609 1.16113281 C-5.53552609 0.11389281 -3.29844261 0.0219428 0 0 Z " fill="#FFBD73" transform="translate(401.67724609375,338.8388671875)"/>
<path d="M0 0 C1.24809448 -0.01260864 2.49618896 -0.02521729 3.78210449 -0.03820801 C5.14054937 -0.03104816 6.49898909 -0.02284416 7.85742188 -0.01367188 C9.25460073 -0.01636757 10.65177775 -0.02025064 12.0489502 -0.02526855 C14.97438452 -0.03116013 17.89932966 -0.02261251 20.82470703 -0.00390625 C24.57098579 0.01888418 28.31611832 0.00575912 32.06235504 -0.01819611 C34.9466411 -0.03266392 37.83065626 -0.02804383 40.71495056 -0.01768494 C42.09602495 -0.01502031 43.47712408 -0.01827818 44.85816956 -0.02760315 C46.78955604 -0.03778276 48.72102898 -0.01951075 50.65234375 0 C51.75058472 0.00318237 52.84882568 0.00636475 53.98034668 0.00964355 C57.47853124 0.6340139 58.65615201 1.76095341 60.82617188 4.51757812 C61.55422139 7.2584704 61.40060428 9.74779018 60.82617188 12.51757812 C58.61876507 15.48615969 57.34019815 16.34623603 53.82617188 17.51757812 C52.00236624 17.62067989 50.17506257 17.66608487 48.34838867 17.67871094 C47.22679855 17.68831848 46.10520844 17.69792603 44.94963074 17.70782471 C43.13088188 17.71419952 43.13088188 17.71419952 41.27539062 17.72070312 C40.02869095 17.7264032 38.78199127 17.73210327 37.49751282 17.73797607 C34.85711009 17.74742978 32.21682112 17.75432466 29.57641602 17.7578125 C26.87315407 17.7622025 24.17021035 17.77611379 21.46704102 17.79882812 C17.56972555 17.82928892 13.67281187 17.83986069 9.77539062 17.84570312 C8.56896408 17.85804993 7.36253754 17.87039673 6.11955261 17.88311768 C-4.48715332 17.85497403 -4.48715332 17.85497403 -9.17382812 14.51757812 C-10.73854045 11.38815347 -10.8708477 7.90675589 -10.17382812 4.51757812 C-7.06617864 0.54567793 -4.96043592 0.01437386 0 0 Z " fill="#FFBD73" transform="translate(400.173828125,280.482421875)"/>
<path d="M0 0 C0.73573242 -0.00619858 1.47146484 -0.01239716 2.22949219 -0.01878357 C3.77928347 -0.02586226 5.3291511 -0.02274174 6.87890625 -0.01000977 C9.24361593 0.00386878 11.6043735 -0.03024806 13.96875 -0.06835938 C15.47916763 -0.0693106 16.98959019 -0.06745159 18.5 -0.0625 C19.2022168 -0.07575821 19.90443359 -0.08901642 20.62792969 -0.10267639 C24.52351025 -0.02916763 26.14051062 0.47787696 29.20874023 2.95874023 C31.25 5.56640625 31.25 5.56640625 31.66015625 7.91796875 C31.54542969 8.66820312 31.43070312 9.4184375 31.3125 10.19140625 C31.17521484 11.32449219 31.17521484 11.32449219 31.03515625 12.48046875 C29.96218386 15.33105211 28.89640087 16.04479224 26.25 17.56640625 C23.61796615 17.87061856 21.22834838 18.01091744 18.59765625 18 C17.4919352 18.00786278 17.4919352 18.00786278 16.36387634 18.0158844 C14.80810808 18.02229444 13.25229129 18.02098072 11.6965332 18.01245117 C9.323498 18.00394567 6.95287536 18.03270426 4.58007812 18.06445312 C3.06510488 18.06606551 1.5501274 18.06548689 0.03515625 18.0625 C-1.02287453 18.07935097 -1.02287453 18.07935097 -2.10227966 18.09654236 C-6.90954812 18.0289733 -9.39645735 17.00600869 -12.75 13.56640625 C-13.4140625 11.34765625 -13.4140625 11.34765625 -13.375 9.06640625 C-13.38789063 8.31359375 -13.40078125 7.56078125 -13.4140625 6.78515625 C-11.53026831 0.49106742 -5.70214384 -0.04027515 0 0 Z " fill="#FFBD73" transform="translate(402.75,431.43359375)"/>
<path d="M0 0 C0.71590805 0.00091644 1.4318161 0.00183289 2.16941833 0.0027771 C3.67640857 0.00879598 5.18338779 0.0244906 6.69018555 0.04931641 C8.99247448 0.08588002 11.29315375 0.09033507 13.59570312 0.08984375 C15.06381594 0.09967421 16.53191791 0.11133092 18 0.125 C18.6855043 0.12722565 19.37100861 0.12945129 20.07728577 0.13174438 C23.67242499 0.20294861 26.41361394 0.42385625 29.43359375 2.4609375 C31.73327938 5.68049738 31.98708013 8.58653282 31.43359375 12.4609375 C28.72592762 15.97592044 27.2458236 17.31891814 22.82421875 18.09204102 C21.44425588 18.11808062 20.06355634 18.11589814 18.68359375 18.08984375 C17.94786133 18.09225571 17.21212891 18.09466766 16.45410156 18.09715271 C14.90424184 18.09617665 13.35434622 18.08284023 11.8046875 18.05786133 C9.44019462 18.02353333 7.07943961 18.03721435 4.71484375 18.05664062 C3.20441127 18.04974171 1.69398838 18.04006889 0.18359375 18.02734375 C-0.86973145 18.03478355 -0.86973145 18.03478355 -1.94433594 18.04237366 C-6.72687968 17.928343 -9.22506018 16.87723188 -12.56640625 13.4609375 C-13.23046875 11.2421875 -13.23046875 11.2421875 -13.19140625 8.9609375 C-13.20429688 8.208125 -13.2171875 7.4553125 -13.23046875 6.6796875 C-11.36140508 0.43481595 -5.66379907 -0.11908854 0 0 Z " fill="#FFBD73" transform="translate(402.56640625,359.5390625)"/>
<path d="M0 0 C2.01909606 -0.00218202 4.03764149 -0.02033849 6.05664062 -0.03930664 C7.33539063 -0.04124023 8.61414063 -0.04317383 9.93164062 -0.04516602 C11.10130371 -0.0492749 12.2709668 -0.05338379 13.47607422 -0.05761719 C17.58440683 0.25600802 20.48441684 1.05199184 23.47070312 3.93530273 C25.06931525 6.96425202 25.14191448 8.79932325 24.65820312 12.18530273 C23.13867188 14.83740234 23.13867188 14.83740234 20.65820312 17.18530273 C17.75048186 17.68189757 15.43624292 17.86523777 12.53320312 17.81420898 C11.74929199 17.81662094 10.96538086 17.8190329 10.15771484 17.82151794 C8.50352917 17.82054027 6.84931046 17.80716525 5.1953125 17.78222656 C2.66618492 17.74791103 0.14055149 17.76156922 -2.38867188 17.78100586 C-3.99806172 17.77410716 -5.60744256 17.76443454 -7.21679688 17.75170898 C-7.97105957 17.75666885 -8.72532227 17.76162872 -9.50244141 17.76673889 C-13.03400913 17.68769382 -14.98303649 17.46226603 -17.81640625 15.27490234 C-19.93046979 12.37889244 -19.9112162 10.56597603 -19.73632812 7.08764648 C-19.1279158 4.15401478 -17.73033173 2.89139906 -15.34179688 1.18530273 C-10.37362014 -0.47075618 -5.20244507 -0.00063075 0 0 Z " fill="#FFBD73" transform="translate(409.341796875,300.814697265625)"/>
<path d="M0 0 C2 2 2 2 2.25 5.5 C2 9 2 9 0 11 C-3.5 11.3125 -3.5 11.3125 -7 11 C-9 8 -9 8 -8.75 4.375 C-8.5025 3.26125 -8.255 2.1475 -8 1 C-5.23749964 -0.38125018 -3.05268901 -0.19079306 0 0 Z " fill="#FFBD73" transform="translate(398,221)"/>
</svg>
