<?xml version="1.0" encoding="UTF-8"?>
<svg version="1.1" xmlns="http://www.w3.org/2000/svg" width="512" height="512">
<path d="M0 0 C7.26003996 6.18632625 13.52014159 12.95750273 19.27099609 20.56445312 C19.67560059 21.0887793 20.08020508 21.61310547 20.49707031 22.15332031 C44.44102916 53.32373349 54.22483487 93.43066293 49.49804688 132.29199219 C45.92624361 157.25002942 36.91578651 181.61453153 21.27099609 201.56445312 C20.55427734 202.48871094 19.83755859 203.41296875 19.09912109 204.36523438 C15.64393454 208.69647001 12.05107825 212.82540713 8.23071289 216.83837891 C-8.97387053 235.01397062 -18.90610039 257.25651394 -23.22900391 281.75195312 C-24.29755 287.46503196 -25.27390925 290.77762267 -29.72900391 294.56445312 C-32.55312155 295.50582567 -34.25818422 295.68170695 -37.17822266 295.66210938 C-38.02578125 295.65888672 -38.87333984 295.65566406 -39.74658203 295.65234375 C-40.62765625 295.64396484 -41.50873047 295.63558594 -42.41650391 295.62695312 C-43.30917969 295.62244141 -44.20185547 295.61792969 -45.12158203 295.61328125 C-47.32408464 295.60150316 -49.52655276 295.58356794 -51.72900391 295.56445312 C-51.72900391 299.52445312 -51.72900391 303.48445313 -51.72900391 307.56445312 C-50.32650391 307.46132813 -48.92400391 307.35820312 -47.47900391 307.25195312 C-43.84636687 307.25768284 -43.03994298 307.31274054 -40.10400391 309.68945312 C-38.41846019 313.2137718 -38.58024799 314.87202339 -39.72900391 318.56445312 C-41.72900391 320.56445312 -41.72900391 320.56445312 -44.11181641 320.75976562 C-45.46919922 320.72496094 -45.46919922 320.72496094 -46.85400391 320.68945312 C-48.46275391 320.64820313 -50.07150391 320.60695313 -51.72900391 320.56445312 C-51.72900391 324.19445312 -51.72900391 327.82445312 -51.72900391 331.56445312 C-50.32650391 331.46132813 -48.92400391 331.35820312 -47.47900391 331.25195312 C-43.84636687 331.25768284 -43.03994298 331.31274054 -40.10400391 333.68945312 C-38.72900391 336.56445312 -38.72900391 336.56445312 -38.66650391 339.68945312 C-39.72900391 342.56445312 -39.72900391 342.56445312 -41.85400391 344.43945312 C-45.30485703 345.78978696 -48.05452053 345.78059921 -51.72900391 345.56445312 C-51.72900391 348.86445313 -51.72900391 352.16445313 -51.72900391 355.56445312 C-50.32650391 355.46132813 -48.92400391 355.35820312 -47.47900391 355.25195312 C-43.84636687 355.25768284 -43.03994298 355.31274054 -40.10400391 357.68945312 C-38.72900391 360.56445312 -38.72900391 360.56445312 -38.66650391 363.68945312 C-39.72900391 366.56445313 -39.72900391 366.56445313 -41.85400391 368.43945312 C-45.30485703 369.78978696 -48.05452053 369.78059921 -51.72900391 369.56445312 C-51.77025391 370.61632812 -51.81150391 371.66820312 -51.85400391 372.75195312 C-52.76733335 376.73146 -53.72698494 378.08443647 -56.89746094 380.56323242 C-60.19748598 382.36720506 -63.43672259 382.09248051 -67.10400391 381.87695312 C-67.84005859 381.85439453 -68.57611328 381.83183594 -69.33447266 381.80859375 C-71.13354233 381.7501824 -72.93155143 381.6605165 -74.72900391 381.56445312 C-75.01646484 382.49128906 -75.30392578 383.418125 -75.60009766 384.37304688 C-78.05198677 391.30451194 -82.38031276 394.28161087 -88.64306641 397.58398438 C-95.5652752 400.83768177 -105.85807336 400.88450148 -113.16650391 398.50195312 C-119.19520695 395.72453753 -125.01676463 390.66699149 -127.72900391 384.56445312 C-127.72900391 383.57445312 -127.72900391 382.58445312 -127.72900391 381.56445312 C-128.82599609 381.59925781 -129.92298828 381.6340625 -131.05322266 381.66992188 C-132.50763436 381.69807178 -133.96206271 381.72537065 -135.41650391 381.75195312 C-136.49834961 381.7896582 -136.49834961 381.7896582 -137.60205078 381.828125 C-142.20122811 381.89112743 -145.07628669 381.40776141 -148.72900391 378.56445312 C-150.82444197 375.57097018 -150.92897721 373.16397253 -150.72900391 369.56445312 C-152.30681641 369.65726562 -152.30681641 369.65726562 -153.91650391 369.75195312 C-158.15025974 369.54373563 -160.71642555 368.57703148 -163.72900391 365.56445312 C-164.0146346 362.35110786 -164.10057873 360.24547059 -162.53759766 357.38085938 C-160.72900391 355.56445312 -160.72900391 355.56445312 -158.24853516 355.17382812 C-155.74202474 355.30403646 -153.23551432 355.43424479 -150.72900391 355.56445312 C-150.72900391 352.26445312 -150.72900391 348.96445312 -150.72900391 345.56445312 C-152.30681641 345.65726562 -152.30681641 345.65726562 -153.91650391 345.75195312 C-158.15025974 345.54373563 -160.71642555 344.57703148 -163.72900391 341.56445312 C-164.1975653 335.23887428 -164.1975653 335.23887428 -162.53759766 332.84960938 C-160.10094381 331.1181642 -158.49878105 331.26173453 -155.54150391 331.37695312 C-153.95337891 331.43882812 -152.36525391 331.50070312 -150.72900391 331.56445312 C-150.72900391 327.93445313 -150.72900391 324.30445313 -150.72900391 320.56445312 C-154.48876953 320.7109375 -154.48876953 320.7109375 -158.24853516 320.85742188 C-160.72900391 320.56445312 -160.72900391 320.56445312 -162.52978516 319.27148438 C-164.52858988 316.42628026 -164.0879704 313.91480705 -163.72900391 310.56445312 C-162.52978516 308.85742188 -162.52978516 308.85742188 -160.72900391 307.56445312 C-158.24853516 307.27148438 -158.24853516 307.27148438 -155.54150391 307.37695312 C-153.95337891 307.43882812 -152.36525391 307.50070312 -150.72900391 307.56445312 C-150.72900391 303.60445313 -150.72900391 299.64445312 -150.72900391 295.56445312 C-151.68162109 295.59925781 -152.63423828 295.6340625 -153.61572266 295.66992188 C-154.86998047 295.69699219 -156.12423828 295.7240625 -157.41650391 295.75195312 C-158.65787109 295.78675781 -159.89923828 295.8215625 -161.17822266 295.85742188 C-165.64317559 295.48902642 -167.90060186 294.05875988 -171.29492188 291.28466797 C-173.17684196 289.02726093 -173.42128449 287.25497088 -173.90478516 284.36523438 C-174.18177246 282.81050415 -174.18177246 282.81050415 -174.46435547 281.22436523 C-174.65481445 280.11971924 -174.84527344 279.01507324 -175.04150391 277.87695312 C-179.39040139 254.71527945 -188.4196383 234.3763394 -205.60400391 217.75195312 C-225.28632071 198.53919458 -238.18325039 173.02566171 -244.72900391 146.56445312 C-244.90689453 145.86658691 -245.08478516 145.1687207 -245.26806641 144.44970703 C-250.25151096 123.97704445 -249.84597036 98.95677318 -244.72900391 78.56445312 C-244.56271484 77.87464355 -244.39642578 77.18483398 -244.22509766 76.47412109 C-238.63469026 53.86920524 -227.76258731 33.26227962 -212.72900391 15.56445312 C-212.25446777 15.00338867 -211.77993164 14.44232422 -211.29101562 13.86425781 C-157.40750159 -49.05766335 -62.02606225 -51.49862271 0 0 Z " fill="#FFBD73" transform="translate(355.72900390625,112.435546875)"/>
<path d="M0 0 C0.81557373 0.28818604 1.63114746 0.57637207 2.47143555 0.87329102 C6.76113 2.4860429 9.83655556 3.91275681 12.8125 7.5625 C12.21824219 8.62082031 11.62398437 9.67914063 11.01171875 10.76953125 C0.83555025 29.27108929 -7.0464784 48.57476305 -12.70263672 68.91357422 C-18.6706665 90.24723928 -26.89974273 112.12041852 -42.1875 128.5625 C-42.77402344 129.2740625 -43.36054688 129.985625 -43.96484375 130.71875 C-54.37790199 142.56730642 -74.95519456 149.7644073 -90.30078125 150.765625 C-97.30932982 150.86831436 -102.68548972 150.20738554 -109.1875 147.5625 C-109.49042969 148.38234375 -109.79335937 149.2021875 -110.10546875 150.046875 C-110.52441406 151.12453125 -110.94335938 152.2021875 -111.375 153.3125 C-111.78105469 154.37984375 -112.18710938 155.4471875 -112.60546875 156.546875 C-114.7306548 160.59784693 -117.11710667 162.89215342 -121.50390625 164.3125 C-127.47853751 164.97750244 -127.47853751 164.97750244 -130.75 163.0625 C-132.83114258 159.44312159 -132.84891818 157.72943454 -132.1875 153.5625 C-130.83018856 150.67821319 -129.32125432 147.9522597 -127.6953125 145.2109375 C-124.72508548 139.99380299 -123.36608016 135.61583429 -124.1875 129.5625 C-125.19991871 126.10530401 -126.55230235 122.82251994 -127.9375 119.5 C-128.67659098 117.62555057 -129.41096026 115.74923259 -130.140625 113.87109375 C-130.49447266 112.96085449 -130.84832031 112.05061523 -131.21289062 111.11279297 C-139.0748541 90.54013002 -138.18249852 69.28117784 -129.3203125 49.171875 C-117.94866037 24.87215472 -99.98614844 8.37841155 -75.1875 -1.4375 C-51.14277297 -10.04309784 -23.75903925 -8.39591719 0 0 Z " fill="#FFBD73" transform="translate(335.1875,175.4375)"/>
<path d="M0 0 C32.67 0 65.34 0 99 0 C99 3.96 99 7.92 99 12 C100.4025 11.896875 101.805 11.79375 103.25 11.6875 C106.88263704 11.69322971 107.68906093 11.74828742 110.625 14.125 C112.31054372 17.64931868 112.14875592 19.30757027 111 23 C109 25 109 25 106.6171875 25.1953125 C105.71226562 25.17210937 104.80734375 25.14890625 103.875 25.125 C102.26625 25.08375 100.6575 25.0425 99 25 C99 28.63 99 32.26 99 36 C101.10375 35.8453125 101.10375 35.8453125 103.25 35.6875 C106.88263704 35.69322971 107.68906093 35.74828742 110.625 38.125 C112 41 112 41 112.0625 44.125 C111 47 111 47 108.875 48.875 C105.42414688 50.22533383 102.67448337 50.21614608 99 50 C99 53.3 99 56.6 99 60 C101.10375 59.8453125 101.10375 59.8453125 103.25 59.6875 C106.88263704 59.69322971 107.68906093 59.74828742 110.625 62.125 C112 65 112 65 112.0625 68.125 C111 71 111 71 108.875 72.875 C105.42414688 74.22533383 102.67448337 74.21614608 99 74 C98.95875 75.051875 98.9175 76.10375 98.875 77.1875 C97.96167055 81.16700688 97.00201897 82.51998334 93.83154297 84.9987793 C90.53151792 86.80275193 87.29228132 86.52802738 83.625 86.3125 C82.88894531 86.28994141 82.15289062 86.26738281 81.39453125 86.24414062 C79.59546158 86.18572927 77.79745247 86.09606337 76 86 C75.71253906 86.92683594 75.42507813 87.85367188 75.12890625 88.80859375 C72.67701714 95.74005882 68.34869115 98.71715774 62.0859375 102.01953125 C55.16372871 105.27322864 44.87093055 105.32004836 37.5625 102.9375 C31.53379696 100.16008441 25.71223927 95.10253837 23 89 C23 88.01 23 87.02 23 86 C21.90300781 86.03480469 20.80601562 86.06960938 19.67578125 86.10546875 C18.22136955 86.13361865 16.7669412 86.16091752 15.3125 86.1875 C14.59126953 86.21263672 13.87003906 86.23777344 13.12695312 86.26367188 C8.5277758 86.3266743 5.65271721 85.84330829 2 83 C-0.09543806 80.00651705 -0.1999733 77.59951941 0 74 C-1.5778125 74.0928125 -1.5778125 74.0928125 -3.1875 74.1875 C-7.42125583 73.9792825 -9.98742165 73.01257835 -13 70 C-13.28563069 66.78665473 -13.37157483 64.68101747 -11.80859375 61.81640625 C-10 60 -10 60 -7.51953125 59.609375 C-3.75976562 59.8046875 -3.75976562 59.8046875 0 60 C0 56.7 0 53.4 0 50 C-1.5778125 50.0928125 -1.5778125 50.0928125 -3.1875 50.1875 C-7.42125583 49.9792825 -9.98742165 49.01257835 -13 46 C-13.4685614 39.67442116 -13.4685614 39.67442116 -11.80859375 37.28515625 C-9.37193991 35.55371108 -7.76977715 35.69728141 -4.8125 35.8125 C-2.4303125 35.9053125 -2.4303125 35.9053125 0 36 C0 32.37 0 28.74 0 25 C-3.75976562 25.14648438 -3.75976562 25.14648438 -7.51953125 25.29296875 C-10 25 -10 25 -11.80078125 23.70703125 C-13.79958597 20.86182713 -13.35896649 18.35035393 -13 15 C-11.80078125 13.29296875 -11.80078125 13.29296875 -10 12 C-7.51953125 11.70703125 -7.51953125 11.70703125 -4.8125 11.8125 C-2.4303125 11.9053125 -2.4303125 11.9053125 0 12 C0 8.04 0 4.08 0 0 Z " fill="#FFBD73" transform="translate(205,408)"/>
<path d="M0 0 C-1.1859375 0.47308594 -2.371875 0.94617188 -3.59375 1.43359375 C-15.8588849 6.41172814 -28.54806515 11.69608183 -39 20 C-38.11957031 20.04898438 -37.23914063 20.09796875 -36.33203125 20.1484375 C-34.58986328 20.26058594 -34.58986328 20.26058594 -32.8125 20.375 C-31.66394531 20.44460937 -30.51539063 20.51421875 -29.33203125 20.5859375 C-26.20040883 20.97509574 -23.84714191 21.6809851 -21 23 C-21 23.33 -21 23.66 -21 24 C-22.41539062 23.94779297 -22.41539062 23.94779297 -23.859375 23.89453125 C-35.11092105 23.65729986 -44.78590705 23.72190907 -53.6875 31.5 C-66.17212458 43.89506486 -75.584114 58.12127938 -83 74 C-82.41734375 73.67386719 -81.8346875 73.34773438 -81.234375 73.01171875 C-64.8129628 64.25879621 -46.66300422 63.67255887 -29 69 C-29 69.33 -29 69.66 -29 70 C-29.86782104 70.029729 -29.86782104 70.029729 -30.75317383 70.06005859 C-52.27736836 70.8352808 -71.84489189 72.84489189 -88 89 C-89.95790671 96.22697917 -90.44105666 103.81073034 -91 111.25 C-93.61512375 142.86343068 -93.61512375 142.86343068 -100.1875 150.5625 C-104.07318525 152.5485169 -107.63284428 153.32590714 -112 153 C-114.5625 151.5 -114.5625 151.5 -116 149 C-117.24200642 142.91416853 -114.62584393 138.91499722 -111.60546875 133.84375 C-108.34241425 128.0639357 -106.47017905 122.49379726 -105.16796875 116.00390625 C-104.84076677 114.45892675 -104.51328333 112.91400684 -104.18554688 111.36914062 C-103.6876985 108.98146079 -103.19374685 106.5930947 -102.70581055 104.20336914 C-99.05613104 86.44011418 -93.77074196 67.57023681 -82.25 53.1875 C-73.56620168 41.16228488 -74.99722539 21.17778785 -74 7 C-71.622374 10.56643899 -70.87361161 13.01276892 -70.8671875 17.203125 C-70.86525391 18.42708984 -70.86525391 18.42708984 -70.86328125 19.67578125 C-70.86714844 20.52527344 -70.87101562 21.37476563 -70.875 22.25 C-70.86919922 23.50103516 -70.86919922 23.50103516 -70.86328125 24.77734375 C-70.87089033 29.62432986 -71.18630161 34.22113642 -72 39 C-71.23558594 38.18917969 -70.47117188 37.37835938 -69.68359375 36.54296875 C-56.15519865 22.4491951 -21.70481609 -6.74820279 0 0 Z " fill="#FFBD73" transform="translate(319,187)"/>
<path d="M0 0 C32.67 0 65.34 0 99 0 C99 3.96 99 7.92 99 12 C66.33 12 33.66 12 0 12 C0 8.04 0 4.08 0 0 Z " fill="#FFBD73" transform="translate(205,408)"/>
<path d="M0 0 C32.67 0 65.34 0 99 0 C99 3.63 99 7.26 99 11 C66.33 11 33.66 11 0 11 C0 7.37 0 3.74 0 0 Z " fill="#FFBD73" transform="translate(205,457)"/>
<path d="M0 0 C32.67 0 65.34 0 99 0 C99 3.63 99 7.26 99 11 C66.33 11 33.66 11 0 11 C0 7.37 0 3.74 0 0 Z " fill="#FFBD73" transform="translate(205,433)"/>
<path d="M0 0 C17.49 0 34.98 0 53 0 C50.1276841 8.61694769 46.86747454 11.91629756 39.0859375 16.01953125 C32.16372871 19.27322864 21.87093055 19.32004836 14.5625 16.9375 C8.53379696 14.16008441 2.71223927 9.10253837 0 3 C0 2.01 0 1.02 0 0 Z " fill="#FFBD73" transform="translate(228,494)"/>
<path d="M0 0 C4.455 2.97 4.455 2.97 9 6 C5.94700102 11.63573161 2.40688376 16.69090351 -1.4375 21.8125 C-2.68564477 23.49032854 -3.93302125 25.16872884 -5.1796875 26.84765625 C-5.81229492 27.69859863 -6.44490234 28.54954102 -7.09667969 29.42626953 C-10.11742223 33.51101401 -13.0923625 37.62837896 -16.0625 41.75 C-16.58577881 42.47550049 -17.10905762 43.20100098 -17.64819336 43.94848633 C-20.77698226 48.29079871 -23.89185358 52.64289199 -27 57 C-30.45925163 55.7508258 -33.14693203 54.32472205 -36 52 C-35.40121031 49.03605184 -34.52611966 47.0117185 -32.76953125 44.55859375 C-32.30329346 43.90205811 -31.83705566 43.24552246 -31.35668945 42.5690918 C-30.84710693 41.8656665 -30.33752441 41.16224121 -29.8125 40.4375 C-29.28293701 39.69733643 -28.75337402 38.95717285 -28.20776367 38.19458008 C-18.97752014 25.33783341 -9.53226148 12.63402911 0 0 Z " fill="#FFBD73" transform="translate(389,41)"/>
<path d="M0 0 C3.93803977 3.60750886 6.86255837 7.79326268 9.9375 12.125 C11.09492078 13.74228148 12.25247684 15.35946614 13.41015625 16.9765625 C14.00199707 17.80575195 14.59383789 18.63494141 15.20361328 19.48925781 C17.52405617 22.73245361 19.86297089 25.96206492 22.20263672 29.19140625 C27.19671428 36.08542047 32.1606348 42.99611872 37 50 C34.15063897 53.00765886 31.76488042 55.27845212 28 57 C20.67190888 47.63724702 13.65956991 38.07043401 6.73046875 28.40966797 C3.72522949 24.22488925 0.70549025 20.05058695 -2.3125 15.875 C-3.41282293 14.35160765 -4.51308933 12.82817447 -5.61328125 11.3046875 C-6.07516846 10.66515137 -6.53705566 10.02561523 -7.01293945 9.36669922 C-7.33866943 8.91568848 -7.66439941 8.46467773 -8 8 C-6.20953589 3.86281109 -3.83902629 2.33679861 0 0 Z " fill="#FFBD73" transform="translate(124,40)"/>
<path d="M0 0 C5.51001581 1.73972 11.0194205 3.48135876 16.52832031 5.22460938 C18.3937224 5.81462678 20.25927686 6.40416269 22.125 6.99316406 C34.4544713 10.88598205 46.74762419 14.87068385 59 19 C58.01 22.63 57.02 26.26 56 30 C48.56695103 28.02313732 41.24070139 25.85870716 33.93359375 23.4609375 C32.93288345 23.13461334 31.93217316 22.80828918 30.90113831 22.47207642 C28.80924692 21.78929488 26.71777393 21.10523024 24.62670898 20.41992188 C21.41560839 19.36782737 18.20303115 18.32033956 14.99023438 17.2734375 C12.95043315 16.60703917 10.91071647 15.94038197 8.87109375 15.2734375 C7.90973007 14.95990326 6.94836639 14.64636902 5.95787048 14.32333374 C5.07257156 14.03278107 4.18727264 13.74222839 3.27514648 13.44287109 C2.4955809 13.18766693 1.71601532 12.93246277 0.91282654 12.66952515 C-1 12 -1 12 -3 11 C-2.5251065 6.88425629 -1.9789756 3.63616656 0 0 Z " fill="#FFBD73" transform="translate(37,154)"/>
<path d="M0 0 C0.99 3.3 1.98 6.6 3 10 C-3.89495709 12.82658162 -10.81572459 15.36021247 -17.8984375 17.671875 C-18.8958194 17.99915588 -19.89320129 18.32643677 -20.92080688 18.66363525 C-23.00930547 19.34762463 -25.09837388 20.02987634 -27.18798828 20.71044922 C-30.38929256 21.754662 -33.58724517 22.80872909 -36.78515625 23.86328125 C-38.82272058 24.52924609 -40.8604744 25.19463149 -42.8984375 25.859375 C-44.32970474 26.33271271 -44.32970474 26.33271271 -45.78988647 26.81561279 C-46.67826202 27.10301331 -47.56663757 27.39041382 -48.48193359 27.68652344 C-49.26007416 27.94093201 -50.03821472 28.19534058 -50.8399353 28.4574585 C-53 29 -53 29 -57 29 C-58.66434402 24.79018866 -59.06511827 22.37219878 -58 18 C-50.88241913 15.64786896 -43.76327716 13.30051832 -36.64210796 10.95927429 C-33.33557515 9.87201084 -30.02960299 8.78310278 -26.72485352 7.69042969 C-22.92624493 6.43454834 -19.12531389 5.18583542 -15.32421875 3.9375 C-13.54285774 3.34690796 -13.54285774 3.34690796 -11.72550964 2.74438477 C-10.62459488 2.38401123 -9.52368011 2.0236377 -8.3894043 1.65234375 C-7.41899704 1.33257568 -6.44858978 1.01280762 -5.44877625 0.68334961 C-3 0 -3 0 0 0 Z " fill="#FFBD73" transform="translate(476,156)"/>
<path d="M0 0 C6.47548987 0.64646775 12.37836746 2.556382 18.55078125 4.5625 C19.64593552 4.9138501 20.74108978 5.2652002 21.86943054 5.62719727 C24.17397189 6.3676531 26.47765341 7.11078972 28.78051758 7.85644531 C32.31605857 9.00115216 35.85404841 10.1380069 39.39257812 11.2734375 C41.63295819 11.99433905 43.8731976 12.71567791 46.11328125 13.4375 C47.17468826 13.77918213 48.23609528 14.12086426 49.32966614 14.47290039 C50.79710518 14.9484436 50.79710518 14.9484436 52.29418945 15.43359375 C53.58822441 15.85209595 53.58822441 15.85209595 54.90840149 16.27905273 C57 17 57 17 59 18 C58.125 25.625 58.125 25.625 57 29 C49.16093463 27.13257614 41.48746673 24.98554207 33.8359375 22.4609375 C32.83664215 22.13461334 31.8373468 21.80828918 30.80776978 21.47207642 C28.72163088 20.78997557 26.63613422 20.10590752 24.55126953 19.41992188 C21.34943887 18.36659096 18.14560885 17.31952834 14.94140625 16.2734375 C12.90613235 15.60713009 10.87097185 14.94047619 8.8359375 14.2734375 C7.87771088 13.95990326 6.91948425 13.64636902 5.93222046 13.32333374 C5.05014923 13.03278107 4.168078 12.74222839 3.25927734 12.44287109 C2.48272797 12.18766693 1.70617859 11.93246277 0.90609741 11.66952515 C-1 11 -1 11 -3 10 C-2.01 6.7 -1.02 3.4 0 0 Z " fill="#FFBD73" transform="translate(419,281)"/>
<path d="M0 0 C1.52160014 3.6037898 2 6.05220686 2 10 C-5.24802005 12.35205485 -12.49755084 14.69939957 -19.74904346 17.04072571 C-23.11608517 18.12802318 -26.48258446 19.2169419 -29.84790039 20.30957031 C-33.71605928 21.56537995 -37.58646604 22.81412649 -41.45703125 24.0625 C-42.66647903 24.45622803 -43.87592682 24.84995605 -45.12202454 25.25561523 C-46.80342781 25.79617554 -46.80342781 25.79617554 -48.51879883 26.34765625 C-49.50697098 26.66742432 -50.49514313 26.98719238 -51.51325989 27.31665039 C-54 28 -54 28 -57 28 C-57.99 24.7 -58.98 21.4 -60 18 C-53.96627524 15.26394848 -47.78651114 13.20194299 -41.484375 11.171875 C-40.39159241 10.81861145 -39.29880981 10.4653479 -38.1729126 10.10137939 C-35.87401782 9.35997936 -33.57450527 8.62049244 -31.27441406 7.8828125 C-27.74512051 6.74843164 -24.22024929 5.60096136 -20.6953125 4.453125 C-18.45859332 3.73356635 -16.22162267 3.0147888 -13.984375 2.296875 C-12.92812927 1.95114441 -11.87188354 1.60541382 -10.78363037 1.24920654 C-9.80541321 0.93848206 -8.82719604 0.62775757 -7.81933594 0.30761719 C-6.95886658 0.03020691 -6.09839722 -0.24720337 -5.21185303 -0.53302002 C-3 -1 -3 -1 0 0 Z " fill="#FFBD73" transform="translate(93,280)"/>
<path d="M0 0 C3.63 0 7.26 0 11 0 C11 20.46 11 40.92 11 62 C7.37 62 3.74 62 0 62 C0 41.54 0 21.08 0 0 Z " fill="#FFBD73" transform="translate(251,0)"/>
</svg>
