<?xml version="1.0" encoding="UTF-8"?>
<svg version="1.1" xmlns="http://www.w3.org/2000/svg" width="512" height="512">
<path d="M0 0 C1.87960419 -0.01292336 1.87960419 -0.01292336 3.79718018 -0.02610779 C7.21495717 -0.04485016 10.63175954 -0.04568677 14.04951239 -0.03678632 C16.91210088 -0.03165363 19.77460365 -0.03898756 22.63718331 -0.04625839 C29.39589465 -0.06322509 36.15438005 -0.05972526 42.91308594 -0.04296875 C49.86378985 -0.02605796 56.81386524 -0.04187432 63.7645005 -0.07419163 C69.75207666 -0.10096675 75.73945812 -0.10814208 81.72708809 -0.09967655 C85.29441602 -0.09476934 88.86136624 -0.09684161 92.42864609 -0.11746407 C96.41101032 -0.13938647 100.3926288 -0.12033305 104.375 -0.09765625 C106.12561234 -0.11519455 106.12561234 -0.11519455 107.91159058 -0.13308716 C116.13488286 -0.03814664 123.05268041 1.56993953 129.22459221 7.30661678 C136.25632545 14.95670843 137.49708603 22.89561642 137.37939453 32.90844727 C137.37488281 33.64450195 137.37037109 34.38055664 137.36572266 35.13891602 C137.35404595 36.93712885 137.33611464 38.73529924 137.31689453 40.53344727 C138.83666901 40.51346176 138.83666901 40.51346176 140.387146 40.49307251 C149.97818832 40.37095867 159.56907105 40.28126874 169.16071701 40.22257423 C174.09087505 40.19138301 179.02040097 40.149136 183.95019531 40.08081055 C188.71594625 40.01517894 193.48109273 39.97964962 198.24726105 39.96418381 C200.05722813 39.95317546 201.86716554 39.93168001 203.67687225 39.89906693 C215.28927902 39.69829455 225.18688262 40.13041144 234.32855225 48.33999634 C242.65559949 57.09717658 242.55395901 68.24134606 242.69189453 79.59594727 C242.72927734 80.76706055 242.76666016 81.93817383 242.80517578 83.14477539 C242.81677734 84.27463867 242.82837891 85.40450195 242.84033203 86.56860352 C242.86015137 87.59348877 242.8799707 88.61837402 242.90039062 89.67431641 C242.08099958 93.68933251 240.58791091 95.1177004 237.31689453 97.53344727 C233.90356445 98.10107422 233.90356445 98.10107422 230.04736328 98.02172852 C229.36636063 98.01465378 228.68535797 98.00757904 227.98371887 98.00028992 C225.82279458 97.97244795 223.66452631 97.90974253 221.50439453 97.84594727 C220.03372901 97.82085058 218.5630226 97.7980398 217.09228516 97.77758789 C213.49963496 97.72265914 209.90852425 97.63646374 206.31689453 97.53344727 C206.27806152 98.50040527 206.23922852 99.46736328 206.19921875 100.46362305 C205.51064951 115.92270458 204.17924809 131.33125504 202.84277344 146.74487305 C202.50360825 150.66535077 202.17951119 154.586934 201.85838509 158.50892448 C201.60600746 161.55687882 201.34237943 164.6037851 201.07567978 167.65051651 C200.951026 169.09738292 200.83062708 170.54462285 200.71469498 171.9922142 C200.55257238 174.004193 200.37285092 176.01473019 200.19238281 178.02514648 C200.04701584 179.7345491 200.04701584 179.7345491 199.89871216 181.47848511 C199.26699825 184.79543874 198.34125023 186.84301251 196.31689453 189.53344727 C193.44189453 190.59594727 193.44189453 190.59594727 190.31689453 190.53344727 C188.66689453 189.21344727 187.01689453 187.89344727 185.31689453 186.53344727 C186.78635835 157.14417091 189.73053215 127.8455543 192.31689453 98.53344727 C99.91689453 98.20344727 7.51689453 97.87344727 -87.68310547 97.53344727 C-87.02310547 102.48344727 -86.36310547 107.43344727 -85.68310547 112.53344727 C-85.26183517 116.71711181 -84.86370312 120.89420205 -84.50695801 125.08294678 C-84.35337822 126.83624813 -84.35337822 126.83624813 -84.1966958 128.62496972 C-83.91757065 131.81908382 -83.64147161 135.01344166 -83.36671758 138.20793414 C-83.06796104 141.6723476 -82.76514794 145.13640685 -82.46281433 148.60050964 C-81.94073606 154.58816488 -81.42103266 160.57602228 -80.90287781 166.56401825 C-80.15259633 175.23345567 -79.3974943 183.90246837 -78.6410628 192.57137111 C-77.4120967 206.65602709 -76.18542023 220.74088129 -74.9609375 234.82592773 C-74.88782775 235.66688501 -74.81471801 236.50784228 -74.73939282 237.37428311 C-73.92331903 246.76190267 -73.10780521 256.14957074 -72.29290771 265.53729248 C-71.99703613 268.94567928 -71.70115929 272.35406562 -71.40527344 275.76245117 C-71.3322548 276.60358462 -71.25923617 277.44471808 -71.18400484 278.31134042 C-69.96497408 292.35259713 -68.7419335 306.39350139 -67.51576567 320.43413663 C-66.76100713 329.07872316 -66.0096839 337.72359472 -65.2628454 346.36886916 C-64.75094906 352.29155476 -64.23533595 358.21390936 -63.71683705 364.13602057 C-63.41824965 367.54781513 -63.12133184 370.95973295 -62.82898521 374.37206841 C-62.5105118 378.07910712 -62.1856516 381.78553421 -61.85925293 385.49188232 C-61.76916914 386.55852954 -61.67908536 387.62517675 -61.58627176 388.7241466 C-60.07829672 406.52095537 -60.07829672 406.52095537 -49.56201172 420.27172852 C-45.68122767 422.87774359 -42.16175906 423.78334696 -37.52185059 423.77827454 C-36.50409042 423.78221222 -35.48633026 423.7861499 -34.43772888 423.79020691 C-33.33212112 423.78451187 -32.22651337 423.77881683 -31.08740234 423.77294922 C-29.91452164 423.77496338 -28.74164093 423.77697754 -27.53321838 423.77905273 C-24.9883396 423.7825964 -22.443452 423.78183342 -19.89857483 423.77727699 C-15.87250018 423.77168776 -11.84671795 423.78033773 -7.82067871 423.79447937 C3.62541416 423.83218097 15.0714259 423.85040112 26.51757812 423.83886719 C32.84410987 423.83264931 39.17035493 423.84423587 45.49681616 423.87531251 C48.8423194 423.89090376 52.18677589 423.89412235 55.53236389 423.88073158 C59.26242444 423.86644206 62.99120212 423.88263815 66.72119141 423.90576172 C67.82679916 423.89399399 68.93240692 423.88222626 70.07151794 423.87010193 C77.53022136 423.96095507 77.53022136 423.96095507 81.53771973 426.87736511 C83.31689453 429.53344727 83.31689453 429.53344727 83.37939453 432.65844727 C82.15354826 435.97544305 81.30128965 436.74498736 78.31689453 438.53344727 C75.99137592 438.90817738 75.99137592 438.90817738 73.3787384 438.90766907 C72.38496185 438.91468338 71.3911853 438.92169769 70.36729431 438.92892456 C69.28307693 438.92128082 68.19885956 438.91363708 67.08178711 438.90576172 C65.93498474 438.90941238 64.78818237 438.91306305 63.60662842 438.91682434 C59.80807776 438.92494256 56.00995212 438.91130444 52.21142578 438.89672852 C49.57069397 438.89620989 46.92996177 438.8967277 44.28923035 438.89823914 C38.74851406 438.89912205 33.20792011 438.8880476 27.66723633 438.86962891 C21.27913455 438.84851348 14.89121264 438.8449403 8.50308305 438.85119087 C2.34359326 438.85690738 -3.81582362 438.85110325 -9.97530556 438.84001732 C-12.58869486 438.83617594 -15.20208955 438.83501269 -17.81548119 438.83660316 C-21.47743247 438.83697559 -25.13911467 438.82430169 -28.80102539 438.80810547 C-30.41216972 438.81182159 -30.41216972 438.81182159 -32.05586243 438.81561279 C-45.03235158 438.72439525 -54.94707404 435.82344457 -64.56982422 426.86547852 C-73.80816111 416.67086276 -74.78881445 404.29024786 -75.91067505 391.16088867 C-76.07249687 389.34555854 -76.07249687 389.34555854 -76.23758781 387.49355507 C-76.5335311 384.16091635 -76.82452508 380.82791472 -77.11335444 377.49465656 C-77.42696087 373.88961739 -77.74701213 370.28514946 -78.06622314 366.68060303 C-78.68959414 359.62976497 -79.30700428 352.57841725 -79.92229833 345.52687025 C-80.42267567 339.79379412 -80.92532757 334.06092153 -81.42959213 328.32818604 C-81.50148055 327.51092124 -81.57336896 326.69365644 -81.64743581 325.85162604 C-81.79350819 324.19114612 -81.93958714 322.53066677 -82.0856726 320.870188 C-83.37594772 306.20171096 -84.66062611 291.532749 -85.94238281 276.86352539 C-87.18492994 262.64304465 -88.4322655 248.42299392 -89.68457031 234.20336914 C-91.04966282 218.7030062 -92.41197774 203.2024037 -93.7695893 187.70138359 C-93.91447439 186.04715839 -94.05936139 184.39293336 -94.20425034 182.7387085 C-94.31116567 181.51797903 -94.31116567 181.51797903 -94.42024092 180.27258837 C-94.92168364 174.54928709 -95.42505368 168.82615719 -95.929142 163.10308838 C-96.54372576 156.12471515 -97.15513037 149.14607178 -97.76254643 142.16707087 C-98.07227849 138.60919904 -98.38336968 135.05146066 -98.69826126 131.49404144 C-99.04008643 127.63177096 -99.37511405 123.76892761 -99.70950317 119.90600586 C-99.8592038 118.23234923 -99.8592038 118.23234923 -100.01192868 116.52488136 C-100.55480959 110.17554226 -100.80755914 103.90563194 -100.68310547 97.53344727 C-101.6315332 97.55439453 -102.57996094 97.5753418 -103.55712891 97.59692383 C-107.08326972 97.66518286 -110.60870646 97.71528655 -114.13525391 97.75317383 C-115.66010632 97.77326326 -117.18488194 97.80054042 -118.70947266 97.83520508 C-120.90400145 97.88384522 -123.09751016 97.90644123 -125.29248047 97.92407227 C-126.6121582 97.94501953 -127.93183594 97.9659668 -129.29150391 97.98754883 C-132.68310547 97.53344727 -132.68310547 97.53344727 -135.11181641 95.92163086 C-137.18281305 92.77394764 -137.19989931 90.68790348 -137.21435547 86.93188477 C-137.21951172 85.63637695 -137.22466797 84.34086914 -137.22998047 83.00610352 C-137.22160156 82.33208496 -137.21322266 81.65806641 -137.20458984 80.96362305 C-137.18338167 78.93486837 -137.20428275 76.90974078 -137.22998047 74.88110352 C-137.18621998 63.82063875 -135.29081004 55.4075071 -127.62060547 47.22485352 C-121.4368142 41.82650348 -114.73542069 40.38228369 -106.72338867 40.41992188 C-105.50841202 40.41970284 -105.50841202 40.41970284 -104.26889038 40.41947937 C-101.59052862 40.42017626 -98.91223633 40.42795824 -96.23388672 40.43579102 C-94.37729429 40.43765599 -92.52070137 40.43907952 -90.66410828 40.44007874 C-85.77654666 40.44389767 -80.88901473 40.45372266 -76.00146484 40.46478271 C-71.01448976 40.47501023 -66.02750989 40.47957923 -61.04052734 40.48461914 C-51.254707 40.49534546 -41.4689087 40.51241443 -31.68310547 40.53344727 C-31.70123291 39.30585693 -31.71936035 38.0782666 -31.73803711 36.81347656 C-31.7527 35.18237678 -31.766918 33.55127296 -31.78076172 31.92016602 C-31.79385376 31.11349487 -31.8069458 30.30682373 -31.82043457 29.47570801 C-31.87437373 20.98999903 -30.30330484 13.99003171 -24.43310547 7.59594727 C-17.1625971 0.5593909 -9.62574443 -0.05363777 0 0 Z M-13.68310547 16.53344727 C-19.34720606 23.82774772 -19.34720606 23.82774772 -17.68310547 40.53344727 C28.84689453 40.53344727 75.37689453 40.53344727 123.31689453 40.53344727 C124.72262152 24.64975988 124.72262152 24.64975988 119.31689453 16.53344727 C114.02143508 12.51168733 107.98861789 13.1101385 101.62353516 13.14526367 C100.45211472 13.14000671 99.28069427 13.13474976 98.07377625 13.1293335 C94.20676284 13.11614419 90.34016203 13.12486825 86.47314453 13.13500977 C83.78324044 13.13434147 81.09334366 13.13008152 78.40344238 13.12631226 C72.76793967 13.12086123 67.13255507 13.12802907 61.49707031 13.14233398 C54.99066975 13.15865935 48.48455125 13.15337037 41.97815752 13.13685477 C36.38221089 13.12322118 30.78634895 13.12132935 25.19039106 13.12917078 C21.85238088 13.13383709 18.51460927 13.13331549 15.17658997 13.12456131 C11.45428404 13.11694163 7.73251952 13.12855934 4.01025391 13.14526367 C2.90981247 13.13919098 1.80937103 13.13311829 0.67558289 13.12686157 C-6.95379461 13.17819091 -6.95379461 13.17819091 -13.68310547 16.53344727 Z M-118.68310547 57.53344727 C-124.53210612 65.10509782 -124.53210612 65.10509782 -122.68310547 83.53344727 C-6.85310547 83.53344727 108.97689453 83.53344727 228.31689453 83.53344727 C230.07344515 65.96642277 230.07344515 65.96642277 224.31689453 58.53344727 C219.86082467 54.51211593 216.79650207 53.40996856 210.86321735 53.39922619 C209.72310745 53.39476834 208.58299754 53.3903105 207.40833884 53.38571757 C206.15019423 53.38590193 204.89204962 53.3860863 203.59577942 53.38627625 C202.25008099 53.38297737 200.90438356 53.37925175 199.55868739 53.37513477 C195.85259421 53.36510932 192.14651722 53.3613971 188.4404124 53.35874546 C184.44640277 53.35484402 180.45240598 53.34526557 176.45840454 53.33653259 C166.80881288 53.31676363 157.15922016 53.30670142 147.50961331 53.2978048 C142.96649309 53.2934226 138.42337404 53.28805562 133.88025475 53.28281593 C118.77966586 53.26580321 103.67907771 53.25130876 88.57848072 53.24406719 C84.65917268 53.24215727 80.73986465 53.24023694 76.82055664 53.23828125 C75.8464206 53.23779751 74.87228456 53.23731377 73.86862924 53.23681537 C58.08616386 53.22851402 42.30377425 53.20317552 26.52134196 53.17070057 C10.32134905 53.13763794 -5.87860535 53.11961915 -22.07863218 53.11642295 C-31.17576724 53.11425711 -40.27279182 53.10549771 -49.36989403 53.07996178 C-57.11701807 53.05826565 -64.86400479 53.05019899 -72.61115577 53.05992856 C-76.56357014 53.06447644 -80.51570112 53.06255892 -84.46807671 53.04316711 C-88.08858149 53.02555709 -91.70859569 53.02651517 -95.32910553 53.04206441 C-97.25470337 53.04556838 -99.18030623 53.02939797 -101.10583276 53.01245993 C-107.52134241 53.06019949 -113.61583372 53.15538619 -118.68310547 57.53344727 Z " fill="#FFBD73" transform="translate(153.68310546875,15.466552734375)"/>
<path d="M0 0 C1.10927856 -0.00287018 2.21855713 -0.00574036 3.3614502 -0.00869751 C5.70142122 -0.01073452 8.04140942 -0.00523013 10.38134766 0.00732422 C13.95644321 0.02338222 17.53040823 0.00746234 21.10546875 -0.01171875 C23.38281499 -0.00973625 25.66016052 -0.00589245 27.9375 0 C29.00327271 -0.00607269 30.06904541 -0.01214539 31.16711426 -0.0184021 C37.96954568 0.04584537 42.57896881 0.74947141 47.765625 5.50390625 C50.11799567 9.50185732 50.37274584 13.14440345 50.71875 17.7109375 C50.79609375 18.54689453 50.8734375 19.38285156 50.953125 20.24414062 C51.1405599 22.2942098 51.30678724 24.34619884 51.46875 26.3984375 C53.88026557 27.43322963 56.29669469 28.4513747 58.71875 29.4609375 C59.40066406 29.75548828 60.08257812 30.05003906 60.78515625 30.35351562 C64.46103143 31.87026024 66.69663859 32.76560926 70.46875 31.3984375 C72.53253881 29.62239512 72.53253881 29.62239512 74.46875 27.4609375 C78.33700486 23.29803042 80.65617562 21.54229261 86.40625 21.0859375 C90.97168334 20.96794419 93.90792976 22.99952128 97.25926208 26.0032196 C99.39236379 28.05737922 101.48986566 30.14245138 103.578125 32.2421875 C104.34554016 33.00768921 105.11295532 33.77319092 105.90362549 34.56188965 C107.51975328 36.17665953 109.13337044 37.79394557 110.74462891 39.41357422 C113.21686283 41.89654214 115.69961278 44.36863389 118.18359375 46.83984375 C119.75324611 48.41081719 121.32227823 49.98241065 122.890625 51.5546875 C123.63536072 52.29537476 124.38009644 53.03606201 125.1473999 53.79919434 C125.83191223 54.49001099 126.51642456 55.18082764 127.22167969 55.89257812 C128.12838409 56.80166931 128.12838409 56.80166931 129.05340576 57.72912598 C131.71296297 60.86591021 131.8152489 64.2886974 131.7421875 68.28515625 C130.84661464 75.2066551 125.32304139 79.91230866 120.46875 84.3984375 C121.95079026 89.09156499 123.75656356 93.59685586 125.6640625 98.12890625 C126.46875 100.3984375 126.46875 100.3984375 126.46875 103.3984375 C127.69851563 103.34042969 128.92828125 103.28242188 130.1953125 103.22265625 C131.82808688 103.17573745 133.46090252 103.13023956 135.09375 103.0859375 C135.90199219 103.04404297 136.71023438 103.00214844 137.54296875 102.95898438 C141.68898178 102.87471582 144.58154507 103.00531559 147.9296875 105.60546875 C151.63256342 109.67863226 152.71476554 113.10164995 152.7434082 118.55249023 C152.75294022 119.55380478 152.76247223 120.55511932 152.77229309 121.58677673 C152.77092598 123.19317772 152.77092598 123.19317772 152.76953125 124.83203125 C152.77381638 125.94272476 152.7781015 127.05341827 152.78251648 128.19776917 C152.78825241 130.54370442 152.78876548 132.88965746 152.78442383 135.2355957 C152.78126451 138.81948257 152.80473102 142.4025433 152.83007812 145.98632812 C152.83235128 148.26822813 152.83305454 150.55013034 152.83203125 152.83203125 C152.841241 153.90094101 152.85045074 154.96985077 152.85993958 156.07115173 C152.82576531 161.58215915 152.66198663 165.68289357 149.46875 170.3984375 C144.63542344 174.72978652 140.75148087 174.91979513 134.59375 174.6484375 C133.81 174.63039063 133.02625 174.61234375 132.21875 174.59375 C130.30154811 174.54698898 128.38498285 174.47525753 126.46875 174.3984375 C126.28699219 175.01589844 126.10523438 175.63335937 125.91796875 176.26953125 C124.21154553 182.01886487 122.40220274 187.72149116 120.46875 193.3984375 C121.09523438 194.00171875 121.72171875 194.605 122.3671875 195.2265625 C123.18445313 196.02578125 124.00171875 196.825 124.84375 197.6484375 C125.65585937 198.43734375 126.46796875 199.22625 127.3046875 200.0390625 C130.47210066 203.49234327 131.7614883 206.08452081 131.84375 210.7734375 C131.87210938 211.50304687 131.90046875 212.23265625 131.9296875 212.984375 C130.66535128 219.6060681 124.60670714 224.56733968 120.03515625 229.1328125 C119.32020493 229.85204895 118.6052536 230.5712854 117.86863708 231.31231689 C116.36247949 232.82419492 114.85372483 234.33348967 113.3425293 235.84033203 C111.03349265 238.14619793 108.73812766 240.46510059 106.44335938 242.78515625 C104.97476928 244.25601848 103.50539464 245.72609787 102.03515625 247.1953125 C101.35167618 247.88800232 100.66819611 248.58069214 99.96400452 249.29437256 C96.06896748 253.1519343 92.95445549 256.04173155 87.29296875 256.62109375 C81.50199603 256.18703547 78.50359411 254.33660659 74.390625 250.28515625 C72.22922148 248.1632906 69.83389051 246.29054991 67.46875 244.3984375 C62.18875 246.7084375 56.90875 249.0184375 51.46875 251.3984375 C50.97130406 257.0954694 50.97130406 257.0954694 50.51269531 262.7956543 C50.01908131 267.77479014 49.26046604 270.83176935 45.46875 274.3984375 C42.27987061 276.36192352 39.79548861 276.66708424 36.0769043 276.72070312 C34.99865891 276.73991821 33.92041351 276.7591333 32.80949402 276.77893066 C31.06881401 276.7916803 31.06881401 276.7916803 29.29296875 276.8046875 C27.4951873 276.82178772 27.4951873 276.82178772 25.66108704 276.8392334 C23.12508674 276.8581233 20.58903745 276.87119738 18.05297852 276.87890625 C14.18092857 276.89831381 10.31100449 276.96036125 6.43945312 277.0234375 C3.97397093 277.03649876 1.50847356 277.04699923 -0.95703125 277.0546875 C-2.1114119 277.0793811 -3.26579254 277.10407471 -4.45515442 277.1295166 C-10.85221578 277.0942161 -14.69902648 276.55117479 -19.34440613 271.98083496 C-22.15973842 268.22720335 -21.85451956 263.70141049 -22.09375 259.2109375 C-22.15852539 258.08655273 -22.15852539 258.08655273 -22.22460938 256.93945312 C-22.33047685 255.09265375 -22.4313476 253.24556916 -22.53125 251.3984375 C-24.94276557 250.36364537 -27.35919469 249.3455003 -29.78125 248.3359375 C-30.46316406 248.04138672 -31.14507812 247.74683594 -31.84765625 247.44335938 C-35.52781741 245.92484627 -37.75536352 245.03813222 -41.53125 246.3984375 C-43.77960326 248.17955493 -43.77960326 248.17955493 -45.96875 250.3359375 C-49.5805442 253.79697855 -52.60002802 255.99056802 -57.63671875 256.69140625 C-62.62531722 256.43870051 -65.35500381 255.04956258 -68.9921875 251.64453125 C-69.86286865 250.83185791 -70.7335498 250.01918457 -71.63061523 249.18188477 C-72.59889088 248.25552744 -73.5657019 247.32763742 -74.53125 246.3984375 C-75.0489798 245.90286346 -75.56670959 245.40728943 -76.10012817 244.896698 C-79.50734003 241.62704538 -82.87852034 238.32307412 -86.22924805 234.99560547 C-87.39704383 233.83944667 -88.56932203 232.68779933 -89.74584961 231.54052734 C-91.47462287 229.85448995 -93.1896938 228.15551994 -94.90234375 226.453125 C-95.42420761 225.94876923 -95.94607147 225.44441345 -96.48374939 224.92477417 C-101.09416772 220.28671835 -103.44624223 216.07618236 -103.65625 209.4609375 C-102.89996608 205.07619029 -100.44958618 202.47915265 -97.41796875 199.35546875 C-95.2931821 197.15149751 -93.41672635 194.80835098 -91.53125 192.3984375 C-91.95277344 191.42261719 -92.37429687 190.44679688 -92.80859375 189.44140625 C-93.36204331 188.15627762 -93.91542519 186.87111984 -94.46875 185.5859375 C-94.74654297 184.94333984 -95.02433594 184.30074219 -95.31054688 183.63867188 C-96.4831311 180.91206035 -97.59214549 178.21575104 -98.53125 175.3984375 C-99.62824219 175.36105469 -100.72523438 175.32367188 -101.85546875 175.28515625 C-103.30992857 175.21947097 -104.76435416 175.15302451 -106.21875 175.0859375 C-107.3005957 175.05209961 -107.3005957 175.05209961 -108.40429688 175.01757812 C-114.11575816 174.73070107 -117.28087617 173.36578645 -121.63745117 169.55712891 C-124.60054406 164.6149482 -124.10203904 159.74670442 -124.0625 154.08984375 C-124.0663269 152.89036606 -124.07015381 151.69088837 -124.07409668 150.45506287 C-124.07681621 147.92079834 -124.06945229 145.38650576 -124.05273438 142.85229492 C-124.03134622 138.978365 -124.05252727 135.10629378 -124.078125 131.23242188 C-124.07548137 128.76822508 -124.07035566 126.30402944 -124.0625 123.83984375 C-124.07464539 122.10523643 -124.07464539 122.10523643 -124.08703613 120.33558655 C-124.0142212 114.07230981 -123.79130215 110.13656663 -119.53125 105.3984375 C-115.92675192 102.57105598 -111.18476056 102.9487016 -106.78125 102.7734375 C-105.98847656 102.73476563 -105.19570312 102.69609375 -104.37890625 102.65625 C-102.43005584 102.5623295 -100.48068549 102.47930928 -98.53125 102.3984375 C-97.5510229 99.96135912 -96.57202829 97.52379805 -95.59375 95.0859375 C-95.31595703 94.39564453 -95.03816406 93.70535156 -94.75195312 92.99414062 C-93.60984872 90.14575977 -92.50194769 87.31053056 -91.53125 84.3984375 C-92.57925781 83.42003906 -92.57925781 83.42003906 -93.6484375 82.421875 C-94.55851562 81.54789062 -95.46859375 80.67390625 -96.40625 79.7734375 C-97.31117188 78.91492188 -98.21609375 78.05640625 -99.1484375 77.171875 C-102.65261612 73.09324087 -103.50792525 69.84457169 -103.59375 64.5234375 C-101.92598537 54.85895527 -89.52705668 46.20811182 -82.83276367 39.51464844 C-80.8328801 37.51255559 -78.84116231 35.50256326 -76.84960938 33.4921875 C-75.57340584 32.21305343 -74.29672992 30.93439044 -73.01953125 29.65625 C-72.42779617 29.05732941 -71.8360611 28.45840881 -71.22639465 27.84133911 C-70.66868881 27.2867099 -70.11098297 26.73208069 -69.53637695 26.16064453 C-69.05119095 25.67403351 -68.56600494 25.18742249 -68.06611633 24.68606567 C-64.44541746 21.64859344 -61.28156647 20.99390611 -56.5390625 21.16015625 C-49.46272258 21.99995535 -45.13421305 27.48004297 -40.53125 32.3984375 C-39.99757813 32.21667969 -39.46390625 32.03492188 -38.9140625 31.84765625 C-33.15533217 29.904832 -27.36131078 28.11459318 -21.53125 26.3984375 C-21.57765625 25.32464844 -21.6240625 24.25085938 -21.671875 23.14453125 C-22.11918011 8.59004262 -22.11918011 8.59004262 -17.53125 3.3984375 C-11.95435671 -0.37594824 -6.48667996 -0.03696062 0 0 Z M-8.53125 14.3984375 C-8.86125 21.3284375 -9.19125 28.2584375 -9.53125 35.3984375 C-14.95641278 37.72350726 -20.39583332 39.9592696 -25.88842773 42.11328125 C-30.22382753 43.82836091 -34.40183854 45.71507426 -38.50390625 47.9296875 C-41.72515863 48.67448574 -43.56347761 47.77619883 -46.53125 46.3984375 C-48.5942973 44.56155314 -50.42876606 42.79526208 -52.28125 40.7734375 C-53.9967819 38.933725 -55.73041819 37.15807381 -57.53125 35.3984375 C-58.19125 35.3984375 -58.85125 35.3984375 -59.53125 35.3984375 C-59.53125 36.0584375 -59.53125 36.7184375 -59.53125 37.3984375 C-60.19125 37.3984375 -60.85125 37.3984375 -61.53125 37.3984375 C-61.53125 38.0584375 -61.53125 38.7184375 -61.53125 39.3984375 C-62.52125 39.7284375 -63.51125 40.0584375 -64.53125 40.3984375 C-66.0948735 41.93851625 -66.0948735 41.93851625 -67.62890625 43.8671875 C-71.82167811 48.80894439 -76.36448575 53.34240486 -80.96875 57.8984375 C-81.79568359 58.72085938 -82.62261719 59.54328125 -83.47460938 60.390625 C-85.49119959 62.39555863 -87.51010236 64.39810003 -89.53125 66.3984375 C-85.86906771 70.77587789 -82.16682052 74.78184924 -77.8515625 78.52734375 C-75.87025055 81.33517932 -76.08930224 83.00749288 -76.53125 86.3984375 C-77.57445071 89.23639604 -78.9084385 91.89476714 -80.28125 94.5859375 C-83.17736444 100.45702414 -85.72949553 106.24719933 -87.7421875 112.4921875 C-88.53125 114.3984375 -88.53125 114.3984375 -90.53125 115.3984375 C-97.13125 115.7284375 -103.73125 116.0584375 -110.53125 116.3984375 C-110.53125 131.2484375 -110.53125 146.0984375 -110.53125 161.3984375 C-100.13625 161.8934375 -100.13625 161.8934375 -89.53125 162.3984375 C-87.08176388 166.48091437 -85.63554318 169.65302203 -84.15625 174.0859375 C-82.330809 179.40643017 -80.23493496 184.19376716 -77.3515625 189.01953125 C-76.12180349 192.58583237 -76.51792521 194.77550793 -77.53125 198.3984375 C-79.29385066 200.84094898 -81.37218837 202.81241222 -83.59375 204.8359375 C-84.16158203 205.37669922 -84.72941406 205.91746094 -85.31445312 206.47460938 C-86.70674838 207.79670487 -88.1172384 209.09959426 -89.53125 210.3984375 C-83.72441781 217.51748977 -77.16839556 223.87218562 -70.65625 230.3359375 C-69.47893362 231.50822954 -68.30184826 232.68075364 -67.125 233.85351562 C-64.26307511 236.70450732 -61.39803543 239.55233365 -58.53125 242.3984375 C-54.07390716 238.63520686 -49.81450747 234.77864066 -45.71875 230.62109375 C-42.36625101 228.74728628 -40.20013384 229.50830745 -36.53125 230.3984375 C-34.03719703 231.43581106 -31.68266023 232.49855667 -29.28125 233.7109375 C-23.78698259 236.39016453 -18.30566447 238.70505206 -12.5078125 240.671875 C-10.53125 241.3984375 -10.53125 241.3984375 -9.53125 242.3984375 C-9.03625 252.7934375 -9.03625 252.7934375 -8.53125 263.3984375 C6.31875 263.3984375 21.16875 263.3984375 36.46875 263.3984375 C36.79875 256.7984375 37.12875 250.1984375 37.46875 243.3984375 C40.23429263 240.63289487 41.17468308 239.91143158 44.63671875 238.71484375 C45.44818359 238.42673828 46.25964844 238.13863281 47.09570312 237.84179688 C48.36317383 237.40577148 48.36317383 237.40577148 49.65625 236.9609375 C54.51860673 235.27182841 59.21986394 233.60177197 63.76953125 231.17578125 C69.102825 228.48784909 69.102825 228.48784909 72.46875 229.3984375 C74.98610918 231.34042225 77.11655345 233.57687888 79.28125 235.8984375 C79.87873047 236.51847656 80.47621094 237.13851562 81.09179688 237.77734375 C82.56232441 239.30669238 84.0171073 240.85115216 85.46875 242.3984375 C88.27844467 241.11820875 90.3226738 239.79129621 92.49316406 237.60107422 C93.05344299 237.04064423 93.61372192 236.48021423 94.190979 235.90280151 C95.07871002 234.99958664 95.07871002 234.99958664 95.984375 234.078125 C96.60020447 233.45946564 97.21603394 232.84080627 97.8505249 232.20339966 C99.81135336 230.23139936 101.76510301 228.25255013 103.71875 226.2734375 C105.04901799 224.93313586 106.379742 223.59328667 107.7109375 222.25390625 C110.9688515 218.97397161 114.22043533 215.68787808 117.46875 212.3984375 C115.78601315 208.79412984 113.78735313 206.53892654 110.90625 203.7734375 C105.57223703 198.6357162 105.57223703 198.6357162 105.203125 194.22265625 C105.49928451 189.95883041 106.77946035 186.92639439 108.71875 183.2109375 C111.58244724 177.45758153 113.82284457 171.77594461 115.64453125 165.59375 C116.46875 163.3984375 116.46875 163.3984375 118.46875 162.3984375 C128.36875 161.9034375 128.36875 161.9034375 138.46875 161.3984375 C138.46875 146.5484375 138.46875 131.6984375 138.46875 116.3984375 C131.86875 116.0684375 125.26875 115.7384375 118.46875 115.3984375 C115.65179912 111.642503 114.53814344 109.14539348 113.09375 104.7734375 C111.28541577 99.47485331 109.23314247 94.69202476 106.38671875 89.875 C105.06768773 86.31642271 104.64655786 83.08964048 105.46875 79.3984375 C107.12071426 76.8231807 109.18478662 74.91490968 111.46875 72.8984375 C112.04109375 72.3621875 112.6134375 71.8259375 113.203125 71.2734375 C114.6074613 69.96272362 116.03582505 68.67783477 117.46875 67.3984375 C116.18852125 64.58874283 114.86160871 62.5445137 112.67138672 60.37402344 C111.83074173 59.53360504 111.83074173 59.53360504 110.97311401 58.6762085 C110.37097076 58.08438782 109.76882751 57.49256714 109.1484375 56.8828125 C108.52977814 56.26698303 107.91111877 55.65115356 107.27371216 55.0166626 C105.30171186 53.05583414 103.32286263 51.10208449 101.34375 49.1484375 C100.00344836 47.81816951 98.66359917 46.4874455 97.32421875 45.15625 C94.04428411 41.898336 90.75819058 38.64675217 87.46875 35.3984375 C82.59228371 37.64777757 79.62523676 41.28240771 76.00390625 45.18359375 C73.19045045 47.64157439 72.18482572 48.45175279 68.46875 48.3984375 C65.47096129 47.41814713 62.67947132 46.08356616 59.84375 44.7109375 C58.2384286 43.9604335 56.63165669 43.21302419 55.0234375 42.46875 C54.24581055 42.10813477 53.46818359 41.74751953 52.66699219 41.37597656 C49.01149053 39.75040697 45.24830838 38.49073606 41.4375 37.28515625 C39.46875 36.3984375 39.46875 36.3984375 37.46875 33.3984375 C37.13875 27.1284375 36.80875 20.8584375 36.46875 14.3984375 C21.61875 14.3984375 6.76875 14.3984375 -8.53125 14.3984375 Z " fill="#FFBD73" transform="translate(342.53125,219.6015625)"/>
<path d="M0 0 C2.32683009 3.49024513 2.59829908 6.35157809 3.00753784 10.40461731 C3.08924347 11.15513644 3.17094909 11.90565557 3.25513065 12.67891771 C4.24494552 21.95012923 5.0636112 31.23832749 5.87939453 40.52612305 C6.05683373 42.52561125 6.23447227 44.52508178 6.41229248 46.52453613 C6.88982437 51.90218162 7.36414833 57.28010509 7.83751154 62.65811896 C8.13417158 66.02715318 8.43149283 69.39612841 8.72903061 72.76508522 C9.7691287 84.54278163 10.80642675 96.3207211 11.84130859 108.09887695 C12.8028611 119.04152602 13.77088331 129.98359005 14.7418319 140.92540902 C15.5784867 150.35735837 16.41041212 159.78971737 17.23874748 169.22240096 C17.73214421 174.83993612 18.22744211 180.45728726 18.72760391 186.07422447 C19.19760175 191.35407889 19.66167991 196.63442169 20.12136078 201.91518402 C20.29016045 203.84296204 20.46101041 205.77056191 20.63415909 207.69795418 C21.39194476 216.14504182 22.10318012 224.59165295 22.35128784 233.07112122 C22.38307066 234.15397809 22.41485348 235.23683496 22.44759941 236.35250568 C22 239 22 239 20.20460701 240.87836742 C16.87014853 242.5748318 14.53873877 241.91745079 11 241 C8.59186168 237.38779252 8.39017142 234.30481275 7.99246216 230.10346985 C7.91075653 229.30631162 7.82905091 228.50915339 7.74486935 227.68783885 C7.48612221 225.12612934 7.24118474 222.56341901 7 220 C6.92275365 219.18956293 6.84550731 218.37912586 6.76592016 217.54413009 C6.1917067 211.47982742 5.6541979 205.41247168 5.12060547 199.34448242 C4.94313008 197.34322742 4.76549258 195.34198679 4.58770752 193.34075928 C4.11058453 187.96320457 3.63611914 182.58541884 3.16248846 177.20755553 C2.86571041 173.83870172 2.56841929 170.46989357 2.27096939 167.10109901 C1.2312567 155.32451724 0.19399034 143.54772253 -0.84130859 131.77075195 C-1.80338922 120.82754164 -2.77131387 109.88485843 -3.7418319 98.94239348 C-4.5781615 89.509562 -5.41011013 80.07635051 -6.23874748 70.64284021 C-6.73232408 65.02480948 -7.22769038 59.40695091 -7.72760391 53.78948021 C-8.19720102 48.51122358 -8.66132413 43.23251312 -9.12136078 37.95341492 C-9.29031119 36.02522925 -9.46117072 34.09720969 -9.63415909 32.1693821 C-10.37192237 23.93688501 -11.09061718 15.70040746 -11.35128784 7.43696594 C-11.38307066 6.44575398 -11.41485348 5.45454203 -11.44759941 4.43329334 C-11 2 -11 2 -9.20460701 0.15237713 C-5.87334353 -1.58891818 -3.55282967 -0.92110399 0 0 Z " fill="#FFBD73" transform="translate(116,156)"/>
<path d="M0 0 C2.02793003 3.04189505 2.25050624 3.61723696 2.25726891 7.02805233 C2.2637178 7.85015664 2.27016669 8.67226095 2.276811 9.51927751 C2.2737138 10.42218336 2.2706166 11.32508921 2.26742554 12.25535583 C2.27195665 13.21473165 2.27648776 14.17410747 2.28115618 15.16255528 C2.29386141 18.39154028 2.29217588 21.62035793 2.29052734 24.84936523 C2.29650872 27.15856139 2.30331336 29.46775553 2.31088257 31.77694702 C2.32858834 38.05990607 2.33323984 44.34281068 2.33451414 50.62579226 C2.33641019 55.8646436 2.34376422 61.10348217 2.35085833 66.34232861 C2.36622525 77.99177333 2.37219468 89.64119143 2.37084763 101.29064547 C2.37076772 101.98984233 2.3706878 102.68903919 2.37060547 103.40942383 C2.37052371 104.10947255 2.37044195 104.80952128 2.37035771 105.5307836 C2.36954454 116.87993481 2.38868918 128.22895339 2.4168822 139.57806622 C2.44559056 151.22635991 2.45905713 162.87458277 2.45769465 174.52291256 C2.45718373 181.06457994 2.46293883 187.60609724 2.48405075 194.14773369 C2.50335684 200.29795396 2.50360991 206.44787979 2.48901749 212.5981102 C2.48691887 214.85885483 2.49169243 217.11961753 2.5037384 219.38033104 C2.51908776 222.45979149 2.5099509 225.53822352 2.49447632 228.61766052 C2.50476344 229.51833565 2.51505057 230.41901077 2.52564943 231.34697908 C2.45856634 237.36205693 2.45856634 237.36205693 0.16050148 240.55905247 C-2.76223619 242.50837381 -4.55693904 242.51279631 -8 242 C-9.98480684 240.47720024 -10.88246274 239.58855991 -11.37719816 237.11120558 C-11.37822729 236.39402121 -11.37925642 235.67683684 -11.38031673 234.93791962 C-11.38875668 234.10823182 -11.39719662 233.27854402 -11.40589231 232.42371416 C-11.39687724 231.05665937 -11.39687724 231.05665937 -11.38768005 229.6619873 C-11.39306559 228.69373882 -11.39845113 227.72549033 -11.40399987 226.72790098 C-11.41835882 223.46886368 -11.41115615 220.21022801 -11.40405273 216.95117188 C-11.40975211 214.6206479 -11.41671468 212.29012673 -11.42485046 209.95960999 C-11.44284376 203.61883931 -11.44160201 197.27820655 -11.43590808 190.93741798 C-11.43243593 184.98328636 -11.44036967 179.02917612 -11.44726873 173.0750491 C-11.46100318 160.56363568 -11.45554927 148.05228476 -11.44408352 135.54087275 C-11.4341482 124.08757643 -11.44709521 112.63444158 -11.47101771 101.18117017 C-11.4953826 89.42778488 -11.50502315 77.67447489 -11.49836498 65.92106485 C-11.49498579 59.31963526 -11.49747433 52.71833915 -11.51461601 46.1169281 C-11.53002473 39.91170636 -11.5261972 33.70679424 -11.50731087 27.50158501 C-11.50360827 25.21946207 -11.50678167 22.93731649 -11.51719666 20.65521431 C-11.53029387 17.54911772 -11.51895927 14.4440633 -11.50120544 11.3380127 C-11.51081045 10.42664283 -11.52041546 9.51527297 -11.53031152 8.57628584 C-11.45881063 2.53168987 -11.45881063 2.53168987 -9.19523716 -0.09143829 C-5.84894077 -1.47639879 -3.44324717 -0.89269371 0 0 Z " fill="#FFBD73" transform="translate(211,156)"/>
<path d="M0 0 C4.07813103 1.99749779 7.93327981 4.33114396 11.8125 6.6875 C12.84181641 7.30044922 13.87113281 7.91339844 14.93164062 8.54492188 C16.97224826 9.7620585 19.00896252 10.98574912 21.04150391 12.21630859 C23.00429157 13.39968264 24.97533823 14.56947116 26.95458984 15.72509766 C27.86031738 16.25538574 28.76604492 16.78567383 29.69921875 17.33203125 C30.50576904 17.79971924 31.31231934 18.26740723 32.14331055 18.74926758 C34 20 34 20 35 22 C35.375 24.875 35.375 24.875 35 28 C32.875 30.4375 32.875 30.4375 30 32 C24.17889749 31.80942819 19.93988139 28.90395659 15.125 25.9375 C14.34125 25.46505859 13.5575 24.99261719 12.75 24.50585938 C10.82817891 23.34573567 8.9133669 22.17401466 7 21 C6.67 23.97 6.34 26.94 6 30 C6.99 29.34 7.98 28.68 9 28 C11.8125 27.4375 11.8125 27.4375 15 28 C18.06062012 30.59100116 20.24567741 33.95698605 22.58203125 37.1875 C31.7878787 49.60569234 45.43169144 58.26889652 60.59375 61.5703125 C70.38174592 62.80503676 80.40104158 62.91788462 89.97412109 60.40820312 C93.19181898 59.75985523 95.86068396 60.16712023 99 61 C101.33043558 64.49565336 101.58763244 65.8865729 101 70 C97.28307937 73.75923852 93.58368836 74.92347334 88.5 75.75 C87.79294922 75.87068848 87.08589844 75.99137695 86.35742188 76.11572266 C65.59294129 79.41916275 44.79416045 74.59412264 27.49609375 62.6484375 C17.69844164 55.47755318 9.85381475 46.62201294 4 36 C2.38024307 37.61975693 2.84148265 39.58097679 2.75 41.8125 C2.40339602 45.53449351 2.23920468 46.70611997 -0.1875 49.6875 C-3 51 -3 51 -6.125 51.0625 C-9 50 -9 50 -10.65478516 48 C-12.48972064 43.90786075 -12.43075823 40.37342706 -12.3984375 35.9375 C-12.40274277 34.63413696 -12.40274277 34.63413696 -12.40713501 33.30444336 C-12.40917134 31.47216132 -12.40367169 29.63985732 -12.39111328 27.80761719 C-12.3750532 25.00926931 -12.39097632 22.21236566 -12.41015625 19.4140625 C-12.40817374 17.63020516 -12.40432991 15.84634871 -12.3984375 14.0625 C-12.40451019 13.22904053 -12.41058289 12.39558105 -12.4168396 11.53686523 C-12.36070532 6.88112771 -12.0282739 3.77771855 -9 0 C-5.85569106 -1.57215447 -3.24314667 -0.98141305 0 0 Z " fill="#FFBD73" transform="translate(283,360)"/>
<path d="M0 0 C15.43366365 9.49575172 23.94382424 29.21856694 28 46 C31.71624611 64.09225082 28.26085775 83.68225326 19.46875 99.80859375 C18 102 18 102 16 103 C9.72964169 103.57003257 9.72964169 103.57003257 7 101.4375 C5.15747142 96.94633658 6.41461454 93.48284053 8.12109375 89.16015625 C9.00725355 87.0749197 9.89796793 84.99161348 10.79296875 82.91015625 C16.69633358 68.67712453 15.97439011 52.61129823 10.8125 38.25 C6.58806041 28.21695598 1.23214581 20.66260509 -6.9609375 13.484375 C-9.56196513 10.31530686 -9.86314806 8.05364875 -10 4 C-7.27754159 -0.24703512 -4.82962965 -0.50333609 0 0 Z " fill="#FFBD73" transform="translate(405,298)"/>
<path d="M0 0 C3.22462727 -0.21543846 4.90277333 0.30384469 7.75 1.87890625 C9.8125 4.25390625 9.8125 4.25390625 10.4375 7.25390625 C9.8125 10.25390625 9.8125 10.25390625 7.74609375 12.37890625 C4.24832722 14.61449605 1.28135537 14.97458644 -2.75 15.25390625 C-20.72455755 17.03433715 -35.43057207 24.86770244 -47.22265625 38.62890625 C-53.78603566 47.39931215 -57.82184987 57.81254293 -60.546875 68.36328125 C-61.1875 70.25390625 -61.1875 70.25390625 -63.1875 72.25390625 C-69.43947433 72.82226755 -69.43947433 72.82226755 -71.87890625 70.96875 C-73.77450058 68.48467265 -73.7122109 66.13815274 -73.59375 63.09765625 C-70.75606366 43.23385187 -57.73456021 26.27095762 -42.1875 14.25390625 C-29.29984942 5.32739503 -15.38586623 1.78585947 0 0 Z " fill="#FFBD73" transform="translate(353.1875,280.74609375)"/>
<path d="M0 0 C1.65942383 1.14575195 1.65942383 1.14575195 3 3 C3.43237305 5.91088867 3.43237305 5.91088867 3.51171875 9.41796875 C3.54716797 10.67158203 3.58261719 11.92519531 3.61914062 13.21679688 C3.64169922 14.52712891 3.66425781 15.83746094 3.6875 17.1875 C3.72067666 18.52282013 3.75516666 19.85810832 3.79101562 21.19335938 C3.87362057 24.46215504 3.94273229 27.73067812 4 31 C4.60473145 30.64172119 5.20946289 30.28344238 5.83251953 29.91430664 C8.59108018 28.28732099 11.35785463 26.67483801 14.125 25.0625 C15.07632812 24.49853516 16.02765625 23.93457031 17.0078125 23.35351562 C17.9359375 22.81533203 18.8640625 22.27714844 19.8203125 21.72265625 C20.66867676 21.22515869 21.51704102 20.72766113 22.39111328 20.21508789 C25.32095155 18.85051695 27.78159397 18.26164337 31 18 C33.875 19.5625 33.875 19.5625 36 22 C36.5625 25 36.5625 25 36 28 C33.04716235 31.51498967 29.63513973 33.54881711 25.66015625 35.78515625 C25.05618515 36.12751816 24.45221405 36.46988007 23.8299408 36.82261658 C21.91087081 37.90875489 19.98689618 38.98583206 18.0625 40.0625 C16.14287835 41.14477569 14.22429071 42.22886774 12.30577087 43.31309509 C10.56361942 44.29631906 8.81910424 45.27535132 7.07446289 46.25415039 C5.12657031 47.36027124 3.20414739 48.51361479 1.32202148 49.72827148 C-1 51 -1 51 -4.625 51 C-8 50 -8 50 -9.68603516 48.00390625 C-11.4768573 43.90983794 -11.43065907 40.35981634 -11.3984375 35.9375 C-11.40274277 34.63413696 -11.40274277 34.63413696 -11.40713501 33.30444336 C-11.40917134 31.47216132 -11.40367169 29.63985732 -11.39111328 27.80761719 C-11.3750532 25.00926931 -11.39097632 22.21236566 -11.41015625 19.4140625 C-11.40817374 17.63020516 -11.40432991 15.84634871 -11.3984375 14.0625 C-11.40451019 13.22904053 -11.41058289 12.39558105 -11.4168396 11.53686523 C-11.36070532 6.88112771 -11.0282739 3.77771855 -8 0 C-5.06317146 -1.46841427 -3.13175678 -0.76696084 0 0 Z " fill="#FFBD73" transform="translate(405,379)"/>
<path d="M0 0 C4.07778002 1.99823586 7.93326568 4.33113538 11.8125 6.6875 C12.84181641 7.30044922 13.87113281 7.91339844 14.93164062 8.54492188 C16.97224826 9.7620585 19.00896252 10.98574912 21.04150391 12.21630859 C23.00429157 13.39968264 24.97533823 14.56947116 26.95458984 15.72509766 C27.86031738 16.25538574 28.76604492 16.78567383 29.69921875 17.33203125 C30.50576904 17.79971924 31.31231934 18.26740723 32.14331055 18.74926758 C34 20 34 20 35 22 C35.3125 24.875 35.3125 24.875 35 28 C32.0736186 31.53111114 28.62798708 33.55284121 24.66015625 35.78515625 C24.05618515 36.12751816 23.45221405 36.46988007 22.8299408 36.82261658 C20.91087081 37.90875489 18.98689618 38.98583206 17.0625 40.0625 C15.14287835 41.14477569 13.22429071 42.22886774 11.30577087 43.31309509 C9.56361942 44.29631906 7.81910424 45.27535132 6.07446289 46.25415039 C4.12578035 47.36071982 2.20424661 48.51778823 0.32592773 49.73999023 C-3.0502967 51.56897043 -5.35860617 50.89317207 -9 50 C-11 48 -11 48 -11.6875 44.25 C-11.5946027 41.53153168 -11.38510784 40.39995775 -9.48046875 38.421875 C-7.05729652 36.785447 -4.57124997 35.39376167 -2 34 C-0.78272701 33.28799111 0.43198032 32.57158363 1.64453125 31.8515625 C11.585538 26 11.585538 26 14 26 C14 25.34 14 24.68 14 24 C13.36449219 23.773125 12.72898437 23.54625 12.07421875 23.3125 C7.82131406 21.49677449 3.84659411 19.25368386 -0.1875 17 C-1.00669922 16.54882812 -1.82589844 16.09765625 -2.66992188 15.6328125 C-3.45302734 15.19710938 -4.23613281 14.76140625 -5.04296875 14.3125 C-5.75477295 13.91675781 -6.46657715 13.52101563 -7.19995117 13.11328125 C-9 12 -9 12 -11 10 C-11.67681895 2.89340102 -11.67681895 2.89340102 -9.4375 -0.0625 C-6.01041069 -1.38061127 -3.43325405 -1.0427594 0 0 Z " fill="#FFBD73" transform="translate(361,263)"/>
<path d="M0 0 C3.4375 0.8125 3.4375 0.8125 5.4375 3.8125 C5.60350037 5.70689392 5.60350037 5.70689392 5.48217773 7.87084961 C5.44069107 8.68711319 5.39920441 9.50337677 5.35646057 10.34437561 C5.29941452 11.2297551 5.24236847 12.11513458 5.18359375 13.02734375 C5.1310997 13.95498032 5.07860565 14.88261688 5.02452087 15.83836365 C4.4389602 25.70604228 3.64061899 35.55755286 2.76293945 45.40307617 C2.49500874 48.43141468 2.24054487 51.46071716 1.98632812 54.49023438 C1.81591168 56.43236269 1.64471838 58.37442304 1.47265625 60.31640625 C1.39862076 61.21420303 1.32458527 62.11199982 1.24830627 63.03700256 C1.13324989 64.28627785 1.13324989 64.28627785 1.01586914 65.56079102 C0.952267 66.28798843 0.88866486 67.01518585 0.82313538 67.76441956 C0.3855934 70.08817205 -0.33860929 71.79289767 -1.5625 73.8125 C-4.6457635 75.35413175 -7.17128099 75.10997535 -10.5625 74.8125 C-12.29711914 73.31103516 -12.29711914 73.31103516 -13.5625 70.8125 C-13.67198392 67.94713859 -13.60842667 65.36204371 -13.37109375 62.5234375 C-13.2855851 61.27873184 -13.2855851 61.27873184 -13.198349 60.00888062 C-13.0044909 57.27507519 -12.78510467 54.54410533 -12.5625 51.8125 C-12.4166399 49.91570467 -12.2709716 48.01889458 -12.12548828 46.12207031 C-11.74045932 41.22141145 -11.32167489 36.32430484 -10.88793945 31.42773438 C-10.62104862 28.39256355 -10.36612663 25.35651963 -10.11132812 22.3203125 C-9.94082865 20.37233229 -9.76963145 18.42441299 -9.59765625 16.4765625 C-9.52362076 15.57765289 -9.44958527 14.67874329 -9.37330627 13.75259399 C-8.62058273 5.51695942 -8.62058273 5.51695942 -6.5625 1.8125 C-3.5625 -0.1875 -3.5625 -0.1875 0 0 Z " fill="#FFBD73" transform="translate(302.5625,155.1875)"/>
</svg>
