<?xml version="1.0" encoding="UTF-8"?>
<svg version="1.1" xmlns="http://www.w3.org/2000/svg" width="512" height="512">
<path d="M0 0 C2.27788603 -0.00965001 4.55484676 -0.04069295 6.83251953 -0.07226562 C18.97985018 -0.16151781 30.45327862 0.42009138 39.68017578 9.24023438 C44.16555024 13.78296657 46.7628185 17.98586744 46.87548828 24.44726562 C46.86230992 25.98254422 46.83862862 27.51776371 46.80517578 29.05273438 C46.79615234 29.84099609 46.78712891 30.62925781 46.77783203 31.44140625 C46.75440082 33.37448104 46.71853416 35.30739817 46.68017578 37.24023438 C47.89447266 37.32660156 49.10876953 37.41296875 50.35986328 37.50195312 C77.57297654 39.64730701 116.74314546 43.19369905 136.64892578 64.63476562 C137.82884385 66.47168353 138.19524459 68.12518414 138.68017578 70.24023438 C139.28168457 70.28704346 139.88319336 70.33385254 140.50292969 70.38208008 C154.32218548 71.59216552 175.08141298 73.98594792 184.68017578 85.24023438 C186.790804 92.04072879 185.17583516 99.28276841 183.94970703 106.09960938 C183.75801437 107.20701477 183.56632172 108.31442017 183.36882019 109.4553833 C182.96217601 111.78271753 182.54916745 114.10894781 182.13012695 116.43408203 C181.49273752 119.98988993 180.88512765 123.54994143 180.27978516 127.11132812 C179.87987607 129.37857054 179.47824254 131.6455096 179.07470703 133.91210938 C178.8953511 134.9736322 178.71599518 136.03515503 178.53120422 137.12884521 C176.75959699 146.72285474 176.75959699 146.72285474 172.68017578 150.24023438 C169.88330078 151.38476562 169.88330078 151.38476562 166.93017578 152.05273438 C165.94533203 152.28605469 164.96048828 152.519375 163.94580078 152.75976562 C163.19814453 152.91832031 162.45048828 153.076875 161.68017578 153.24023438 C161.41539429 154.89007324 161.41539429 154.89007324 161.14526367 156.57324219 C160.48913082 160.65864782 159.8307227 164.74368406 159.17163086 168.82861328 C158.88683106 170.59576606 158.60264622 172.36301806 158.3190918 174.13037109 C157.91112789 176.67246491 157.500945 179.21419228 157.09033203 181.75585938 C156.96425064 182.54454407 156.83816925 183.33322876 156.70826721 184.14581299 C156.15591241 187.55275389 155.55041375 190.90085149 154.68017578 194.24023438 C155.48648437 194.21928711 156.29279297 194.19833984 157.12353516 194.17675781 C160.80895305 194.09314264 164.49417072 194.04142889 168.18017578 193.99023438 C169.44861328 193.95671875 170.71705078 193.92320312 172.02392578 193.88867188 C180.23204021 193.80317068 186.24035516 194.0983238 192.48486328 199.92382812 C196.18331879 205.98443588 196.96629788 212.25062393 197.68017578 219.24023438 C199.25605469 219.8203125 199.25605469 219.8203125 200.86376953 220.41210938 C208.24380097 223.14447816 215.53737538 225.92393419 222.68017578 229.24023438 C223.21126953 228.758125 223.74236328 228.27601563 224.28955078 227.77929688 C225.34916016 226.83183594 225.34916016 226.83183594 226.43017578 225.86523438 C227.47431641 224.92550781 227.47431641 224.92550781 228.53955078 223.96679688 C232.37921435 220.86984196 235.10960215 219.9485141 240.05517578 219.92773438 C240.97041016 219.91097656 241.88564453 219.89421875 242.82861328 219.87695312 C248.76254016 220.63291915 252.67345163 223.85554563 256.78955078 227.98632812 C257.70865234 228.90607422 258.62775391 229.82582031 259.57470703 230.7734375 C260.04344238 231.25047119 260.51217773 231.72750488 260.99511719 232.21899414 C262.43152585 233.67910672 263.88091318 235.12532441 265.33251953 236.5703125 C274.95791638 246.27037744 274.95791638 246.27037744 275.05517578 254.61523438 C274.96393535 260.05924674 274.42610599 263.08933874 270.68017578 267.24023438 C269.76067099 268.36291586 268.84399994 269.48792422 267.93017578 270.61523438 C267.18767578 271.48148437 266.44517578 272.34773438 265.68017578 273.24023438 C266.06689453 273.97886719 266.45361328 274.7175 266.85205078 275.47851562 C275.68017578 292.67587794 275.68017578 292.67587794 275.68017578 299.24023438 C276.52580078 299.18222656 277.37142578 299.12421875 278.24267578 299.06445312 C284.71825659 298.80690162 289.51730368 298.83851274 294.99658203 302.46289062 C299.84081528 307.57687237 301.29062437 312.41376173 301.21142578 319.33398438 C301.21716614 320.45951721 301.21716614 320.45951721 301.22302246 321.60778809 C301.22572807 323.18433993 301.21846199 324.76093771 301.20166016 326.33740234 C301.1802277 328.73442783 301.20150445 331.12845704 301.22705078 333.52539062 C301.22440726 335.06576175 301.21928177 336.60613102 301.21142578 338.14648438 C301.21952271 338.85397827 301.22761963 339.56147217 301.23596191 340.29040527 C301.12360569 346.3285653 299.22988507 350.69622913 294.93408203 354.98242188 C288.52606538 359.27416513 283.25378824 359.38873658 275.68017578 359.24023438 C275.53322266 359.88347656 275.38626953 360.52671875 275.23486328 361.18945312 C273.52823437 368.06500983 271.00889591 374.0841947 267.78955078 380.39257812 C266.51629679 383.06753402 266.51629679 383.06753402 266.82080078 385.39648438 C267.83245117 387.56693431 269.04994936 389.05102473 270.68017578 390.80273438 C274.24446701 394.64976986 274.88194238 397.72406939 275.05517578 402.92773438 C275.10416016 403.92160156 275.15314453 404.91546875 275.20361328 405.93945312 C273.86219991 414.39836581 267.10237337 420.28467411 261.24267578 426.05273438 C260.5046875 426.80232422 259.76669922 427.55191406 259.00634766 428.32421875 C253.5818294 433.71980624 248.7447116 437.58708775 240.82470703 438.29882812 C236.0635366 438.1687415 231.51391496 436.91217304 227.95361328 433.66601562 C227.45087891 433.11300781 226.94814453 432.56 226.43017578 431.99023438 C225.52267578 431.08273437 224.61517578 430.17523438 223.68017578 429.24023438 C219.89333471 429.53055886 216.82075377 430.97942921 213.43017578 432.61523438 C201.38126274 438.24023438 201.38126274 438.24023438 196.68017578 438.24023438 C196.77298828 439.94179688 196.77298828 439.94179688 196.86767578 441.67773438 C196.85686756 447.77357193 195.10492373 452.98028935 191.86767578 458.11523438 C184.61428792 465.16138258 175.86528837 464.45029739 166.43017578 464.49023438 C164.62613281 464.52117187 164.62613281 464.52117187 162.78564453 464.55273438 C154.64708236 464.58846901 148.81656303 463.90590616 141.86767578 459.42773438 C137.15993984 454.71999843 136.50682885 450.88272281 136.49267578 444.36523438 C136.54064363 442.3231746 136.59841521 440.28122047 136.68017578 438.24023438 C134.82392578 437.89992188 134.82392578 437.89992188 132.93017578 437.55273438 C126.21406131 436.07327334 119.53212713 433.46993534 113.57470703 430.02148438 C111.14481571 429.01946734 110.09272526 429.26059307 107.68017578 430.24023438 C106.08653836 431.63042872 104.49441872 433.02240746 102.91064453 434.42382812 C82.44128734 451.09326962 58.192308 450.55486215 33.18017578 450.50585938 C30.7303056 450.50721007 28.28043568 450.50915396 25.83056641 450.51165771 C20.72051415 450.51458993 15.61053229 450.51037298 10.50048828 450.50097656 C3.99168289 450.4895833 -2.51695748 450.49615303 -9.02575684 450.50812149 C-14.07732356 450.51539172 -19.12885197 450.51302858 -24.18041992 450.50786591 C-26.57869487 450.50654365 -28.97697343 450.50812642 -31.37524414 450.51282501 C-55.85643175 450.55027664 -80.14137352 450.40531351 -99.03076172 432.68554688 C-102.58328175 428.890534 -105.02512936 424.88491795 -107.31982422 420.24023438 C-107.74779297 419.39460938 -108.17576172 418.54898437 -108.61669922 417.67773438 C-117.93610383 397.42816386 -119.82370447 373.39057847 -123.38635349 351.58460665 C-124.15213381 346.90767564 -124.92653705 342.23217168 -125.69989014 337.55648804 C-127.16830411 328.67053368 -128.62911561 319.78334735 -130.08713794 310.89568269 C-131.71252284 300.99019171 -133.34659101 291.08614001 -134.98136044 281.18219423 C-137.78955878 264.16808822 -140.58886191 247.15253907 -143.38049984 230.13570833 C-145.2138575 218.96067585 -147.05458765 207.78690916 -148.90591478 196.61483979 C-149.65697023 192.07944675 -150.40517997 187.54358349 -151.15364838 183.00776291 C-151.54060241 180.66742574 -151.92891682 178.32731302 -152.3187027 175.98744583 C-152.83925786 172.86183857 -153.35504633 169.73548188 -153.86962891 166.60888672 C-154.01960075 165.71655712 -154.1695726 164.82422752 -154.32408905 163.90485764 C-154.96615173 159.97510755 -155.50913302 156.23885699 -155.31982422 152.24023438 C-157.08326172 152.08554687 -157.08326172 152.08554687 -158.88232422 151.92773438 C-163.23996964 151.35497103 -166.494892 150.45869506 -170.31982422 148.24023438 C-172.54647575 143.15053092 -173.19894749 137.65033597 -174.04638672 132.19726562 C-174.19892914 131.2330217 -174.35147156 130.26877777 -174.50863647 129.27531433 C-174.82890277 127.23921821 -175.1464431 125.20269167 -175.46142578 123.16577148 C-175.94075948 120.0789109 -176.4344691 116.99458173 -176.92919922 113.91015625 C-177.23997757 111.92266384 -177.54990065 109.93503746 -177.85888672 107.94726562 C-178.00572906 107.03854202 -178.15257141 106.12981842 -178.30386353 105.19355774 C-180.85028261 88.41797899 -180.85028261 88.41797899 -177.78530884 84.05671692 C-169.64813265 76.02938932 -157.49478122 74.43302373 -146.74951172 72.16992188 C-145.66802856 71.93982422 -145.66802856 71.93982422 -144.56469727 71.70507812 C-142.99124916 71.37926571 -141.41415035 71.07082647 -139.8347168 70.77539062 C-138.62658325 70.53755859 -138.62658325 70.53755859 -137.39404297 70.29492188 C-136.6627417 70.15812012 -135.93144043 70.02131836 -135.17797852 69.88037109 C-132.00383472 68.78687418 -130.98073231 66.02627376 -129.31982422 63.24023438 C-107.8632796 42.78534663 -69.03080223 40.95748798 -41.31982422 38.24023438 C-41.35462891 37.17804687 -41.38943359 36.11585937 -41.42529297 35.02148438 C-41.66206415 24.90848497 -41.55342349 16.81222505 -34.32373047 8.91210938 C-24.03082942 0.32465976 -12.74444178 0.03257365 0 0 Z M-25.31982422 19.55273438 C-28.43227131 24.59214936 -28.43227131 24.59214936 -27.31982422 37.24023438 C-7.18982422 36.91023438 12.94017578 36.58023438 33.68017578 36.24023438 C34.330115 26.6293367 34.330115 26.6293367 30.68017578 19.24023438 C24.75792174 14.80569633 19.31823549 14.080858 12.13330078 14.03710938 C11.40326843 14.0314093 10.67323608 14.02570923 9.92108154 14.01983643 C8.37790363 14.01040848 6.83470579 14.00386122 5.29150391 14 C2.95194536 13.99032441 0.61327729 13.95929392 -1.72607422 13.92773438 C-3.23127738 13.9212003 -4.73648678 13.91595142 -6.24169922 13.91210938 C-7.27650421 13.89358917 -7.27650421 13.89358917 -8.33221436 13.87469482 C-14.91765768 13.90431689 -20.13885014 15.55906686 -25.31982422 19.55273438 Z M-119.31982422 72.24023438 C-120.49940059 74.53261011 -120.49940059 74.53261011 -121.31982422 76.99023438 C-122.10571289 79.20043945 -122.10571289 79.20043945 -123.31982422 81.24023438 C-125.23461914 81.98730469 -125.23461914 81.98730469 -127.61279297 82.31835938 C-131.71841856 82.98110462 -135.75292819 83.74923202 -139.80810547 84.67773438 C-140.92636719 84.93296875 -142.04462891 85.18820313 -143.19677734 85.45117188 C-144.89737305 85.84175781 -144.89737305 85.84175781 -146.63232422 86.24023438 C-147.78539062 86.500625 -148.93845703 86.76101562 -150.12646484 87.02929688 C-151.23828125 87.28453125 -152.35009766 87.53976563 -153.49560547 87.80273438 C-154.99474487 88.14498047 -154.99474487 88.14498047 -156.52416992 88.49414062 C-159.23444 89.21744735 -161.74157567 90.14162761 -164.31982422 91.24023438 C-160.57268704 93.73832583 -156.9198346 94.31165902 -152.56982422 95.11523438 C-151.65007812 95.28595459 -150.73033203 95.4566748 -149.78271484 95.63256836 C-117.73165144 101.37286127 -84.85086294 104.17108876 -52.31982422 105.24023438 C-51.05928223 105.28390137 -49.79874023 105.32756836 -48.5 105.37255859 C62.30728894 110.40361799 62.30728894 110.40361799 170.68017578 92.24023438 C168.5158947 90.07595329 167.62568244 89.78423487 164.74267578 89.05664062 C163.93822021 88.85280762 163.13376465 88.64897461 162.30493164 88.43896484 C161.43876221 88.22900879 160.57259277 88.01905273 159.68017578 87.80273438 C158.79402588 87.58246582 157.90787598 87.36219727 156.99487305 87.13525391 C150.1593549 85.48239076 143.30378366 84.22700956 136.33056641 83.31665039 C131.14563773 82.57671289 131.14563773 82.57671289 128.73486328 80.83398438 C127.68017578 79.24023438 127.68017578 79.24023438 126.86767578 76.36523438 C124.71554162 70.70172343 120.26194641 68.36933717 115.05517578 65.80273438 C64.38910267 44.03001647 -74.27309107 29.80350508 -119.31982422 72.24023438 Z M-163.31982422 105.24023438 C-162.88907442 112.68180851 -161.97497264 120.0066399 -160.81982422 127.36523438 C-160.623927 128.62750854 -160.623927 128.62750854 -160.42407227 129.9152832 C-159.80421582 134.20490592 -159.80421582 134.20490592 -158.31982422 138.24023438 C-155.58576244 139.10895202 -155.58576244 139.10895202 -152.19873047 139.79101562 C-151.56059418 139.93006821 -150.92245789 140.06912079 -150.26498413 140.21238708 C-148.13963761 140.67036097 -146.01150717 141.1129596 -143.88232422 141.55273438 C-142.78031174 141.783255 -142.78031174 141.783255 -141.65603638 142.01843262 C-61.36860546 158.7317553 23.49497558 159.63224289 163.68017578 138.24023438 C164.39537425 134.02322636 165.10736914 129.80569376 165.81640625 125.58764648 C166.05803967 124.15292775 166.30054636 122.71835581 166.54394531 121.28393555 C166.89374046 119.22157189 167.24038706 117.15869995 167.58642578 115.09570312 C167.79589844 113.85457764 168.00537109 112.61345215 168.22119141 111.3347168 C168.75353496 108.26703461 168.75353496 108.26703461 168.68017578 105.24023438 C163.96160796 106.16749845 159.24708422 107.09739001 154.55908203 108.16992188 C128.15335685 114.05639114 100.63716092 115.87142088 73.68017578 117.24023438 C72.88286356 117.28076368 72.08555134 117.32129299 71.26407814 117.36305046 C57.1043693 118.06692498 42.9813507 118.40270342 28.80517578 118.40820312 C26.77913391 118.41143713 24.75309224 118.41480256 22.72705078 118.41828918 C18.50862083 118.4242146 14.29021115 118.42613624 10.07177734 118.42553711 C5.83931151 118.42545637 1.60695511 118.43232723 -2.62548828 118.44604492 C-46.77673716 118.58684873 -90.98738167 117.50072201 -134.69482422 110.74023438 C-135.3582785 110.63858978 -136.02173279 110.53694519 -136.70529175 110.43222046 C-143.99176051 109.30170895 -151.06730334 107.925766 -158.13476562 105.80859375 C-160.42742774 105.11436681 -160.42742774 105.11436681 -163.31982422 105.24023438 Z M-140.31982422 156.24023438 C-139.75491827 166.59610313 -138.25377514 176.67175226 -136.54760742 186.88354492 C-136.26116066 188.6232999 -135.97519955 190.36313489 -135.68968201 192.1030426 C-134.9175523 196.79946505 -134.13854515 201.49472255 -133.35814691 206.18977714 C-132.53502245 211.14866107 -131.71799978 216.10855057 -130.90019226 221.0683136 C-129.52272262 229.41684948 -128.14108021 237.7646859 -126.7565918 246.11206055 C-124.99756067 256.71775994 -123.24532422 267.32456957 -121.49534321 277.93176556 C-119.97298387 287.15889633 -118.447376 296.38548963 -116.92130637 305.61200738 C-116.44040278 308.52032189 -115.95992611 311.42870667 -115.47951698 314.33710289 C-111.56978085 337.99775842 -107.54956417 361.63455635 -103.31982422 385.24023438 C-101.10420574 385.69021014 -98.88853883 386.13994742 -96.67285156 386.58958435 C-95.43900726 386.84005744 -94.20516296 387.09053053 -92.93392944 387.34859371 C-44.47260027 397.1286348 11.53055341 401.82280955 60.68017578 393.24023438 C62.76257712 391.88434588 62.76257712 391.88434588 64.18017578 389.99023438 C64.68548828 389.40757812 65.19080078 388.82492187 65.71142578 388.22460938 C67.08336248 385.41435195 66.61059887 384.22760178 65.68017578 381.24023438 C64.60633466 378.37519406 63.43696554 375.5569096 62.24267578 372.74023438 C61.61882672 371.25071434 60.99512503 369.76113256 60.37158203 368.27148438 C60.0711499 367.57531006 59.77071777 366.87913574 59.46118164 366.16186523 C58.68017578 364.24023438 58.68017578 364.24023438 57.84423828 361.27539062 C56.81627627 358.92625476 56.81627627 358.92625476 53.88720703 358.45507812 C52.76701172 358.36355469 51.64681641 358.27203125 50.49267578 358.17773438 C44.76843222 357.48273792 41.22683579 356.81951991 36.68017578 353.24023438 C33.19448339 348.15614148 32.07828197 344.3114205 32.14892578 338.11132812 C32.14509888 337.35860123 32.14127197 336.60587433 32.1373291 335.83033752 C32.13462376 334.24958955 32.1418879 332.66879574 32.15869141 331.08813477 C32.18015442 328.68013134 32.1588307 326.27510034 32.13330078 323.8671875 C32.13594372 322.32356118 32.141068 320.7799367 32.14892578 319.23632812 C32.14082886 318.52367294 32.13273193 317.81101776 32.12438965 317.07676697 C32.21868597 312.00860313 33.52396566 309.15765237 36.68017578 305.24023438 C41.397749 301.08427701 44.06608708 300.10590713 50.30517578 299.67773438 C51.49369141 299.59394531 52.68220703 299.51015625 53.90673828 299.42382812 C54.82197266 299.36324219 55.73720703 299.30265625 56.68017578 299.24023438 C57.05529297 298.21285156 57.43041016 297.18546875 57.81689453 296.12695312 C60.8054905 288.01084483 63.94143031 280.04858775 67.68017578 272.24023438 C67.19806641 271.79292969 66.71595703 271.345625 66.21923828 270.88476562 C65.58759766 270.28019531 64.95595703 269.675625 64.30517578 269.05273438 C63.67869141 268.46105469 63.05220703 267.869375 62.40673828 267.25976562 C59.13643518 263.43454684 58.38872747 259.74988157 58.36767578 254.80273438 C58.35091797 253.89652344 58.33416016 252.9903125 58.31689453 252.05664062 C59.06111415 246.28693798 62.16507581 242.37405343 66.17236328 238.34960938 C67.04248047 237.475625 67.91259766 236.60164063 68.80908203 235.70117188 C69.71529297 234.8065625 70.62150391 233.91195312 71.55517578 232.99023438 C72.45365234 232.08015625 73.35212891 231.17007813 74.27783203 230.23242188 C75.15052734 229.36359375 76.02322266 228.49476563 76.92236328 227.59960938 C77.71497559 226.81038086 78.50758789 226.02115234 79.32421875 225.20800781 C83.4054882 221.79919623 87.49397469 220.96389034 92.68017578 220.24023438 C92.79087402 219.6564502 92.90157227 219.07266602 93.015625 218.47119141 C93.52830045 215.76910904 94.04173492 213.0671714 94.55517578 210.36523438 C94.72919922 209.44742188 94.90322266 208.52960938 95.08251953 207.58398438 C95.43486446 205.73091105 95.7900209 203.87837016 96.14794922 202.02636719 C96.50681859 200.1477354 96.85357181 198.26675378 97.18896484 196.38378906 C97.43598145 195.0404248 97.43598145 195.0404248 97.68798828 193.66992188 C97.83123535 192.86538574 97.97448242 192.06084961 98.12207031 191.23193359 C98.68017578 189.24023438 98.68017578 189.24023438 100.68017578 187.24023438 C104.18017578 186.99023438 104.18017578 186.99023438 107.68017578 187.24023438 C109.68017578 189.24023438 109.68017578 189.24023438 109.94799805 191.18798828 C109.90762156 198.16249523 108.89959001 204.76989702 107.61767578 211.61523438 C107.22337808 213.72581172 106.83633838 215.83776144 106.45751953 217.95117188 C106.28470459 218.8720459 106.11188965 219.79291992 105.93383789 220.74169922 C105.67700326 223.27148326 105.77904111 224.87422818 106.68017578 227.24023438 C108.65688185 228.99446209 108.65688185 228.99446209 110.68017578 230.24023438 C111.63537109 229.78132813 112.59056641 229.32242188 113.57470703 228.84960938 C121.15638463 225.2401763 128.70447247 221.90985648 136.68017578 219.24023438 C136.72916016 218.34820312 136.77814453 217.45617187 136.82861328 216.53710938 C136.90337891 215.36664063 136.97814453 214.19617188 137.05517578 212.99023438 C137.12478516 211.83007812 137.19439453 210.66992188 137.26611328 209.47460938 C137.68017578 206.24023438 137.68017578 206.24023438 138.65170288 204.31019592 C139.74261679 202.11456215 140.1617323 200.30060949 140.54980469 197.88647461 C140.68979889 197.03556747 140.82979309 196.18466034 140.97402954 195.30796814 C141.11682343 194.39745193 141.25961731 193.48693573 141.40673828 192.54882812 C141.5592807 191.607173 141.71182312 190.66551788 141.86898804 189.69532776 C142.18966711 187.70794328 142.50719121 185.7200475 142.82177734 183.73168945 C143.30409642 180.68455341 143.79596603 177.63907942 144.28955078 174.59375 C144.60000594 172.66219919 144.90992024 170.73056136 145.21923828 168.79882812 C145.4395018 167.43001747 145.4395018 167.43001747 145.66421509 166.03355408 C145.79790497 165.1857991 145.93159485 164.33804413 146.06933594 163.46459961 C146.18765778 162.71943588 146.30597961 161.97427216 146.42788696 161.20652771 C146.74380755 159.07470198 146.74380755 159.07470198 146.68017578 156.24023438 C139.77676785 156.8065492 132.98439364 157.79529592 126.14892578 158.90332031 C111.53659079 161.26829653 96.91441455 163.07314605 82.18017578 164.49023438 C81.32970673 164.5728653 80.47923767 164.65549622 79.60299683 164.7406311 C19.56012859 170.52461378 -41.49968807 169.43733817 -101.31982422 161.74023438 C-102.11063385 161.63868042 -102.90144348 161.53712646 -103.71621704 161.43249512 C-112.80339024 160.2510089 -121.83402094 158.87643543 -130.84033203 157.17980957 C-134.09270785 156.57702588 -136.99305634 156.24023438 -140.31982422 156.24023438 Z M151.48486328 208.72460938 C148.8780804 212.35830672 149.08437322 215.43634824 149.18017578 219.80273438 C149.24473699 222.76013432 149.08725849 225.27391847 148.68017578 228.24023438 C145.08535232 231.57527567 139.81590294 232.57639126 135.18017578 233.99023438 C129.23059579 235.86251355 123.95762163 237.99016617 118.55517578 241.11523438 C110.18811872 245.77523487 110.18811872 245.77523487 104.68017578 244.24023438 C101.92307655 241.78522472 99.48137598 239.22709083 97.07470703 236.42773438 C94.91815 234.05446552 94.91815 234.05446552 92.30493164 233.86401367 C88.85435731 234.35860348 87.71561861 235.6009596 85.28955078 238.07226562 C84.49806641 238.87083984 83.70658203 239.66941406 82.89111328 240.4921875 C82.07900391 241.33716797 81.26689453 242.18214844 80.43017578 243.05273438 C79.60259766 243.88611328 78.77501953 244.71949219 77.92236328 245.578125 C73.46429522 249.87083674 73.46429522 249.87083674 70.68017578 255.24023438 C71.97529393 257.21036287 71.97529393 257.21036287 73.86767578 259.11523438 C74.83447266 260.17677734 74.83447266 260.17677734 75.82080078 261.25976562 C77.24748923 262.77936866 78.68109349 264.2924812 80.11767578 265.80273438 C82.28010487 269.17612375 82.02480147 271.26883357 81.68017578 275.24023438 C80.53812255 277.70854297 79.39500996 279.87517097 77.99267578 282.17773438 C74.51763899 288.22587831 72.16247896 294.15201325 70.31616211 300.87280273 C68.21973729 308.40661837 68.21973729 308.40661837 65.68017578 311.24023438 C62.23612217 311.7460565 59.1207772 311.77138705 55.66064453 311.68945312 C52.0453886 311.72311473 49.82555181 312.15331441 46.70751953 314.01757812 C43.59834006 318.95991543 43.99197161 323.58489336 44.11767578 329.30273438 C44.10671875 330.39134766 44.09576172 331.47996094 44.08447266 332.6015625 C43.92001303 338.48474869 43.92001303 338.48474869 46.47900391 343.55029297 C49.67819763 346.00646188 52.86756803 345.79924643 56.74267578 345.80273438 C64.18206786 345.84935545 64.18206786 345.84935545 66.32348633 347.52978516 C68.63183234 350.44003748 69.37631519 354.04289512 70.43017578 357.55273438 C74.33369143 370.83082679 74.33369143 370.83082679 81.68017578 382.24023438 C82.34274682 385.55308955 82.60088729 387.06429693 81.68017578 390.24023438 C79.29936247 393.1124611 76.74263941 395.55276696 73.96533203 398.04101562 C71.46757907 400.10424293 71.46757907 400.10424293 70.68017578 403.24023438 C72.94175203 408.34235039 77.16873151 412.09628732 81.05517578 415.99023438 C81.71517578 416.67472656 82.37517578 417.35921875 83.05517578 418.06445312 C84.02583984 419.04091797 84.02583984 419.04091797 85.01611328 420.03710938 C85.59925293 420.6284668 86.18239258 421.21982422 86.78320312 421.82910156 C89.10472356 423.55604984 90.80704057 424.01772885 93.68017578 424.24023438 C96.14876052 422.46214937 96.14876052 422.46214937 98.30517578 419.92773438 C104.29579524 413.41574701 104.29579524 413.41574701 108.42236328 412.89257812 C112.43410604 413.32068976 115.34615666 414.87266058 118.80517578 416.80273438 C127.52130872 421.44070537 136.61209881 424.57025857 145.98461914 427.61108398 C147.68017578 428.24023438 147.68017578 428.24023438 148.68017578 429.24023438 C148.85005765 432.79265303 148.97748403 436.33840739 149.02197266 439.89453125 C149.0496875 440.64412109 149.07740234 441.39371094 149.10595703 442.16601562 C149.12053955 442.85091064 149.13512207 443.53580566 149.15014648 444.24145508 C149.93400013 447.19742459 151.27329697 448.39628526 153.68017578 450.24023438 C156.40630319 450.85142849 156.40630319 450.85142849 159.39892578 450.77148438 C160.49591797 450.77664063 161.59291016 450.78179687 162.72314453 450.78710938 C164.434375 450.76390625 164.434375 450.76390625 166.18017578 450.74023438 C167.32099609 450.75570312 168.46181641 450.77117187 169.63720703 450.78710938 C171.28269531 450.779375 171.28269531 450.779375 172.96142578 450.77148438 C173.96238281 450.76697266 174.96333984 450.76246094 175.99462891 450.7578125 C179.40876964 450.09981447 180.59594756 448.98343981 182.68017578 446.24023438 C183.0522063 443.44567957 183.24016334 440.96905498 183.24267578 438.17773438 C183.28818175 430.91628205 183.28818175 430.91628205 184.75830078 428.38085938 C187.61842792 426.68338554 190.68333662 425.91172298 193.86767578 425.05273438 C202.71202305 422.50128409 210.58417902 418.56079125 218.68017578 414.24023438 C221.69796515 412.73133969 223.30340215 412.73997162 226.68017578 413.24023438 C230.53484514 415.93850293 233.77721202 419.20827579 236.86767578 422.74023438 C238.59207253 424.52025926 238.59207253 424.52025926 241.03271484 424.0637207 C244.15454708 423.09268233 245.55277577 421.8699969 247.85205078 419.56445312 C248.97160156 418.44586914 248.97160156 418.44586914 250.11376953 417.3046875 C250.87818359 416.52029297 251.64259766 415.73589844 252.43017578 414.92773438 C253.6 413.76854492 253.6 413.76854492 254.79345703 412.5859375 C259.5793289 408.15947937 259.5793289 408.15947937 261.68017578 402.24023438 C260.40816756 400.17733705 260.40816756 400.17733705 258.49267578 398.30273438 C257.84814453 397.60535156 257.20361328 396.90796875 256.53955078 396.18945312 C255.92595703 395.54621094 255.31236328 394.90296875 254.68017578 394.24023438 C250.77421248 390.03381236 250.77421248 390.03381236 250.35986328 386.53710938 C250.75279248 382.4928137 252.30021621 379.59565864 254.24267578 376.11523438 C258.11259966 368.85717392 260.89046176 361.44667723 263.4206543 353.62841797 C263.68934326 352.81066895 263.95803223 351.99291992 264.23486328 351.15039062 C264.4667334 350.41957275 264.69860352 349.68875488 264.9375 348.93579102 C265.68017578 347.24023438 265.68017578 347.24023438 267.68017578 346.24023438 C271.03405201 346.07438335 274.3811807 345.94348565 277.73876953 345.8984375 C281.04901083 345.76736901 283.21387869 345.5939237 285.89013672 343.56396484 C288.12875838 340.65790907 288.17078444 339.12337249 288.14111328 335.48632812 C288.13724609 334.38482422 288.13337891 333.28332031 288.12939453 332.1484375 C288.10490234 331.00310547 288.08041016 329.85777344 288.05517578 328.67773438 C288.05388672 327.52853516 288.05259766 326.37933594 288.05126953 325.1953125 C288.19339329 318.85340701 288.19339329 318.85340701 285.68017578 313.24023438 C281.3497579 311.79676175 276.9271194 311.88601246 272.39697266 311.72265625 C266.89481592 311.45487452 266.89481592 311.45487452 264.68017578 309.24023438 C263.91603012 306.89152309 263.22130296 304.55398247 262.55517578 302.17773438 C258.48983884 287.68757271 258.48983884 287.68757271 250.68017578 275.24023438 C250.09524621 271.65754073 249.99759484 269.232227 252.10205078 266.17382812 C253.90912588 264.138938 255.7785695 262.18663224 257.68017578 260.24023438 C259.02609676 258.58371625 260.36616069 256.9221737 261.68017578 255.24023438 C259.35249562 249.74994531 256.07389135 246.08456297 251.93017578 241.92773438 C251.03685547 240.97930664 251.03685547 240.97930664 250.12548828 240.01171875 C247.14090671 236.99806658 245.11773427 235.38749415 241.03564453 234.01367188 C237.56300122 233.92560395 237.56300122 233.92560395 235.09033203 236.33007812 C233.52755979 238.22568705 231.96505894 240.12151975 230.40283203 242.01757812 C227.39458877 244.47337499 225.58484398 244.90765786 221.71704102 244.64624023 C218.33358059 243.9718192 215.57347131 242.34005077 212.68017578 240.55273438 C206.65261619 237.06475577 200.75723898 234.71931521 194.04736328 232.8762207 C186.4519367 230.7623808 186.4519367 230.7623808 183.68017578 228.24023438 C183.19118054 225.24026359 182.98016028 222.73894932 182.99267578 219.74023438 C183.08787418 213.68504093 183.08787418 213.68504093 180.68017578 208.24023438 C175.97595147 206.67215961 171.23272597 206.97313564 166.30517578 206.92773438 C164.74283203 206.88422852 164.74283203 206.88422852 163.14892578 206.83984375 C158.74258608 206.80321816 155.51577161 206.85206027 151.48486328 208.72460938 Z M-99.31982422 400.24023438 C-95.50922928 412.99602492 -89.95145185 422.5929429 -78.42919922 429.63085938 C-67.46287164 435.30689827 -56.23028067 436.38829105 -44.13061523 436.40136719 C-42.4705117 436.40881454 -42.4705117 436.40881454 -40.77687073 436.41641235 C-37.12581756 436.43098092 -33.4748079 436.4378287 -29.82373047 436.44335938 C-27.94364949 436.44760044 -27.94364949 436.44760044 -26.02558708 436.45192719 C-20.07005607 436.46536134 -14.11453821 436.47525818 -8.15899426 436.47912908 C-1.32938577 436.48359465 5.50002107 436.50107927 12.32956833 436.53012967 C18.28024342 436.55454498 24.2308696 436.56208285 30.18159676 436.56380463 C32.69431719 436.56681074 35.2070372 436.57476929 37.71972466 436.58798981 C51.04459953 436.65306992 63.69941028 436.50724993 76.68017578 433.24023438 C76.99562115 430.3096231 76.99562115 430.3096231 75.47436523 428.75732422 C74.91966553 428.24379395 74.36496582 427.73026367 73.79345703 427.20117188 C72.88297607 426.33613037 72.88297607 426.33613037 71.95410156 425.45361328 C70.9831958 424.54361572 70.9831958 424.54361572 69.99267578 423.61523438 C64.7206474 418.53822229 60.70948776 413.99793033 57.68017578 407.24023438 C56.62072754 407.30952148 55.5612793 407.37880859 54.46972656 407.45019531 C37.84174171 408.45033693 21.2066952 408.48427002 4.55517578 408.49023438 C3.42330212 408.49111809 3.42330212 408.49111809 2.26856232 408.49201965 C-20.04700967 408.50430238 -42.17381447 408.33330529 -64.31982422 405.24023438 C-65.54685059 405.06911133 -66.77387695 404.89798828 -68.03808594 404.72167969 C-73.68635971 403.91341635 -79.32172306 403.05230077 -84.94873047 402.10742188 C-89.72837921 401.30811531 -94.49873229 400.72781643 -99.31982422 400.24023438 Z " fill="#FFBD73" transform="translate(195.31982421875,23.759765625)"/>
<path d="M0 0 C0.79921875 0.53367187 1.5984375 1.06734375 2.421875 1.6171875 C16.97809708 12.10770617 26.65085747 29.75519953 29.55078125 47.33984375 C32.02645977 67.51124177 27.49518625 86.79394637 15 103 C2.71937243 118.3093758 -13.64031819 127.24841361 -33 130 C-52.44281025 132.0605753 -71.34239624 126.74415812 -86.8125 114.75 C-99.66629932 103.53590822 -108.68801428 88.81689301 -112 72 C-112.226875 70.88625 -112.45375 69.7725 -112.6875 68.625 C-114.37639796 49.03378371 -110.41715474 30.33853001 -98.18359375 14.58984375 C-85.41004066 -0.56018433 -69.43890247 -10.28635242 -49.53515625 -12.77734375 C-31.30579533 -13.92549134 -15.28424806 -10.32357106 0 0 Z M-83 19 C-83.64839844 19.63808594 -84.29679687 20.27617187 -84.96484375 20.93359375 C-95.72621939 32.26011822 -99.6663123 47.04560041 -99.27734375 62.33984375 C-98.12013685 77.61171514 -91.28676556 91.65843156 -80 102 C-65.90726804 113.64877358 -50.91804594 117.26419619 -33 116 C-17.79717128 114.02560666 -4.31930423 105.32934042 5.0625 93.37109375 C14.41905343 79.51774848 18.44315637 63.55795414 15.3515625 47.0390625 C11.26538818 30.1006476 2.39988142 18.36978586 -12 9 C-35.58925549 -5.39911968 -64.057743 -0.20580144 -83 19 Z " fill="#FFBD73" transform="translate(403,294)"/>
<path d="M0 0 C4.06280429 3.11191324 4.73341394 5.92484022 5.54400635 10.87431335 C5.66176351 11.56558486 5.77952068 12.25685637 5.90084624 12.9690755 C6.29087374 15.2826776 6.65755732 17.59936783 7.02441406 19.91674805 C7.29948683 21.57781936 7.57597081 23.2386575 7.85375977 24.89927673 C8.6039227 29.40954761 9.33373332 33.92289966 10.05959034 38.43713737 C10.82284981 43.1646037 11.60341754 47.88921261 12.3817749 52.61421204 C13.68709597 60.55410737 14.97992808 68.49595571 16.26464844 76.43920898 C17.74810319 85.61069396 19.2477418 94.77941098 20.75693727 103.94669312 C22.36517244 113.71622567 23.96238153 123.48753637 25.55591869 133.25947595 C26.01477506 136.06901462 26.47557632 138.87822866 26.93677521 141.68738365 C27.66270283 146.11281226 28.38114193 150.53939619 29.09393311 154.966959 C29.3559249 156.58742867 29.62030856 158.20751381 29.88732147 159.8271637 C32.61982601 176.42266121 32.61982601 176.42266121 32 183 C30.69723892 184.70482922 30.69723892 184.70482922 29 186 C22.84461243 186.65950581 22.84461243 186.65950581 20.34137344 184.70488071 C18.02964911 181.76668759 17.79093615 178.10687995 17.17871094 174.50561523 C17.01447506 173.59289824 16.85023918 172.68018126 16.68102646 171.73980618 C16.10446845 168.49582102 15.55043025 165.24851897 15 162 C14.78869949 160.76216389 14.57739899 159.52432777 14.35969543 158.24898148 C12.72101138 148.62999239 11.12965551 139.00330499 9.54619694 129.37509465 C8.99771912 126.04161938 8.44773351 122.70839347 7.89782214 119.37515444 C6.60174242 111.51849867 5.30854608 103.66137205 4.01708984 95.80395508 C2.68781944 87.71686883 1.35297749 79.63071536 0.01558518 71.54496866 C-1.13867012 64.5650319 -2.28921962 57.58449096 -3.43685746 50.60346311 C-4.11982062 46.44937059 -4.8042371 42.29553084 -5.49236298 38.14229012 C-6.13688444 34.25138699 -6.7767816 30.35975118 -7.41313744 26.4675045 C-7.64689439 25.04261713 -7.88228504 23.61799665 -8.11944771 22.19367218 C-8.44336073 20.2467586 -8.76074441 18.2987621 -9.07781982 16.35072327 C-9.34656481 14.71858179 -9.34656481 14.71858179 -9.62073898 13.05346775 C-10.63073994 4.92185068 -10.63073994 4.92185068 -8.375 1.625 C-5.28813568 -0.48706506 -3.6717087 -0.61195145 0 0 Z " fill="#FFBD73" transform="translate(100,210)"/>
<path d="M0 0 C3.72175983 0.69782997 4.70799626 1.5798974 7 4.5625 C7.50057125 7.71688175 7.50057125 7.71688175 7.50120544 11.51515198 C7.50673984 12.21474043 7.51227424 12.91432889 7.51797634 13.63511699 C7.53158923 15.97919268 7.51661137 18.32220475 7.50170898 20.66625977 C7.50549192 22.34669446 7.51099175 24.02712605 7.51808167 25.70755005 C7.5320559 30.27155098 7.52085326 34.83517577 7.50437045 39.39915586 C7.49053354 44.17170088 7.49697839 48.94422378 7.50050354 53.71678162 C7.50320648 61.73076449 7.48972198 69.74459766 7.46655273 77.75854492 C7.4399334 87.03014741 7.43819846 96.30149971 7.4499411 105.57312733 C7.46071099 114.48561725 7.4545386 123.39801648 7.44038582 132.31049919 C7.43462007 136.10671057 7.43471329 139.9028557 7.43945122 143.69906807 C7.44421498 148.16672232 7.43414443 152.63410171 7.41249657 157.10170364 C7.40692063 158.74363338 7.40647077 160.38558948 7.41144943 162.02752113 C7.41738236 164.26426546 7.40493674 166.50016371 7.38768005 168.73683167 C7.38525016 169.98988381 7.38282026 171.24293596 7.38031673 172.53395939 C7 175.5625 7 175.5625 5.59686375 177.4598074 C3.6233494 178.82259096 2.38874161 179.02630695 0 179.0625 C-1.0209375 179.10890625 -1.0209375 179.10890625 -2.0625 179.15625 C-4 178.5625 -4 178.5625 -5.59686375 176.45948792 C-7.29784678 172.94755008 -7.37996799 170.5137222 -7.38768005 166.61694336 C-7.39306559 165.93016227 -7.39845113 165.24338118 -7.40399987 164.53578854 C-7.41827461 162.24112314 -7.41117727 159.94703501 -7.40405273 157.65234375 C-7.40975653 156.00456275 -7.41672082 154.35678571 -7.42485046 152.70901489 C-7.44279473 148.23798649 -7.44161128 143.76715421 -7.43590808 139.29610062 C-7.43281848 135.5633436 -7.43890603 131.83062438 -7.44494683 128.09787273 C-7.45899421 119.29275559 -7.4574286 110.48773547 -7.44604492 101.68261719 C-7.43455932 92.59788159 -7.44864628 83.51344104 -7.4754414 74.42874432 C-7.49758779 66.62818414 -7.5042383 58.82771665 -7.49836498 51.02712727 C-7.49499216 46.36842597 -7.49743222 41.70991388 -7.51461601 37.05123901 C-7.53006654 32.67134562 -7.52615084 28.29188999 -7.50731087 23.91201401 C-7.50361992 22.30477864 -7.50674821 20.69751097 -7.51719666 19.09030533 C-7.53037442 16.8957161 -7.51888994 14.70258311 -7.50120544 12.50805664 C-7.50099616 11.28026993 -7.50078688 10.05248322 -7.50057125 8.78749084 C-6.74863604 3.9430573 -4.94466226 0.92712417 0 0 Z " fill="#FFBD73" transform="translate(198,217.4375)"/>
</svg>
