<?xml version="1.0" encoding="UTF-8"?>
<svg version="1.1" xmlns="http://www.w3.org/2000/svg" width="512" height="512">
<path d="M0 0 C0.97501465 0.87023804 0.97501465 0.87023804 1.96972656 1.75805664 C3.0886731 2.69862915 3.0886731 2.69862915 4.23022461 3.65820312 C5.0156665 4.32150635 5.8011084 4.98480957 6.61035156 5.66821289 C14.12840476 11.68515241 19.27333537 13.85595235 28.8371582 13.60913086 C33.42836678 13.51964164 36.03763532 13.7285241 39.54785156 16.79321289 C41.27832031 18.70727539 41.27832031 18.70727539 42.86035156 20.73071289 C44.02522989 22.04480035 45.19191709 23.35728641 46.36035156 24.66821289 C46.92753906 25.33723633 47.49472656 26.00625977 48.07910156 26.69555664 C49.92484386 28.80439817 51.86174573 30.76669831 53.86035156 32.73071289 C56.4601734 35.29061423 58.92303554 37.89850829 61.29785156 40.66821289 C63.86700427 43.65873005 66.55352412 46.46187973 69.36035156 49.23071289 C72.76753946 52.59185771 75.93493331 56.06772492 79.04785156 59.69946289 C81.07128036 61.96709861 83.19688503 64.09648239 85.36035156 66.23071289 C89.40746352 70.22964495 93.19349518 74.38262861 96.86035156 78.73071289 C97.70750732 79.4501709 98.55466309 80.16962891 99.42749023 80.91088867 C103.70128282 86.09458706 102.55331587 93.50412914 102.48925781 99.86743164 C102.49008709 101.35382765 102.49254869 102.84022357 102.49656677 104.32661438 C102.49941795 107.43270664 102.48478631 110.53807503 102.45727539 113.64404297 C102.42310304 117.62578517 102.42924607 121.60624127 102.44793797 125.58804607 C102.45850019 128.65331258 102.44957902 131.71827923 102.43455315 134.78351784 C102.42937106 136.25193199 102.4298535 137.72037744 102.4360981 139.18878746 C102.44154502 141.23819927 102.42120116 143.28576013 102.39379883 145.33496094 C102.38450096 147.08319405 102.38450096 147.08319405 102.37501526 148.866745 C101.86035156 151.73071289 101.86035156 151.73071289 99.99107361 153.64216614 C97.86035156 154.73071289 97.86035156 154.73071289 95.23535156 154.54321289 C92.86035156 153.73071289 92.86035156 153.73071289 90.86035156 151.73071289 C90.61984253 149.25033569 90.61984253 149.25033569 90.63330078 146.08764648 C90.63345184 144.90657318 90.63360291 143.72549988 90.63375854 142.50863647 C90.64408112 141.22840607 90.65440369 139.94817566 90.66503906 138.62915039 C90.66928391 136.66904526 90.66928391 136.66904526 90.6736145 134.66934204 C90.6812538 131.19389208 90.70090466 127.71860906 90.72302246 124.2432251 C90.7434746 120.69741067 90.75261486 117.15156929 90.76269531 113.60571289 C90.7841504 106.64731094 90.81828983 99.68901993 90.86035156 92.73071289 C90.26202011 92.73737473 89.66368866 92.74403656 89.04722595 92.75090027 C82.80147696 92.81743855 76.55582921 92.86259016 70.30981445 92.89550781 C67.98099678 92.91056378 65.65220732 92.93101294 63.32348633 92.95703125 C59.96981835 92.99355422 56.61652638 93.0104716 53.26269531 93.02368164 C52.22700912 93.0391655 51.19132294 93.05464935 50.12425232 93.07060242 C43.44602661 93.07214577 38.23543964 92.55811933 32.93457031 88.11743164 C32.47695313 87.55668945 32.01933594 86.99594727 31.54785156 86.41821289 C30.84208984 85.58870117 30.84208984 85.58870117 30.12207031 84.74243164 C26.17503264 78.44916724 26.59817385 71.93700851 26.66503906 64.76977539 C26.66928391 63.05121841 26.66928391 63.05121841 26.6736145 61.29794312 C26.68478021 57.65042534 26.70987858 54.00315605 26.73535156 50.35571289 C26.74538601 47.87785186 26.75451105 45.39998697 26.76269531 42.92211914 C26.78470776 36.85823275 26.81814962 30.79449058 26.86035156 24.73071289 C-4.5209623 24.7441913 -35.90211893 24.78309909 -67.28334255 24.85756851 C-70.98715307 24.86633539 -74.69096406 24.87488518 -78.39477539 24.88330078 C-79.50083084 24.88581938 -79.50083084 24.88581938 -80.62923083 24.88838885 C-92.57276772 24.91506756 -104.51625661 24.92415455 -116.45982023 24.92675432 C-128.71263604 24.92981245 -140.96531295 24.95174287 -153.21806604 24.99123746 C-160.78033899 25.01501694 -168.34233479 25.02402931 -175.90464 25.014226 C-181.70088091 25.00828792 -187.4967991 25.02859159 -193.29295349 25.05877304 C-195.67258614 25.06703422 -198.05226593 25.06672367 -200.4318943 25.0573101 C-203.6755965 25.04574615 -206.91772152 25.06471956 -210.16130066 25.09147644 C-211.10780068 25.08080318 -212.0543007 25.07012992 -213.02948254 25.05913323 C-214.33501347 25.07929119 -214.33501347 25.07929119 -215.66691875 25.09985638 C-216.41534753 25.10099554 -217.1637763 25.1021347 -217.93488473 25.10330838 C-221.40261627 26.09011273 -222.93467997 27.93942459 -225.13964844 30.73071289 C-225.88107373 33.77114759 -225.88107373 33.77114759 -225.76606083 37.12882328 C-225.77848287 38.42865149 -225.7909049 39.72847969 -225.80370337 41.06769663 C-225.79220239 42.50835602 -225.78023018 43.9490117 -225.76783752 45.3896637 C-225.77288209 46.92143759 -225.78011023 48.4532056 -225.78933567 49.98496002 C-225.8082978 54.19612256 -225.7960022 58.40670589 -225.77861273 62.617854 C-225.76526288 67.15847547 -225.78066719 71.69901085 -225.79243469 76.23962402 C-225.81083304 85.1351499 -225.80228454 94.03045642 -225.78434647 102.92597551 C-225.77033308 110.15362264 -225.76642495 117.38121014 -225.76978874 124.60886955 C-225.77050491 126.15060957 -225.77050491 126.15060957 -225.77123554 127.72349585 C-225.77226184 129.81135227 -225.7733172 131.89920868 -225.7744013 133.98706507 C-225.78297269 152.45691546 -225.76627863 170.92665979 -225.73657227 189.39648438 C-225.70772962 207.3294724 -225.70065274 225.26230764 -225.71606445 243.1953125 C-225.7328145 262.7123933 -225.73687338 282.22940154 -225.71935409 301.74648422 C-225.71750966 303.8264468 -225.71567493 305.90640939 -225.71385002 307.98637199 C-225.71248189 309.52154268 -225.71248189 309.52154268 -225.71108611 311.08772691 C-225.70547359 318.30947422 -225.70879452 325.53118619 -225.71539497 332.75293159 C-225.72311566 341.54977002 -225.71642118 350.34645789 -225.69121993 359.14326591 C-225.67869592 363.63388731 -225.67261339 368.12427397 -225.6837616 372.6149044 C-225.69376638 376.72241175 -225.68542541 380.82944989 -225.66218042 384.93689989 C-225.65700016 386.42603668 -225.6586205 387.91521515 -225.66757507 389.40433402 C-225.67870442 391.42235291 -225.66299227 393.44046723 -225.64580631 395.45844364 C-225.64461483 396.58122434 -225.64342335 397.70400503 -225.64219576 398.86080939 C-225.01859351 402.42202286 -224.02722429 403.60436946 -221.13964844 405.73071289 C-219.14869968 406.31731072 -219.14869968 406.31731072 -217.01698971 406.23014164 C-216.19924444 406.23973913 -215.38149917 406.24933663 -214.53897375 406.25922495 C-213.64608052 406.24941817 -212.75318729 406.2396114 -211.83323669 406.22950745 C-210.88046799 406.234892 -209.92769929 406.24027655 -208.94605881 406.24582428 C-205.7452737 406.25912617 -202.5452512 406.24393158 -199.34448242 406.22900391 C-197.05321906 406.2328257 -194.76195809 406.23844354 -192.47070312 406.24572754 C-187.5329905 406.25769457 -182.59549044 406.2571761 -177.65777397 406.24713326 C-169.85600465 406.23160735 -162.05445489 406.24522571 -154.25270081 406.26316833 C-143.31990359 406.28543185 -132.38716544 406.29591253 -121.4543457 406.29492188 C-120.7605814 406.29486355 -120.06681709 406.29480523 -119.35202963 406.29474514 C-116.54080605 406.29447928 -113.72958248 406.29416199 -110.91835892 406.29378188 C-103.1770987 406.29281533 -95.43583984 406.29414387 -87.69458008 406.296875 C-87.00135721 406.29711489 -86.30813435 406.29735478 -85.59390473 406.29760195 C-74.04388341 406.3020053 -62.49390883 406.31831476 -50.94391114 406.34209579 C-43.18224579 406.35707122 -35.42077362 406.35672846 -27.65910518 406.34461796 C-22.83848596 406.33992218 -18.01794139 406.34740313 -13.19733429 406.35816193 C-10.95552327 406.36057727 -8.7137 406.35780051 -6.47190285 406.34955406 C-3.4207618 406.3389983 -0.37019829 406.34663421 2.68092346 406.35890198 C3.57604741 406.35132592 4.47117136 406.34374987 5.39342028 406.33594424 C6.2085578 406.34293398 7.02369532 406.34992373 7.86353397 406.35712528 C8.56802522 406.35685559 9.27251646 406.3565859 9.99835593 406.35630804 C12.47892761 406.85509442 13.38588591 407.6965459 14.86035156 409.73071289 C14.41590712 416.17515734 14.41590712 416.17515734 12.86035156 417.73071289 C11.28522424 417.79086116 9.70739394 417.78131851 8.13154602 417.74461365 C7.10648516 417.72616583 6.08142429 417.70771801 5.02530098 417.68871117 C3.88974707 417.66704195 2.75419315 417.64537273 1.58422852 417.62304688 C-27.16165394 417.31619204 -54.81091712 418.73416663 -83.09667969 424.07836914 C-83.79352293 424.20982566 -84.49036616 424.34128219 -85.20832586 424.47672224 C-93.66966348 426.0803569 -102.11318827 427.76783394 -110.55071628 429.49191129 C-119.95967373 431.41250508 -129.38563719 433.24673871 -138.81088543 435.08538723 C-140.21700409 435.35982199 -141.62311587 435.634292 -143.02922058 435.90879822 C-143.7156011 436.04271027 -144.40198162 436.17662231 -145.10916156 436.3145923 C-149.75738863 437.22354091 -154.40040637 438.15587645 -159.04219055 439.09718323 C-160.2641362 439.34197418 -161.48608185 439.58676514 -162.74505615 439.838974 C-165.00545494 440.29201343 -167.26459205 440.75141928 -169.52207947 441.21875 C-177.87172419 442.87919593 -185.74254456 444.31717225 -193.42089844 439.91430664 C-199.07903418 436.01790862 -200.85084416 430.22355261 -202.13964844 423.73071289 C-202.18674962 421.7312676 -202.19784794 419.72986592 -202.13964844 417.73071289 C-202.80496582 417.75166016 -203.4702832 417.77260742 -204.15576172 417.79418945 C-207.19190146 417.87771898 -210.22779887 417.92948892 -213.26464844 417.98071289 C-214.31136719 418.01422852 -215.35808594 418.04774414 -216.43652344 418.08227539 C-223.92526341 418.17706957 -227.38131872 417.38191682 -232.78417969 412.13305664 C-236.49129343 407.4836665 -237.27267476 404.67101617 -237.09599304 398.81639099 C-237.06235185 397.57426188 -237.02871065 396.33213278 -236.99405003 395.0523634 C-236.97364788 394.37965385 -236.95324574 393.7069443 -236.93222535 393.01384962 C-236.82090871 389.29203987 -236.73133383 385.56968545 -236.63955688 381.84735107 C-236.61947408 381.04591791 -236.59939127 380.24448474 -236.57869989 379.41876572 C-236.15092406 362.00505691 -235.96513443 344.58632153 -235.82714844 327.16821289 C-235.81931509 326.19917164 -235.81148173 325.2301304 -235.80341101 324.23172426 C-235.19079866 243.64786205 -246.02924796 167.59182032 -263.59164429 89.09332275 C-263.90119014 87.69934889 -264.21063497 86.30535259 -264.51997089 84.91133213 C-265.08318643 82.37443492 -265.66048699 79.84228225 -266.2468977 77.31049252 C-270.00597833 60.48286456 -270.00597833 60.48286456 -265.95214844 53.35571289 C-262.06661592 47.55825168 -257.71857541 45.30150763 -251.04394531 43.95727539 C-250.18865234 43.80000977 -249.33335937 43.64274414 -248.45214844 43.48071289 C-247.58525391 43.30797852 -246.71835938 43.13524414 -245.82519531 42.95727539 C-239.57070002 41.73071289 -239.57070002 41.73071289 -237.13964844 41.73071289 C-237.18605469 40.81290039 -237.23246094 39.89508789 -237.28027344 38.94946289 C-237.68419961 25.21597291 -237.68419961 25.21597291 -233.13964844 19.73071289 C-228.08168262 15.06001591 -223.73976908 13.57968644 -216.88633728 13.66670227 C-215.81980517 13.67718062 -214.75327307 13.68765898 -213.65442181 13.69845486 C-212.48673165 13.71465909 -211.3190415 13.73086332 -210.1159668 13.74755859 C-207.54742971 13.77304111 -204.97888684 13.79794514 -202.41033936 13.82235718 C-201.73200489 13.82946061 -201.05367043 13.83656405 -200.35478038 13.84388274 C-104.70900508 15.38609824 -104.70900508 15.38609824 -10.77311707 -0.74452209 C-6.90899281 -1.51451692 -3.46682824 -2.05659973 0 0 Z M-15.95214844 11.73071289 C-16.92796875 11.91633789 -17.90378906 12.10196289 -18.90917969 12.29321289 C-20.01326172 12.50977539 -20.01326172 12.50977539 -21.13964844 12.73071289 C-21.13964844 13.06071289 -21.13964844 13.39071289 -21.13964844 13.73071289 C-14.86964844 13.73071289 -8.59964844 13.73071289 -2.13964844 13.73071289 C-4.71208885 10.53084342 -4.71208885 10.53084342 -7.46386719 10.48071289 C-10.33742953 10.74919171 -13.11819833 11.18440925 -15.95214844 11.73071289 Z M38.86035156 34.73071289 C38.7862618 40.79961464 38.73177797 46.86825386 38.69555664 52.9375 C38.68045885 55.0026508 38.65997882 57.06776949 38.6340332 59.1328125 C38.59769362 62.09912028 38.58063526 65.0650046 38.56738281 68.03149414 C38.55189896 68.95658279 38.5364151 69.88167145 38.52046204 70.83479309 C38.52023544 71.69545883 38.52000885 72.55612457 38.51977539 73.44287109 C38.51311356 74.20009964 38.50645172 74.95732819 38.49958801 75.73750305 C38.96382431 78.30239731 39.82319263 79.14800959 41.86035156 80.73071289 C45.74496203 82.02558305 49.41919112 81.85397329 53.46582031 81.82836914 C54.30502518 81.82695419 55.14423004 81.82553925 56.00886536 81.82408142 C58.68856372 81.81848504 61.36817846 81.80593324 64.04785156 81.79321289 C65.86490765 81.78819742 67.68196504 81.7836346 69.49902344 81.77954102 C73.95283169 81.7685168 78.40657745 81.75125467 82.86035156 81.73071289 C82.44811844 81.24996307 82.03588531 80.76921326 81.61116028 80.27389526 C81.07053452 79.64331207 80.52990875 79.01272888 79.97290039 78.36303711 C79.43691727 77.73791229 78.90093414 77.11278748 78.34870911 76.46871948 C77.24996396 75.18567677 76.15399966 73.90025143 75.05957031 72.61352539 C71.24754859 68.180942 67.20881674 64.05419881 63.04785156 59.94946289 C60.46093138 57.32558671 58.07651884 54.56679655 55.68066406 51.76977539 C52.904874 48.66041399 49.915311 45.77522926 46.94628906 42.85180664 C45.14401835 41.01916058 43.48174478 39.15980861 41.86035156 37.16821289 C41.20035156 36.36383789 40.54035156 35.55946289 39.86035156 34.73071289 C39.53035156 34.73071289 39.20035156 34.73071289 38.86035156 34.73071289 Z M-248.26464844 54.91821289 C-249.29847656 55.13864258 -250.33230469 55.35907227 -251.39746094 55.58618164 C-254.89959078 57.0478968 -255.56477532 58.31875416 -257.13964844 61.73071289 C-257.21246525 64.60435403 -257.21246525 64.60435403 -256.57177734 67.69995117 C-256.36063293 68.94117737 -256.14948853 70.18240356 -255.9319458 71.46124268 C-255.66856257 72.88453208 -255.40442089 74.30768127 -255.13964844 75.73071289 C-254.85512718 77.33157986 -254.5717107 78.93264347 -254.28924561 80.53387451 C-253.29732438 86.10238082 -252.26190846 91.66251748 -251.22558594 97.22290039 C-250.84705053 99.26550754 -250.46876917 101.30816178 -250.09072876 103.3508606 C-249.10359853 108.68095173 -248.1130588 114.01040352 -247.12176514 119.33972168 C-246.10740437 124.79648702 -245.09632814 130.25386082 -244.08496094 135.71118164 C-242.10637255 146.38495085 -240.12417539 157.05804634 -238.13964844 167.73071289 C-237.80964844 167.73071289 -237.47964844 167.73071289 -237.13964844 167.73071289 C-237.13964844 130.11071289 -237.13964844 92.49071289 -237.13964844 53.73071289 C-241.23908345 53.73071289 -244.32663762 54.02500492 -248.26464844 54.91821289 Z M-191.13964844 417.73071289 C-190.12442045 427.00415745 -190.12442045 427.00415745 -186.88420105 430.39242554 C-183.48314636 432.05083371 -181.91050429 431.89749065 -178.22680664 431.14331055 C-176.50586288 430.81378387 -176.50586288 430.81378387 -174.75015259 430.4776001 C-173.55868622 430.23112732 -172.36721985 429.98465454 -171.13964844 429.73071289 C-168.81252822 429.31416866 -166.48463137 428.90194165 -164.15600586 428.49389648 C-161.68535977 428.0408851 -159.21507491 427.58590007 -156.74511719 427.12915039 C-155.41851261 426.88522211 -154.09187727 426.64146115 -152.76521301 426.39785767 C-149.32093163 425.76496208 -145.87706504 425.12983813 -142.43328857 424.49420166 C-138.90011605 423.84248916 -135.36654393 423.1929506 -131.83300781 422.54321289 C-124.93483532 421.27447148 -118.03709996 420.00336854 -111.13964844 418.73071289 C-111.13964844 418.40071289 -111.13964844 418.07071289 -111.13964844 417.73071289 C-137.53964844 417.73071289 -163.93964844 417.73071289 -191.13964844 417.73071289 Z " fill="#FFBD73" transform="translate(300.1396484375,35.269287109375)"/>
<path d="M0 0 C2.375 0.875 2.375 0.875 4.375 3.875 C4.64242554 6.18296814 4.64242554 6.18296814 4.66552734 8.92553711 C4.67828705 9.95347885 4.69104675 10.98142059 4.70419312 12.04051208 C4.70641876 13.14991653 4.70864441 14.25932098 4.7109375 15.40234375 C4.7209227 17.11303795 4.7209227 17.11303795 4.73110962 18.85829163 C4.7412406 21.27164088 4.7459265 23.68501817 4.74560547 26.09838867 C4.74997879 29.79457637 4.78629615 33.48957052 4.82421875 37.18554688 C4.83008668 39.52864174 4.83405623 41.87174229 4.8359375 44.21484375 C4.85030853 45.32222397 4.86467957 46.42960419 4.87948608 47.57054138 C4.87333282 48.60163528 4.86717957 49.63272919 4.86083984 50.69506836 C4.86368988 51.60091171 4.86653992 52.50675507 4.86947632 53.44004822 C4.2133828 56.67085224 2.89532118 57.81088236 0.375 59.875 C-2.13338429 61.20609356 -4.61516971 62.43602922 -7.1875 63.625 C-25.9606742 72.718588 -39.04677085 86.25753518 -46.4375 105.9375 C-53.26880509 126.52130087 -52.19952348 147.28950753 -42.625 166.875 C-38.69561291 174.55047916 -33.65202107 180.73692829 -27.625 186.875 C-26.94824219 187.57625 -26.27148438 188.2775 -25.57421875 189 C-13.35200412 200.78488492 2.96259346 206.05932755 19.375 208.875 C15.49608966 195.80079046 10.47119517 184.42135634 -0.625 175.875 C-4.67620105 174.52012813 -8.58295017 174.93215006 -12.8125 175.125 C-20.93973596 175.26758309 -26.46276472 173.42655983 -32.6484375 168.1484375 C-38.98464067 161.65182412 -41.78532983 153.80898175 -42.0625 144.8125 C-41.80084897 137.62644142 -40.54078527 130.37920844 -35.625 124.875 C-32.875 124.3125 -32.875 124.3125 -29.625 124.875 C-28.58730469 125.66003906 -27.54960937 126.44507813 -26.48046875 127.25390625 C-22.45892823 130.23005818 -18.5053859 131.26049744 -13.6875 132.375 C-4.77875173 134.68317569 1.46955263 136.65218307 6.875 144.5 C10.53519311 151.16393854 10.32750909 157.36262273 8.375 164.5625 C8.045 165.325625 7.715 166.08875 7.375 166.875 C7.94347656 167.33648437 8.51195312 167.79796875 9.09765625 168.2734375 C15.49672385 173.67899377 22.79405659 180.25885839 24.375 188.875 C25.035 188.875 25.695 188.875 26.375 188.875 C26.6534375 187.6684375 26.6534375 187.6684375 26.9375 186.4375 C30.24913229 178.23041128 36.60061682 172.34729395 43.375 166.875 C42.88 165.7303125 42.88 165.7303125 42.375 164.5625 C40.66165721 158.24454846 40.21957872 151.68406853 42.875 145.5625 C48.13636679 136.66004893 56.92498318 134.4281219 66.375 131.875 C72.51713316 130.27620026 72.51713316 130.27620026 77.5625 126.6875 C79.375 124.875 79.375 124.875 82.375 124.3125 C85.375 124.875 85.375 124.875 87.625 127.0625 C92.21270231 134.435593 93.54198372 142.75328031 91.9140625 151.29296875 C89.37755433 160.91677917 84.89439453 167.51579097 76.42578125 172.78125 C73.17560104 174.51467945 70.81408974 174.97279713 67.20703125 174.7265625 C56.78390481 173.76092812 56.78390481 173.76092812 47.625 177.75 C45.89340314 179.68050696 45.89340314 179.68050696 44.375 181.875 C43.75625 182.64714844 43.1375 183.41929687 42.5 184.21484375 C36.74843695 191.79971753 33.91497163 199.79099667 31.375 208.875 C54.99903866 203.86468848 75.39311642 194.60074426 89.375 173.875 C100.64393707 154.67863072 104.35175633 133.61263444 98.96582031 111.9453125 C95.85652522 101.04993134 90.51339583 91.63575852 83.375 82.875 C82.89546875 82.23304688 82.4159375 81.59109375 81.921875 80.9296875 C75.79129971 73.07268583 66.78400434 67.93037002 58.2734375 63.00390625 C56.375 61.875 56.375 61.875 55.375 60.875 C55.26574055 59.17274161 55.22592626 57.46597248 55.21386719 55.76025391 C55.20425964 54.66887115 55.1946521 53.5774884 55.18475342 52.45303345 C55.18050354 51.26454803 55.17625366 50.07606262 55.171875 48.8515625 C55.16617493 47.63931 55.16047485 46.4270575 55.15460205 45.17807007 C55.14513461 42.60732908 55.13861118 40.03657586 55.13476562 37.46582031 C55.12505879 33.5238741 55.09405036 29.58244872 55.0625 25.640625 C55.05597056 23.14844061 55.05071986 20.65625248 55.046875 18.1640625 C55.0345282 16.97962555 55.0221814 15.7951886 55.00946045 14.57485962 C55.01246155 13.47717255 55.01546265 12.37948547 55.01855469 11.24853516 C55.01308624 9.79744858 55.01308624 9.79744858 55.00750732 8.31704712 C55.375 5.875 55.375 5.875 56.74102783 4.06259155 C59.0752649 2.36603865 60.55879008 2.45256851 63.375 2.875 C65.5096377 4.48098476 66.29399752 5.33260331 66.69297791 8.00419617 C66.66788651 8.82611954 66.6427951 9.64804291 66.61694336 10.49487305 C66.59800522 11.42982101 66.57906708 12.36476898 66.55955505 13.32804871 C66.52830032 14.33740982 66.49704559 15.34677094 66.46484375 16.38671875 C66.44325258 18.52796917 66.42446153 20.66924932 66.40820312 22.81054688 C66.36920742 26.18502399 66.31272285 29.55537126 66.20727539 32.9284668 C65.27523365 44.70720565 65.27523365 44.70720565 68.51974487 55.63809204 C71.65005949 58.70861451 75.40472855 60.18589603 79.375 61.875 C97.60573214 75.93974034 109.89971888 96.70844833 113.09375 119.52734375 C115.28465217 145.60516543 109.06879775 169.32235311 92.75 190.0625 C78.767537 206.06986237 59.45248618 216.75981462 38.375 219.875 C16.22879558 221.22401682 -1.2879255 218.84555573 -20.625 207.875 C-21.47707031 207.39160156 -22.32914062 206.90820312 -23.20703125 206.41015625 C-43.87280426 193.56386492 -56.05838827 173.19767579 -61.625 149.875 C-65.78956881 130.66245587 -62.87673963 109.13454789 -53.625 91.875 C-53.13386719 90.91335938 -52.64273437 89.95171875 -52.13671875 88.9609375 C-47.70794821 80.77986734 -42.14696101 74.40623834 -35.625 67.875 C-34.89410156 67.1325 -34.16320312 66.39 -33.41015625 65.625 C-26.08403019 58.63994126 -17.02442679 53.54009736 -7.625 49.875 C-7.62135437 49.29284225 -7.61770874 48.71068451 -7.61395264 48.11088562 C-7.57219109 42.05992494 -7.50289099 36.00972729 -7.41748047 29.95922852 C-7.3892283 27.70019151 -7.36803501 25.44105486 -7.35400391 23.18188477 C-7.33263348 19.93714224 -7.28601268 16.69360308 -7.234375 13.44921875 C-7.23314636 12.43663498 -7.23191772 11.42405121 -7.23065186 10.38078308 C-7.21093323 9.44003433 -7.1912146 8.49928558 -7.17089844 7.5300293 C-7.15757477 6.28759712 -7.15757477 6.28759712 -7.14398193 5.02006531 C-6.625 2.875 -6.625 2.875 -4.75494385 1.07624817 C-2.625 -0.125 -2.625 -0.125 0 0 Z M-29.625 139.875 C-31.50340783 143.63181567 -30.46559162 147.88218978 -29.625 151.875 C-27.13095697 157.98540541 -23.65111736 161.30832038 -17.625 163.875 C-16.635 163.545 -15.645 163.215 -14.625 162.875 C-15.1303125 162.29492188 -15.635625 161.71484375 -16.15625 161.1171875 C-21.52894511 154.65716123 -21.52894511 154.65716123 -22.0625 150.3125 C-21.918125 149.508125 -21.77375 148.70375 -21.625 147.875 C-19.645 147.215 -17.665 146.555 -15.625 145.875 C-14.6040625 146.8959375 -14.6040625 146.8959375 -13.5625 147.9375 C-13.11132812 148.38609375 -12.66015625 148.8346875 -12.1953125 149.296875 C-11.05484968 150.44301177 -9.92612694 151.60086815 -8.8046875 152.765625 C-7.88042969 153.71695313 -7.88042969 153.71695313 -6.9375 154.6875 C-6.06544922 155.59435547 -6.06544922 155.59435547 -5.17578125 156.51953125 C-3.71730108 158.09436724 -3.71730108 158.09436724 -1.625 157.875 C-1.79513187 153.53663732 -2.14237974 151.41949466 -5.0625 148.125 C-9.1497663 145.14713455 -13.78603323 144.09334583 -18.625 142.875 C-20.66727938 142.31472867 -22.7089592 141.75226676 -24.75 141.1875 C-26.37465187 140.74870898 -27.99952358 140.31072657 -29.625 139.875 Z M68.375 142.875 C67.40820312 143.16503906 66.44140625 143.45507812 65.4453125 143.75390625 C59.38209206 145.71746951 55.67713896 147.29552382 52.375 152.875 C51.95369093 155.62901951 51.95369093 155.62901951 52.375 157.875 C56.96028686 156.0019922 59.30422239 152.61960157 62.375 148.87109375 C64.47781103 146.77238977 65.45036416 146.11675417 68.375 145.875 C69.365 146.205 70.355 146.535 71.375 146.875 C72.25 149.375 72.25 149.375 72.375 152.875 C70.68022041 155.80636144 68.550785 158.29159958 66.375 160.875 C65.715 161.865 65.055 162.855 64.375 163.875 C69.90146856 163.73683829 72.66824451 161.33905713 76.640625 157.859375 C80.10866366 153.89143888 80.62418735 150.21627514 80.5 145.0625 C80.48195313 144.08667969 80.46390625 143.11085938 80.4453125 142.10546875 C80.42210937 141.36941406 80.39890625 140.63335937 80.375 139.875 C76.26668596 139.875 72.25909676 141.6420374 68.375 142.875 Z " fill="#FFBD73" transform="translate(366.625,250.125)"/>
<path d="M0 0 C2 2 2 2 2.24609566 3.99524117 C2.24425207 4.81932409 2.24240849 5.64340702 2.24050903 6.49246216 C2.24325836 7.43759674 2.24600769 8.38273132 2.24884033 9.35650635 C2.24164978 10.39659851 2.23445923 11.43669067 2.22705078 12.50830078 C2.22734283 13.60099274 2.22763489 14.69368469 2.22793579 15.81948853 C2.22653825 19.44484292 2.21095699 23.06999385 2.1953125 26.6953125 C2.19158388 29.20352059 2.1887362 31.71173012 2.18673706 34.21994019 C2.17987119 40.15562286 2.16409528 46.09123984 2.14403808 52.02688873 C2.11951013 59.44629818 2.1087526 66.86571665 2.09765625 74.28515625 C2.07618513 87.52348215 2.0409932 100.76172014 2 114 C13.55 114 25.1 114 37 114 C36.96519531 110.64199219 36.93039063 107.28398437 36.89453125 103.82421875 C36.87114556 100.57756399 36.85292332 97.33091856 36.83520508 94.08422852 C36.82010398 91.82507132 36.79962158 89.56594351 36.77368164 87.30688477 C36.73735692 84.06258907 36.72028692 80.81868044 36.70703125 77.57421875 C36.69154739 76.56163498 36.67606354 75.54905121 36.66011047 74.50578308 C36.65988388 73.56503433 36.65965729 72.62428558 36.65942383 71.6550293 C36.65276199 70.82674118 36.64610016 69.99845306 36.63923645 69.14506531 C37.08678304 66.48399638 37.86718352 65.60779835 40 64 C42.5 63.625 42.5 63.625 45 64 C47.13281648 65.60779835 47.91321696 66.48399638 48.36076355 69.14506531 C48.35410172 69.97335342 48.34743988 70.80164154 48.34057617 71.6550293 C48.34023628 73.06615242 48.34023628 73.06615242 48.33988953 74.50578308 C48.32440567 75.51836685 48.30892181 76.53095062 48.29296875 77.57421875 C48.28872391 78.61318802 48.28447906 79.65215729 48.28010559 80.72261047 C48.26329849 84.04450276 48.22564196 87.36579075 48.1875 90.6875 C48.17245582 92.93814229 48.15876695 95.18879407 48.14648438 97.43945312 C48.1159388 102.96005613 48.05721978 108.47935082 48 114 C59.22 114 70.44 114 82 114 C81.96519531 109.18664062 81.93039063 104.37328125 81.89453125 99.4140625 C81.87920768 96.36977958 81.86476625 93.32554402 81.85351562 90.28125 C81.83556251 85.44618896 81.81429491 80.61129789 81.77368164 75.77636719 C81.74115224 71.87954213 81.72316066 67.98289926 81.71536827 64.08594894 C81.70981315 62.59713242 81.69896564 61.10832618 81.68280983 59.61958694 C81.66111993 57.53865034 81.65802939 55.45847235 81.65942383 53.37744141 C81.64943108 51.59873154 81.64943108 51.59873154 81.63923645 49.78408813 C81.75828842 48.86533905 81.87734039 47.94658997 82 47 C85.23253796 44.84497469 86.25150923 44.53143865 90 45 C91.63496399 46.11958313 91.63496399 46.11958313 93 48 C93.36076355 50.86637878 93.36076355 50.86637878 93.34057617 54.39916992 C93.34123329 55.36543053 93.34123329 55.36543053 93.34190369 56.35121155 C93.33981559 58.47794021 93.31648513 60.60387802 93.29296875 62.73046875 C93.28737283 64.20591298 93.28310271 65.68136278 93.28010559 67.15681458 C93.26865637 71.03839534 93.23918887 74.91963883 93.20599365 78.80108643 C93.16989583 83.45913473 93.15613195 88.11729586 93.13863373 92.77544403 C93.10955116 99.85053053 93.0520655 106.92487713 93 114 C104.22 114 115.44 114 127 114 C126.98952637 111.40527832 126.97905273 108.81055664 126.96826172 106.13720703 C126.93517365 97.57968843 126.91305102 89.02216706 126.89637566 80.46460152 C126.88592295 75.27438101 126.87173671 70.08422586 126.84912109 64.89404297 C126.82744562 59.88849111 126.81544259 54.88300223 126.81024551 49.87740707 C126.80654021 47.96436445 126.79930504 46.0513254 126.78853989 44.13830948 C126.77409527 41.46599024 126.77201909 38.7939338 126.77294922 36.12158203 C126.76575867 35.32460907 126.75856812 34.52763611 126.75115967 33.70651245 C126.77189568 28.22810432 126.77189568 28.22810432 129 26 C134.10285113 25.4571435 134.10285113 25.4571435 136.67012024 27.01057434 C138.7733147 30.15683549 138.39087249 33.4872473 138.34057617 37.14331055 C138.34101425 37.97280212 138.34145233 38.8022937 138.34190369 39.65692139 C138.33981259 42.40042609 138.3164666 45.14332072 138.29296875 47.88671875 C138.28737393 49.78814866 138.2831033 51.6895829 138.28010559 53.59101868 C138.26864782 58.59705533 138.23917258 63.60283111 138.20599365 68.60876465 C138.17531288 73.71635407 138.16160452 78.82398562 138.14648438 83.93164062 C138.11430381 93.95454174 138.06309616 103.97724918 138 114 C138.68102783 113.98952637 139.36205566 113.97905273 140.0637207 113.96826172 C143.14660966 113.92671122 146.22943971 113.90067689 149.3125 113.875 C150.38435547 113.85824219 151.45621094 113.84148437 152.56054688 113.82421875 C153.58857422 113.81777344 154.61660156 113.81132812 155.67578125 113.8046875 C156.62364502 113.79421387 157.57150879 113.78374023 158.5480957 113.77294922 C161 114 161 114 164 116 C164.3125 119.5 164.3125 119.5 164 123 C161.17554175 125.82445825 159.36098556 125.25410532 155.40174866 125.26069641 C154.71611971 125.26452196 154.03049076 125.26834751 153.32408518 125.27228898 C151.01554042 125.28264765 148.70724306 125.27862149 146.39868164 125.2746582 C144.74810047 125.27900311 143.09752132 125.28418551 141.44694519 125.29014587 C136.95524729 125.30357115 132.46363336 125.30411063 127.9719193 125.30158257 C124.22670511 125.30051523 120.48150807 125.30539017 116.73629755 125.310188 C107.90304282 125.32129544 99.06983061 125.32171368 90.23657227 125.31567383 C81.11385213 125.30963211 71.99128615 125.32194723 62.86859232 125.3432439 C55.04520528 125.36083806 47.22186739 125.36686471 39.39846128 125.36360615 C34.72192315 125.36178962 30.04549497 125.36446616 25.36897469 125.37832069 C20.97196112 125.39085894 16.57518848 125.38899313 12.17817879 125.37590981 C10.56204142 125.37353568 8.94588731 125.37630845 7.32976913 125.38453293 C5.12797478 125.3949321 2.92699916 125.38695586 0.72523499 125.3742218 C-1.12505515 125.37447341 -1.12505515 125.37447341 -3.01272488 125.37473011 C-6 125 -6 125 -7.89651775 123.78025341 C-9.34658438 121.44085369 -9.3773804 119.89089388 -9.38095093 117.14172363 C-9.3894104 116.14065079 -9.39786987 115.13957794 -9.40658569 114.10816956 C-9.400513 113.01093063 -9.39444031 111.91369171 -9.38818359 110.78320312 C-9.39344055 109.62690903 -9.39869751 108.47061493 -9.40411377 107.27928162 C-9.41734771 103.44646813 -9.40856332 99.61406792 -9.3984375 95.78125 C-9.40045725 93.12470988 -9.40336298 90.46818245 -9.40713501 87.81164551 C-9.41259414 82.23978169 -9.40539692 76.66803713 -9.39111328 71.09619141 C-9.37478634 64.65284496 -9.38007475 58.20978328 -9.3965925 51.76644373 C-9.41020298 46.23599639 -9.41212921 40.70563482 -9.40427649 35.17517614 C-9.3995975 31.87133152 -9.40015762 28.56765026 -9.40888596 25.2638092 C-9.41647897 21.58127407 -9.40492563 17.89929076 -9.38818359 14.21679688 C-9.39425629 13.11955795 -9.40032898 12.02231903 -9.40658569 10.89183044 C-9.39812622 9.8907576 -9.38966675 8.88968475 -9.38095093 7.85827637 C-9.37981985 6.98739128 -9.37868877 6.1165062 -9.37752342 5.21923065 C-8.45823469 -0.18470887 -4.87617898 -0.51874245 0 0 Z " fill="#FFBD73" transform="translate(112,290)"/>
<path d="M0 0 C4.8279888 -0.12316298 8.73501287 0.51324674 13.296875 2.12890625 C14.296875 3.12890625 14.296875 3.12890625 14.4921875 6.0703125 C14.41628253 10.88048393 13.31103029 15.41183905 12.171875 20.06640625 C11.94669189 20.9908252 11.72150879 21.91524414 11.48950195 22.86767578 C6.25735583 43.64200435 -1.97039822 63.56776459 -19.48828125 76.875 C-25.70139043 80.39247451 -31.41012538 81.66056445 -38.515625 81.56640625 C-39.29953613 81.5610083 -40.08344727 81.55561035 -40.89111328 81.55004883 C-48.19475734 81.35974791 -54.93458573 79.97911916 -60.8671875 75.4921875 C-62.58962107 73.930184 -62.58962107 73.930184 -64.703125 74.12890625 C-65.24582031 75.093125 -65.78851563 76.05734375 -66.34765625 77.05078125 C-67.0701675 78.32690502 -67.79283183 79.60294213 -68.515625 80.87890625 C-68.87205078 81.513125 -69.22847656 82.14734375 -69.59570312 82.80078125 C-71.45561235 86.07695162 -73.34151584 89.17875726 -75.703125 92.12890625 C-78.013125 91.79890625 -80.323125 91.46890625 -82.703125 91.12890625 C-84.45524033 87.35467748 -84.90983534 85.73511739 -83.54296875 81.7265625 C-82.93020958 80.53693244 -82.29504097 79.35863941 -81.640625 78.19140625 C-81.31642578 77.57458984 -80.99222656 76.95777344 -80.65820312 76.32226562 C-78.90345147 73.05157467 -77.00120724 70.03894241 -74.703125 67.12890625 C-72.17015454 63.32945056 -72.86393441 62.49778334 -73.703125 58.12890625 C-74.82469166 43.68298609 -73.12428202 31.67530101 -63.703125 20.12890625 C-47.80030118 2.76416365 -21.97777568 1.04807312 0 0 Z M-55.703125 28.12890625 C-60.2917763 34.40199916 -62.86822162 39.581563 -62.765625 47.37890625 C-62.75660156 48.2709375 -62.74757813 49.16296875 -62.73828125 50.08203125 C-62.72667969 50.7575 -62.71507813 51.43296875 -62.703125 52.12890625 C-58.35101177 48.99823079 -54.22187415 45.75082448 -50.265625 42.12890625 C-39.64955357 32.61104911 -39.64955357 32.61104911 -33.265625 31.56640625 C-30.703125 32.12890625 -30.703125 32.12890625 -28.703125 35.12890625 C-28.73828125 37.55078125 -28.73828125 37.55078125 -29.703125 40.12890625 C-32.07421875 42.26953125 -32.07421875 42.26953125 -35.140625 44.37890625 C-36.23714356 45.15757427 -37.33084829 45.94021808 -38.421875 46.7265625 C-39.24751953 47.32041748 -39.24751953 47.32041748 -40.08984375 47.92626953 C-46.33112223 52.57889329 -51.96022027 57.9631301 -56.703125 64.12890625 C-49.32290018 69.52907075 -41.81704478 71.29800217 -32.703125 70.12890625 C-23.01995606 67.27750971 -16.48777724 60.10976649 -11.57421875 51.5546875 C-7.78743123 44.53566665 -4.84034229 37.2319312 -2.265625 29.69140625 C-2.01852783 28.97082031 -1.77143066 28.25023437 -1.5168457 27.5078125 C0.13347767 22.38680906 0.83743457 17.48904455 1.296875 12.12890625 C-17.89567764 11.16391757 -41.59592107 13.63138443 -55.703125 28.12890625 Z " fill="#FFBD73" transform="translate(169.703125,147.87109375)"/>
<path d="M0 0 C0.81664124 -0.0065712 1.63328247 -0.0131424 2.47467041 -0.01991272 C5.179485 -0.03963518 7.88424404 -0.05130724 10.58911133 -0.0612793 C11.5141427 -0.06535482 12.43917408 -0.06943035 13.39223671 -0.07362938 C18.29029746 -0.09448768 23.18833023 -0.10878928 28.08642578 -0.11816406 C33.13586883 -0.12921561 38.18486964 -0.16360172 43.23415661 -0.20333576 C47.12476905 -0.2295339 51.01527674 -0.23785884 54.90596962 -0.24144554 C56.76662488 -0.24630484 58.62727567 -0.25790005 60.48784447 -0.27648354 C63.09901893 -0.30093869 65.7090576 -0.29989832 68.3203125 -0.29296875 C69.08164993 -0.30577881 69.84298737 -0.31858887 70.62739563 -0.33178711 C76.11938716 -0.27895813 80.4137671 1.07525888 84.98364258 4.17700195 C90.08416666 10.22833463 89.55340283 16.59827235 89.42114258 24.23950195 C89.42823242 25.39772461 89.43532227 26.55594727 89.44262695 27.74926758 C89.36353388 38.34165506 89.36353388 38.34165506 85.98364258 43.17700195 C80.83146713 47.82652614 77.55160405 48.33140787 70.78955078 48.35400391 C69.94218857 48.3605751 69.09482635 48.3671463 68.2217865 48.37391663 C65.40933142 48.39367321 62.59692985 48.40531889 59.78442383 48.4152832 C58.82412954 48.41935873 57.86383526 48.42343426 56.87444115 48.42763329 C51.78950591 48.4485064 46.70459774 48.46280143 41.61962891 48.47216797 C36.37164864 48.48322104 31.12409372 48.51760473 25.87626362 48.55733967 C21.83814212 48.58351339 17.8001217 48.5918606 13.76192284 48.59544945 C11.82787397 48.60031526 9.89382961 48.6119291 7.95986366 48.63048744 C5.2478048 48.65488971 2.53684255 48.65391168 -0.17529297 48.64697266 C-1.36712692 48.66618774 -1.36712692 48.66618774 -2.58303833 48.68579102 C-8.1690951 48.6338776 -11.40499557 47.35927914 -16.01635742 44.17700195 C-19.12394635 40.38474383 -19.40067635 37.34796037 -19.41479492 32.52075195 C-19.41866211 31.25102539 -19.4225293 29.98129883 -19.42651367 28.6730957 C-19.41491211 27.35438477 -19.40331055 26.03567383 -19.39135742 24.67700195 C-19.40295898 23.35829102 -19.41456055 22.03958008 -19.42651367 20.6809082 C-19.42264648 19.41118164 -19.4187793 18.14145508 -19.41479492 16.83325195 C-19.41141113 15.67631836 -19.40802734 14.51938477 -19.40454102 13.32739258 C-18.82155276 8.5960212 -17.01140264 6.07254265 -13.51635742 2.92700195 C-9.13894694 -0.13718539 -5.14453244 0.01793117 0 0 Z M-8.01635742 13.17700195 C-8.46513837 15.46502795 -8.46513837 15.46502795 -8.37963867 18.11450195 C-8.37899414 19.09161133 -8.37834961 20.0687207 -8.37768555 21.07543945 C-8.36157227 22.09895508 -8.34545898 23.1224707 -8.32885742 24.17700195 C-8.33208008 25.20051758 -8.33530273 26.2240332 -8.33862305 27.27856445 C-8.65949668 32.77767329 -8.65949668 32.77767329 -6.01635742 37.17700195 C-3.40741739 37.38063172 -0.90417431 37.46020985 1.70629883 37.45166016 C2.50317108 37.45677109 3.30004333 37.46188202 4.12106323 37.46714783 C6.76283212 37.48108144 9.40434126 37.48008442 12.04614258 37.4777832 C13.87695412 37.48166775 15.70776476 37.48600191 17.53857422 37.49076843 C21.37869181 37.49823852 25.21871748 37.49793344 29.05883789 37.49267578 C33.98890001 37.48687667 38.91858699 37.50381893 43.84858704 37.52702045 C47.6300274 37.54172452 51.41137669 37.54263411 55.19284058 37.53951073 C57.01098372 37.54002551 58.82913176 37.54529242 60.64724731 37.55532265 C63.18541124 37.56760715 65.72283498 37.56094429 68.26098633 37.54931641 C69.3956282 37.56078201 69.3956282 37.56078201 70.55319214 37.57247925 C72.85744476 37.58432127 72.85744476 37.58432127 75.98364258 37.17700195 C78.82960569 32.90805729 78.35157175 29.19729081 78.35864258 24.17700195 C78.39538086 22.80415039 78.39538086 22.80415039 78.43286133 21.40356445 C78.43672852 20.52442383 78.4405957 19.6452832 78.44458008 18.73950195 C78.45279785 17.93641602 78.46101563 17.13333008 78.46948242 16.3059082 C78.15330609 14.07572086 78.15330609 14.07572086 76.43193054 12.56721497 C73.09334707 10.67146485 70.06054438 10.76501064 66.32519531 10.8046875 C65.17574936 10.7992115 65.17574936 10.7992115 64.00308228 10.79362488 C61.4742404 10.7855295 58.94604128 10.7991195 56.41723633 10.8137207 C54.65894064 10.81423938 52.90064436 10.81372139 51.14234924 10.81221008 C47.45955739 10.81229976 43.77698467 10.82272039 40.09423828 10.84082031 C35.3706491 10.863524 30.64737962 10.86404807 25.92375088 10.85730267 C22.29410453 10.85396365 18.66453125 10.86059121 15.03489876 10.8704319 C13.29295293 10.87428411 11.55099897 10.87543203 9.80904961 10.87384605 C7.37677348 10.87347577 4.94490959 10.88608456 2.51269531 10.90234375 C1.79105698 10.89986633 1.06941864 10.89738892 0.32591248 10.89483643 C-3.34418038 10.93405135 -4.8755224 11.08311194 -8.01635742 13.17700195 Z " fill="#FFBD73" transform="translate(362.016357421875,197.822998046875)"/>
<path d="M0 0 C0.8913414 -0.0065712 1.7826828 -0.0131424 2.70103455 -0.01991272 C5.65233441 -0.03963371 8.60358351 -0.05130363 11.55493164 -0.0612793 C12.56218355 -0.06535482 13.56943546 -0.06943035 14.60721016 -0.07362938 C19.93507813 -0.09448171 25.26292037 -0.10878892 30.59082031 -0.11816406 C36.10025078 -0.12924657 41.60927938 -0.16367012 47.11856747 -0.20333576 C51.35043606 -0.22944036 55.58220782 -0.23785025 59.81414986 -0.24144554 C61.8455738 -0.24632487 63.87699304 -0.25797692 65.90833855 -0.27648354 C68.7478139 -0.3007514 71.58623462 -0.29993301 74.42578125 -0.29296875 C75.68754181 -0.31218384 75.68754181 -0.31218384 76.97479248 -0.33178711 C80.62195604 -0.29912057 82.82709497 -0.14659944 85.83082581 2.01106262 C87.27758789 4.17700195 87.27758789 4.17700195 87.27758789 7.30200195 C86.27758789 10.17700195 86.27758789 10.17700195 84.76060486 11.33753967 C81.06632669 12.58650705 77.40638706 12.48030474 73.54931641 12.48339844 C72.66918884 12.49172195 71.78906128 12.50004547 70.88226318 12.50862122 C67.97362849 12.53271171 65.06521801 12.54149146 62.15649414 12.5480957 C60.13394605 12.55706158 58.11139864 12.56618342 56.08885193 12.57545471 C51.8495828 12.59194385 47.61039266 12.5996449 43.37109375 12.60253906 C37.93900401 12.60792784 32.50765614 12.64562887 27.0757761 12.69128323 C22.89875067 12.72102182 18.72190475 12.7282619 14.54478264 12.72926521 C12.54208917 12.73347259 10.53939541 12.74592754 8.53680611 12.76678276 C5.7357326 12.79363538 2.93639034 12.78889054 0.13525391 12.77636719 C-0.69140274 12.79120148 -1.51805939 12.80603577 -2.36976624 12.82131958 C-6.7756813 12.76521778 -8.24626042 12.5726708 -11.77601624 9.63954163 C-12.41832687 8.82690353 -13.06063751 8.01426544 -13.72241211 7.17700195 C-12.90991211 4.23950195 -12.90991211 4.23950195 -11.72241211 1.17700195 C-7.81013734 -0.12708964 -4.07899314 0.01300765 0 0 Z " fill="#FFBD73" transform="translate(227.722412109375,148.822998046875)"/>
<path d="M0 0 C1.38287453 -0.00744736 1.38287453 -0.00744736 2.79368591 -0.01504517 C5.8580702 -0.02970752 8.92240273 -0.03647553 11.98681641 -0.04199219 C14.10812381 -0.04774027 16.22943118 -0.05349804 18.35073853 -0.05926514 C22.80462894 -0.06978672 27.25850124 -0.07562181 31.71240234 -0.07910156 C37.42817618 -0.0845888 43.14371209 -0.10861696 48.85941124 -0.13707352 C53.24307969 -0.15566885 57.62669048 -0.16090384 62.01039505 -0.16243744 C64.11799038 -0.16547151 66.22558451 -0.17352526 68.33314133 -0.18662262 C71.27826949 -0.20361835 74.22281187 -0.20181873 77.16796875 -0.1953125 C78.04393204 -0.20452728 78.91989532 -0.21374207 79.82240295 -0.22323608 C85.78069416 -0.18186244 85.78069416 -0.18186244 87.93747902 1.5278511 C89.21337891 3.16113281 89.21337891 3.16113281 89.58837891 5.66113281 C89.14198251 8.63710878 88.5317495 9.3201677 86.21337891 11.16113281 C83.14246694 11.46798658 80.2729004 11.59137331 77.19970703 11.58105469 C75.81639442 11.593759 75.81639442 11.593759 74.40513611 11.60671997 C71.35149412 11.63015257 68.29835406 11.63111072 65.24462891 11.62988281 C63.12617794 11.63697999 61.00772891 11.64467833 58.88928223 11.6529541 C54.44729265 11.66641288 50.00548085 11.66796111 45.56347656 11.66210938 C39.86322016 11.65620838 34.16381404 11.68681532 28.46372223 11.72722626 C24.08859641 11.75303777 19.71367719 11.75598669 15.33848572 11.75233459 C13.23646404 11.75403162 11.13443339 11.76372971 9.03248596 11.78147888 C6.0967566 11.80354195 3.16277267 11.79403169 0.22705078 11.77636719 C-0.64577042 11.78963043 -1.51859161 11.80289368 -2.41786194 11.81655884 C-4.83947754 11.78259277 -4.83947754 11.78259277 -8.78662109 11.16113281 C-10.89685059 8.79455566 -10.89685059 8.79455566 -11.78662109 6.16113281 C-9.84651014 -0.95260736 -6.62488456 0.00841544 0 0 Z " fill="#FFBD73" transform="translate(225.78662109375,228.8388671875)"/>
<path d="M0 0 C0.91230881 -0.0049649 1.82461761 -0.00992981 2.76457214 -0.01504517 C5.79105373 -0.02968441 8.81748293 -0.03647117 11.84399414 -0.04199219 C13.94145205 -0.04774149 16.03890993 -0.05349925 18.1363678 -0.05926514 C22.53720343 -0.06977967 26.93802076 -0.07561961 31.33886719 -0.07910156 C36.98623221 -0.08459204 42.63335681 -0.10863005 48.28064632 -0.13707352 C52.6137005 -0.15566752 56.94669635 -0.16090373 61.27978706 -0.16243744 C63.36226277 -0.16547103 65.44473728 -0.17352319 67.527174 -0.18662262 C70.43627273 -0.20361804 73.34477845 -0.201819 76.25390625 -0.1953125 C77.11894775 -0.20452728 77.98398926 -0.21374207 78.87524414 -0.22323608 C84.7266152 -0.18209918 84.7266152 -0.18209918 86.94811344 1.4575386 C88.19165039 3.16113281 88.19165039 3.16113281 88.00415039 6.78613281 C87.73602539 7.89988281 87.46790039 9.01363281 87.19165039 10.16113281 C83.82071778 11.84659912 80.00058116 11.3359754 76.29150391 11.35400391 C74.90841034 11.36627014 74.90841034 11.36627014 73.49737549 11.37878418 C70.43844255 11.40364929 67.37955594 11.4201544 64.32055664 11.43457031 C63.27804182 11.43989399 62.235527 11.44521767 61.16142082 11.45070267 C55.64668385 11.47743528 50.13196957 11.49681245 44.6171875 11.51123047 C38.90912964 11.52790583 33.20164607 11.5727076 27.49380589 11.62360191 C23.11442872 11.65717907 18.73518969 11.66879726 14.35569572 11.67445755 C12.25085991 11.68119324 10.14603391 11.69647491 8.04132271 11.72034836 C5.10079522 11.75180717 2.16184149 11.75206612 -0.77880859 11.74462891 C-1.65320084 11.76103424 -2.52759308 11.77743958 -3.42848206 11.79434204 C-5.66729961 11.7710794 -7.63810668 11.71031542 -9.80834961 11.16113281 C-11.91566467 8.79653931 -11.91566467 8.79653931 -12.80834961 6.16113281 C-12.12084961 3.41113281 -12.12084961 3.41113281 -10.80834961 1.16113281 C-7.45904826 -0.51351786 -3.6837581 0.00474926 0 0 Z " fill="#FFBD73" transform="translate(226.808349609375,188.8388671875)"/>
</svg>
