<?xml version="1.0" encoding="UTF-8"?>
<svg version="1.1" xmlns="http://www.w3.org/2000/svg" width="500" height="500">
<path d="M0 0 C165 0 330 0 500 0 C500 165 500 330 500 500 C335 500 170 500 0 500 C0 335 0 170 0 0 Z " fill="#FFBD73" transform="translate(0,0)"/>
<path d="M0 0 C1.25087402 -0.00547852 2.50174805 -0.01095703 3.79052734 -0.01660156 C12.86435463 0.05540309 12.86435463 0.05540309 16.25 2.3125 C11.96 2.6425 7.67 2.9725 3.25 3.3125 C4.24 3.8075 4.24 3.8075 5.25 4.3125 C5.745 5.3025 5.745 5.3025 6.25 6.3125 C6.58 5.9825 6.91 5.6525 7.25 5.3125 C8.95563778 5.15509395 10.66727244 5.06156608 12.37890625 4.99609375 C13.41337891 4.95419922 14.44785156 4.91230469 15.51367188 4.86914062 C17.1465918 4.81016602 17.1465918 4.81016602 18.8125 4.75 C20.4512207 4.68522461 20.4512207 4.68522461 22.12304688 4.61914062 C24.83189564 4.51267932 27.54083992 4.41066484 30.25 4.3125 C30.25 4.9725 30.25 5.6325 30.25 6.3125 C31.18972656 6.36857422 31.18972656 6.36857422 32.1484375 6.42578125 C32.96570313 6.49152344 33.78296875 6.55726562 34.625 6.625 C35.84316406 6.71201172 35.84316406 6.71201172 37.0859375 6.80078125 C39.25 7.3125 39.25 7.3125 41.25 10.3125 C42.405 10.93125 43.56 11.55 44.75 12.1875 C47.53491622 13.68128042 48.15617336 14.13300555 49.6875 17.0625 C49.873125 17.805 50.05875 18.5475 50.25 19.3125 C49.46625 18.9825 48.6825 18.6525 47.875 18.3125 C45.40667503 17.19383489 45.40667503 17.19383489 43.25 17.3125 C43.96285156 17.68761719 44.67570313 18.06273438 45.41015625 18.44921875 C54.19235612 23.14172662 54.19235612 23.14172662 58.1875 26.125 C60.90974492 28.36820495 60.90974492 28.36820495 63.203125 28.75390625 C67.31680168 29.87653176 70.19966883 33.46322644 73.25 36.3125 C73.84167969 36.828125 74.43335938 37.34375 75.04296875 37.875 C87.72130297 49.47988258 94.01979262 67.12234266 98.25 83.3125 C98.78947266 84.89224609 98.78947266 84.89224609 99.33984375 86.50390625 C100.57261119 91.66248246 100.59018239 96.58890334 100.5625 101.875 C100.55903564 102.94186035 100.55557129 104.0087207 100.55200195 105.10791016 C100.44048273 113.2247848 99.54561495 120.4989849 97.25 128.3125 C97.01023437 129.20710937 96.77046875 130.10171875 96.5234375 131.0234375 C94.86187607 136.95758547 92.63032249 142.63355802 90.25 148.3125 C89.59 148.3125 88.93 148.3125 88.25 148.3125 C87.88648438 149.02535156 87.52296875 149.73820313 87.1484375 150.47265625 C81.36724953 161.48656051 76.98719643 166.79132862 65.25 171.3125 C61.10205129 172.55944775 56.92035965 173.52521302 52.6875 174.4375 C51.5521582 174.68902832 50.41681641 174.94055664 49.24707031 175.19970703 C36.38222637 178.00582156 23.90998231 180.68737844 10.67578125 180.3515625 C7.00298827 180.30968345 3.41187472 180.53342819 -0.25 180.8125 C-7.43454287 181.33419917 -14.54906603 181.49381848 -21.75 181.3125 C-22.66007812 181.29574219 -23.57015625 181.27898437 -24.5078125 181.26171875 C-33.53963135 180.78990732 -46.24485327 178.75237321 -52.75 172 C-54.73096005 169.01242833 -55.6964362 166.07981291 -55.3984375 162.42578125 C-53.24106959 155.39484127 -47.0264278 149.80368274 -40.75 146.3125 C-37.79015585 144.8728318 -34.7994607 143.55026296 -31.75 142.3125 C-34.69886591 140.18667677 -34.69886591 140.18667677 -38.1875 139 C-42.0165059 137.18626036 -43.63387909 135.95222797 -45.75 132.3125 C-46.4375 129.5 -46.4375 129.5 -45.75 126.3125 C-43.71974238 123.32650941 -41.51381875 120.64428712 -38.75 118.3125 C-37.76 118.3125 -36.77 118.3125 -35.75 118.3125 C-36.50796875 119.07433594 -36.50796875 119.07433594 -37.28125 119.8515625 C-41.41921921 124.14656002 -41.41921921 124.14656002 -43.4375 129.625 C-42.57460201 132.99814669 -41.68552261 133.53039521 -38.75 135.3125 C-17.5354458 141.25130484 13.98209702 138.92619316 34.25 130.3125 C35.57678335 129.97326562 36.91022654 129.6586214 38.25 129.375 C41.67950946 128.56308962 44.32228166 127.32530636 47.25 125.3125 C46.92 123.6625 46.59 122.0125 46.25 120.3125 C41.2630276 118.92610821 36.26466455 117.59508206 31.25 116.3125 C30.34507812 116.07789063 29.44015625 115.84328125 28.5078125 115.6015625 C11.14432426 111.77382867 -12.9034459 112.66775651 -29.0078125 120.54296875 C-30.75 121.3125 -30.75 121.3125 -33.75 121.3125 C-33.255 119.8275 -33.255 119.8275 -32.75 118.3125 C-30.38696574 117.1446684 -28.15531911 116.20084588 -25.6875 115.3125 C-24.98173828 115.05194824 -24.27597656 114.79139648 -23.54882812 114.52294922 C-16.10955877 111.89355229 -8.5320519 110.49222595 -0.75 109.3125 C-2.07064453 108.84070313 -2.07064453 108.84070313 -3.41796875 108.359375 C-4.57941406 107.93140625 -5.74085938 107.5034375 -6.9375 107.0625 C-8.08605469 106.64484375 -9.23460937 106.2271875 -10.41796875 105.796875 C-13.74381637 104.31525472 -16.12070363 102.82029469 -18.75 100.3125 C-19.375 97.3125 -19.375 97.3125 -18.75 94.3125 C-15.78764468 91.26550596 -12.74417171 89.6819303 -8.75 88.3125 C-10.235 87.3225 -10.235 87.3225 -11.75 86.3125 C-11.9375 83.6875 -11.9375 83.6875 -11.75 81.3125 C-11.523125 81.93125 -11.29625 82.55 -11.0625 83.1875 C-9.28852564 86.05964896 -7.97330268 86.32999597 -4.75 87.3125 C-2.01149974 87.55962594 0.57492341 87.69257955 3.3125 87.6875 C4.08674316 87.68806396 4.86098633 87.68862793 5.65869141 87.68920898 C16.41383976 87.49282182 26.86275593 84.93187932 37.25 82.3125 C37.25 80.9925 37.25 79.6725 37.25 78.3125 C35.826875 78.0959375 35.826875 78.0959375 34.375 77.875 C31.25 77.3125 31.25 77.3125 29.25 76.3125 C17.44307318 75.38003958 5.58243813 75.72033093 -5.75 79.3125 C-1.86109556 74.96853524 3.19021713 73.64282714 8.88232422 73.02832031 C11.65719501 72.91122026 14.41052884 72.90281195 17.1875 72.9375 C18.11240234 72.92589844 19.03730469 72.91429687 19.99023438 72.90234375 C34.90254442 72.96504442 34.90254442 72.96504442 39.25 77.3125 C39.53268575 79.99801458 39.64823312 81.68001211 38.1875 84 C35.40689129 85.88363816 32.4865934 86.5186186 29.25 87.3125 C30.15621094 87.50585938 31.06242188 87.69921875 31.99609375 87.8984375 C34.51955515 88.43784406 37.04164043 88.98371822 39.5625 89.53515625 C41.67898099 89.9813212 43.8021164 90.40157692 45.9375 90.74609375 C50.88626929 91.57948024 54.38152104 93.09481032 58.05078125 96.6015625 C59.25 98.3125 59.25 98.3125 59.5625 101.875 C57.8769698 106.28948385 56.07179856 107.62910952 52.25 110.3125 C51.59 109.9825 50.93 109.6525 50.25 109.3125 C51.24 108.61125 52.23 107.91 53.25 107.1875 C55.94099605 104.98290465 56.20971924 104.66831339 56.625 101 C56.50125 100.113125 56.3775 99.22625 56.25 98.3125 C38.49917687 89.06140964 18.48852822 90.34104285 -0.875 92.1875 C-2.10887451 92.30484497 -2.10887451 92.30484497 -3.36767578 92.42456055 C-7.42892221 92.86970451 -11.08888971 93.36372896 -14.75 95.3125 C-15.63693303 97.35355639 -15.63693303 97.35355639 -15.75 99.3125 C-14.08394848 99.98070248 -12.41714597 100.64703283 -10.75 101.3125 C-9.95722656 101.63089844 -9.16445312 101.94929688 -8.34765625 102.27734375 C10.1449342 109.37234379 28.73634805 109.62149019 48.25 107.3125 C47.92 107.9725 47.59 108.6325 47.25 109.3125 C44.96484375 109.9453125 44.96484375 109.9453125 42.1875 110.4375 C41.26839844 110.60507813 40.34929687 110.77265625 39.40234375 110.9453125 C38.33693359 111.12707031 38.33693359 111.12707031 37.25 111.3125 C39.78297629 113.00115086 42.04120195 114.17425637 44.8125 115.375 C49.14873418 117.26186709 49.14873418 117.26186709 51.25 118.3125 C51.85773481 125.48377072 51.85773481 125.48377072 49.1875 129.125 C43.98637513 132.99817809 38.42432113 134.58103763 32.25 136.3125 C32.8577124 136.38243164 33.4654248 136.45236328 34.09155273 136.52441406 C72.63028727 141.04001977 72.63028727 141.04001977 82.25 149.3125 C82.25 149.9725 82.25 150.6325 82.25 151.3125 C90.31372626 144.56147336 92.77992904 128.36124835 94.25 118.3125 C94.49229812 113.48122227 94.48106937 108.6492764 94.5 103.8125 C94.520625 102.52601563 94.54125 101.23953125 94.5625 99.9140625 C94.65860075 76.03302676 85.40786545 55.72845879 69.25 38.3125 C49.28568111 18.4378309 22.56209865 9.02765846 -5.30175781 9.06591797 C-29.24861775 9.40326277 -49.55667391 18.89776843 -66.37890625 35.86816406 C-78.07604608 48.1901511 -86.03226079 63.82345979 -89.75 80.3125 C-89.92442627 80.96516846 -90.09885254 81.61783691 -90.27856445 82.2902832 C-91.90547448 88.70468858 -92.09654543 94.90269677 -92.0625 101.5 C-92.05831055 102.60480713 -92.05412109 103.70961426 -92.04980469 104.84790039 C-91.93674758 113.03552006 -91.23394176 120.46452883 -88.75 128.3125 C-88.4715625 129.20582031 -88.193125 130.09914062 -87.90625 131.01953125 C-84.00482706 141.96705855 -76.69883236 149.76605164 -68.28564453 157.49121094 C-67.68606934 158.0587207 -67.08649414 158.62623047 -66.46875 159.2109375 C-65.92154297 159.71286621 -65.37433594 160.21479492 -64.81054688 160.73193359 C-63.75 162.3125 -63.75 162.3125 -64.01757812 164.44384766 C-64.75 166.3125 -64.75 166.3125 -65.75 167.3125 C-74.66410184 166.79323193 -80.08940016 161.37084458 -85.87109375 154.9609375 C-101.06153842 135.94838095 -103.62159107 112.55926201 -101.54345703 88.96777344 C-100.60594853 81.23022689 -98.45324762 73.87399727 -95.8125 66.5625 C-95.57192871 65.89420166 -95.33135742 65.22590332 -95.08349609 64.53735352 C-93.57596152 60.65147558 -91.92089709 58.02454157 -88.75 55.3125 C-88.75 56.3025 -88.75 57.2925 -88.75 58.3125 C-88.27691406 57.50167969 -87.80382812 56.69085938 -87.31640625 55.85546875 C-74.81935563 34.92960816 -58.92223282 19.63697483 -36.75 9.3125 C-35.41444448 8.65029635 -34.08018878 7.98541903 -32.75 7.3125 C-42.30763005 11.12819056 -50.77991286 15.27617941 -59.078125 21.39453125 C-61.26832104 22.96673338 -63.30174006 24.21078303 -65.75 25.3125 C-62.74696267 21.09784118 -59.35475841 18.43302927 -55 15.75 C-54.37383789 15.35723877 -53.74767578 14.96447754 -53.10253906 14.55981445 C-48.76904026 11.87019214 -44.42858078 9.35757036 -39.75 7.3125 C-39.03199219 6.97734375 -38.31398437 6.6421875 -37.57421875 6.296875 C-25.28627494 0.90707313 -13.24942027 0.04369972 0 0 Z " fill="#FFBD73" transform="translate(233.75,107.6875)"/>
<path d="M0 0 C-1 2 -1 2 -3.58203125 3 C-5.18111328 3.495 -5.18111328 3.495 -6.8125 4 C-10.37671552 5.11137536 -13.71359296 6.21754195 -17 8 C-17 8.66 -17 9.32 -17 10 C-12.66042381 8.58361055 -8.35473185 7.15747395 -4.125 5.4375 C2.55402173 2.89947174 9.85896417 1.61399806 17 2 C17 1.34 17 0.68 17 0 C22.68846409 -0.05012882 28.37679442 -0.08605748 34.06542969 -0.10986328 C35.9931869 -0.11980679 37.9209295 -0.13336635 39.84863281 -0.15087891 C55.58761389 -0.29008946 70.67035289 0.13219832 85.8125 4.9375 C86.66908203 5.18951172 87.52566406 5.44152344 88.40820312 5.70117188 C95.53808024 7.89110271 95.53808024 7.89110271 98 11 C97.86178561 13.76428773 97.50777481 15.38901497 95.72680664 17.53198242 C89.80461265 22.56664275 80.41636477 24.19507358 73.0625 26.1875 C72.15048828 26.44724609 71.23847656 26.70699219 70.29882812 26.97460938 C64.69646956 28.50684454 59.33592328 29.35994345 53.54663086 29.7824707 C50.0290119 30.08294031 46.70245714 30.75912937 43.25 31.5 C33.02666492 33.67517768 23.22377911 34.24047356 12.8125 34.25 C12.05521606 34.25100708 11.29793213 34.25201416 10.5177002 34.25305176 C1.36783496 34.24481693 -7.679063 34.08523065 -16.75 32.75 C-17.52110107 32.64075195 -18.29220215 32.53150391 -19.08666992 32.41894531 C-23.86386416 31.59133999 -27.20732819 30.00156235 -31 27 C-32.62710761 23.74578479 -32.53610423 20.51658845 -32 17 C-29.2561117 10.29427297 -23.14494868 7.18253312 -17 4 C-16.21882812 3.58363281 -15.43765625 3.16726562 -14.6328125 2.73828125 C-9.51063251 0.21263887 -5.69466914 -0.41415776 0 0 Z " fill="#FFBD73" transform="translate(214,250)"/>
<path d="M0 0 C-3 2 -3 2 -6 2 C-5.505 3.485 -5.505 3.485 -5 5 C-6.16015625 5.4125 -7.3203125 5.825 -8.515625 6.25 C-34.6055286 15.78101866 -52.19027583 32.88660787 -64.08105469 57.90136719 C-66.35211071 63.08787026 -67.75647002 68.4846546 -69 74 C-69.17442627 74.65266846 -69.34885254 75.30533691 -69.52856445 75.9777832 C-71.15547448 82.39218858 -71.34654543 88.59019677 -71.3125 95.1875 C-71.30831055 96.29230713 -71.30412109 97.39711426 -71.29980469 98.53540039 C-71.18674758 106.72302006 -70.48394176 114.15202883 -68 122 C-67.7215625 122.89332031 -67.443125 123.78664063 -67.15625 124.70703125 C-63.25482706 135.65455855 -55.94883236 143.45355164 -47.53564453 151.17871094 C-46.93606934 151.7462207 -46.33649414 152.31373047 -45.71875 152.8984375 C-45.17154297 153.40036621 -44.62433594 153.90229492 -44.06054688 154.41943359 C-43 156 -43 156 -43.26757812 158.13134766 C-44 160 -44 160 -45 161 C-53.91410184 160.48073193 -59.33940016 155.05834458 -65.12109375 148.6484375 C-80.31153842 129.63588095 -82.87159107 106.24676201 -80.79345703 82.65527344 C-79.85594853 74.91772689 -77.70324762 67.56149727 -75.0625 60.25 C-74.70164307 59.24755249 -74.70164307 59.24755249 -74.33349609 58.22485352 C-72.82596152 54.33897558 -71.17089709 51.71204157 -68 49 C-68 49.99 -68 50.98 -68 52 C-67.52691406 51.18917969 -67.05382812 50.37835938 -66.56640625 49.54296875 C-52.22838844 25.53447498 -33.17059635 8.67540601 -6.59375 -0.43359375 C-3.93155063 -1.01494753 -2.53213435 -0.91371829 0 0 Z " fill="#FFBD73" transform="translate(213,114)"/>
<path d="M0 0 C1.25087402 -0.00547852 2.50174805 -0.01095703 3.79052734 -0.01660156 C12.86435463 0.05540309 12.86435463 0.05540309 16.25 2.3125 C11.96 2.6425 7.67 2.9725 3.25 3.3125 C4.24 3.8075 4.24 3.8075 5.25 4.3125 C5.745 5.3025 5.745 5.3025 6.25 6.3125 C6.58 5.9825 6.91 5.6525 7.25 5.3125 C8.95563778 5.15509395 10.66727244 5.06156608 12.37890625 4.99609375 C13.41337891 4.95419922 14.44785156 4.91230469 15.51367188 4.86914062 C17.1465918 4.81016602 17.1465918 4.81016602 18.8125 4.75 C20.4512207 4.68522461 20.4512207 4.68522461 22.12304688 4.61914062 C24.83189564 4.51267932 27.54083992 4.41066484 30.25 4.3125 C30.25 4.9725 30.25 5.6325 30.25 6.3125 C30.87648438 6.34988281 31.50296875 6.38726562 32.1484375 6.42578125 C32.96570313 6.49152344 33.78296875 6.55726562 34.625 6.625 C35.84316406 6.71201172 35.84316406 6.71201172 37.0859375 6.80078125 C39.25 7.3125 39.25 7.3125 41.25 10.3125 C42.405 10.93125 43.56 11.55 44.75 12.1875 C47.53491622 13.68128042 48.15617336 14.13300555 49.6875 17.0625 C49.873125 17.805 50.05875 18.5475 50.25 19.3125 C49.46625 18.9825 48.6825 18.6525 47.875 18.3125 C45.40667503 17.19383489 45.40667503 17.19383489 43.25 17.3125 C43.96285156 17.68761719 44.67570312 18.06273438 45.41015625 18.44921875 C54.19235612 23.14172662 54.19235612 23.14172662 58.1875 26.125 C60.90974492 28.36820495 60.90974492 28.36820495 63.203125 28.75390625 C67.31680168 29.87653176 70.19966883 33.46322644 73.25 36.3125 C73.84167969 36.828125 74.43335938 37.34375 75.04296875 37.875 C87.72130297 49.47988258 94.01979262 67.12234266 98.25 83.3125 C98.78947266 84.89224609 98.78947266 84.89224609 99.33984375 86.50390625 C100.57261119 91.66248246 100.59018239 96.58890334 100.5625 101.875 C100.55903564 102.94186035 100.55557129 104.0087207 100.55200195 105.10791016 C100.44048273 113.2247848 99.54561495 120.4989849 97.25 128.3125 C97.01023437 129.20710937 96.77046875 130.10171875 96.5234375 131.0234375 C94.86187607 136.95758547 92.63032249 142.63355802 90.25 148.3125 C89.59 148.3125 88.93 148.3125 88.25 148.3125 C87.59 148.9725 86.93 149.6325 86.25 150.3125 C85.92 149.6525 85.59 148.9925 85.25 148.3125 C85.92372899 146.30608779 86.69074986 144.33068783 87.5 142.375 C92.67090404 129.39028542 94.4454801 117.74233491 94.5 103.8125 C94.520625 102.52601563 94.54125 101.23953125 94.5625 99.9140625 C94.65860075 76.03302676 85.40786545 55.72845879 69.25 38.3125 C50.06161276 19.21027823 23.93167347 9.1027171 -3 9.125 C-3.81831299 9.12435547 -4.63662598 9.12371094 -5.47973633 9.12304688 C-12.38667734 9.18257198 -18.96935212 9.94906632 -25.75 11.3125 C-26.245 9.8275 -26.245 9.8275 -26.75 8.3125 C-25.1 7.6525 -23.45 6.9925 -21.75 6.3125 C-35.93633343 6.10210946 -47.98913975 13.21851548 -59.078125 21.39453125 C-61.26832104 22.96673338 -63.30174006 24.21078303 -65.75 25.3125 C-62.74696267 21.09784118 -59.35475841 18.43302927 -55 15.75 C-54.37383789 15.35723877 -53.74767578 14.96447754 -53.10253906 14.55981445 C-48.76904026 11.87019214 -44.42858078 9.35757036 -39.75 7.3125 C-39.03199219 6.97734375 -38.31398437 6.6421875 -37.57421875 6.296875 C-25.28627494 0.90707313 -13.24942027 0.04369972 0 0 Z " fill="#FFBD73" transform="translate(233.75,107.6875)"/>
<path d="M0 0 C1.08925781 0.21785156 2.17851562 0.43570313 3.30078125 0.66015625 C9.94782639 2.06316578 15.94018108 3.91528598 22 7 C21.67 7.99 21.34 8.98 21 10 C22.175625 10.2784375 22.175625 10.2784375 23.375 10.5625 C28.47907213 12.5865286 32.60368497 15.75054976 37 19 C36.34 19.33 35.68 19.66 35 20 C34.39671875 19.55527344 33.7934375 19.11054688 33.171875 18.65234375 C31.97304688 17.80349609 31.97304688 17.80349609 30.75 16.9375 C29.56664062 16.08478516 29.56664062 16.08478516 28.359375 15.21484375 C26.10566453 13.7510981 26.10566453 13.7510981 23.8125 14.3984375 C23.214375 14.59695312 22.61625 14.79546875 22 15 C20.25 13.6875 20.25 13.6875 19 12 C19 11.34 19 10.68 19 10 C17.69482422 10.04447266 17.69482422 10.04447266 16.36328125 10.08984375 C13.0352839 10.00094254 10.38260963 9.45644634 7.1875 8.5625 C2.75425141 7.38689257 -1.46029736 6.64862154 -6.01953125 6.25 C-8.82606084 5.89572408 -11.36910711 5.01188188 -14 4 C-14 3.34 -14 2.68 -14 2 C-40.74439389 2.06530988 -63.42846852 11.095247 -82.875 29.5 C-97.88950125 45.47365858 -106.4412257 67.40159476 -106.3125 89.1875 C-106.30686035 90.19417725 -106.3012207 91.20085449 -106.29541016 92.23803711 C-106.0032459 110.31316959 -101.10554157 127.15459315 -89 141 C-86.87723477 142.75274303 -86.87723477 142.75274303 -85 144 C-85.33 145.32 -85.66 146.64 -86 148 C-98.71433634 137.66960173 -106.57783695 126.19987975 -110 110 C-110.18304688 109.14921875 -110.36609375 108.2984375 -110.5546875 107.421875 C-112.50253477 92.45420651 -111.80388051 77.31190699 -107 63 C-106.69964844 62.02417969 -106.39929688 61.04835937 -106.08984375 60.04296875 C-98.34658612 36.61207227 -81.73613024 17.85868969 -60.1875 6.25 C-55.87117479 4.21546373 -51.41260764 2.70379155 -46.875 1.25 C-46.21781982 1.03891602 -45.56063965 0.82783203 -44.88354492 0.61035156 C-30.72674899 -3.69877688 -14.32512036 -3.18116466 0 0 Z " fill="#FFBD73" transform="translate(252,118)"/>
<path d="M0 0 C0.92490234 -0.01160156 1.84980469 -0.02320313 2.80273438 -0.03515625 C17.71504442 0.02754442 17.71504442 0.02754442 22.0625 4.375 C22.34518575 7.06051458 22.46073312 8.74251211 21 11.0625 C18.21939129 12.94613816 15.2990934 13.5811186 12.0625 14.375 C13.42181641 14.66503906 13.42181641 14.66503906 14.80859375 14.9609375 C17.33205515 15.50034406 19.85414043 16.04621822 22.375 16.59765625 C24.49148099 17.0438212 26.6146164 17.46407692 28.75 17.80859375 C33.69876929 18.64198024 37.19402104 20.15731032 40.86328125 23.6640625 C42.0625 25.375 42.0625 25.375 42.375 28.9375 C40.6894698 33.35198385 38.88429856 34.69160952 35.0625 37.375 C34.4025 37.045 33.7425 36.715 33.0625 36.375 C34.0525 35.67375 35.0425 34.9725 36.0625 34.25 C38.75349605 32.04540465 39.02221924 31.73081339 39.4375 28.0625 C39.31375 27.175625 39.19 26.28875 39.0625 25.375 C21.31167687 16.12390964 1.30102822 17.40354285 -18.0625 19.25 C-18.88508301 19.32822998 -19.70766602 19.40645996 -20.55517578 19.48706055 C-24.61642221 19.93220451 -28.27638971 20.42622896 -31.9375 22.375 C-32.82443303 24.41605639 -32.82443303 24.41605639 -32.9375 26.375 C-29.45575579 27.7815742 -25.96002322 29.13634325 -22.4375 30.4375 C-21.5196875 30.77910156 -20.601875 31.12070313 -19.65625 31.47265625 C-17.09005089 32.32436889 -14.59759241 32.90755622 -11.9375 33.375 C-11.9375 34.695 -11.9375 36.015 -11.9375 37.375 C-17.39211169 38.76029821 -22.30468401 39.6146943 -27.9375 39.375 C-27.9375 40.035 -27.9375 40.695 -27.9375 41.375 C-27.2775 41.705 -26.6175 42.035 -25.9375 42.375 C-26.68773437 42.47296875 -27.43796875 42.5709375 -28.2109375 42.671875 C-34.53140218 43.59526782 -40.04778389 44.94678619 -45.87890625 47.5703125 C-47.9375 48.375 -47.9375 48.375 -50.9375 48.375 C-50.6075 47.385 -50.2775 46.395 -49.9375 45.375 C-47.57446574 44.2071684 -45.34281911 43.26334588 -42.875 42.375 C-42.16923828 42.11444824 -41.46347656 41.85389648 -40.73632812 41.58544922 C-33.29705877 38.95605229 -25.7195519 37.55472595 -17.9375 36.375 C-18.81792969 36.06046875 -19.69835937 35.7459375 -20.60546875 35.421875 C-21.76691406 34.99390625 -22.92835938 34.5659375 -24.125 34.125 C-25.27355469 33.70734375 -26.42210937 33.2896875 -27.60546875 32.859375 C-30.93131637 31.37775472 -33.30820363 29.88279469 -35.9375 27.375 C-36.5625 24.375 -36.5625 24.375 -35.9375 21.375 C-32.97514468 18.32800596 -29.93167171 16.7444303 -25.9375 15.375 C-26.9275 14.715 -27.9175 14.055 -28.9375 13.375 C-29.125 10.75 -29.125 10.75 -28.9375 8.375 C-28.5971875 9.303125 -28.5971875 9.303125 -28.25 10.25 C-26.47602564 13.12214896 -25.16080268 13.39249597 -21.9375 14.375 C-19.19899974 14.62212594 -16.61257659 14.75507955 -13.875 14.75 C-13.10075684 14.75056396 -12.32651367 14.75112793 -11.52880859 14.75170898 C-0.77366024 14.55532182 9.67525593 11.99437932 20.0625 9.375 C20.0625 8.055 20.0625 6.735 20.0625 5.375 C19.11375 5.230625 18.165 5.08625 17.1875 4.9375 C14.0625 4.375 14.0625 4.375 12.0625 3.375 C0.25557318 2.44253958 -11.60506187 2.78283093 -22.9375 6.375 C-17.09801378 -0.14779395 -8.18229765 -0.10220774 0 0 Z " fill="#FFBD73" transform="translate(250.9375,180.625)"/>
<path d="M0 0 C-0.99 0.66 -1.98 1.32 -3 2 C-2.278125 1.855625 -1.55625 1.71125 -0.8125 1.5625 C0.115625 1.376875 1.04375 1.19125 2 1 C3.16921997 0.74138184 3.16921997 0.74138184 4.36206055 0.47753906 C8.82523435 -0.33041725 13.2878251 -0.22598049 17.8125 -0.25 C19.25206055 -0.2809375 19.25206055 -0.2809375 20.72070312 -0.3125 C26.87240274 -0.3460929 31.3812161 0.47320961 37 3 C37 4.32 37 5.64 37 7 C26.04511457 11.03601042 15.097713 13.25671318 3.4375 13.375 C2.68799072 13.38877686 1.93848145 13.40255371 1.16625977 13.41674805 C-3.61229764 13.37642947 -6.80363694 12.50588505 -11 10 C-11.5 7.3125 -11.5 7.3125 -11 4 C-7.57531354 0.83875096 -4.58326352 -1.52775451 0 0 Z " fill="#FFBD73" transform="translate(234,183)"/>
<path d="M0 0 C1.25087402 -0.00547852 2.50174805 -0.01095703 3.79052734 -0.01660156 C12.86435463 0.05540309 12.86435463 0.05540309 16.25 2.3125 C11.96 2.6425 7.67 2.9725 3.25 3.3125 C4.24 3.8075 4.24 3.8075 5.25 4.3125 C5.745 5.3025 5.745 5.3025 6.25 6.3125 C6.58 5.9825 6.91 5.6525 7.25 5.3125 C8.95563778 5.15509395 10.66727244 5.06156608 12.37890625 4.99609375 C13.41337891 4.95419922 14.44785156 4.91230469 15.51367188 4.86914062 C17.1465918 4.81016602 17.1465918 4.81016602 18.8125 4.75 C20.4512207 4.68522461 20.4512207 4.68522461 22.12304688 4.61914062 C24.83189564 4.51267932 27.54083992 4.41066484 30.25 4.3125 C30.25 5.3025 30.25 6.2925 30.25 7.3125 C28.93 7.3125 27.61 7.3125 26.25 7.3125 C26.25 7.9725 26.25 8.6325 26.25 9.3125 C26.9925 9.43625 27.735 9.56 28.5 9.6875 C31.05141485 10.26736701 32.9767573 11.04958739 35.25 12.3125 C29.60685098 14.19354967 23.46188987 12.22663288 17.81640625 10.8125 C10.92410676 9.46970801 4.00826379 9.11920146 -3 9.125 C-3.81831299 9.12435547 -4.63662598 9.12371094 -5.47973633 9.12304688 C-12.38667734 9.18257198 -18.96935212 9.94906632 -25.75 11.3125 C-26.245 9.8275 -26.245 9.8275 -26.75 8.3125 C-25.1 7.6525 -23.45 6.9925 -21.75 6.3125 C-35.93633343 6.10210946 -47.98913975 13.21851548 -59.078125 21.39453125 C-61.26832104 22.96673338 -63.30174006 24.21078303 -65.75 25.3125 C-62.74696267 21.09784118 -59.35475841 18.43302927 -55 15.75 C-54.37383789 15.35723877 -53.74767578 14.96447754 -53.10253906 14.55981445 C-48.76904026 11.87019214 -44.42858078 9.35757036 -39.75 7.3125 C-39.03199219 6.97734375 -38.31398437 6.6421875 -37.57421875 6.296875 C-25.28627494 0.90707313 -13.24942027 0.04369972 0 0 Z " fill="#FFBD73" transform="translate(233.75,107.6875)"/>
<path d="M0 0 C-1.09699219 0.51949219 -2.19398438 1.03898438 -3.32421875 1.57421875 C-4.77890943 2.27810134 -6.23332193 2.98255902 -7.6875 3.6875 C-8.40873047 4.02716797 -9.12996094 4.36683594 -9.87304688 4.71679688 C-15.5717097 7.50107506 -19.4337294 10.6505941 -23 16 C-23.62716573 21.5481547 -23.62716573 21.5481547 -21.375 26.375 C-10.56559605 33.77090797 7.11960163 32.37157098 19.8125 32.3125 C20.54958191 32.31200653 21.28666382 32.31151306 22.04608154 32.31100464 C32.26867433 32.29012527 42.21268117 31.78216709 52.2578125 29.75390625 C56.17363649 28.96501895 60.03358214 28.45494548 64 28 C59.75425754 30.53216517 55.0162552 31.03967872 50.22460938 31.85546875 C48.47086403 32.17621274 46.73311117 32.58187909 45 33 C44.505 33.99 44.505 33.99 44 35 C44.86165771 34.81824219 44.86165771 34.81824219 45.74072266 34.6328125 C48.36756242 34.08235645 50.99622018 33.54111184 53.625 33 C54.52863281 32.80921875 55.43226563 32.6184375 56.36328125 32.421875 C65.5287401 30.54864253 65.5287401 30.54864253 70 31 C70.66 31.66 71.32 32.32 72 33 C49.0937414 37.4521857 49.0937414 37.4521857 38.25 37.07421875 C34.63171414 36.99158963 31.1080419 37.22274268 27.5 37.5 C20.31545713 38.02169917 13.20093397 38.18131848 6 38 C5.08992188 37.98324219 4.17984375 37.96648437 3.2421875 37.94921875 C-5.78963135 37.47740732 -18.49485327 35.43987321 -25 28.6875 C-26.98096005 25.69992833 -27.9464362 22.76731291 -27.6484375 19.11328125 C-25.16245268 11.01136686 -17.85834615 5.58176968 -10.69921875 1.77734375 C-4.396976 -1.26547394 -4.396976 -1.26547394 0 0 Z " fill="#FFBD73" transform="translate(206,251)"/>
<path d="M0 0 C0.98117798 0.10610596 0.98117798 0.10610596 1.98217773 0.21435547 C9.02812859 0.92262259 15.98398454 1.1521728 23.0625 1.125 C24.07376953 1.12886719 25.08503906 1.13273438 26.12695312 1.13671875 C32.47723259 1.12854067 38.69580141 0.76440911 45 0 C44.67 0.66 44.34 1.32 44 2 C41.71484375 2.6328125 41.71484375 2.6328125 38.9375 3.125 C38.01839844 3.29257813 37.09929687 3.46015625 36.15234375 3.6328125 C35.08693359 3.81457031 35.08693359 3.81457031 34 4 C36.53297629 5.68865086 38.79120195 6.86175637 41.5625 8.0625 C45.89873418 9.94936709 45.89873418 9.94936709 48 11 C48.60773481 18.17127072 48.60773481 18.17127072 45.9375 21.8125 C39.10887748 26.89764443 31.46722763 28.58552033 23 29 C22.34 28.34 21.68 27.68 21 27 C30.37729553 23.04155148 30.37729553 23.04155148 35.3125 21.9375 C38.75598244 21.06203836 41.09475895 19.99735322 44 18 C43.67 16.35 43.34 14.7 43 13 C40.7306649 12.36911872 38.45973104 11.74529928 36.1875 11.125 C34.92292969 10.77695313 33.65835938 10.42890625 32.35546875 10.0703125 C30.9058343 9.70475105 29.45382691 9.34851475 28 9 C27.20891846 8.81034668 26.41783691 8.62069336 25.6027832 8.42529297 C17.35223977 6.68092331 9.19354636 6.77235518 0.8125 6.875 C-0.63085311 6.88505821 -2.07421306 6.894179 -3.51757812 6.90234375 C-7.01186394 6.92411309 -10.50588637 6.95848325 -14 7 C-14 6.34 -14 5.68 -14 5 C-8.72 4.34 -3.44 3.68 2 3 C2 2.34 2 1.68 2 1 C1.34 0.67 0.68 0.34 0 0 Z " fill="#FFBD73" transform="translate(237,215)"/>
<path d="M0 0 C0.92490234 -0.01160156 1.84980469 -0.02320313 2.80273438 -0.03515625 C17.71504442 0.02754442 17.71504442 0.02754442 22.0625 4.375 C22.34518575 7.06051458 22.46073312 8.74251211 21 11.0625 C18.21939129 12.94613816 15.2990934 13.5811186 12.0625 14.375 C13.42181641 14.66503906 13.42181641 14.66503906 14.80859375 14.9609375 C17.33205515 15.50034406 19.85414043 16.04621822 22.375 16.59765625 C24.49148099 17.0438212 26.6146164 17.46407692 28.75 17.80859375 C33.69876929 18.64198024 37.19402104 20.15731032 40.86328125 23.6640625 C42.0625 25.375 42.0625 25.375 42.375 28.9375 C40.6894698 33.35198385 38.88429856 34.69160952 35.0625 37.375 C34.0725 36.88 34.0725 36.88 33.0625 36.375 C34.5475 35.323125 34.5475 35.323125 36.0625 34.25 C38.75349605 32.04540465 39.02221924 31.73081339 39.4375 28.0625 C39.31375 27.175625 39.19 26.28875 39.0625 25.375 C28.20064736 19.7141932 16.03819555 18.23934821 4.0625 16.375 C4.0625 15.715 4.0625 15.055 4.0625 14.375 C3.0725 14.045 2.0825 13.715 1.0625 13.375 C2.09890625 13.17003906 3.1353125 12.96507812 4.203125 12.75390625 C5.57292689 12.48182231 6.94271799 12.20968404 8.3125 11.9375 C8.99441406 11.80279297 9.67632812 11.66808594 10.37890625 11.52929688 C13.62719458 10.88279289 16.86065978 10.22497305 20.0625 9.375 C20.0625 8.055 20.0625 6.735 20.0625 5.375 C19.11375 5.230625 18.165 5.08625 17.1875 4.9375 C14.0625 4.375 14.0625 4.375 12.0625 3.375 C0.25557318 2.44253958 -11.60506187 2.78283093 -22.9375 6.375 C-17.09801378 -0.14779395 -8.18229765 -0.10220774 0 0 Z " fill="#FFBD73" transform="translate(250.9375,180.625)"/>
<path d="M0 0 C41.44021779 0.67654592 41.44021779 0.67654592 48.86474609 8.10107422 C48.53474609 9.09107422 48.20474609 10.08107422 47.86474609 11.10107422 C42.71740036 11.29269556 38.5096721 10.64059949 33.55224609 9.28857422 C21.86458965 6.28021693 9.8457877 5.30042194 -2.13525391 4.10107422 C-2.46525391 3.11107422 -2.79525391 2.12107422 -3.13525391 1.10107422 C-2.13525391 0.10107422 -2.13525391 0.10107422 0 0 Z " fill="#FFBD73" transform="translate(259.13525390625,244.89892578125)"/>
<path d="M0 0 C11.99173279 -0.57529635 22.00416596 -0.47303957 33 5 C33.66 5.66 34.32 6.32 35 7 C34.67 7.66 34.34 8.32 34 9 C34.78375 9.185625 35.5675 9.37125 36.375 9.5625 C41.47907213 11.5865286 45.60368497 14.75054976 50 18 C49.01 18.495 49.01 18.495 48 19 C47.39671875 18.55527344 46.7934375 18.11054688 46.171875 17.65234375 C45.37265625 17.08644531 44.5734375 16.52054688 43.75 15.9375 C42.96109375 15.36902344 42.1721875 14.80054688 41.359375 14.21484375 C39.10566453 12.7510981 39.10566453 12.7510981 36.8125 13.3984375 C36.214375 13.59695312 35.61625 13.79546875 35 14 C33.25 12.6875 33.25 12.6875 32 11 C32 10.34 32 9.68 32 9 C30.69482422 9.04447266 30.69482422 9.04447266 29.36328125 9.08984375 C26.0352839 9.00094254 23.38260963 8.45644634 20.1875 7.5625 C16.44803531 6.56500011 12.92020531 5.80319757 9.0625 5.5 C5.40424984 5.17408317 2.92567577 4.35941594 0 2 C0 1.34 0 0.68 0 0 Z " fill="#FFBD73" transform="translate(239,119)"/>
<path d="M0 0 C0.33 0 0.66 0 1 0 C1.61734208 25.68776228 1.61734208 25.68776228 -2 38 C-2.23976563 38.89460938 -2.47953125 39.78921875 -2.7265625 40.7109375 C-4.38812393 46.64508547 -6.61967751 52.32105802 -9 58 C-9.66 58 -10.32 58 -11 58 C-11.66 58.66 -12.32 59.32 -13 60 C-13.33 59.34 -13.66 58.68 -14 58 C-13.32627101 55.99358779 -12.55925014 54.01818783 -11.75 52.0625 C-7.80532327 42.15697844 -5.05435401 32.42564415 -4.68359375 21.7265625 C-4.64169922 20.57285156 -4.59980469 19.41914063 -4.55664062 18.23046875 C-4.51732422 17.04066406 -4.47800781 15.85085937 -4.4375 14.625 C-4.39431641 13.41199219 -4.35113281 12.19898438 -4.30664062 10.94921875 C-4.20094487 7.96624968 -4.09884679 4.98320258 -4 2 C-3.67 2 -3.34 2 -3 2 C-3 9.59 -3 17.18 -3 25 C-2.67 23.68 -2.34 22.36 -2 21 C-1.34 21 -0.68 21 0 21 C0 20.01 0 19.02 0 18 C-0.66 18 -1.32 18 -2 18 C-2 17.01 -2 16.02 -2 15 C-1.34 15 -0.68 15 0 15 C0 14.34 0 13.68 0 13 C-0.66 13 -1.32 13 -2 13 C-1.34 8.71 -0.68 4.42 0 0 Z " fill="#FFBD73" transform="translate(333,198)"/>
<path d="M0 0 C-1.07636719 0.40089844 -2.15273437 0.80179687 -3.26171875 1.21484375 C-17.55363962 6.70806969 -29.01287681 14.19753434 -40 25 C-40.73605469 25.72316406 -41.47210938 26.44632813 -42.23046875 27.19140625 C-49.34398229 34.63226731 -54.59561664 43.29237671 -60 52 C-61.11732535 48.22197185 -60.76937552 46.57161869 -59 43 C-44.72197075 20.24556816 -44.72197075 20.24556816 -36.62109375 17.06640625 C-33.688765 15.87337235 -31.66790493 14.33588705 -29.1875 12.375 C-22.16532114 7.134711 -8.8196524 -2.7371335 0 0 Z " fill="#FFBD73" transform="translate(205,115)"/>
<path d="M0 0 C2.12438339 -0.08078641 4.2496323 -0.13909141 6.375 -0.1875 C7.55835938 -0.22230469 8.74171875 -0.25710937 9.9609375 -0.29296875 C11.46527344 -0.14794922 11.46527344 -0.14794922 13 0 C13.66 0.99 14.32 1.98 15 3 C16.155 3.61875 17.31 4.2375 18.5 4.875 C21.28491622 6.36878042 21.90617336 6.82050555 23.4375 9.75 C23.623125 10.4925 23.80875 11.235 24 12 C23.21625 11.67 22.4325 11.34 21.625 11 C19.15667503 9.88133489 19.15667503 9.88133489 17 10 C17.71285156 10.37511719 18.42570312 10.75023438 19.16015625 11.13671875 C27.94235612 15.82922662 27.94235612 15.82922662 31.9375 18.8125 C34.67985417 21.0554489 34.67985417 21.0554489 37.06640625 21.51171875 C39 22 39 22 41 24 C40.01 24.99 39.02 25.98 38 27 C37.4121875 26.39865234 37.4121875 26.39865234 36.8125 25.78515625 C27.37117656 16.81182945 14.89586586 11.01541802 3 6 C3.99 5.67 4.98 5.34 6 5 C4.34822227 3.34822227 2.15144042 2.82747709 0 2 C0 1.34 0 0.68 0 0 Z " fill="#FFBD73" transform="translate(260,115)"/>
<path d="M0 0 C-4.24574246 2.53216517 -8.9837448 3.03967872 -13.77539062 3.85546875 C-15.52913597 4.17621274 -17.26688883 4.58187909 -19 5 C-19.33 5.66 -19.66 6.32 -20 7 C-19.42556152 6.87882812 -18.85112305 6.75765625 -18.25927734 6.6328125 C-15.63243758 6.08235645 -13.00377982 5.54111184 -10.375 5 C-9.01955078 4.71382813 -9.01955078 4.71382813 -7.63671875 4.421875 C1.5287401 2.54864253 1.5287401 2.54864253 6 3 C6.99 3.99 6.99 3.99 8 5 C-9.11125666 8.76908758 -25.51304363 9.50333318 -43 9 C-43 8.67 -43 8.34 -43 8 C-37.06 7.505 -37.06 7.505 -31 7 C-43.87 6.505 -43.87 6.505 -57 6 C-57 5.67 -57 5.34 -57 5 C-56.19071045 4.98541748 -55.3814209 4.97083496 -54.54760742 4.95581055 C-36.51564945 4.59386686 -17.50761484 -0.47317878 0 0 Z " fill="#FFBD73" transform="translate(270,279)"/>
<path d="M0 0 C0 0.33 0 0.66 0 1 C-0.90878906 1.15855469 -1.81757813 1.31710938 -2.75390625 1.48046875 C-29.0969766 6.37082335 -51.27577218 17.82480692 -67 40 C-67 33.60544351 -60.12766341 27.97264634 -55.9375 23.5 C-50.27950749 17.98634403 -43.79562816 13.95402962 -37 10 C-35.51306641 9.12988281 -35.51306641 9.12988281 -33.99609375 8.2421875 C-23.66513116 2.64800639 -11.80705533 -0.84336109 0 0 Z " fill="#FFBD73" transform="translate(227,119)"/>
<path d="M0 0 C0.33 0 0.66 0 1 0 C0.98428955 0.79994385 0.9685791 1.5998877 0.95239258 2.42407227 C0.57302787 24.66572865 0.2172213 46.73892042 15 65 C14.67 65.66 14.34 66.32 14 67 C0.7681276 50.26912183 -3.2144631 32.18303909 -2 11 C-1.50318454 7.28673276 -0.8494788 3.64820805 0 0 Z " fill="#FFBD73" transform="translate(145,190)"/>
<path d="M0 0 C-2.75564632 1.507938 -5.10169555 2.32853028 -8.203125 2.7890625 C-23.97058333 5.37476839 -36.34124999 10.55964777 -48.86328125 20.53125 C-51 22 -51 22 -54 22 C-40.63028304 9.07459388 -19.2536123 -3.56548376 0 0 Z " fill="#FFBD73" transform="translate(222,110)"/>
<path d="M0 0 C0.66 0.33 1.32 0.66 2 1 C1.24203125 1.76183594 1.24203125 1.76183594 0.46875 2.5390625 C-3.66921921 6.83406002 -3.66921921 6.83406002 -5.6875 12.3125 C-5.23353802 15.03616053 -5.23353802 15.03616053 -3.41015625 16.59375 C-0.21862699 18.45590646 2.59342961 18.74735727 6.25 19.1875 C8.14492187 19.42533203 8.14492187 19.42533203 10.078125 19.66796875 C11.52445313 19.83232422 11.52445313 19.83232422 13 20 C13 20.33 13 20.66 13 21 C11.02 21.33 9.04 21.66 7 22 C14.425 22.99 14.425 22.99 22 24 C15.65315672 27.17342164 9.74911195 25.11860425 3.1328125 23.14453125 C-1.76282834 21.36495854 -5.47789568 19.81492643 -8 15 C-8.6875 12.1875 -8.6875 12.1875 -8 9 C-5.62032911 5.71436304 -2.86270624 2.86270624 0 0 Z " fill="#FFBD73" transform="translate(196,225)"/>
<path d="M0 0 C-1.07636719 0.40089844 -2.15273437 0.80179687 -3.26171875 1.21484375 C-20.35964291 7.78658182 -33.24318937 17.90748383 -46 31 C-46.66 30.67 -47.32 30.34 -48 30 C-39.0031312 19.31392319 -15.55298169 -4.82678742 0 0 Z " fill="#FFBD73" transform="translate(205,115)"/>
<path d="M0 0 C1.98 0.33 3.96 0.66 6 1 C3.14206684 3.85793316 0.85334416 3.40799941 -3.125 3.625 C-4.40632813 3.69976562 -5.68765625 3.77453125 -7.0078125 3.8515625 C-8.48894531 3.92503906 -8.48894531 3.92503906 -10 4 C-10 4.66 -10 5.32 -10 6 C-9.34 6.33 -8.68 6.66 -8 7 C-8.75023437 7.09796875 -9.50046875 7.1959375 -10.2734375 7.296875 C-16.59390218 8.22026782 -22.11028389 9.57178619 -27.94140625 12.1953125 C-30 13 -30 13 -33 13 C-32.67 12.01 -32.34 11.02 -32 10 C-29.63696574 8.8321684 -27.40531911 7.88834588 -24.9375 7 C-24.23173828 6.73944824 -23.52597656 6.47889648 -22.79882812 6.21044922 C-15.35955877 3.58105229 -7.7820519 2.17972595 0 1 C0 0.67 0 0.34 0 0 Z " fill="#FFBD73" transform="translate(233,216)"/>
<path d="M0 0 C5.11310018 -0.08970351 9.96109772 -0.0283474 15 1 C15.33 1.66 15.66 2.32 16 3 C17.92776594 3.23266141 19.85646647 3.46006171 21.7890625 3.6484375 C25.17380086 4.18664678 27.91920204 5.52378431 31 7 C31 7.33 31 7.66 31 8 C6.08285619 6.45032494 6.08285619 6.45032494 0 2 C0 1.34 0 0.68 0 0 Z " fill="#FFBD73" transform="translate(239,119)"/>
<path d="M0 0 C6.69161069 0.41822567 12.07211299 3.03605649 18 6 C17.34 7.98 16.68 9.96 16 12 C15.65582031 11.38511719 15.31164062 10.77023438 14.95703125 10.13671875 C12.29735297 7.23283847 9.39360626 6.66609299 5.6875 5.8125 C5.03587891 5.64814453 4.38425781 5.48378906 3.71289062 5.31445312 C-0.16578848 4.35546039 -4.05195284 3.60597933 -8 3 C-8 2.67 -8 2.34 -8 2 C-6.865625 1.855625 -5.73125 1.71125 -4.5625 1.5625 C-1.19222799 1.38828522 -1.19222799 1.38828522 0 0 Z " fill="#FFBD73" transform="translate(267,220)"/>
<path d="M0 0 C0.66 0.33 1.32 0.66 2 1 C3.10705664 4.87117257 3.16465149 8.67987217 3.1875 12.6875 C3.20167969 13.82574219 3.21585937 14.96398437 3.23046875 16.13671875 C3 19 3 19 1 21 C1.66 21 2.32 21 3 21 C3 21.66 3 22.32 3 23 C2.34 23 1.68 23 1 23 C1 23.99 1 24.98 1 26 C1.66 26 2.32 26 3 26 C3 26.99 3 27.98 3 29 C2.34 29 1.68 29 1 29 C1.33 30.32 1.66 31.64 2 33 C1.34 33 0.68 33 0 33 C-0.16725986 28.46122739 -0.32785453 23.92228756 -0.48217773 19.38305664 C-0.5356662 17.8377441 -0.59100068 16.29249433 -0.64819336 14.74731445 C-0.72991433 12.53089949 -0.8050717 10.31434616 -0.87890625 8.09765625 C-0.90594131 7.4028566 -0.93297638 6.70805695 -0.96083069 5.99220276 C-1.01301108 4.32890224 -1.01185107 2.66407661 -1 1 C-0.67 0.67 -0.34 0.34 0 0 Z " fill="#FFBD73" transform="translate(330,190)"/>
<path d="M0 0 C0.33 0 0.66 0 1 0 C1.02923559 3.85415052 1.04687777 7.70827215 1.0625 11.5625 C1.07087891 12.64853516 1.07925781 13.73457031 1.08789062 14.85351562 C1.10459218 20.34832611 0.98582259 25.58961935 0 31 C-2.63502039 28.70213773 -3.89701039 26.83077266 -4.33007812 23.33740234 C-4.39355367 20.11294707 -4.3479692 16.91106364 -4.25 13.6875 C-4.22292969 12.00430664 -4.22292969 12.00430664 -4.1953125 10.28710938 C-4.14827856 7.52386553 -4.08256317 4.76237302 -4 2 C-3.67 2 -3.34 2 -3 2 C-3 9.59 -3 17.18 -3 25 C-2.67 23.68 -2.34 22.36 -2 21 C-1.34 21 -0.68 21 0 21 C0 20.01 0 19.02 0 18 C-0.66 18 -1.32 18 -2 18 C-2 17.01 -2 16.02 -2 15 C-1.34 15 -0.68 15 0 15 C0 14.34 0 13.68 0 13 C-0.66 13 -1.32 13 -2 13 C-1.34 8.71 -0.68 4.42 0 0 Z " fill="#FFBD73" transform="translate(333,198)"/>
<path d="M0 0 C1.70884005 1.62339805 3.37446717 3.29319053 5 5 C5 5.66 5 6.32 5 7 C6.32 7 7.64 7 9 7 C14.05908096 16.8380744 14.05908096 16.8380744 13.8125 21.6875 C13.544375 22.450625 13.27625 23.21375 13 24 C12.34 24 11.68 24 11 24 C10.54109375 22.91460937 10.0821875 21.82921875 9.609375 20.7109375 C8.98989761 19.26549027 8.37008825 17.82018528 7.75 16.375 C7.44964844 15.66214844 7.14929688 14.94929687 6.83984375 14.21484375 C5.3722444 10.81126227 3.8730665 7.65865356 1.765625 4.6015625 C0 2 0 2 0 0 Z " fill="#FFBD73" transform="translate(311,161)"/>
<path d="M0 0 C1.24007812 -0.00257812 2.48015625 -0.00515625 3.7578125 -0.0078125 C5.05460938 -0.00007813 6.35140625 0.00765625 7.6875 0.015625 C9.63269531 0.00402344 9.63269531 0.00402344 11.6171875 -0.0078125 C12.85726562 -0.00523438 14.09734375 -0.00265625 15.375 0 C16.51324219 0.00225586 17.65148437 0.00451172 18.82421875 0.00683594 C21.6875 0.265625 21.6875 0.265625 24.6875 2.265625 C-1.39343525 3.97785522 -1.39343525 3.97785522 -9.3125 2.265625 C-5.76378499 -0.10018501 -4.20658047 0.00833694 0 0 Z " fill="#FFBD73" transform="translate(225.3125,107.734375)"/>
<path d="M0 0 C0 0.66 0 1.32 0 2 C-1.32 2 -2.64 2 -4 2 C-4 2.66 -4 3.32 -4 4 C-3.2575 4.12375 -2.515 4.2475 -1.75 4.375 C0.80141485 4.95486701 2.7267573 5.73708739 5 7 C-1.2957164 9.09857213 -8.69004138 6.50445773 -15 5 C-14.01 4.34 -13.02 3.68 -12 3 C-11.34 2.34 -10.68 1.68 -10 1 C-10 0.67 -10 0.34 -10 0 C-6.33694766 -0.74926071 -3.57644848 -1.2380014 0 0 Z " fill="#FFBD73" transform="translate(264,113)"/>
<path d="M0 0 C2 0.8125 2 0.8125 3.296875 2.18359375 C5.41845802 4.21272246 7.64387342 5.34075861 10.25 6.6875 C13.65590316 8.49168384 16.85140808 10.31545181 19.9375 12.625 C22.67985417 14.8679489 22.67985417 14.8679489 25.06640625 15.32421875 C27 15.8125 27 15.8125 29 17.8125 C28.01 18.8025 27.02 19.7925 26 20.8125 C25.608125 20.41160156 25.21625 20.01070312 24.8125 19.59765625 C20.26305496 15.2737225 15.38529141 12.10962296 9.9375 9.0625 C8.92913086 8.49801147 8.92913086 8.49801147 7.90039062 7.92211914 C3.69220424 5.6180034 -0.56262663 3.63592001 -5 1.8125 C-2 -0.1875 -2 -0.1875 0 0 Z " fill="#FFBD73" transform="translate(272,121.1875)"/>
<path d="M0 0 C-0.33 0.99 -0.66 1.98 -1 3 C-4.41550296 3.67272347 -7.83257452 4.33711799 -11.25 5 C-12.70212891 5.28617187 -12.70212891 5.28617187 -14.18359375 5.578125 C-15.11816406 5.75859375 -16.05273438 5.9390625 -17.015625 6.125 C-17.87446289 6.29257812 -18.73330078 6.46015625 -19.61816406 6.6328125 C-22 7 -22 7 -26 7 C-25.67 6.01 -25.34 5.02 -25 4 C-23.96359375 3.79503906 -22.9271875 3.59007812 -21.859375 3.37890625 C-20.48957311 3.10682231 -19.11978201 2.83468404 -17.75 2.5625 C-17.06808594 2.42779297 -16.38617188 2.29308594 -15.68359375 2.15429688 C-13.01307307 1.62278548 -10.35445927 1.09225652 -7.71875 0.40625 C-5.14724349 -0.20156063 -2.62876411 -0.05974464 0 0 Z " fill="#FFBD73" transform="translate(276,279)"/>
<path d="M0 0 C1.0725 0.33 2.145 0.66 3.25 1 C6.80288108 1.94743495 9.47952468 2.57017824 13 1.25 C13.66 1.1675 14.32 1.085 15 1 C17.25 2.9375 17.25 2.9375 19 5 C18.195625 4.814375 17.39125 4.62875 16.5625 4.4375 C15.716875 4.293125 14.87125 4.14875 14 4 C13.67 4.33 13.34 4.66 13 5 C13.9075 5.5775 14.815 6.155 15.75 6.75 C18.52022946 8.66785116 20.71945499 10.54402845 23 13 C22.01 13.495 22.01 13.495 21 14 C18.68941998 12.67239047 16.5139162 11.30378194 14.3125 9.8125 C9.62842158 6.68810397 4.91775788 3.7461164 0 1 C0 0.67 0 0.34 0 0 Z " fill="#FFBD73" transform="translate(274,123)"/>
<path d="M0 0 C8.58 0 17.16 0 26 0 C25.67 0.66 25.34 1.32 25 2 C16.52567194 3.57316773 7.58066149 3.11423958 -1 3 C-0.67 2.01 -0.34 1.02 0 0 Z " fill="#FFBD73" transform="translate(214,285)"/>
<path d="M0 0 C0.33 0.66 0.66 1.32 1 2 C-0.16233723 4.51689561 -1.38147178 6.93407828 -2.6875 9.375 C-6.16993231 16.0729186 -8.90625043 22.72697518 -11 30 C-11.33 30 -11.66 30 -12 30 C-11.51658236 26.54701689 -11.02154998 23.11421488 -10.375 19.6875 C-9.7462423 17.03540805 -9.7462423 17.03540805 -11 15 C-9.75 11.9375 -9.75 11.9375 -8 9 C-7.01 8.67 -6.02 8.34 -5 8 C-3.55129381 6.14195683 -3.55129381 6.14195683 -2.3125 3.9375 C-1.87550781 3.20402344 -1.43851563 2.47054687 -0.98828125 1.71484375 C-0.66214844 1.14894531 -0.33601562 0.58304688 0 0 Z " fill="#FFBD73" transform="translate(158,159)"/>
<path d="M0 0 C0.66 0.66 1.32 1.32 2 2 C0.09645193 4.50828536 -1.00579726 5.00135005 -4.13671875 5.73046875 C-5.30847656 5.88128906 -6.48023438 6.03210938 -7.6875 6.1875 C-8.86699219 6.34605469 -10.04648438 6.50460938 -11.26171875 6.66796875 C-12.16535156 6.77753906 -13.06898438 6.88710937 -14 7 C-14.33 6.01 -14.66 5.02 -15 4 C-14.195625 3.71125 -13.39125 3.4225 -12.5625 3.125 C-9.8673532 2.26737432 -9.8673532 2.26737432 -9 0 C-5.69064953 -0.98386095 -3.24877139 -1.2322926 0 0 Z " fill="#FFBD73" transform="translate(222,112)"/>
<path d="M0 0 C1.51303711 0.02030273 1.51303711 0.02030273 3.05664062 0.04101562 C5.51750621 0.07600424 7.97720335 0.12508842 10.4375 0.1875 C6.47984948 2.37819618 2.94221654 2.50712615 -1.5 2.625 C-9.17124298 2.93529189 -16.14311299 4.1358782 -23.5625 6.1875 C-17.50738389 -0.559427 -8.42711885 -0.21751002 0 0 Z " fill="#FFBD73" transform="translate(251.5625,180.8125)"/>
<path d="M0 0 C4.52293008 0.55901383 7.84950502 2.47006142 11.625 4.875 C12.19734375 5.22691406 12.7696875 5.57882813 13.359375 5.94140625 C16.20753142 7.72315992 18.76400575 9.47855967 21 12 C20.01 12.495 20.01 12.495 19 13 C19.33 13.66 19.66 14.32 20 15 C17.60823672 13.97495859 16.05137102 13.05435238 14.25 11.1484375 C10.78835085 7.84304335 6.65968327 5.87336715 2.484375 3.5859375 C1.66453125 3.06257812 0.8446875 2.53921875 0 2 C0 1.34 0 0.68 0 0 Z " fill="#FFBD73" transform="translate(273,126)"/>
<path d="M0 0 C1.65322266 0.01740234 1.65322266 0.01740234 3.33984375 0.03515625 C4.44457031 0.04417969 5.54929687 0.05320313 6.6875 0.0625 C7.54214844 0.07410156 8.39679688 0.08570313 9.27734375 0.09765625 C8.94734375 1.41765625 8.61734375 2.73765625 8.27734375 4.09765625 C0.86717352 4.21224651 -6.36471892 4.00925911 -13.72265625 3.09765625 C-13.72265625 2.76765625 -13.72265625 2.43765625 -13.72265625 2.09765625 C-13.01238281 2.03707031 -12.30210937 1.97648438 -11.5703125 1.9140625 C-10.19166016 1.78837891 -10.19166016 1.78837891 -8.78515625 1.66015625 C-7.86863281 1.57894531 -6.95210937 1.49773437 -6.0078125 1.4140625 C-3.13472306 1.01625012 -3.04506464 0.1092204 0 0 Z " fill="#FFBD73" transform="translate(257.72265625,217.90234375)"/>
<path d="M0 0 C0.66 0.66 1.32 1.32 2 2 C-1.68427919 2.70555768 -5.37275512 3.38615838 -9.0625 4.0625 C-10.10083984 4.26166016 -11.13917969 4.46082031 -12.20898438 4.66601562 C-17.81266349 5.6800147 -22.42141899 6.25814806 -28 5 C-28 4.67 -28 4.34 -28 4 C-24.45995797 3.3245086 -20.91773831 2.66119202 -17.375 2 C-16.37597656 1.80921875 -15.37695312 1.6184375 -14.34765625 1.421875 C-4.28601722 -0.44385939 -4.28601722 -0.44385939 0 0 Z " fill="#FFBD73" transform="translate(276,282)"/>
<path d="M0 0 C0 0.66 0 1.32 0 2 C0.99 2.33 1.98 2.66 3 3 C-0.89581756 3.02911003 -4.791607 3.04683587 -8.6875 3.0625 C-9.79029297 3.07087891 -10.89308594 3.07925781 -12.02929688 3.08789062 C-13.6293457 3.09272461 -13.6293457 3.09272461 -15.26171875 3.09765625 C-16.24100342 3.10289307 -17.22028809 3.10812988 -18.22924805 3.11352539 C-20.92469572 3.00308543 -23.37545639 2.60534166 -26 2 C-26 1.67 -26 1.34 -26 1 C-23.16681141 0.83049299 -20.33349012 0.66432466 -17.5 0.5 C-16.70851562 0.45230469 -15.91703125 0.40460938 -15.1015625 0.35546875 C-10.057819 0.06607363 -5.05202732 -0.04634887 0 0 Z " fill="#FFBD73" transform="translate(255,195)"/>
<path d="M0 0 C1 3 1 3 0.0625 5.6875 C-0.88498129 8.64141224 -1.09252547 10.25108618 -1 13.25 C-1 14.4875 -1 15.725 -1 17 C-1.66 17.66 -2.32 18.32 -3 19 C-3.40047444 21.32275177 -3.7397104 23.65739357 -4 26 C-7.52685405 19.91311289 -5.23004533 13.54550785 -3.5625 7.0625 C-2.27692308 2.27692308 -2.27692308 2.27692308 0 0 Z " fill="#FFBD73" transform="translate(148,175)"/>
<path d="M0 0 C-1.09699219 0.51949219 -2.19398438 1.03898438 -3.32421875 1.57421875 C-4.77890943 2.27810134 -6.23332193 2.98255902 -7.6875 3.6875 C-8.40873047 4.02716797 -9.12996094 4.36683594 -9.87304688 4.71679688 C-15.5717097 7.50107506 -19.4337294 10.6505941 -23 16 C-23.39387788 18.32387947 -23.73486085 20.65793749 -24 23 C-24.33 23 -24.66 23 -25 23 C-25.8081088 19.98306048 -26.29075282 18.05290463 -26 15 C-21.40392478 7.209092 -9.44520415 -2.73270693 0 0 Z " fill="#FFBD73" transform="translate(206,251)"/>
<path d="M0 0 C2.8559572 1.61565579 5.06355468 3.3366429 7 6 C7.3125 9.5625 7.3125 9.5625 6 13 C4.13149376 15.0318729 2.28412384 16.39625347 0 18 C-0.66 17.67 -1.32 17.34 -2 17 C-1.01 16.29875 -0.02 15.5975 1 14.875 C3.69099605 12.67040465 3.95971924 12.35581339 4.375 8.6875 C4.25125 7.800625 4.1275 6.91375 4 6 C3.39671875 5.73445312 2.7934375 5.46890625 2.171875 5.1953125 C0.97304688 4.66550781 0.97304688 4.66550781 -0.25 4.125 C-1.03890625 3.77695313 -1.8278125 3.42890625 -2.640625 3.0703125 C-4.78868608 2.09586095 -6.89829202 1.07013571 -9 0 C-5.72766691 -1.63616654 -3.49970684 -0.86058365 0 0 Z " fill="#FFBD73" transform="translate(286,200)"/>
<path d="M0 0 C3.96 0 7.92 0 12 0 C12.33 0.99 12.66 1.98 13 3 C16.96 3.33 20.92 3.66 25 4 C25 4.33 25 4.66 25 5 C16.72984476 5.2144997 9.03764031 5.07422976 1 3 C0.67 2.01 0.34 1.02 0 0 Z " fill="#FFBD73" transform="translate(201,284)"/>
<path d="M0 0 C0.33 0.33 0.66 0.66 1 1 C4.05544811 1.92902139 7.07690452 2.27024121 10.25 2.5625 C11.14203125 2.64628906 12.0340625 2.73007813 12.953125 2.81640625 C13.62859375 2.87699219 14.3040625 2.93757812 15 3 C15 3.33 15 3.66 15 4 C7.41 4 -0.18 4 -8 4 C-8 2.68 -8 1.36 -8 0 C-4.95694001 -0.97812643 -3.0322553 -1.04560527 0 0 Z " fill="#FFBD73" transform="translate(261,242)"/>
<path d="M0 0 C-1 2 -1 2 -3.58203125 3.03515625 C-4.64808594 3.37417969 -5.71414062 3.71320313 -6.8125 4.0625 C-7.87082031 4.40410156 -8.92914063 4.74570313 -10.01953125 5.09765625 C-12.33882066 5.79982644 -14.64209137 6.44620548 -17 7 C-17 6.01 -17 5.02 -17 4 C-11.06561592 0.92291196 -6.70126536 -0.48736475 0 0 Z " fill="#FFBD73" transform="translate(214,250)"/>
<path d="M0 0 C0.66 0 1.32 0 2 0 C4.31 4.95 6.62 9.9 9 15 C8.01 15.33 7.02 15.66 6 16 C4.98696238 14.27843904 3.99005152 12.54738194 3 10.8125 C2.443125 9.84957031 1.88625 8.88664063 1.3125 7.89453125 C-0.02216758 4.95111257 -0.27915461 3.18119943 0 0 Z " fill="#FFBD73" transform="translate(147,238)"/>
<path d="M0 0 C0.66 1.32 1.32 2.64 2 4 C-0.70879335 5.35439668 -3.00933268 5.06501451 -6 5 C-6 5.66 -6 6.32 -6 7 C-10.455 6.01 -10.455 6.01 -15 5 C-11.60872979 3.3043649 -9.43814825 2.57480006 -5.8125 1.9375 C-2.60867047 1.57815332 -2.60867047 1.57815332 0 0 Z " fill="#FFBD73" transform="translate(282,215)"/>
<path d="M0 0 C3 1 3 1 4.6875 3.875 C6 7 6 7 6 10 C5.01 10 4.02 10 3 10 C2.67 10.99 2.34 11.98 2 13 C1.47044766 11.21089097 0.9516063 9.41860852 0.4375 7.625 C0.14746094 6.62726563 -0.14257812 5.62953125 -0.44140625 4.6015625 C-1 2 -1 2 0 0 Z " fill="#FFBD73" transform="translate(326,168)"/>
<path d="M0 0 C-1 2 -1 2 -2.65234375 2.66796875 C-11.43266824 4.66417927 -20.11032214 3.71659713 -29 3 C-29 2.67 -29 2.34 -29 2 C-28.44538086 1.97494385 -27.89076172 1.9498877 -27.31933594 1.92407227 C-24.79601157 1.80772073 -22.27302464 1.68517246 -19.75 1.5625 C-18.87730469 1.52318359 -18.00460937 1.48386719 -17.10546875 1.44335938 C-16.26113281 1.40146484 -15.41679687 1.35957031 -14.546875 1.31640625 C-13.77182617 1.27974854 -12.99677734 1.24309082 -12.19824219 1.20532227 C-7.98772386 0.81204751 -4.31497307 -0.09806757 0 0 Z " fill="#FFBD73" transform="translate(282,215)"/>
<path d="M0 0 C0 3.38928559 -0.58766616 4.20729197 -2.4375 6.9375 C-4.27532628 9.65496963 -5.27314226 11.8135076 -6 15 C-6.9601817 16.68991979 -7.95355934 18.36209288 -9 20 C-9.93105036 17.48616402 -10.08695751 16.26718032 -9.24609375 13.68359375 C-7.8992042 10.78292567 -6.30011409 8.34754951 -4.4375 5.75 C-3.81746094 4.87859375 -3.19742188 4.0071875 -2.55859375 3.109375 C-1 1 -1 1 0 0 Z " fill="#FFBD73" transform="translate(154,147)"/>
<path d="M0 0 C-2.50649633 1.30337809 -5.00897839 2.4175083 -7.625 3.5 C-10.99551276 4.75619338 -10.99551276 4.75619338 -13 7 C-13 6.34 -13 5.68 -13 5 C-13.66 4.67 -14.32 4.34 -15 4 C-11.19210202 -1.71184698 -6.27761171 -1.25552234 0 0 Z " fill="#FFBD73" transform="translate(212,222)"/>
<path d="M0 0 C0.66 0.33 1.32 0.66 2 1 C0.38113585 2.67262717 -1.2452729 4.33795537 -2.875 6 C-3.77992188 6.928125 -4.68484375 7.85625 -5.6171875 8.8125 C-8 11 -8 11 -10 11 C-9.42151242 7.74777105 -8.49110446 6.10208864 -6.125 3.8125 C-5.61195313 3.30332031 -5.09890625 2.79414063 -4.5703125 2.26953125 C-3 1 -3 1 0 0 Z " fill="#FFBD73" transform="translate(175,137)"/>
<path d="M0 0 C5.41061608 -0.51993908 8.00184561 0.89020132 12.375 4 C13.43460937 4.7425 14.49421875 5.485 15.5859375 6.25 C16.38257813 6.8275 17.17921875 7.405 18 8 C17.01 8.495 17.01 8.495 16 9 C15.39671875 8.55527344 14.7934375 8.11054688 14.171875 7.65234375 C13.37265625 7.08644531 12.5734375 6.52054688 11.75 5.9375 C10.96109375 5.36902344 10.1721875 4.80054688 9.359375 4.21484375 C7.09459779 2.76274263 7.09459779 2.76274263 4.703125 3.31640625 C4.14109375 3.54199219 3.5790625 3.76757812 3 4 C2.01 2.68 1.02 1.36 0 0 Z " fill="#FFBD73" transform="translate(271,129)"/>
<path d="M0 0 C0 0.66 0 1.32 0 2 C-1.65 2.33 -3.3 2.66 -5 3 C-5 3.33 -5 3.66 -5 4 C-7.97 4.66 -10.94 5.32 -14 6 C-13.67 5.01 -13.34 4.02 -13 3 C-15.97 2.505 -15.97 2.505 -19 2 C-19 1.67 -19 1.34 -19 1 C-16.20837429 0.83262201 -13.41670379 0.66606598 -10.625 0.5 C-9.8309375 0.45230469 -9.036875 0.40460938 -8.21875 0.35546875 C-2.2265625 0 -2.2265625 0 0 0 Z " fill="#FFBD73" transform="translate(252,109)"/>
<path d="M0 0 C3.96 0.33 7.92 0.66 12 1 C12 1.33 12 1.66 12 2 C9.69 2.33 7.38 2.66 5 3 C5 3.66 5 4.32 5 5 C7.31 5 9.62 5 12 5 C12 5.33 12 5.66 12 6 C6.78020872 6.1799928 2.92737019 5.97094808 -2 4 C-1.34 2.68 -0.68 1.36 0 0 Z " fill="#FFBD73" transform="translate(197,282)"/>
<path d="M0 0 C0.66 0.33 1.32 0.66 2 1 C3.10850248 5.66534956 3.34383934 10.37122006 2 15 C1.67 15 1.34 15 1 15 C1 13.35 1 11.7 1 10 C0.34 10 -0.32 10 -1 10 C-1.02689216 8.52093108 -1.04634621 7.04172517 -1.0625 5.5625 C-1.07410156 4.73878906 -1.08570313 3.91507813 -1.09765625 3.06640625 C-1 1 -1 1 0 0 Z " fill="#FFBD73" transform="translate(330,190)"/>
<path d="M0 0 C2.84044802 2.84044802 2.73632722 5.04490831 3 9 C2.0625 12.4375 2.0625 12.4375 1 15 C0.67 15 0.34 15 0 15 C-0.38991022 13.06544546 -0.76145349 11.12718172 -1.125 9.1875 C-1.33382813 8.10855469 -1.54265625 7.02960938 -1.7578125 5.91796875 C-2 3 -2 3 0 0 Z " fill="#FFBD73" transform="translate(328,181)"/>
<path d="M0 0 C0.66 0.33 1.32 0.66 2 1 C1.67 1.66 1.34 2.32 1 3 C1.66 3.33 2.32 3.66 3 4 C-1.455 5.485 -1.455 5.485 -6 7 C-6 5.68 -6 4.36 -6 3 C-4.03533587 1.93224776 -2.03144641 0.93446535 0 0 Z " fill="#FFBD73" transform="translate(203,254)"/>
<path d="M0 0 C2.22889496 -0.05428973 4.45817471 -0.09292338 6.6875 -0.125 C8.54955078 -0.15980469 8.54955078 -0.15980469 10.44921875 -0.1953125 C13.81237857 -0.01032021 15.9985587 0.54232105 19 2 C19 2.33 19 2.66 19 3 C12.50321562 3.29530838 6.3778552 2.17293889 0 1 C0 0.67 0 0.34 0 0 Z " fill="#FFBD73" transform="translate(260,197)"/>
<path d="M0 0 C2.3828125 0.2421875 2.3828125 0.2421875 5.125 0.875 C6.03507813 1.07867187 6.94515625 1.28234375 7.8828125 1.4921875 C8.58148438 1.65976563 9.28015625 1.82734375 10 2 C10 2.99 10 3.98 10 5 C8.56163249 4.88541307 7.12429034 4.75790884 5.6875 4.625 C4.88699219 4.55539063 4.08648437 4.48578125 3.26171875 4.4140625 C1 4 1 4 -2 2 C-1.34 1.34 -0.68 0.68 0 0 Z " fill="#FFBD73" transform="translate(229,212)"/>
<path d="M0 0 C5.62917348 0.40208382 8.00386479 2.28930302 12 6 C11.34 6.66 10.68 7.32 10 8 C8.33055479 6.85821872 6.6645052 5.71147095 5 4.5625 C4.071875 3.92441406 3.14375 3.28632813 2.1875 2.62890625 C1.465625 2.09136719 0.74375 1.55382812 0 1 C0 0.67 0 0.34 0 0 Z " fill="#FFBD73" transform="translate(285,129)"/>
<path d="M0 0 C5.15171623 -0.09038099 9.91913204 0.15318867 15 1 C15 1.33 15 1.66 15 2 C13.06544546 2.38991022 11.12718172 2.76145349 9.1875 3.125 C8.10855469 3.33382812 7.02960938 3.54265625 5.91796875 3.7578125 C3 4 3 4 0 2 C0 1.34 0 0.68 0 0 Z " fill="#FFBD73" transform="translate(239,119)"/>
<path d="M0 0 C0.66 0.33 1.32 0.66 2 1 C1.55269531 1.43570313 1.10539063 1.87140625 0.64453125 2.3203125 C-3.14521536 6.05349573 -6.66459583 9.856013 -10 14 C-10 10.2814858 -9.14087832 9.68195394 -6.6875 7 C-5.76517578 5.9790625 -5.76517578 5.9790625 -4.82421875 4.9375 C-3.24455272 3.25973908 -1.64189074 1.61663089 0 0 Z " fill="#FFBD73" transform="translate(166,133)"/>
<path d="M0 0 C-0.99766109 2.49415272 -1.68616685 3.78740335 -3.9375 5.3125 C-6 6 -6 6 -9 5 C-4.5 0 -4.5 0 0 0 Z " fill="#FFBD73" transform="translate(194,125)"/>
<path d="M0 0 C1.62463842 -0.05395478 3.24978541 -0.09277195 4.875 -0.125 C5.77992188 -0.14820313 6.68484375 -0.17140625 7.6171875 -0.1953125 C10 0 10 0 12 2 C3.42857143 3.42857143 3.42857143 3.42857143 0 1 C0 0.67 0 0.34 0 0 Z " fill="#FFBD73" transform="translate(187,282)"/>
<path d="M0 0 C1.51953125 1.33203125 1.51953125 1.33203125 3 3 C2.6875 5.6875 2.6875 5.6875 2 8 C1.34 8 0.68 8 0 8 C-0.66 8.66 -1.32 9.32 -2 10 C-3 8 -3 8 -2.44140625 6.0546875 C-2.15136719 5.33539063 -1.86132812 4.61609375 -1.5625 3.875 C-1.27503906 3.15054688 -0.98757813 2.42609375 -0.69140625 1.6796875 C-0.46324219 1.12539062 -0.23507812 0.57109375 0 0 Z " fill="#FFBD73" transform="translate(322,248)"/>
<path d="M0 0 C0 0.66 0 1.32 0 2 C-0.99 2.66 -1.98 3.32 -3 4 C-4.02304948 5.65261839 -5.02616054 7.31791365 -6 9 C-6.33 9 -6.66 9 -7 9 C-7.36363636 3.54545455 -7.36363636 3.54545455 -5.75 1.125 C-4 0 -4 0 0 0 Z " fill="#FFBD73" transform="translate(222,199)"/>
<path d="M0 0 C0.99 0.33 1.98 0.66 3 1 C0.50494038 3.49505962 -0.67328888 3.35948376 -4.125 3.625 C-5.03507813 3.69976562 -5.94515625 3.77453125 -6.8828125 3.8515625 C-7.93082031 3.92503906 -7.93082031 3.92503906 -9 4 C-7.6640625 2.5078125 -7.6640625 2.5078125 -6 1 C-3.375 0.875 -3.375 0.875 -1 1 C-0.67 0.67 -0.34 0.34 0 0 Z " fill="#FFBD73" transform="translate(218,221)"/>
<path d="M0 0 C-0.33 0.99 -0.66 1.98 -1 3 C-4.375 3.625 -4.375 3.625 -8 4 C-8.66 3.34 -9.32 2.68 -10 2 C-6.49223216 0.39644899 -3.85645121 -0.22036864 0 0 Z " fill="#FFBD73" transform="translate(268,240)"/>
<path d="M0 0 C1.15957207 3.47871621 0.77456651 4.34219645 -0.4375 7.6875 C-0.72496094 8.49574219 -1.01242188 9.30398437 -1.30859375 10.13671875 C-1.65083984 11.05904297 -1.65083984 11.05904297 -2 12 C-2.33 12 -2.66 12 -3 12 C-2.88601335 10.37419034 -2.75844341 8.74932843 -2.625 7.125 C-2.55539063 6.22007812 -2.48578125 5.31515625 -2.4140625 4.3828125 C-2 2 -2 2 0 0 Z " fill="#FFBD73" transform="translate(148,175)"/>
<path d="M0 0 C2.56269497 1.04109483 4.02610343 2.02610343 6 4 C5.01 4.495 5.01 4.495 4 5 C4.33 5.66 4.66 6.32 5 7 C1.63279613 5.60667426 0.0140476 4.0210714 -2 1 C-1.34 0.67 -0.68 0.34 0 0 Z " fill="#FFBD73" transform="translate(288,134)"/>
<path d="M0 0 C0.6875 1.6875 0.6875 1.6875 1 4 C-0.375 6.75 -0.375 6.75 -2 9 C-2.33 9 -2.66 9 -3 9 C-2.25 2.25 -2.25 2.25 0 0 Z " fill="#FFBD73" transform="translate(326,243)"/>
<path d="M0 0 C1.32 0.33 2.64 0.66 4 1 C4 2.98 4 4.96 4 7 C3.01 7.495 3.01 7.495 2 8 C0.74335022 5.09399739 0 3.20395416 0 0 Z " fill="#FFBD73" transform="translate(324,176)"/>
<path d="M0 0 C1.65 0 3.3 0 5 0 C4.67 0.99 4.34 1.98 4 3 C2.02 3.33 0.04 3.66 -2 4 C-1.34 2.68 -0.68 1.36 0 0 Z " fill="#FFBD73" transform="translate(206,253)"/>
<path d="M0 0 C0.66 0.33 1.32 0.66 2 1 C2.25 8.625 2.25 8.625 0 12 C-1.28571429 3.42857143 -1.28571429 3.42857143 0 0 Z " fill="#FFBD73" transform="translate(332,184)"/>
<path d="M0 0 C0.33 0.66 0.66 1.32 1 2 C-1.31 2.33 -3.62 2.66 -6 3 C-6 2.34 -6 1.68 -6 1 C-6.66 0.67 -7.32 0.34 -8 0 C-4.97878489 -0.97110486 -2.99536737 -1.13617383 0 0 Z " fill="#FFBD73" transform="translate(217,118)"/>
<path d="M0 0 C1.08667969 0.29197266 1.08667969 0.29197266 2.1953125 0.58984375 C2.74960938 0.74582031 3.30390625 0.90179688 3.875 1.0625 C3.875 1.3925 3.875 1.7225 3.875 2.0625 C1.235 2.3925 -1.405 2.7225 -4.125 3.0625 C-4.785 2.0725 -5.445 1.0825 -6.125 0.0625 C-3.57797384 -1.21101308 -2.6967055 -0.73941925 0 0 Z " fill="#DE943F" transform="translate(189.125,279.9375)"/>
<path d="M0 0 C2.25245881 2.68841859 3.88213958 4.64641875 5 8 C4.01 8 3.02 8 2 8 C0.93224776 6.03533587 -0.06553465 4.03144641 -1 2 C-0.67 1.34 -0.34 0.68 0 0 Z " fill="#FFBD73" transform="translate(314,160)"/>
<path d="M0 0 C0.66 0.33 1.32 0.66 2 1 C2 1.99 2 2.98 2 4 C-0.35438733 5.42944945 -1.48032433 6.08661261 -4.25 5.625 C-4.8275 5.41875 -5.405 5.2125 -6 5 C-4.02 3.35 -2.04 1.7 0 0 Z " fill="#FFBD73" transform="translate(179,132)"/>
<path d="M0 0 C0.66 0.33 1.32 0.66 2 1 C1.67 1.99 1.34 2.98 1 4 C-1.0625 4.6875 -1.0625 4.6875 -3 5 C-3 4.34 -3 3.68 -3 3 C-3.66 2.67 -4.32 2.34 -5 2 C-2.625 0.9375 -2.625 0.9375 0 0 Z " fill="#FFBD73" transform="translate(197,122)"/>
<path d="M0 0 C-1 1 -1 1 -3.5625 1.0625 C-4.7690625 1.0315625 -4.7690625 1.0315625 -6 1 C-6 1.66 -6 2.32 -6 3 C-7.98 3 -9.96 3 -12 3 C-8.57420105 -0.03051446 -4.40909835 -2.20454917 0 0 Z " fill="#FFBD73" transform="translate(275,242)"/>
<path d="M0 0 C2 3 2 3 1.625 6.1875 C1.41875 7.115625 1.2125 8.04375 1 9 C-0.9451 6.08235 -1.45276317 4.37462715 -2 1 C-1.34 0.67 -0.68 0.34 0 0 Z " fill="#FFBD73" transform="translate(146,233)"/>
<path d="M0 0 C1.125 1.75 1.125 1.75 2 4 C1.125 6.25 1.125 6.25 0 8 C-0.66 7.01 -1.32 6.02 -2 5 C-1.125 2.3125 -1.125 2.3125 0 0 Z " fill="#FFBD73" transform="translate(328,181)"/>
<path d="M0 0 C1 2 1 2 0.25 4.5625 C-1 7 -1 7 -4 8 C-2.87548273 5.0280615 -1.77706209 2.66559313 0 0 Z " fill="#FFBD73" transform="translate(144,163)"/>
<path d="M0 0 C0.66 0.99 1.32 1.98 2 3 C0.68 4.32 -0.64 5.64 -2 7 C-2.66 6.34 -3.32 5.68 -4 5 C-2.68 3.35 -1.36 1.7 0 0 Z " fill="#FFBD73" transform="translate(164,146)"/>
<path d="M0 0 C-0.33 0.66 -0.66 1.32 -1 2 C-0.34 2.33 0.32 2.66 1 3 C-2.3 2.67 -5.6 2.34 -9 2 C-9 1.67 -9 1.34 -9 1 C-2.25 -1.125 -2.25 -1.125 0 0 Z " fill="#FFBD73" transform="translate(274,126)"/>
<path d="M0 0 C1.98 0 3.96 0 6 0 C6.33 0.99 6.66 1.98 7 3 C4.69 2.67 2.38 2.34 0 2 C0 1.34 0 0.68 0 0 Z " fill="#FFBD73" transform="translate(260,115)"/>
<path d="M0 0 C0 0.33 0 0.66 0 1 C-4.1196377 2.29243536 -7.66831683 3.26252625 -12 3 C-8.2391768 -0.7608232 -5.0273023 -0.25136512 0 0 Z " fill="#FFBD73" transform="translate(259,114)"/>
</svg>
