<?xml version="1.0" encoding="UTF-8"?>
<svg version="1.1" xmlns="http://www.w3.org/2000/svg" width="512" height="512">
<path d="M0 0 C11.22 0 22.44 0 34 0 C34.103125 2.784375 34.20625 5.56875 34.3125 8.4375 C34.71602666 16.47782272 35.07944686 23.46459356 40.375 29.875 C44.55821949 33.26141578 48.50611862 35.33030233 53.65625 36.875 C54.75195312 37.2153125 55.84765625 37.555625 56.9765625 37.90625 C58.13929688 38.2671875 59.30203125 38.628125 60.5 39 C72.46719404 42.82536656 83.28437254 47.76139873 94.16015625 54.01953125 C99.36687851 56.79423887 104.8314997 56.95412167 110.42578125 55.26953125 C118.11182583 51.87394218 123.40324066 46.07556955 129 40 C132.76603869 41.56282982 135.13639151 43.9063475 137.984375 46.7890625 C138.67506073 47.48399307 138.67506073 47.48399307 139.37969971 48.19296265 C140.84125078 49.66565898 142.29567168 51.14517403 143.75 52.625 C144.74302611 53.62806322 145.73651089 54.63067257 146.73046875 55.6328125 C149.15897941 58.08330835 151.58114675 60.5399667 154 63 C152.36698001 66.49549136 150.55065304 68.51688412 147.6875 71.125 C142.26750325 76.45757745 138.07076207 82.38173586 137.1875 90.125 C137.59128126 96.88239811 141.80284139 103.04650855 144.9140625 108.91357422 C150.3613097 119.3794408 154.24078977 130.22893502 157.51586914 141.55126953 C159.39154148 147.84052181 161.38612135 152.95178901 167.4375 156.25 C173.2763323 159.11819832 178.91862801 159.25429912 185.3125 159.5625 C188.179375 159.706875 191.04625 159.85125 194 160 C194 171.22 194 182.44 194 194 C191.215625 194.103125 188.43125 194.20625 185.5625 194.3125 C177.52217728 194.71602666 170.53540644 195.07944686 164.125 200.375 C160.73858422 204.55821949 158.66969767 208.50611862 157.125 213.65625 C156.7846875 214.75195312 156.444375 215.84765625 156.09375 216.9765625 C155.7328125 218.13929688 155.371875 219.30203125 155 220.5 C151.17463344 232.46719404 146.23860127 243.28437254 139.98046875 254.16015625 C137.20576113 259.36687851 137.04587833 264.8314997 138.73046875 270.42578125 C142.12605782 278.11182583 147.92443045 283.40324066 154 289 C152.43717018 292.76603869 150.0936525 295.13639151 147.2109375 297.984375 C146.51600693 298.67506073 146.51600693 298.67506073 145.80703735 299.37969971 C144.33434102 300.84125078 142.85482597 302.29567168 141.375 303.75 C140.37193678 304.74302611 139.36932743 305.73651089 138.3671875 306.73046875 C135.91669165 309.15897941 133.4600333 311.58114675 131 314 C127.50450864 312.36698001 125.48311588 310.55065304 122.875 307.6875 C117.54242255 302.26750325 111.61826414 298.07076207 103.875 297.1875 C97.11760189 297.59128126 90.95349145 301.80284139 85.08642578 304.9140625 C74.6205592 310.3613097 63.77106498 314.24078977 52.44873047 317.51586914 C46.15947819 319.39154148 41.04821099 321.38612135 37.75 327.4375 C34.88180168 333.2763323 34.74570088 338.91862801 34.4375 345.3125 C34.293125 348.179375 34.14875 351.04625 34 354 C22.78 354 11.56 354 0 354 C-0.103125 351.215625 -0.20625 348.43125 -0.3125 345.5625 C-0.71602666 337.52217728 -1.07944686 330.53540644 -6.375 324.125 C-10.55821949 320.73858422 -14.50611862 318.66969767 -19.65625 317.125 C-20.75195312 316.7846875 -21.84765625 316.444375 -22.9765625 316.09375 C-24.13929688 315.7328125 -25.30203125 315.371875 -26.5 315 C-38.46719404 311.17463344 -49.28437254 306.23860127 -60.16015625 299.98046875 C-65.36687851 297.20576113 -70.8314997 297.04587833 -76.42578125 298.73046875 C-84.11182583 302.12605782 -89.40324066 307.92443045 -95 314 C-98.76603869 312.43717018 -101.13639151 310.0936525 -103.984375 307.2109375 C-104.67506073 306.51600693 -104.67506073 306.51600693 -105.37969971 305.80703735 C-106.84125078 304.33434102 -108.29567168 302.85482597 -109.75 301.375 C-110.74302611 300.37193678 -111.73651089 299.36932743 -112.73046875 298.3671875 C-115.15897941 295.91669165 -117.58114675 293.4600333 -120 291 C-118.36698001 287.50450864 -116.55065304 285.48311588 -113.6875 282.875 C-108.26750325 277.54242255 -104.07076207 271.61826414 -103.1875 263.875 C-103.59128126 257.11760189 -107.80284139 250.95349145 -110.9140625 245.08642578 C-116.3613097 234.6205592 -120.24078977 223.77106498 -123.51586914 212.44873047 C-125.39154148 206.15947819 -127.38612135 201.04821099 -133.4375 197.75 C-139.2763323 194.88180168 -144.91862801 194.74570088 -151.3125 194.4375 C-154.179375 194.293125 -157.04625 194.14875 -160 194 C-160 182.78 -160 171.56 -160 160 C-157.215625 159.896875 -154.43125 159.79375 -151.5625 159.6875 C-143.58384026 159.28706807 -136.6792495 158.8616385 -130.1875 153.8125 C-125.04455389 147.20014071 -122.85625385 139.70268593 -120.4375 131.8125 C-116.82876182 120.45074412 -111.88082936 110.23070723 -105.99633789 99.88745117 C-103.22912753 94.64527933 -103.03533506 89.20351297 -104.73046875 83.57421875 C-108.12605782 75.88817417 -113.92443045 70.59675934 -120 65 C-118.43717018 61.23396131 -116.0936525 58.86360849 -113.2109375 56.015625 C-112.74765045 55.55516785 -112.2843634 55.09471069 -111.80703735 54.62030029 C-110.33434102 53.15874922 -108.85482597 51.70432832 -107.375 50.25 C-106.37193678 49.25697389 -105.36932743 48.26348911 -104.3671875 47.26953125 C-101.91669165 44.84102059 -99.4600333 42.41885325 -97 40 C-93.50450864 41.63301999 -91.48311588 43.44934696 -88.875 46.3125 C-83.54242255 51.73249675 -77.61826414 55.92923793 -69.875 56.8125 C-63.11736476 56.40870457 -56.95739067 52.19760719 -51.09082031 49.0859375 C-40.86289764 43.77372358 -30.18268497 39.86691551 -19.1809082 36.48413086 C-13.08687329 34.56266151 -6.84977608 32.5945068 -3.6875 26.5625 C-0.91330949 20.70587559 -0.74484206 15.06355511 -0.4375 8.6875 C-0.293125 5.820625 -0.14875 2.95375 0 0 Z M63.4375 60.9375 C62.81907227 61.43024414 62.20064453 61.92298828 61.56347656 62.43066406 C58.61778845 64.7905533 55.74980374 67.19614621 52.98828125 69.76953125 C46.30709782 75.82167316 46.30709782 75.82167316 42.30859375 76.3671875 C39.75440601 76.13118208 37.47643006 75.65659848 35 75 C9.51922651 69.58101197 -17.1765467 76.76150811 -39 90 C-61.96895226 105.20521202 -77.25776696 127.3021124 -84 154 C-84.22558594 154.89203125 -84.45117188 155.7840625 -84.68359375 156.703125 C-90.12392871 182.966811 -84.08212997 210.46859205 -70 233 C-54.54944359 255.79040858 -32.80220005 271.38647012 -6 278 C-5.11054688 278.22429687 -4.22109375 278.44859375 -3.3046875 278.6796875 C22.9509656 284.14026492 50.47611732 278.07742667 73 264 C95.79558507 248.54593424 111.37755759 226.80346427 118 200 C118.22429687 199.12214844 118.44859375 198.24429688 118.6796875 197.33984375 C124.51693984 169.55292337 116.92540328 142.97616506 103 119 C102.43925781 118.34644531 101.87851562 117.69289062 101.30078125 117.01953125 C99.36698915 114.0172174 99.4758616 111.27861055 99.3125 107.75 C99.24675781 106.48671875 99.18101562 105.2234375 99.11328125 103.921875 C99.05720703 102.47554687 99.05720703 102.47554687 99 101 C100.18078125 101.04640625 101.3615625 101.0928125 102.578125 101.140625 C104.13539134 101.17814949 105.69268508 101.21454893 107.25 101.25 C108.41595703 101.30027344 108.41595703 101.30027344 109.60546875 101.3515625 C113.3675497 101.41587158 115.39522112 101.39473591 118.609375 99.296875 C120.21198046 97.09273254 120.21198046 97.09273254 120.015625 94.51171875 C118.75830102 91.40225984 117.29155787 89.99741991 114.75 87.8125 C113.83992187 87.03003906 112.92984375 86.24757813 111.9921875 85.44140625 C108.46660436 82.56478816 104.88590519 79.77069207 101.2565918 77.02612305 C95.91010148 72.97669643 90.72430802 68.7397052 85.55615234 64.46582031 C75.08428082 55.49823788 75.08428082 55.49823788 63.4375 60.9375 Z " fill="#FFBD73" transform="translate(239,79)"/>
<path d="M0 0 C1.81103516 2.82226563 1.81103516 2.82226563 3.2890625 6.40625 C3.5596347 7.04558472 3.83020691 7.68491943 4.10897827 8.34362793 C4.96836893 10.38782256 5.79679494 12.44300118 6.625 14.5 C7.18811829 15.85239111 7.75320501 17.20396436 8.3203125 18.5546875 C9.91009743 22.35801546 11.45687148 26.17750958 13 30 C13.41926758 31.01658691 13.83853516 32.03317383 14.27050781 33.08056641 C14.63241211 33.96405762 14.99431641 34.84754883 15.3671875 35.7578125 C15.6751123 36.50691895 15.98303711 37.25602539 16.30029297 38.02783203 C17.30997843 40.87369357 17.56534969 43.03191412 17 46 C13.67691771 50.24307128 9.37300343 51.88944472 4.54296875 53.92578125 C3.31118645 54.45355415 3.31118645 54.45355415 2.05451965 54.99198914 C0.3209698 55.73060797 -1.41479333 56.46405099 -3.15258789 57.19262695 C-5.80116751 58.30772881 -8.4365263 59.45063858 -11.07226562 60.59570312 C-12.7622886 61.31162683 -14.45302214 62.02587594 -16.14453125 62.73828125 C-16.92705765 63.08087479 -17.70958405 63.42346832 -18.51582336 63.77644348 C-23.38964758 65.78177854 -26.73072223 66.42192179 -32 65 C-34.534112 62.465888 -34.39257035 60.53769983 -34.65625 57.0703125 C-33.59564267 53.7243489 -30.95441211 52.54418265 -28 51 C-24.74886451 49.47912747 -21.44946903 48.10181723 -18.125 46.75 C-16.80628906 46.20472656 -16.80628906 46.20472656 -15.4609375 45.6484375 C-13.30959379 44.75983901 -11.15600499 43.87721376 -9 43 C-36.2677086 21.15889255 -88.8503708 20.599084 -121.64013672 23.77392578 C-169.43838399 29.16989686 -214.05854385 50.19070026 -248.57275391 83.61962891 C-249.91586018 84.91862358 -251.27577542 86.20017391 -252.63671875 87.48046875 C-258.97262421 93.57765878 -264.38920342 100.20708535 -269.66064453 107.22070312 C-270.52209227 108.36511273 -271.38978106 109.50486501 -272.26513672 110.63867188 C-293.64761215 138.35700973 -306.70972866 172.58909552 -312 207 C-312.11714355 207.73041504 -312.23428711 208.46083008 -312.35498047 209.21337891 C-320.76528647 263.43673364 -305.56068719 320.56491415 -273.875 364.9375 C-270.35722846 369.63997559 -266.6445111 374.17870447 -262.8828125 378.6875 C-259.08229505 383.35535546 -259.08229505 383.35535546 -258.625 386.9375 C-259 390 -259 390 -260.5625 392.4375 C-263 394 -263 394 -266.1875 394.375 C-272.09451271 393.03874131 -275.4885656 387.54390669 -279 383 C-279.48774902 382.37383789 -279.97549805 381.74767578 -280.47802734 381.10253906 C-306.91915928 346.76619238 -324.69822939 304.42953962 -328 261 C-328.06703125 260.1224707 -328.1340625 259.24494141 -328.203125 258.34082031 C-332.13652675 202.27093474 -317.45171997 147.36438283 -284 102 C-283.56751953 101.41057617 -283.13503906 100.82115234 -282.68945312 100.21386719 C-246.61466476 51.52646484 -191.64995608 19.33901295 -131.828125 10.3515625 C-89.52031694 4.44897792 -42.64294437 8.67852781 -4 28 C-4.24234375 27.46632813 -4.4846875 26.93265625 -4.734375 26.3828125 C-5.83838814 23.92850636 -6.91921866 21.46461962 -8 19 C-8.3815625 18.16082031 -8.763125 17.32164063 -9.15625 16.45703125 C-11.51273879 11.02869101 -12.63498986 6.92657202 -12 1 C-8.08376551 -2.91623449 -4.85837806 -2.24459079 0 0 Z " fill="#FFBD73" transform="translate(354,17)"/>
<path d="M0 0 C5.90701271 1.33625869 9.3010656 6.83109331 12.8125 11.375 C13.30024902 12.00116211 13.78799805 12.62732422 14.29052734 13.27246094 C51.8956029 62.10625952 68.41437723 123.84399501 60.97314453 184.96923828 C54.78514249 231.06247647 35.58348408 275.10145224 3.76953125 309.265625 C1.98333919 311.19086196 0.30488076 313.16997572 -1.375 315.1875 C-15.60091544 331.35331301 -33.56133067 344.93209784 -52.34667969 355.35107422 C-54.23593449 356.40194088 -56.10526199 357.48394994 -57.9765625 358.56640625 C-77.31271863 369.50631754 -98.5642097 376.57863696 -120.1875 381.375 C-120.92162109 381.54080566 -121.65574219 381.70661133 -122.41210938 381.87744141 C-167.52413705 391.77360016 -220.59380975 387.17184513 -262.1875 366.375 C-261.94515625 366.91390869 -261.7028125 367.45281738 -261.453125 368.00805664 C-260.35113706 370.47878778 -259.26926288 372.95785096 -258.1875 375.4375 C-257.8059375 376.28505859 -257.424375 377.13261719 -257.03125 378.00585938 C-254.89072654 382.95581989 -253.51485764 386.87474736 -254.1875 392.375 C-256.1875 395.375 -256.1875 395.375 -258.5 396.1875 C-261.79899087 396.41766215 -263.29510314 395.98842689 -266.1875 394.375 C-267.88500977 391.55273438 -267.88500977 391.55273438 -269.37890625 387.96875 C-269.6508934 387.32941528 -269.92288055 386.69008057 -270.20310974 386.03137207 C-271.0686729 383.98576966 -271.90942262 381.93097751 -272.75 379.875 C-273.31807304 378.52276911 -273.88771997 377.17119826 -274.45898438 375.8203125 C-276.0616403 372.01578304 -277.62736 368.19716118 -279.1875 364.375 C-279.60821777 363.35841309 -280.02893555 362.34182617 -280.46240234 361.29443359 C-281.00501709 359.96919678 -281.00501709 359.96919678 -281.55859375 358.6171875 C-281.86595459 357.86808105 -282.17331543 357.11897461 -282.48999023 356.34716797 C-283.49656595 353.50113414 -283.75271633 351.34238576 -283.1875 348.375 C-279.86441771 344.13192872 -275.56050343 342.48555528 -270.73046875 340.44921875 C-269.90928055 340.09737015 -269.08809235 339.74552155 -268.24201965 339.38301086 C-266.5084698 338.64439203 -264.77270667 337.91094901 -263.03491211 337.18237305 C-260.38633249 336.06727119 -257.7509737 334.92436142 -255.11523438 333.77929688 C-253.4252114 333.06337317 -251.73447786 332.34912406 -250.04296875 331.63671875 C-249.26044235 331.29412521 -248.47791595 330.95153168 -247.67167664 330.59855652 C-242.79785242 328.59322146 -239.45677777 327.95307821 -234.1875 329.375 C-231.653388 331.909112 -231.79492965 333.83730017 -231.53125 337.3046875 C-232.59185733 340.6506511 -235.23308789 341.83081735 -238.1875 343.375 C-241.43863549 344.89587253 -244.73803097 346.27318277 -248.0625 347.625 C-249.38121094 348.17027344 -249.38121094 348.17027344 -250.7265625 348.7265625 C-252.87790621 349.61516099 -255.03149501 350.49778624 -257.1875 351.375 C-230.11529543 373.05951107 -177.54007239 373.91461328 -144.95605469 370.60107422 C-104.18198229 365.7585638 -65.03574539 350.46949113 -33.1875 324.375 C-32.40197754 323.74174805 -32.40197754 323.74174805 -31.60058594 323.09570312 C-18.41478534 312.44778886 -6.56120149 300.72189431 3.53759766 287.08984375 C4.77120539 285.43054449 6.02980975 283.79310396 7.29296875 282.15625 C40.23668515 238.66505155 53.51632728 179.87145156 46.29125977 126.24658203 C40.03751179 84.82797821 23.4884211 47.80188801 -3.3046875 15.6875 C-7.10520495 11.01964454 -7.10520495 11.01964454 -7.5625 7.4375 C-7.1875 4.375 -7.1875 4.375 -5.625 1.9375 C-3.1875 0.375 -3.1875 0.375 0 0 Z " fill="#FFBD73" transform="translate(424.1875,100.625)"/>
<path d="M0 0 C0 0.99 0 1.98 0 3 C-0.845625 3.78375 -1.69125 4.5675 -2.5625 5.375 C-5.32551933 7.73907413 -5.32551933 7.73907413 -4.9375 10.75 C-4.22002336 13.16232993 -4.22002336 13.16232993 -2 14 C0.88067737 14.23286913 3.74012519 14.4194594 6.625 14.5625 C9.38875 14.706875 12.1525 14.85125 15 15 C15 21.93 15 28.86 15 36 C11.14150374 34.07075187 8.49162338 31.96066636 5.29296875 29.14453125 C1.74351037 27.37282545 -0.21252543 27.90996561 -4 29 C-6.94456898 30.88409552 -9.50998822 33.12495972 -12.125 35.4375 C-13.62873605 36.7230783 -15.13395807 38.00692039 -16.640625 39.2890625 C-17.37861328 39.92231445 -18.11660156 40.55556641 -18.87695312 41.20800781 C-21.80230634 43.6771997 -24.820983 46.00580687 -27.875 48.3125 C-29.91718524 49.87432217 -31.95886662 51.43680342 -34 53 C-34.52416504 53.40089844 -35.04833008 53.80179688 -35.58837891 54.21484375 C-37.13037397 55.4025262 -38.65917192 56.60728149 -40.1875 57.8125 C-41.06792969 58.49957031 -41.94835937 59.18664062 -42.85546875 59.89453125 C-45.1605678 62.15764307 -46.04509253 63.94322917 -47 67 C-44.50293918 70.28560634 -43.26783112 70.95805055 -39.109375 71.609375 C-37.65715633 71.67887665 -36.20359692 71.72126815 -34.75 71.75 C-32.1925 71.8325 -29.635 71.915 -27 72 C-27 79.26 -27 86.52 -27 94 C-30.82976189 92.08511906 -33.57182448 89.97768698 -36.8046875 87.2421875 C-39.91171724 85.48411729 -41.46134805 85.37955921 -45 86 C-47.85996895 87.771566 -50.302624 89.9567581 -52.8125 92.1875 C-54.31405812 93.47539898 -55.81803522 94.7604822 -57.32421875 96.04296875 C-58.0929834 96.70087402 -58.86174805 97.3587793 -59.65380859 98.03662109 C-64.04261708 101.70933679 -68.62666602 105.12470806 -73.20239258 108.55932617 C-77.13515984 111.52564346 -80.89692501 114.59164666 -84.55029297 117.8984375 C-86 119 -86 119 -88 119 C-88.77341204 121.78428335 -89.17574966 123.47275102 -88.25 126.25 C-87.03369734 128.31552961 -87.03369734 128.31552961 -84 129 C-79.05 129.33 -74.1 129.66 -69 130 C-69 140.89 -69 151.78 -69 163 C-87.13562086 150.90958609 -98.17178015 130.97420235 -103 110 C-107.46370227 86.08334769 -103.35497543 61.43890298 -90.3125 40.875 C-75.83006865 20.18581235 -55.36866342 5.56263921 -30.38671875 0.4921875 C-20.40833074 -0.90287778 -10.04555302 -0.22094325 0 0 Z " fill="#FFBD73" transform="translate(269,165)"/>
<path d="M0 0 C2.73527862 1.36763931 2.92492227 3.1485645 3.85546875 5.93164062 C4.06816406 6.59357422 4.28085937 7.25550781 4.5 7.9375 C4.71269531 8.56462891 4.92539062 9.19175781 5.14453125 9.83789062 C12.66788299 32.75411234 10.67431721 57.9302617 0.68359375 79.73046875 C-10.38988021 101.23510379 -28.87027467 117.71436694 -51.65625 125.93359375 C-62.67668524 129.44828864 -72.5452073 130.32419225 -84 130 C-84 122.74 -84 115.48 -84 108 C-81.20789063 107.95101562 -78.41578125 107.90203125 -75.5390625 107.8515625 C-72.84174124 107.79758816 -70.14451053 107.74026678 -67.44726562 107.68261719 C-65.56940424 107.64428023 -63.69146824 107.60943573 -61.81347656 107.578125 C-59.11756679 107.53257637 -56.42217288 107.47456625 -53.7265625 107.4140625 C-52.88380768 107.40251129 -52.04105286 107.39096008 -51.17276001 107.37905884 C-46.60979043 107.45806819 -46.60979043 107.45806819 -43 105 C-42.66883262 102.65590429 -42.66883262 102.65590429 -42.68115234 99.90771484 C-42.66128265 98.84676605 -42.64141296 97.78581726 -42.62094116 96.69271851 C-42.60938995 95.54373077 -42.59783875 94.39474304 -42.5859375 93.2109375 C-42.56657135 92.03737701 -42.5472052 90.86381653 -42.5272522 89.6546936 C-42.46732336 85.89487039 -42.42101754 82.13501677 -42.375 78.375 C-42.3368325 75.83071558 -42.29778151 73.28644425 -42.2578125 70.7421875 C-42.16161095 64.49490759 -42.07660262 58.24754928 -42 52 C-40.90010742 51.98541748 -39.80021484 51.97083496 -38.66699219 51.95581055 C-34.58153977 51.8977853 -30.49663609 51.82055294 -26.41162109 51.73754883 C-24.64445917 51.70431931 -22.87719161 51.67628118 -21.10986328 51.65356445 C-18.56757649 51.61998169 -16.02625592 51.56766549 -13.484375 51.51171875 C-12.69569031 51.50532883 -11.90700562 51.4989389 -11.09442139 51.49235535 C-6.72824406 51.37563852 -4.13991888 51.09824422 -1 48 C-0.38610917 45.77519252 -0.38610917 45.77519252 -0.45410156 43.25317383 C-0.43438293 42.29240433 -0.41466431 41.33163483 -0.39434814 40.3417511 C-0.39311951 39.30729355 -0.39189087 38.272836 -0.390625 37.20703125 C-0.37408875 36.14586594 -0.35755249 35.08470062 -0.34051514 33.99137878 C-0.29188717 30.59836119 -0.27063083 27.20579224 -0.25 23.8125 C-0.22185279 21.51364912 -0.19192713 19.21481928 -0.16015625 16.91601562 C-0.08612446 11.27742561 -0.03456879 5.63896253 0 0 Z " fill="#FFBD73" transform="translate(338,217)"/>
<path d="M0 0 C2.29312429 0.90175638 3.84286566 2.00031325 5.74560547 3.56420898 C6.43203125 4.12495117 7.11845703 4.68569336 7.82568359 5.26342773 C8.53273438 5.8525293 9.23978516 6.44163086 9.96826172 7.04858398 C10.67144531 7.6222168 11.37462891 8.19584961 12.09912109 8.78686523 C15.94792521 11.95392241 19.57792697 15.20385192 23.03076172 18.79858398 C21.89638672 19.25233398 20.76201172 19.70608398 19.59326172 20.17358398 C15.9835448 21.36954204 15.9835448 21.36954204 15.03076172 23.79858398 C14.90833134 26.45233251 14.84507371 29.08156761 14.82543945 31.73657227 C14.81553986 32.55616425 14.80564026 33.37575623 14.79544067 34.22018433 C14.76378638 36.93639206 14.73905275 39.6526173 14.71435547 42.36889648 C14.69378933 44.24934348 14.67279295 46.12978582 14.65138245 48.01022339 C14.59612662 52.96515129 14.54673284 57.92012115 14.49853516 62.87512207 C14.44834574 67.92907455 14.39264633 72.98296592 14.33740234 78.03686523 C14.22977782 87.95738794 14.12885142 97.87796241 14.03076172 107.79858398 C4.13076172 107.79858398 -5.76923828 107.79858398 -15.96923828 107.79858398 C-15.96923828 101.19858398 -15.96923828 94.59858398 -15.96923828 87.79858398 C-7.65673828 87.48608398 -7.65673828 87.48608398 -5.05004883 87.41064453 C-4.36724854 87.37753174 -3.68444824 87.34441895 -2.98095703 87.31030273 C-2.28446045 87.28411865 -1.58796387 87.25793457 -0.87036133 87.23095703 C1.58173534 86.67327587 2.51454632 85.77843064 4.03076172 83.79858398 C4.36192526 80.87235946 4.36192526 80.87235946 3.03076172 77.79858398 C0.83239825 75.41035846 -1.67571454 73.53451966 -4.28173828 71.61108398 C-4.95914062 71.09094727 -5.63654297 70.57081055 -6.33447266 70.03491211 C-10.09054124 67.11099492 -10.09054124 67.11099492 -14.16723633 64.68798828 C-17.10566801 61.6070341 -16.49163354 57.88963305 -16.43798828 53.86108398 C-16.44503784 52.98460205 -16.4520874 52.10812012 -16.45935059 51.20507812 C-16.48890989 47.45321701 -16.47218008 43.70187095 -16.45996094 39.94995117 C-16.45758644 37.21167679 -16.47846514 34.47425302 -16.50048828 31.73608398 C-16.4891687 30.88602783 -16.47784912 30.03597168 -16.46618652 29.16015625 C-16.42372738 24.59665942 -16.42372738 24.59665942 -18.74853516 20.86499023 C-19.8477832 20.33711914 -19.8477832 20.33711914 -20.96923828 19.79858398 C-21.71173828 19.40670898 -22.45423828 19.01483398 -23.21923828 18.61108398 C-23.79673828 18.34295898 -24.37423828 18.07483398 -24.96923828 17.79858398 C-22.45130212 15.73252704 -19.92936294 13.67141267 -17.40673828 11.61108398 C-16.70226562 11.03293945 -15.99779297 10.45479492 -15.27197266 9.85913086 C-13.18369203 8.15578676 -11.08071251 6.47306355 -8.96923828 4.79858398 C-8.0046167 4.01813721 -8.0046167 4.01813721 -7.02050781 3.22192383 C-2.51376763 -0.25711112 -2.51376763 -0.25711112 0 0 Z " fill="#FFBD73" transform="translate(311.96923828125,149.201416015625)"/>
<path d="M0 0 C4.62164307 1.4689609 7.80893002 4.1496827 11.375 7.3125 C14.92171581 10.40002264 18.41558976 13.41674499 22.3125 16.0625 C23.199375 16.701875 24.08625 17.34125 25 18 C25 18.66 25 19.32 25 20 C24.05125 20.268125 23.1025 20.53625 22.125 20.8125 C18.74732727 21.74986588 18.74732727 21.74986588 17 25 C16.78700373 27.68605221 16.68873882 30.27192753 16.68115234 32.9597168 C16.66608391 34.17469345 16.66608391 34.17469345 16.65071106 35.41421509 C16.61981063 38.0925424 16.60282496 40.77076944 16.5859375 43.44921875 C16.56723136 45.30582038 16.54765837 47.16241347 16.5272522 49.01899719 C16.47586643 53.90649379 16.43627523 58.79401797 16.39910889 63.68164062 C16.35910961 68.66868957 16.3079987 73.65562313 16.2578125 78.64257812 C16.16097684 88.42831253 16.07762335 98.21409431 16 108 C6.1 108 -3.8 108 -14 108 C-14 102.06 -14 96.12 -14 90 C-6.25 89.6875 -6.25 89.6875 -3.82910156 89.61206055 C-0.73675063 89.45199049 1.72325444 89.13536468 4.515625 87.76953125 C6.16016167 86.06193424 6.16016167 86.06193424 6.62890625 83.65625 C5.69188254 79.69863434 3.00858406 77.9017021 -0.0625 75.5 C-0.62388672 75.03980469 -1.18527344 74.57960938 -1.76367188 74.10546875 C-5.10651376 71.3572265 -5.10651376 71.3572265 -8.75149536 69.04580688 C-13.63325524 66.16823351 -13.63325524 66.16823351 -14.63014221 62.99273682 C-14.85689069 60.51973797 -14.86506216 58.13088518 -14.796875 55.6484375 C-14.80205139 54.75258942 -14.80722778 53.85674133 -14.81256104 52.93374634 C-14.8244398 50.07970258 -14.78994288 47.22875056 -14.75 44.375 C-14.73125838 41.5147407 -14.7224889 38.6551422 -14.73028564 35.79483032 C-14.73296885 34.01741021 -14.7191579 32.23987275 -14.68719482 30.46273804 C-14.68439514 29.65825226 -14.68159546 28.85376648 -14.67871094 28.02490234 C-14.66870056 27.31828461 -14.65869019 26.61166687 -14.64837646 25.88363647 C-15.11144477 23.4029938 -16.03658975 22.53867979 -18 21 C-20.60611077 20.27802838 -20.60611077 20.27802838 -23 20 C-19.34287342 16.24052846 -15.52162885 12.80129861 -11.5 9.4375 C-10.66662109 8.73463867 -10.66662109 8.73463867 -9.81640625 8.01757812 C-6.58177304 5.29668078 -3.31228706 2.62634702 0 0 Z " fill="#FFBD73" transform="translate(268,205)"/>
<path d="M0 0 C3.57883297 1.27732014 6.20294837 2.73919002 9.1015625 5.1875 C9.83890625 5.80367188 10.57625 6.41984375 11.3359375 7.0546875 C12.09132812 7.69664062 12.84671875 8.33859375 13.625 9 C15.13706345 10.2719723 16.65004696 11.54285188 18.1640625 12.8125 C19.16107178 13.65748047 19.16107178 13.65748047 20.17822266 14.51953125 C22.14081521 16.16195679 22.14081521 16.16195679 25 18 C25 18.66 25 19.32 25 20 C23.865625 20.268125 22.73125 20.53625 21.5625 20.8125 C19.7990625 21.4003125 19.7990625 21.4003125 18 22 C16.95873076 25.12380773 16.84447668 27.38517854 16.79467773 30.66479492 C16.77473251 31.82577194 16.75478729 32.98674896 16.73423767 34.1829071 C16.70916893 36.06270012 16.70916893 36.06270012 16.68359375 37.98046875 C16.66281265 39.26359451 16.64203156 40.54672028 16.62062073 41.86872864 C16.56548094 45.27662815 16.51603611 48.68458741 16.46777344 52.09259033 C16.41749921 55.57154648 16.36184409 59.05041607 16.30664062 62.52929688 C16.19915811 69.35278951 16.09769123 76.17636036 16 83 C14.58186445 82.86006074 13.16423276 82.71501055 11.74682617 82.56787109 C10.95733078 82.48765717 10.16783539 82.40744324 9.35441589 82.32479858 C5.81163165 81.8360611 2.6981573 80.79246803 -0.6875 79.625 C-1.92886719 79.20476562 -3.17023438 78.78453125 -4.44921875 78.3515625 C-7.7661806 77.08900056 -10.84124242 75.60949789 -14 74 C-14.00808685 73.36550934 -14.01617371 72.73101868 -14.02450562 72.07730103 C-14.11036183 65.49142936 -14.20985639 58.90586529 -14.31738281 52.3203125 C-14.35573762 49.86040398 -14.39057884 47.40043813 -14.421875 44.94042969 C-14.46738451 41.41059837 -14.52540198 37.88116405 -14.5859375 34.3515625 C-14.59748871 33.24632233 -14.60903992 32.14108215 -14.62094116 31.00234985 C-14.64081085 29.98144257 -14.66068054 28.96053528 -14.68115234 27.90869141 C-14.69447601 27.00712311 -14.70779968 26.10555481 -14.7215271 25.17666626 C-14.80120842 22.79101999 -14.80120842 22.79101999 -17 21 C-18.98821313 20.60235737 -20.98944339 20.26224651 -23 20 C-19.84538399 15.66535306 -16.28584718 12.64617578 -12.0625 9.4375 C-10.84494658 8.49883475 -9.62749685 7.56003499 -8.41015625 6.62109375 C-7.83281738 6.17878418 -7.25547852 5.73647461 -6.66064453 5.28076172 C-4.41658719 3.55004652 -2.20590876 1.77895868 0 0 Z " fill="#FFBD73" transform="translate(226,263)"/>
</svg>
