<?xml version="1.0" encoding="UTF-8"?>
<svg version="1.1" xmlns="http://www.w3.org/2000/svg" width="512" height="512">
<path d="M0 0 C1.22161835 -0.00953201 2.44323669 -0.01906403 3.70187378 -0.02888489 C5.67693405 -0.02751778 5.67693405 -0.02751778 7.69189453 -0.02612305 C9.06186045 -0.03001248 10.43182516 -0.03434767 11.80178833 -0.03910828 C14.6716096 -0.0465632 17.54130784 -0.04628494 20.41113281 -0.04101562 C24.07854474 -0.03522754 27.74545055 -0.05213891 31.41277885 -0.0753603 C34.24218666 -0.09013499 37.07147369 -0.0909642 39.90091324 -0.08785057 C41.90718053 -0.08860991 43.91342916 -0.10245554 45.91964722 -0.11653137 C47.76153122 -0.10718819 47.76153122 -0.10718819 49.640625 -0.09765625 C50.71665985 -0.09828568 51.7926947 -0.0989151 52.90133667 -0.0995636 C57.82863842 0.5053182 61.02931132 2.20586818 64.25439453 5.95092773 C66.2169041 9.79850915 66.76023571 13.21872261 67.07470703 17.4543457 C67.14834473 18.22594025 67.22198242 18.99753479 67.29785156 19.79251099 C67.53121067 22.24374154 67.74302586 24.69604367 67.94970703 27.1496582 C68.22285045 30.37823898 68.51763952 33.60383502 68.82470703 36.8293457 C68.87900879 37.55668915 68.93331055 38.28403259 68.98925781 39.03341675 C69.63116797 45.76042255 71.86637335 51.12352372 76.59033203 56.0012207 C80.58001038 58.98722213 85.1013221 60.80616154 89.69970703 62.6496582 C90.54275391 63.01704102 91.38580078 63.38442383 92.25439453 63.76293945 C98.35174966 66.23358029 103.51062029 66.93040339 109.94970703 65.2746582 C115.73755604 62.41319465 120.43989044 58.0606662 125.32470703 53.8996582 C127.53055679 52.02170503 129.73906024 50.14696124 131.94970703 48.2746582 C133.39796875 47.04295898 133.39796875 47.04295898 134.87548828 45.78637695 C140.08237465 41.64001624 143.81052201 39.37349742 150.56298828 39.6027832 C157.71694069 41.61666179 162.87239783 47.87534826 167.96142578 52.95043945 C169.23648735 54.21551582 169.23648735 54.21551582 170.53730774 55.50614929 C172.32754807 57.28629183 174.11510895 59.06913259 175.90014648 60.85449219 C178.62791753 63.57788362 181.37128219 66.28487574 184.11572266 68.99145508 C185.85693624 70.72680124 187.59720297 72.46309808 189.33642578 74.20043945 C190.15519699 75.00483963 190.9739682 75.80923981 191.81755066 76.63801575 C196.48649361 81.34469989 200.67345844 85.62578907 201.08642578 92.57543945 C199.52786597 99.55507685 195.58340909 103.98352491 190.94970703 109.2746582 C187.92772939 112.92345414 184.93685746 116.59731591 181.94970703 120.2746582 C181.34513672 121.00942383 180.74056641 121.74418945 180.11767578 122.5012207 C175.96649321 127.73312477 173.71789057 132.05990935 174.21533203 138.95825195 C174.85267871 143.54145463 176.34379755 147.59054049 178.13720703 151.8371582 C178.60694946 152.95695068 178.60694946 152.95695068 179.08618164 154.09936523 C182.43045287 161.78619761 185.93939197 166.90337672 193.94970703 170.2746582 C196.7388624 170.7479185 199.3936508 171.09902958 202.19970703 171.3371582 C202.97604492 171.41458252 203.75238281 171.49200684 204.55224609 171.57177734 C207.01713113 171.8173243 209.48302975 172.04787058 211.94970703 172.2746582 C215.20119833 172.57360204 218.45063051 172.88812722 221.69970703 173.2121582 C222.43737305 173.2747583 223.17503906 173.3373584 223.93505859 173.40185547 C229.92281816 174.00131967 233.9627799 175.33247422 238.29150391 179.5637207 C241.43305387 184.87581089 240.52105506 191.68739292 240.48095703 197.6496582 C240.48365488 199.06160753 240.48753974 200.47355504 240.49255371 201.88549805 C240.49843514 204.83766453 240.48993048 207.78934529 240.47119141 210.74145508 C240.44840165 214.51438056 240.46153217 218.28616774 240.48548126 222.05905151 C240.49997658 224.9725798 240.4953164 227.88584084 240.48497009 230.79937744 C240.48231306 232.18996314 240.48553639 233.58057358 240.49488831 234.97113037 C240.55884075 247.15172455 240.55884075 247.15172455 238.29150391 250.9855957 C233.51250212 255.65698026 228.68887006 256.74153661 222.20751953 257.30200195 C220.71401383 257.45614273 219.22052475 257.61044463 217.72705078 257.76489258 C215.40179589 257.99104751 213.07615603 258.21202323 210.75 258.42871094 C197.34103995 259.10688856 197.34103995 259.10688856 186.50610352 265.97949219 C183.21931795 270.84544459 181.13427792 276.28161113 179.13720703 281.7746582 C178.82589844 282.57774414 178.51458984 283.38083008 178.19384766 284.20825195 C175.75211995 290.83043216 174.46263481 296.542291 177.52001953 303.2434082 C180.07874498 307.8522646 183.40349824 311.78687981 186.82470703 315.7746582 C190.38988439 319.9838676 193.94825967 324.1918357 197.32861328 328.55200195 C197.80886963 329.17067139 198.28912598 329.78934082 198.78393555 330.42675781 C200.9081652 333.79393985 201.01300331 336.28699271 200.94970703 340.2746582 C198.82718647 347.42796869 194.05463154 351.71711674 188.82861328 356.85668945 C187.93230698 357.75207932 187.03600067 358.64746918 186.11253357 359.56999207 C184.22157726 361.45492134 182.32735812 363.33559658 180.42602539 365.20996094 C177.99361369 367.60829725 175.57467407 370.01968736 173.16000462 372.43587208 C170.8467783 374.74842316 168.52509539 377.05243044 166.20361328 379.35668945 C165.33684464 380.22123245 164.47007599 381.08577545 163.57704163 381.97651672 C162.76617599 382.77462265 161.95531036 383.57272858 161.11987305 384.39501953 C160.05422874 385.44922844 160.05422874 385.44922844 158.96705627 386.5247345 C154.82613744 390.11672139 151.11436931 390.96743855 145.71533203 390.83325195 C138.89506673 389.45571249 133.79345931 383.90459295 128.71533203 379.43481445 C118.20608802 370.01477062 118.20608802 370.01477062 104.76220703 367.0871582 C97.75840411 368.28353735 91.24090744 372.10478104 84.94970703 375.2746582 C84.07958984 375.70907227 83.20947266 376.14348633 82.31298828 376.59106445 C81.61560547 376.94040039 80.91822266 377.28973633 80.19970703 377.6496582 C76.94970703 379.2746582 76.94970703 379.2746582 73.94970703 380.2746582 C72.80760886 382.05694757 72.80760886 382.05694757 71.94970703 384.2746582 C71.6195459 384.99596924 71.28938477 385.71728027 70.94921875 386.46044922 C69.74714826 389.84497939 69.38856463 392.97909933 69.02001953 396.55200195 C68.86299609 397.96677427 68.70542713 399.38148612 68.54736328 400.79614258 C68.30838571 403.00509031 68.07449251 405.21427608 67.85058594 407.42480469 C67.62992843 409.57322381 67.38881098 411.71860158 67.14501953 413.86450195 C66.94416748 415.78057251 66.94416748 415.78057251 66.73925781 417.73535156 C65.83228267 421.80103449 64.63368757 424.09587039 61.94970703 427.2746582 C57.72569576 429.79918772 54.58531633 430.65391318 49.68823242 430.67871094 C48.46999283 430.69139511 47.25175323 430.70407928 45.99659729 430.71714783 C44.04172646 430.71274437 44.04172646 430.71274437 42.04736328 430.70825195 C40.68265016 430.7128189 39.31793934 430.71812599 37.95323181 430.72413635 C35.09950388 430.73304712 32.24605611 430.73066799 29.39233398 430.72070312 C25.74957095 430.70921753 22.10777793 430.72942744 18.46514225 430.75862026 C15.64853352 430.7770369 12.83215491 430.77667904 10.01550102 430.77098274 C8.02422323 430.77075643 6.0329669 430.78760345 4.04176331 430.80479431 C-2.83889369 430.75194713 -7.52818547 430.55447616 -13.05029297 426.2746582 C-17.1004914 420.89441579 -16.96018251 413.95701586 -17.55029297 407.4621582 C-18.28271881 393.53703042 -18.28271881 393.53703042 -25.10498047 381.9777832 C-29.38532984 378.71635042 -34.16168559 376.87606418 -39.17529297 375.0246582 C-40.05572266 374.68692383 -40.93615234 374.34918945 -41.84326172 374.0012207 C-43.52366947 373.35744458 -45.20673386 372.72054468 -46.89282227 372.09179688 C-48.57445936 371.45487944 -50.23684876 370.76706694 -51.89013672 370.05981445 C-54.20687673 369.2177444 -56.02884372 368.97530766 -58.48779297 368.9621582 C-59.20837891 368.94540039 -59.92896484 368.92864258 -60.67138672 368.91137695 C-67.2599591 369.91751362 -72.01455779 374.49657931 -76.92529297 378.6496582 C-91.55377194 390.99507976 -91.55377194 390.99507976 -98.05029297 390.9621582 C-98.81341797 390.98665039 -99.57654297 391.01114258 -100.36279297 391.03637695 C-108.03360202 388.86223776 -114.14023063 381.48035284 -119.60107422 375.98950195 C-120.38169724 375.21079239 -121.16232025 374.43208282 -121.96659851 373.629776 C-123.60348075 371.99424651 -125.23787321 370.3562217 -126.86987305 368.71582031 C-129.36593967 366.20899794 -131.87255885 363.71308363 -134.38037109 361.21801758 C-135.97541416 359.62165361 -137.56983709 358.02466972 -139.16357422 356.42700195 C-139.91044998 355.68417465 -140.65732574 354.94134735 -141.42683411 354.17601013 C-150.42517735 345.09600785 -150.42517735 345.09600785 -150.73779297 338.6496582 C-150.49099509 331.67761821 -146.3488073 327.43824016 -142.05029297 322.2746582 C-140.5750237 320.44332428 -139.11032548 318.60416985 -137.65112305 316.76000977 C-136.68670342 315.54431456 -135.71418042 314.33499238 -134.73266602 313.13305664 C-130.11055334 307.38337714 -128.59050488 303.236392 -128.74755859 295.92797852 C-129.25636626 291.46852549 -130.93035937 287.69455002 -132.80029297 283.6496582 C-133.14833984 282.8555957 -133.49638672 282.0615332 -133.85498047 281.2434082 C-134.8899484 278.90514732 -135.96022452 276.58769385 -137.05029297 274.2746582 C-137.4005957 273.52716309 -137.75089844 272.77966797 -138.11181641 272.00952148 C-138.45245117 271.3029541 -138.79308594 270.59638672 -139.14404297 269.8684082 C-139.44503906 269.24385742 -139.74603516 268.61930664 -140.05615234 267.97583008 C-142.54570014 263.7157198 -145.85514668 261.64071444 -150.46826172 260.2277832 C-157.17293792 258.66115512 -164.09589484 258.22181681 -170.93896484 257.5949707 C-177.26696424 256.92364587 -181.9730729 256.24102341 -187.05029297 252.2746582 C-189.58885165 248.0595177 -190.42956287 244.90731916 -190.4543457 240.01318359 C-190.46702988 238.794944 -190.47971405 237.57670441 -190.49278259 236.32154846 C-190.48984695 235.01830124 -190.48691132 233.71505402 -190.48388672 232.37231445 C-190.48845366 231.00760133 -190.49376076 229.64289051 -190.49977112 228.27818298 C-190.50868188 225.42445506 -190.50630275 222.57100728 -190.49633789 219.71728516 C-190.4848523 216.07452212 -190.50506221 212.4327291 -190.53425503 208.79009342 C-190.55267167 205.97348469 -190.55231381 203.15710608 -190.54661751 200.34045219 C-190.54639119 198.34917441 -190.56323822 196.35791807 -190.58042908 194.36671448 C-190.49003615 182.59763329 -190.49003615 182.59763329 -186.05029297 177.2746582 C-181.75564029 174.391288 -177.84090003 173.76857577 -172.74560547 173.2824707 C-171.34321231 173.13319457 -169.94087001 172.98344002 -168.53857422 172.83325195 C-166.3583681 172.61332103 -164.17786343 172.39989837 -161.99609375 172.19604492 C-150.0347671 171.32607535 -150.0347671 171.32607535 -140.05029297 165.2746582 C-138.35792286 162.85012797 -137.22829411 160.91946076 -136.05029297 158.2746582 C-135.67324219 157.47801758 -135.29619141 156.68137695 -134.90771484 155.8605957 C-133.6625475 153.18238665 -132.47665163 150.48373173 -131.30029297 147.7746582 C-130.88908203 146.86329102 -130.47787109 145.95192383 -130.05419922 145.01293945 C-127.50630951 139.1468678 -126.15349076 134.54993079 -127.50341797 128.11450195 C-130.37029837 121.27052766 -135.21701371 116.20623348 -140.05419922 110.70043945 C-150.3777216 98.94065743 -150.3777216 98.94065743 -150.86279297 92.1496582 C-149.96428928 83.17279637 -141.84373431 76.76925523 -135.76513672 70.72387695 C-134.98642715 69.94325394 -134.20771759 69.16263092 -133.40541077 68.35835266 C-131.76988128 66.72147042 -130.13185646 65.08707797 -128.49145508 63.45507812 C-125.98463271 60.9590115 -123.4887184 58.45239232 -120.99365234 55.94458008 C-119.39728837 54.34953701 -117.80030448 52.75511408 -116.20263672 51.16137695 C-115.45980942 50.41450119 -114.71698212 49.66762543 -113.9516449 48.89811707 C-104.81914947 39.84775276 -104.81914947 39.84775276 -98.11279297 39.8371582 C-93.23525865 40.02365216 -90.86152371 41.08566922 -87.05029297 44.2746582 C-85.34301198 45.67177849 -83.6345438 47.06744854 -81.92529297 48.4621582 C-80.98298828 49.24075195 -80.04068359 50.0193457 -79.06982422 50.8215332 C-75.96082623 53.3473427 -72.81041495 55.80035899 -69.61279297 58.2121582 C-68.64470703 58.94305664 -67.67662109 59.67395508 -66.67919922 60.42700195 C-61.05405675 64.38048247 -56.86479096 65.0113281 -50.05029297 64.2746582 C-46.33759472 63.33701937 -42.84858511 62.01725858 -39.30029297 60.5871582 C-38.39408203 60.24749023 -37.48787109 59.90782227 -36.55419922 59.55786133 C-30.09926819 57.03714009 -25.31599261 54.53626978 -21.27294922 48.71606445 C-19.46923152 43.63914659 -19.0285101 38.55302257 -18.48779297 33.2121582 C-18.23479623 30.96596183 -17.98089886 28.71986669 -17.72607422 26.47387695 C-17.4129142 23.62373521 -17.10215987 20.7735536 -16.80566406 17.92163086 C-15.7802359 8.25431845 -15.7802359 8.25431845 -12.67529297 4.0871582 C-8.22712944 1.01580719 -5.47127422 0.02346172 0 0 Z M-49.05029297 126.2746582 C-49.97197266 127.03262695 -50.89365234 127.7905957 -51.84326172 128.5715332 C-74.28446733 147.94250335 -88.02146283 176.32507779 -90.80029297 205.7121582 C-90.90423026 207.56528408 -90.98872675 209.4196412 -91.05029297 211.2746582 C-91.09025391 212.13704102 -91.13021484 212.99942383 -91.17138672 213.88793945 C-91.90860797 243.15995968 -80.08383029 272.05722961 -59.98974609 293.22436523 C-58.68084045 294.57857916 -57.36578157 295.92683808 -56.05029297 297.2746582 C-55.46892578 297.91790039 -54.88755859 298.56114258 -54.28857422 299.22387695 C-35.88509467 319.11076039 -7.16019265 330.16818842 19.42626953 331.55981445 C51.92805059 332.56003354 81.8301021 320.65341367 105.52392578 298.62231445 C117.76875843 286.77184035 126.8553581 273.20798456 133.43798828 257.4621582 C134.94970703 255.2746582 134.94970703 255.2746582 137.98486328 254.3293457 C141.18270107 253.57229444 141.18270107 253.57229444 142.33251953 250.5949707 C142.57744141 249.54051758 142.82236328 248.48606445 143.07470703 247.3996582 C143.34541016 246.35036133 143.61611328 245.30106445 143.89501953 244.2199707 C144.2961547 241.15593426 144.2961547 241.15593426 141.98876953 239.2043457 C141.31587891 238.56754883 140.64298828 237.93075195 139.94970703 237.2746582 C139.77783203 234.9621582 139.77783203 234.9621582 140.19970703 232.2746582 C143.97474335 199.95090975 136.06235217 169.04093865 115.94970703 143.2746582 C95.6419969 118.85304731 68.47345154 103.04010281 36.68017578 99.5559082 C5.28002188 97.18856676 -24.72868367 106.04678513 -49.05029297 126.2746582 Z " fill="#FFBD73" transform="translate(235.05029296875,40.725341796875)"/>
<path d="M0 0 C1.22161835 -0.00953201 2.44323669 -0.01906403 3.70187378 -0.02888489 C5.67693405 -0.02751778 5.67693405 -0.02751778 7.69189453 -0.02612305 C9.06186045 -0.03001248 10.43182516 -0.03434767 11.80178833 -0.03910828 C14.6716096 -0.0465632 17.54130784 -0.04628494 20.41113281 -0.04101562 C24.07854474 -0.03522754 27.74545055 -0.05213891 31.41277885 -0.0753603 C34.24218666 -0.09013499 37.07147369 -0.0909642 39.90091324 -0.08785057 C41.90718053 -0.08860991 43.91342916 -0.10245554 45.91964722 -0.11653137 C47.76153122 -0.10718819 47.76153122 -0.10718819 49.640625 -0.09765625 C50.71665985 -0.09828568 51.7926947 -0.0989151 52.90133667 -0.0995636 C57.82863842 0.5053182 61.02931132 2.20586818 64.25439453 5.95092773 C66.2169041 9.79850915 66.76023571 13.21872261 67.07470703 17.4543457 C67.14834473 18.22594025 67.22198242 18.99753479 67.29785156 19.79251099 C67.53121067 22.24374154 67.74302586 24.69604367 67.94970703 27.1496582 C68.22285045 30.37823898 68.51763952 33.60383502 68.82470703 36.8293457 C68.87900879 37.55668915 68.93331055 38.28403259 68.98925781 39.03341675 C69.63116797 45.76042255 71.86637335 51.12352372 76.59033203 56.0012207 C80.58001038 58.98722213 85.1013221 60.80616154 89.69970703 62.6496582 C90.54275391 63.01704102 91.38580078 63.38442383 92.25439453 63.76293945 C98.35174966 66.23358029 103.51062029 66.93040339 109.94970703 65.2746582 C115.73755604 62.41319465 120.43989044 58.0606662 125.32470703 53.8996582 C127.53055679 52.02170503 129.73906024 50.14696124 131.94970703 48.2746582 C133.39796875 47.04295898 133.39796875 47.04295898 134.87548828 45.78637695 C140.08237465 41.64001624 143.81052201 39.37349742 150.56298828 39.6027832 C157.71694069 41.61666179 162.87239783 47.87534826 167.96142578 52.95043945 C169.23648735 54.21551582 169.23648735 54.21551582 170.53730774 55.50614929 C172.32754807 57.28629183 174.11510895 59.06913259 175.90014648 60.85449219 C178.62791753 63.57788362 181.37128219 66.28487574 184.11572266 68.99145508 C185.85693624 70.72680124 187.59720297 72.46309808 189.33642578 74.20043945 C190.15519699 75.00483963 190.9739682 75.80923981 191.81755066 76.63801575 C196.48649361 81.34469989 200.67345844 85.62578907 201.08642578 92.57543945 C199.52786597 99.55507685 195.58340909 103.98352491 190.94970703 109.2746582 C187.92772939 112.92345414 184.93685746 116.59731591 181.94970703 120.2746582 C181.34513672 121.00942383 180.74056641 121.74418945 180.11767578 122.5012207 C175.96649321 127.73312477 173.71789057 132.05990935 174.21533203 138.95825195 C174.85267871 143.54145463 176.34379755 147.59054049 178.13720703 151.8371582 C178.60694946 152.95695068 178.60694946 152.95695068 179.08618164 154.09936523 C182.43045287 161.78619761 185.93939197 166.90337672 193.94970703 170.2746582 C196.7388624 170.7479185 199.3936508 171.09902958 202.19970703 171.3371582 C202.97604492 171.41458252 203.75238281 171.49200684 204.55224609 171.57177734 C207.01713113 171.8173243 209.48302975 172.04787058 211.94970703 172.2746582 C215.20119833 172.57360204 218.45063051 172.88812722 221.69970703 173.2121582 C222.43737305 173.2747583 223.17503906 173.3373584 223.93505859 173.40185547 C229.92281816 174.00131967 233.9627799 175.33247422 238.29150391 179.5637207 C241.43305387 184.87581089 240.52105506 191.68739292 240.48095703 197.6496582 C240.48365488 199.06160753 240.48753974 200.47355504 240.49255371 201.88549805 C240.49843514 204.83766453 240.48993048 207.78934529 240.47119141 210.74145508 C240.44840165 214.51438056 240.46153217 218.28616774 240.48548126 222.05905151 C240.49997658 224.9725798 240.4953164 227.88584084 240.48497009 230.79937744 C240.48231306 232.18996314 240.48553639 233.58057358 240.49488831 234.97113037 C240.55884075 247.15172455 240.55884075 247.15172455 238.29150391 250.9855957 C233.51250212 255.65698026 228.68887006 256.74153661 222.20751953 257.30200195 C220.71401383 257.45614273 219.22052475 257.61044463 217.72705078 257.76489258 C215.40179589 257.99104751 213.07615603 258.21202323 210.75 258.42871094 C197.34103995 259.10688856 197.34103995 259.10688856 186.50610352 265.97949219 C183.21931795 270.84544459 181.13427792 276.28161113 179.13720703 281.7746582 C178.82589844 282.57774414 178.51458984 283.38083008 178.19384766 284.20825195 C175.75211995 290.83043216 174.46263481 296.542291 177.52001953 303.2434082 C180.07874498 307.8522646 183.40349824 311.78687981 186.82470703 315.7746582 C190.38988439 319.9838676 193.94825967 324.1918357 197.32861328 328.55200195 C197.80886963 329.17067139 198.28912598 329.78934082 198.78393555 330.42675781 C200.9081652 333.79393985 201.01300331 336.28699271 200.94970703 340.2746582 C198.82718647 347.42796869 194.05463154 351.71711674 188.82861328 356.85668945 C187.93230698 357.75207932 187.03600067 358.64746918 186.11253357 359.56999207 C184.22157726 361.45492134 182.32735812 363.33559658 180.42602539 365.20996094 C177.99361369 367.60829725 175.57467407 370.01968736 173.16000462 372.43587208 C170.8467783 374.74842316 168.52509539 377.05243044 166.20361328 379.35668945 C165.33684464 380.22123245 164.47007599 381.08577545 163.57704163 381.97651672 C162.76617599 382.77462265 161.95531036 383.57272858 161.11987305 384.39501953 C160.05422874 385.44922844 160.05422874 385.44922844 158.96705627 386.5247345 C154.82613744 390.11672139 151.11436931 390.96743855 145.71533203 390.83325195 C138.89506673 389.45571249 133.79345931 383.90459295 128.71533203 379.43481445 C118.20608802 370.01477062 118.20608802 370.01477062 104.76220703 367.0871582 C97.75840411 368.28353735 91.24090744 372.10478104 84.94970703 375.2746582 C84.07958984 375.70907227 83.20947266 376.14348633 82.31298828 376.59106445 C81.61560547 376.94040039 80.91822266 377.28973633 80.19970703 377.6496582 C76.94970703 379.2746582 76.94970703 379.2746582 73.94970703 380.2746582 C72.80760886 382.05694757 72.80760886 382.05694757 71.94970703 384.2746582 C71.6195459 384.99596924 71.28938477 385.71728027 70.94921875 386.46044922 C69.74714826 389.84497939 69.38856463 392.97909933 69.02001953 396.55200195 C68.86299609 397.96677427 68.70542713 399.38148612 68.54736328 400.79614258 C68.30838571 403.00509031 68.07449251 405.21427608 67.85058594 407.42480469 C67.62992843 409.57322381 67.38881098 411.71860158 67.14501953 413.86450195 C66.94416748 415.78057251 66.94416748 415.78057251 66.73925781 417.73535156 C65.83228267 421.80103449 64.63368757 424.09587039 61.94970703 427.2746582 C57.72569576 429.79918772 54.58531633 430.65391318 49.68823242 430.67871094 C48.46999283 430.69139511 47.25175323 430.70407928 45.99659729 430.71714783 C44.04172646 430.71274437 44.04172646 430.71274437 42.04736328 430.70825195 C40.68265016 430.7128189 39.31793934 430.71812599 37.95323181 430.72413635 C35.09950388 430.73304712 32.24605611 430.73066799 29.39233398 430.72070312 C25.74957095 430.70921753 22.10777793 430.72942744 18.46514225 430.75862026 C15.64853352 430.7770369 12.83215491 430.77667904 10.01550102 430.77098274 C8.02422323 430.77075643 6.0329669 430.78760345 4.04176331 430.80479431 C-2.83889369 430.75194713 -7.52818547 430.55447616 -13.05029297 426.2746582 C-17.1004914 420.89441579 -16.96018251 413.95701586 -17.55029297 407.4621582 C-18.28271881 393.53703042 -18.28271881 393.53703042 -25.10498047 381.9777832 C-29.38532984 378.71635042 -34.16168559 376.87606418 -39.17529297 375.0246582 C-40.05572266 374.68692383 -40.93615234 374.34918945 -41.84326172 374.0012207 C-43.52366947 373.35744458 -45.20673386 372.72054468 -46.89282227 372.09179688 C-48.57445936 371.45487944 -50.23684876 370.76706694 -51.89013672 370.05981445 C-54.20687673 369.2177444 -56.02884372 368.97530766 -58.48779297 368.9621582 C-59.20837891 368.94540039 -59.92896484 368.92864258 -60.67138672 368.91137695 C-67.2599591 369.91751362 -72.01455779 374.49657931 -76.92529297 378.6496582 C-91.55377194 390.99507976 -91.55377194 390.99507976 -98.05029297 390.9621582 C-98.81341797 390.98665039 -99.57654297 391.01114258 -100.36279297 391.03637695 C-108.03360202 388.86223776 -114.14023063 381.48035284 -119.60107422 375.98950195 C-120.38169724 375.21079239 -121.16232025 374.43208282 -121.96659851 373.629776 C-123.60348075 371.99424651 -125.23787321 370.3562217 -126.86987305 368.71582031 C-129.36593967 366.20899794 -131.87255885 363.71308363 -134.38037109 361.21801758 C-135.97541416 359.62165361 -137.56983709 358.02466972 -139.16357422 356.42700195 C-139.91044998 355.68417465 -140.65732574 354.94134735 -141.42683411 354.17601013 C-150.42517735 345.09600785 -150.42517735 345.09600785 -150.73779297 338.6496582 C-150.49099509 331.67761821 -146.3488073 327.43824016 -142.05029297 322.2746582 C-140.5750237 320.44332428 -139.11032548 318.60416985 -137.65112305 316.76000977 C-136.68670342 315.54431456 -135.71418042 314.33499238 -134.73266602 313.13305664 C-130.11055334 307.38337714 -128.59050488 303.236392 -128.74755859 295.92797852 C-129.25636626 291.46852549 -130.93035937 287.69455002 -132.80029297 283.6496582 C-133.14833984 282.8555957 -133.49638672 282.0615332 -133.85498047 281.2434082 C-134.8899484 278.90514732 -135.96022452 276.58769385 -137.05029297 274.2746582 C-137.4005957 273.52716309 -137.75089844 272.77966797 -138.11181641 272.00952148 C-138.45245117 271.3029541 -138.79308594 270.59638672 -139.14404297 269.8684082 C-139.44503906 269.24385742 -139.74603516 268.61930664 -140.05615234 267.97583008 C-142.54570014 263.7157198 -145.85514668 261.64071444 -150.46826172 260.2277832 C-157.17293792 258.66115512 -164.09589484 258.22181681 -170.93896484 257.5949707 C-177.26696424 256.92364587 -181.9730729 256.24102341 -187.05029297 252.2746582 C-189.58885165 248.0595177 -190.42956287 244.90731916 -190.4543457 240.01318359 C-190.46702988 238.794944 -190.47971405 237.57670441 -190.49278259 236.32154846 C-190.48984695 235.01830124 -190.48691132 233.71505402 -190.48388672 232.37231445 C-190.48845366 231.00760133 -190.49376076 229.64289051 -190.49977112 228.27818298 C-190.50868188 225.42445506 -190.50630275 222.57100728 -190.49633789 219.71728516 C-190.4848523 216.07452212 -190.50506221 212.4327291 -190.53425503 208.79009342 C-190.55267167 205.97348469 -190.55231381 203.15710608 -190.54661751 200.34045219 C-190.54639119 198.34917441 -190.56323822 196.35791807 -190.58042908 194.36671448 C-190.49003615 182.59763329 -190.49003615 182.59763329 -186.05029297 177.2746582 C-181.75564029 174.391288 -177.84090003 173.76857577 -172.74560547 173.2824707 C-171.34321231 173.13319457 -169.94087001 172.98344002 -168.53857422 172.83325195 C-166.3583681 172.61332103 -164.17786343 172.39989837 -161.99609375 172.19604492 C-150.0347671 171.32607535 -150.0347671 171.32607535 -140.05029297 165.2746582 C-138.35792286 162.85012797 -137.22829411 160.91946076 -136.05029297 158.2746582 C-135.67324219 157.47801758 -135.29619141 156.68137695 -134.90771484 155.8605957 C-133.6625475 153.18238665 -132.47665163 150.48373173 -131.30029297 147.7746582 C-130.88908203 146.86329102 -130.47787109 145.95192383 -130.05419922 145.01293945 C-127.50630951 139.1468678 -126.15349076 134.54993079 -127.50341797 128.11450195 C-130.37029837 121.27052766 -135.21701371 116.20623348 -140.05419922 110.70043945 C-150.3777216 98.94065743 -150.3777216 98.94065743 -150.86279297 92.1496582 C-149.96428928 83.17279637 -141.84373431 76.76925523 -135.76513672 70.72387695 C-134.98642715 69.94325394 -134.20771759 69.16263092 -133.40541077 68.35835266 C-131.76988128 66.72147042 -130.13185646 65.08707797 -128.49145508 63.45507812 C-125.98463271 60.9590115 -123.4887184 58.45239232 -120.99365234 55.94458008 C-119.39728837 54.34953701 -117.80030448 52.75511408 -116.20263672 51.16137695 C-115.45980942 50.41450119 -114.71698212 49.66762543 -113.9516449 48.89811707 C-104.81914947 39.84775276 -104.81914947 39.84775276 -98.11279297 39.8371582 C-93.23525865 40.02365216 -90.86152371 41.08566922 -87.05029297 44.2746582 C-85.34301198 45.67177849 -83.6345438 47.06744854 -81.92529297 48.4621582 C-80.98298828 49.24075195 -80.04068359 50.0193457 -79.06982422 50.8215332 C-75.96082623 53.3473427 -72.81041495 55.80035899 -69.61279297 58.2121582 C-68.64470703 58.94305664 -67.67662109 59.67395508 -66.67919922 60.42700195 C-61.05405675 64.38048247 -56.86479096 65.0113281 -50.05029297 64.2746582 C-46.33759472 63.33701937 -42.84858511 62.01725858 -39.30029297 60.5871582 C-38.39408203 60.24749023 -37.48787109 59.90782227 -36.55419922 59.55786133 C-30.09926819 57.03714009 -25.31599261 54.53626978 -21.27294922 48.71606445 C-19.46923152 43.63914659 -19.0285101 38.55302257 -18.48779297 33.2121582 C-18.23479623 30.96596183 -17.98089886 28.71986669 -17.72607422 26.47387695 C-17.4129142 23.62373521 -17.10215987 20.7735536 -16.80566406 17.92163086 C-15.7802359 8.25431845 -15.7802359 8.25431845 -12.67529297 4.0871582 C-8.22712944 1.01580719 -5.47127422 0.02346172 0 0 Z M-4.05029297 12.2746582 C-4.20062988 13.74104736 -4.20062988 13.74104736 -4.35400391 15.23706055 C-4.73451927 18.91026037 -5.13430674 22.58116211 -5.53955078 26.25170898 C-5.71137212 27.83188616 -5.8781624 29.4126197 -6.03955078 30.99389648 C-8.54909784 55.48521685 -8.54909784 55.48521685 -18.05029297 63.2746582 C-30.68282288 71.13533904 -48.28395386 78.69399827 -63.35888672 75.8371582 C-71.88024498 73.07813495 -78.46588522 66.56627384 -85.16748047 60.86499023 C-87.75565786 58.67886634 -90.3971041 56.56888062 -93.05029297 54.4621582 C-93.83404297 53.83696289 -94.61779297 53.21176758 -95.42529297 52.56762695 C-95.96154297 52.14094727 -96.49779297 51.71426758 -97.05029297 51.2746582 C-100.24221074 52.68784389 -102.42814356 54.3824117 -104.91674805 56.81884766 C-105.66044144 57.54332596 -106.40413483 58.26780426 -107.17036438 59.01423645 C-108.358097 60.18921944 -108.358097 60.18921944 -109.56982422 61.38793945 C-110.38778976 62.19450485 -111.20575531 63.00107025 -112.04850769 63.83207703 C-113.7735141 65.53820669 -115.49564116 67.24725177 -117.21508789 68.95898438 C-119.85641337 71.58082566 -122.51827552 74.18059176 -125.18115234 76.78051758 C-126.85368999 78.4400019 -128.52495835 80.10076667 -130.19482422 81.76293945 C-130.99676712 82.54018875 -131.79871002 83.31743805 -132.62495422 84.11824036 C-133.35288681 84.85217514 -134.0808194 85.58610992 -134.83081055 86.34228516 C-135.47826736 86.98245071 -136.12572418 87.62261627 -136.7928009 88.28218079 C-138.31681346 90.25423238 -138.31681346 90.25423238 -137.83297729 92.89733887 C-136.96284287 95.54027845 -135.92509085 97.03985422 -134.10107422 99.13012695 C-133.50254639 99.83057129 -132.90401855 100.53101563 -132.28735352 101.25268555 C-131.65224854 101.98181152 -131.01714355 102.7109375 -130.36279297 103.4621582 C-120.51124267 115.07313595 -114.98932846 123.77692815 -115.828125 139.25463867 C-116.39183256 144.38004123 -118.79495551 148.71876348 -121.05029297 153.2746582 C-121.63112371 154.63273262 -122.20218816 155.9950118 -122.76513672 157.3605957 C-123.060896 158.07086914 -123.35665527 158.78114258 -123.66137695 159.51293945 C-124.23696772 160.89650726 -124.80837253 162.28182702 -125.37475586 163.66918945 C-127.92514253 169.62183835 -131.25834458 174.59156914 -136.92529297 178.0246582 C-137.54146484 178.41137695 -138.15763672 178.7980957 -138.79248047 179.1965332 C-144.02479796 181.69501007 -149.58894027 182.61010635 -155.29638672 183.3449707 C-156.49706787 183.50239746 -157.69774902 183.65982422 -158.93481445 183.82202148 C-160.43729736 184.0126416 -161.93978027 184.20326172 -163.48779297 184.3996582 C-168.29341797 185.0184082 -173.09904297 185.6371582 -178.05029297 186.2746582 C-178.05029297 205.4146582 -178.05029297 224.5546582 -178.05029297 244.2746582 C-163.08106711 246.52100283 -163.08106711 246.52100283 -148.05029297 248.2746582 C-144.69482422 249.40356445 -144.69482422 249.40356445 -141.86279297 250.8371582 C-140.92048828 251.29219727 -139.97818359 251.74723633 -139.00732422 252.21606445 C-131.23565638 257.62645937 -127.59366653 264.52692577 -124.30029297 273.2121582 C-123.92775391 274.14995117 -123.55521484 275.08774414 -123.17138672 276.05395508 C-114.53446453 298.01249046 -114.53446453 298.01249046 -118.55029297 309.2746582 C-122.73414341 318.56721024 -129.71787835 326.25016936 -136.46044922 333.7668457 C-138.30137267 336.12028009 -138.30137267 336.12028009 -137.87477112 338.67790222 C-136.90465825 341.7333457 -135.72194011 343.08712521 -133.44848633 345.33056641 C-132.30741676 346.47118279 -132.30741676 346.47118279 -131.14329529 347.63484192 C-130.31725296 348.44023911 -129.49121063 349.24563629 -128.64013672 350.07543945 C-127.79810196 350.91181442 -126.9560672 351.74818939 -126.08851624 352.60990906 C-123.39751579 355.27852309 -120.69294017 357.93289302 -117.98779297 360.5871582 C-116.16070959 362.39417975 -114.33452623 364.2021118 -112.50927734 366.01098633 C-108.03333839 370.44282761 -103.54617446 374.86305389 -99.05029297 379.2746582 C-95.0438212 377.38555986 -91.79064862 374.79497791 -88.36279297 372.0246582 C-68.79238641 356.47376276 -68.79238641 356.47376276 -55.16748047 356.86450195 C-50.86154777 357.43107205 -47.37503421 358.89169327 -43.46044922 360.7277832 C-40.84508207 361.91413531 -38.30835908 362.92986497 -35.60888672 363.8840332 C-25.4580881 367.49371935 -16.53008935 371.06896416 -10.67529297 380.7121582 C-5.78882599 392.06208832 -5.53651594 406.1163473 -4.05029297 418.2746582 C3.49468936 418.29778672 11.03966804 418.31557589 18.5846777 418.32647038 C22.08779588 418.33169809 25.59088988 418.33879371 29.09399414 418.35009766 C33.11751544 418.36300026 37.14101117 418.36788732 41.16455078 418.37231445 C43.05982765 418.38005638 43.05982765 418.38005638 44.99339294 418.38795471 C46.15452103 418.38803024 47.31564911 418.38810577 48.51196289 418.38818359 C49.54010605 418.39040421 50.56824921 418.39262482 51.62754822 418.39491272 C53.91105813 418.53650429 53.91105813 418.53650429 54.94970703 417.2746582 C55.17734324 415.19981942 55.34693501 413.11857143 55.49267578 411.03637695 C55.59773437 409.74022461 55.70279297 408.44407227 55.81103516 407.10864258 C55.97627396 405.05371248 56.1347471 402.99949957 56.27026367 400.94238281 C57.05029422 389.35800899 59.53301632 379.66986437 67.63720703 371.0246582 C74.02329692 365.8046291 82.04558221 363.04546325 89.68212891 360.14135742 C91.14985297 359.58037331 92.61030651 358.99981582 94.06103516 358.39624023 C101.611585 355.32448944 109.63381573 354.92396368 117.57861328 356.94262695 C126.32901114 360.80701586 133.70558829 368.14917335 140.94970703 374.2746582 C142.94742975 375.94407633 144.94867643 377.60920417 146.94970703 379.2746582 C150.22167155 377.84207049 152.3817466 376.08640504 154.89208984 373.55932617 C155.65257629 372.79868866 156.41306274 372.03805115 157.19659424 371.25436401 C158.00715271 370.43348297 158.81771118 369.61260193 159.65283203 368.7668457 C160.49062195 367.92622589 161.32841187 367.08560608 162.19158936 366.21951294 C164.86569134 363.5342182 167.53275428 360.84205165 170.19970703 358.1496582 C172.01174765 356.32758665 173.82424222 354.50596643 175.63720703 352.68481445 C180.07998739 348.21998569 184.51700869 343.74949537 188.94970703 339.2746582 C187.42878186 336.12419973 185.73682332 333.60989759 183.51220703 330.8996582 C182.80708984 330.0230957 182.10197266 329.1465332 181.37548828 328.2434082 C179.6409649 326.12064206 177.88966942 324.02165736 176.11767578 321.9309082 C168.75456468 313.10748777 162.90833328 304.1166758 163.43017578 292.0949707 C164.51305003 286.21651048 166.86190092 280.72350192 169.14599609 275.22583008 C169.88760758 273.42541726 170.58856353 271.60840091 171.28564453 269.7902832 C174.88018088 260.58643854 178.93379181 254.77446399 187.94970703 250.2746582 C192.31567138 248.62936902 196.31696129 247.87918617 200.95751953 247.45825195 C201.6054245 247.39686539 202.25332947 247.33547882 202.92086792 247.27223206 C204.97159328 247.07886682 207.0230121 246.89492274 209.07470703 246.7121582 C211.78604806 246.46489355 214.49679537 246.21229921 217.20751953 245.95825195 C218.40521973 245.85053467 219.60291992 245.74281738 220.83691406 245.63183594 C224.12580026 245.32297404 224.12580026 245.32297404 227.94970703 244.2746582 C227.94970703 225.1346582 227.94970703 205.9946582 227.94970703 186.2746582 C218.89170062 184.88111875 210.11812845 183.77008148 201.01416016 183.23950195 C191.08042151 182.48683841 183.27822296 179.61189839 175.98535156 172.66577148 C172.2842129 168.3183318 170.08608971 163.44290556 167.88720703 158.2121582 C167.41331543 157.10686768 166.93942383 156.00157715 166.45117188 154.86279297 C162.39074196 144.8739016 160.78425568 136.2333187 164.19970703 125.7121582 C167.16533113 119.88682516 170.93373186 114.94762798 175.19970703 110.0246582 C179.90450235 104.53480518 184.47498241 98.95460952 188.94970703 93.2746582 C187.51711931 90.00269368 185.76145387 87.84261864 183.234375 85.33227539 C182.47373749 84.57178894 181.71309998 83.81130249 180.92941284 83.027771 C180.1085318 82.21721252 179.28765076 81.40665405 178.44189453 80.5715332 C177.60127472 79.73374329 176.76065491 78.89595337 175.89456177 78.03277588 C173.20926703 75.35867389 170.51710048 72.69161096 167.82470703 70.0246582 C166.00263548 68.21261759 164.18101526 66.40012302 162.35986328 64.5871582 C157.89503451 60.14437785 153.4245442 55.70735655 148.94970703 51.2746582 C145.12492131 53.07431677 142.17464573 55.50883211 139.01220703 58.2746582 C134.43710208 62.20028382 129.82222982 66.05865976 125.07470703 69.7746582 C124.06666016 70.5687207 123.05861328 71.3627832 122.02001953 72.1809082 C113.66483489 77.87859137 104.7723975 79.0533462 94.94970703 77.2746582 C82.14017426 73.38315458 67.70215937 67.49739749 60.85327148 55.32617188 C57.17936209 47.07478235 56.86668046 38.59912474 56.26220703 29.7121582 C56.08986708 27.36405637 55.91303047 25.01638764 55.73173523 22.66896057 C55.62099559 21.21819019 55.51615232 19.76695518 55.4178009 18.31529236 C55.43843088 15.00769745 55.43843088 15.00769745 53.94970703 12.2746582 C52.13915678 12.18089767 50.32493502 12.15721711 48.51196289 12.16113281 C47.35083481 12.16120834 46.18970673 12.16128387 44.99339294 12.16136169 C43.72987503 12.16652298 42.46635712 12.17168427 41.16455078 12.17700195 C39.23561729 12.17912437 39.23561729 12.17912437 37.26771545 12.18128967 C33.84327261 12.18511402 30.41887194 12.19494358 26.9944458 12.20599365 C23.50232514 12.21620956 20.01019769 12.22078768 16.51806641 12.22583008 C9.66192925 12.23656594 2.80582016 12.25364136 -4.05029297 12.2746582 Z " fill="#FFBD73" transform="translate(235.05029296875,40.725341796875)"/>
<path d="M0 0 C2 2 2 2 2.1171875 5.54296875 C2.05259177 7.09190286 1.97046281 8.64016153 1.875 10.1875 C1.82496826 11.02539062 1.77493652 11.86328125 1.72338867 12.7265625 C0.50057996 30.0076568 -3.02694565 46.74756044 -9 63 C-9.23976563 63.65323242 -9.47953125 64.30646484 -9.7265625 64.97949219 C-17.96996186 86.86752923 -32.65585072 102.40132255 -53.7109375 112.2109375 C-66.27034101 117.68644259 -82.2554018 122.24950893 -96 121 C-98 119.625 -98 119.625 -99 118 C-99 117.34 -99 116.68 -99 116 C-105.435 116.495 -105.435 116.495 -112 117 C-115.00917852 123.91297768 -117.57731514 130.43687892 -119.12890625 137.8203125 C-120 140 -120 140 -121.92578125 141.3203125 C-124.64853069 142.21251288 -126.29167941 141.85525913 -129 141 C-131.34261557 138.65738443 -131.36950255 138.08306232 -131.5 134.875 C-131.32610442 125.65853442 -127.09712551 116.37191285 -122.328125 108.6328125 C-119.53049603 103.70440978 -119.37826229 99.50844253 -119.4375 93.9375 C-119.02366052 74.19666118 -113.42588669 57.02236539 -99 43 C-98.38640625 42.36578125 -97.7728125 41.7315625 -97.140625 41.078125 C-86.28402464 30.59269046 -72.26538921 27.53045075 -58.12084961 23.91259766 C-40.4423395 19.38338694 -23.34582367 13.87713616 -10.0234375 0.8203125 C-6.30475266 -2.52506807 -4.25242079 -2.07169218 0 0 Z " fill="#FFBD73" transform="translate(325,186)"/>
<path d="M0 0 C0.71370758 -0.00100708 1.42741516 -0.00201416 2.16275024 -0.00305176 C12.56561411 0.00688538 22.36028984 0.44399717 32.4375 3.25 C33.48164063 3.50523437 34.52578125 3.76046875 35.6015625 4.0234375 C67.4054921 12.6254929 94.56807387 35.14216647 111.18359375 63.23046875 C125.68683738 88.62805223 132.7390604 119.23074014 127.16796875 148.32421875 C126.29836215 150.61681798 125.36626011 151.74622093 123.4375 153.25 C120.4375 153.6875 120.4375 153.6875 117.4375 153.25 C115.33325783 151.13612743 114.46000147 149.95109836 114.36328125 146.9375 C114.49089844 146.050625 114.61851562 145.16375 114.75 144.25 C118.26240906 111.80954779 110.60733627 81.14990339 90.4375 55.25 C70.69145467 31.10336429 43.34105998 16.12156717 12.2734375 12.56640625 C-19.14539521 9.97483247 -49.22613051 19.11077249 -73.5625 39.25 C-74.41070312 39.93449219 -75.25890625 40.61898437 -76.1328125 41.32421875 C-98.3201311 60.13823029 -111.60020098 89.00400902 -114.3125 117.6875 C-114.41643729 119.54062588 -114.50093378 121.394983 -114.5625 123.25 C-114.60246094 124.11238281 -114.64242187 124.97476563 -114.68359375 125.86328125 C-115.41593316 154.94146376 -103.715494 183.88648201 -83.78320312 204.98657227 C-82.39039076 206.42152539 -80.97653974 207.83596026 -79.5625 209.25 C-78.68722656 210.12527344 -77.81195313 211.00054687 -76.91015625 211.90234375 C-55.95568336 231.8721718 -27.27798328 242.90959276 1.61572266 242.60107422 C33.20783786 241.62301133 60.81595804 229.12248428 83.4375 207.25 C84.17484375 206.5384375 84.9121875 205.826875 85.671875 205.09375 C95.46250079 194.9559389 102.40456947 182.00146345 108.4140625 169.33984375 C109.4375 167.25 109.4375 167.25 110.4375 166.25 C115.67800633 165.7943038 115.67800633 165.7943038 118.3125 167.375 C119.98244662 170.15824437 119.7187779 172.02092975 119.4375 175.25 C118.34410214 177.93947473 117.22521483 180.38702606 115.875 182.9375 C115.50930908 183.64302002 115.14361816 184.34854004 114.7668457 185.07543945 C108.88247669 196.27398173 101.86766284 205.87074598 93.4375 215.25 C92.35855469 216.4565625 92.35855469 216.4565625 91.2578125 217.6875 C77.80165989 231.90532163 60.59324812 241.47081508 42.4375 248.25 C41.78128662 248.50692627 41.12507324 248.76385254 40.44897461 249.02856445 C27.52601007 254.04147545 14.50954736 254.55537058 0.8125 254.625 C0.11665802 254.63276459 -0.57918396 254.64052917 -1.29611206 254.64852905 C-35.68810123 254.95053711 -67.03763037 239.76519866 -91.375 216 C-114.24579722 192.84706724 -127.0566034 161.09114227 -126.875 128.6875 C-126.87251251 127.98001617 -126.87002502 127.27253235 -126.86746216 126.54360962 C-126.67854747 91.78870441 -114.4334053 63.54478387 -90.5625 38.25 C-89.88960937 37.51265625 -89.21671875 36.7753125 -88.5234375 36.015625 C-73.48518413 20.13252594 -53.49902075 9.13597624 -32.5625 3.25 C-31.77488281 3.01796875 -30.98726563 2.7859375 -30.17578125 2.546875 C-20.33420602 -0.16004157 -10.12220067 0.00990587 0 0 Z " fill="#FFBD73" transform="translate(259.5625,128.75)"/>
<path d="M0 0 C0.33 0 0.66 0 1 0 C-0.64025133 25.42389561 -9.18671688 55.12307814 -28.78125 72.4609375 C-43.57185492 84.1766535 -61.69104622 89.66276701 -80.27734375 91.4453125 C-83.25509901 92.05197139 -84.23849811 92.56994128 -86 95 C-86.33 95.99 -86.66 96.98 -87 98 C-91.29 98 -95.58 98 -100 98 C-92.45653814 79.14134535 -72.74541403 67.50129253 -54.87890625 59.77734375 C-54.25886719 59.52082031 -53.63882813 59.26429688 -53 59 C-52.83318891 56.08347826 -52.83318891 56.08347826 -53 53 C-53.66 52.34 -54.32 51.68 -55 51 C-60.60550356 51.27190875 -64.86509599 53.03611289 -69.75 55.5625 C-70.44593262 55.91602539 -71.14186523 56.26955078 -71.85888672 56.63378906 C-78.02384092 59.84917445 -83.50319178 63.75289348 -89 68 C-90.97798223 69.37263484 -92.98001979 70.68974257 -95 72 C-95.62664569 59.04932249 -91.19111446 47.48157221 -82.625 37.75 C-81.1003035 36.15031843 -79.55991889 34.56535415 -78 33 C-77.44570312 32.4225 -76.89140625 31.845 -76.3203125 31.25 C-68.98760493 24.24562262 -59.36247344 21.08003894 -49.625 19.125 C-34.77703718 16.14162817 -11.13240482 11.13240482 0 0 Z " fill="#FFBD73" transform="translate(313,204)"/>
</svg>
